<svg width="395" height="496" viewBox="0 0 395 496" fill="none" xmlns="http://www.w3.org/2000/svg">
<rect x="0.5" y="0.5" width="394" height="495" rx="4.5" stroke="#8A38F5" stroke-dasharray="10 5"/>
<rect width="375" height="56" transform="translate(10 20)" fill="url(#paint0_linear_9003_8606)"/>
<rect width="375" height="56" transform="translate(10 20)" fill="url(#paint1_linear_9003_8606)"/>
<rect width="375" height="56" transform="translate(10 100)" fill="url(#paint2_linear_9003_8606)"/>
<rect width="375" height="56" transform="translate(10 100)" fill="url(#paint3_linear_9003_8606)"/>
<path d="M37.293 116.293C37.6835 115.902 38.3165 115.902 38.707 116.293C39.0976 116.683 39.0976 117.316 38.707 117.707L33.4141 123H45C45.5523 123 46 123.448 46 124C46 124.552 45.5523 125 45 125H33.4141L38.707 130.293C39.0976 130.683 39.0976 131.316 38.707 131.707C38.3165 132.098 37.6835 132.098 37.293 131.707L30.293 124.707C29.9024 124.316 29.9024 123.683 30.293 123.293L37.293 116.293Z" fill="#F4F2FF"/>
<rect width="375" height="56" transform="translate(10 180)" fill="url(#paint4_linear_9003_8606)"/>
<rect width="375" height="56" transform="translate(10 180)" fill="url(#paint5_linear_9003_8606)"/>
<path d="M37.293 196.293C37.6835 195.902 38.3165 195.902 38.707 196.293C39.0976 196.683 39.0976 197.316 38.707 197.707L33.4141 203H45C45.5523 203 46 203.448 46 204C46 204.552 45.5523 205 45 205H33.4141L38.707 210.293C39.0976 210.683 39.0976 211.316 38.707 211.707C38.3165 212.098 37.6835 212.098 37.293 211.707L30.293 204.707C29.9024 204.316 29.9024 203.683 30.293 203.293L37.293 196.293Z" fill="#F4F2FF"/>
<path d="M355 211C355 209.895 355.895 209 357 209C358.105 209 359 209.895 359 211C359 212.105 358.105 213 357 213C355.895 213 355 212.105 355 211ZM355 204C355 202.895 355.895 202 357 202C358.105 202 359 202.895 359 204C359 205.105 358.105 206 357 206C355.895 206 355 205.105 355 204ZM355 197C355 195.895 355.895 195 357 195C358.105 195 359 195.895 359 197C359 198.105 358.105 199 357 199C355.895 199 355 198.105 355 197Z" fill="#F4F2FF"/>
<rect width="375" height="56" transform="translate(10 260)" fill="url(#paint6_linear_9003_8606)"/>
<rect width="375" height="56" transform="translate(10 260)" fill="url(#paint7_linear_9003_8606)"/>
<path d="M37.293 276.293C37.6835 275.902 38.3165 275.902 38.707 276.293C39.0976 276.683 39.0976 277.316 38.707 277.707L33.4141 283H45C45.5523 283 46 283.448 46 284C46 284.552 45.5523 285 45 285H33.4141L38.707 290.293C39.0976 290.683 39.0976 291.316 38.707 291.707C38.3165 292.098 37.6835 292.098 37.293 291.707L30.293 284.707C29.9024 284.316 29.9024 283.683 30.293 283.293L37.293 276.293Z" fill="#F4F2FF"/>
<path d="M343.992 289.21C343.312 289.21 342.697 289.12 342.147 288.94C341.597 288.75 341.122 288.49 340.722 288.16C340.332 287.82 340.027 287.415 339.807 286.945C339.587 286.475 339.472 285.955 339.462 285.385L341.577 285.145C341.567 285.605 341.657 286.01 341.847 286.36C342.037 286.71 342.312 286.985 342.672 287.185C343.042 287.375 343.477 287.47 343.977 287.47C344.367 287.47 344.702 287.42 344.982 287.32C345.262 287.21 345.477 287.06 345.627 286.87C345.787 286.68 345.867 286.46 345.867 286.21C345.867 285.95 345.782 285.735 345.612 285.565C345.442 285.385 345.212 285.23 344.922 285.1C344.642 284.97 344.322 284.85 343.962 284.74C343.602 284.63 343.232 284.515 342.852 284.395C342.472 284.265 342.102 284.12 341.742 283.96C341.382 283.8 341.057 283.605 340.767 283.375C340.487 283.145 340.257 282.87 340.077 282.55C339.907 282.22 339.822 281.825 339.822 281.365C339.822 280.895 339.912 280.475 340.092 280.105C340.282 279.725 340.547 279.405 340.887 279.145C341.237 278.875 341.647 278.67 342.117 278.53C342.587 278.39 343.112 278.32 343.692 278.32C344.532 278.32 345.267 278.465 345.897 278.755C346.527 279.045 347.017 279.445 347.367 279.955C347.727 280.465 347.917 281.06 347.937 281.74L345.732 281.965C345.752 281.575 345.677 281.24 345.507 280.96C345.337 280.67 345.092 280.45 344.772 280.3C344.462 280.14 344.092 280.06 343.662 280.06C343.322 280.06 343.027 280.105 342.777 280.195C342.537 280.285 342.352 280.415 342.222 280.585C342.092 280.755 342.027 280.95 342.027 281.17C342.027 281.43 342.112 281.65 342.282 281.83C342.452 282 342.682 282.15 342.972 282.28C343.262 282.41 343.582 282.53 343.932 282.64C344.292 282.75 344.662 282.87 345.042 283C345.432 283.12 345.802 283.26 346.152 283.42C346.512 283.58 346.837 283.78 347.127 284.02C347.417 284.25 347.647 284.53 347.817 284.86C347.987 285.19 348.072 285.59 348.072 286.06C348.072 286.71 347.897 287.27 347.547 287.74C347.207 288.21 346.727 288.575 346.107 288.835C345.497 289.085 344.792 289.21 343.992 289.21ZM350.625 287.47L350.61 285.19L353.955 281.74H356.565L350.625 287.47ZM349.29 289V278.53H351.345V289H349.29ZM354.33 289L351.75 284.89L353.55 284.17L356.7 289H354.33ZM357.394 289V281.74H359.449V289H357.394ZM358.429 280.735C358.079 280.735 357.789 280.635 357.559 280.435C357.329 280.235 357.214 279.985 357.214 279.685C357.214 279.375 357.324 279.12 357.544 278.92C357.774 278.72 358.064 278.62 358.414 278.62C358.774 278.62 359.064 278.72 359.284 278.92C359.514 279.12 359.629 279.375 359.629 279.685C359.629 279.885 359.574 280.065 359.464 280.225C359.364 280.385 359.224 280.51 359.044 280.6C358.864 280.69 358.659 280.735 358.429 280.735ZM365.232 289.21C364.912 289.21 364.612 289.165 364.332 289.075C364.062 288.985 363.817 288.855 363.597 288.685C363.377 288.515 363.187 288.31 363.027 288.07V291.67H360.972V281.74H363.027V282.7C363.187 282.45 363.377 282.24 363.597 282.07C363.817 281.9 364.062 281.77 364.332 281.68C364.612 281.58 364.912 281.53 365.232 281.53C365.722 281.53 366.162 281.63 366.552 281.83C366.942 282.02 367.277 282.29 367.557 282.64C367.847 282.99 368.067 283.4 368.217 283.87C368.367 284.33 368.442 284.83 368.442 285.37C368.442 285.91 368.367 286.415 368.217 286.885C368.067 287.345 367.847 287.75 367.557 288.1C367.277 288.45 366.937 288.725 366.537 288.925C366.147 289.115 365.712 289.21 365.232 289.21ZM363.027 285.37C363.027 285.82 363.097 286.21 363.237 286.54C363.377 286.87 363.572 287.125 363.822 287.305C364.072 287.475 364.362 287.56 364.692 287.56C364.942 287.56 365.167 287.51 365.367 287.41C365.577 287.31 365.757 287.165 365.907 286.975C366.057 286.775 366.167 286.545 366.237 286.285C366.317 286.015 366.357 285.71 366.357 285.37C366.357 284.92 366.287 284.535 366.147 284.215C366.017 283.885 365.827 283.63 365.577 283.45C365.327 283.27 365.032 283.18 364.692 283.18C364.442 283.18 364.217 283.23 364.017 283.33C363.817 283.43 363.642 283.575 363.492 283.765C363.342 283.955 363.227 284.185 363.147 284.455C363.067 284.725 363.027 285.03 363.027 285.37Z" fill="#F4F2FF"/>
<rect width="375" height="56" transform="translate(10 340)" fill="url(#paint8_linear_9003_8606)"/>
<rect width="375" height="56" transform="translate(10 340)" fill="url(#paint9_linear_9003_8606)"/>
<path d="M37.293 356.293C37.6835 355.902 38.3165 355.902 38.707 356.293C39.0976 356.683 39.0976 357.316 38.707 357.707L33.4141 363H45C45.5523 363 46 363.448 46 364C46 364.552 45.5523 365 45 365H33.4141L38.707 370.293C39.0976 370.683 39.0976 371.316 38.707 371.707C38.3165 372.098 37.6835 372.098 37.293 371.707L30.293 364.707C29.9024 364.316 29.9024 363.683 30.293 363.293L37.293 356.293Z" fill="#F4F2FF"/>
<path d="M299 368.2V367C299 366.134 298.992 365.506 299.137 364.965C299.507 363.584 300.584 362.507 301.965 362.137C302.506 361.992 303.134 362 304 362C304.552 362 305 362.448 305 363C305 363.552 304.552 364 304 364C303.006 364 302.705 364.009 302.482 364.068C301.792 364.253 301.253 364.792 301.068 365.482C301.009 365.705 301 366.006 301 367V368.2C301 369.057 301 369.639 301.037 370.089C301.073 370.527 301.138 370.752 301.218 370.908C301.41 371.284 301.716 371.591 302.092 371.782C302.248 371.862 302.473 371.927 302.911 371.963C303.361 372 303.943 372 304.8 372H313.2C314.057 372 314.639 372 315.089 371.963C315.527 371.927 315.752 371.862 315.908 371.782C316.284 371.591 316.59 371.284 316.782 370.908C316.862 370.752 316.927 370.527 316.963 370.089C317 369.639 317 369.057 317 368.2V367C317 366.006 316.991 365.705 316.932 365.482C316.747 364.792 316.208 364.253 315.518 364.068C315.295 364.009 314.994 364 314 364C313.448 364 313 363.552 313 363C313 362.448 313.448 362 314 362C314.866 362 315.494 361.992 316.035 362.137C317.416 362.507 318.493 363.584 318.863 364.965C319.008 365.506 319 366.134 319 367V368.2C319 369.024 319.001 369.702 318.956 370.252C318.91 370.814 318.812 371.331 318.564 371.816C318.181 372.569 317.569 373.181 316.816 373.564C316.331 373.812 315.814 373.91 315.252 373.956C314.702 374.001 314.024 374 313.2 374H304.8C303.976 374 303.298 374.001 302.748 373.956C302.186 373.91 301.669 373.812 301.184 373.564C300.431 373.181 299.819 372.569 299.436 371.816C299.188 371.331 299.09 370.814 299.044 370.252C298.999 369.702 299 369.024 299 368.2ZM308 367V357.414L305.707 359.707C305.316 360.098 304.683 360.098 304.293 359.707C303.902 359.317 303.902 358.684 304.293 358.293L308.293 354.293L308.369 354.225C308.762 353.904 309.341 353.927 309.707 354.293L313.707 358.293C314.098 358.684 314.098 359.317 313.707 359.707C313.316 360.098 312.683 360.098 312.293 359.707L310 357.414V367C310 367.552 309.552 368 309 368C308.448 368 308 367.552 308 367Z" fill="#F4F2FF"/>
<path d="M355 371C355 369.895 355.895 369 357 369C358.105 369 359 369.895 359 371C359 372.105 358.105 373 357 373C355.895 373 355 372.105 355 371ZM355 364C355 362.895 355.895 362 357 362C358.105 362 359 362.895 359 364C359 365.105 358.105 366 357 366C355.895 366 355 365.105 355 364ZM355 357C355 355.895 355.895 355 357 355C358.105 355 359 355.895 359 357C359 358.105 358.105 359 357 359C355.895 359 355 358.105 355 357Z" fill="#F4F2FF"/>
<rect width="375" height="56" transform="translate(10 420)" fill="url(#paint10_linear_9003_8606)"/>
<rect width="375" height="56" transform="translate(10 420)" fill="url(#paint11_linear_9003_8606)"/>
<path d="M37.293 436.293C37.6835 435.902 38.3165 435.902 38.707 436.293C39.0976 436.683 39.0976 437.316 38.707 437.707L33.4141 443H45C45.5523 443 46 443.448 46 444C46 444.552 45.5523 445 45 445H33.4141L38.707 450.293C39.0976 450.683 39.0976 451.316 38.707 451.707C38.3165 452.098 37.6835 452.098 37.293 451.707L30.293 444.707C29.9024 444.316 29.9024 443.683 30.293 443.293L37.293 436.293Z" fill="#F4F2FF"/>
<path d="M313 451C313 449.895 313.895 449 315 449C316.105 449 317 449.895 317 451C317 452.105 316.105 453 315 453C313.895 453 313 452.105 313 451ZM313 444C313 442.895 313.895 442 315 442C316.105 442 317 442.895 317 444C317 445.105 316.105 446 315 446C313.895 446 313 445.105 313 444ZM313 437C313 435.895 313.895 435 315 435C316.105 435 317 435.895 317 437C317 438.105 316.105 439 315 439C313.895 439 313 438.105 313 437Z" fill="#F4F2FF"/>
<path d="M343.992 449.21C343.312 449.21 342.697 449.12 342.147 448.94C341.597 448.75 341.122 448.49 340.722 448.16C340.332 447.82 340.027 447.415 339.807 446.945C339.587 446.475 339.472 445.955 339.462 445.385L341.577 445.145C341.567 445.605 341.657 446.01 341.847 446.36C342.037 446.71 342.312 446.985 342.672 447.185C343.042 447.375 343.477 447.47 343.977 447.47C344.367 447.47 344.702 447.42 344.982 447.32C345.262 447.21 345.477 447.06 345.627 446.87C345.787 446.68 345.867 446.46 345.867 446.21C345.867 445.95 345.782 445.735 345.612 445.565C345.442 445.385 345.212 445.23 344.922 445.1C344.642 444.97 344.322 444.85 343.962 444.74C343.602 444.63 343.232 444.515 342.852 444.395C342.472 444.265 342.102 444.12 341.742 443.96C341.382 443.8 341.057 443.605 340.767 443.375C340.487 443.145 340.257 442.87 340.077 442.55C339.907 442.22 339.822 441.825 339.822 441.365C339.822 440.895 339.912 440.475 340.092 440.105C340.282 439.725 340.547 439.405 340.887 439.145C341.237 438.875 341.647 438.67 342.117 438.53C342.587 438.39 343.112 438.32 343.692 438.32C344.532 438.32 345.267 438.465 345.897 438.755C346.527 439.045 347.017 439.445 347.367 439.955C347.727 440.465 347.917 441.06 347.937 441.74L345.732 441.965C345.752 441.575 345.677 441.24 345.507 440.96C345.337 440.67 345.092 440.45 344.772 440.3C344.462 440.14 344.092 440.06 343.662 440.06C343.322 440.06 343.027 440.105 342.777 440.195C342.537 440.285 342.352 440.415 342.222 440.585C342.092 440.755 342.027 440.95 342.027 441.17C342.027 441.43 342.112 441.65 342.282 441.83C342.452 442 342.682 442.15 342.972 442.28C343.262 442.41 343.582 442.53 343.932 442.64C344.292 442.75 344.662 442.87 345.042 443C345.432 443.12 345.802 443.26 346.152 443.42C346.512 443.58 346.837 443.78 347.127 444.02C347.417 444.25 347.647 444.53 347.817 444.86C347.987 445.19 348.072 445.59 348.072 446.06C348.072 446.71 347.897 447.27 347.547 447.74C347.207 448.21 346.727 448.575 346.107 448.835C345.497 449.085 344.792 449.21 343.992 449.21ZM350.625 447.47L350.61 445.19L353.955 441.74H356.565L350.625 447.47ZM349.29 449V438.53H351.345V449H349.29ZM354.33 449L351.75 444.89L353.55 444.17L356.7 449H354.33ZM357.394 449V441.74H359.449V449H357.394ZM358.429 440.735C358.079 440.735 357.789 440.635 357.559 440.435C357.329 440.235 357.214 439.985 357.214 439.685C357.214 439.375 357.324 439.12 357.544 438.92C357.774 438.72 358.064 438.62 358.414 438.62C358.774 438.62 359.064 438.72 359.284 438.92C359.514 439.12 359.629 439.375 359.629 439.685C359.629 439.885 359.574 440.065 359.464 440.225C359.364 440.385 359.224 440.51 359.044 440.6C358.864 440.69 358.659 440.735 358.429 440.735ZM365.232 449.21C364.912 449.21 364.612 449.165 364.332 449.075C364.062 448.985 363.817 448.855 363.597 448.685C363.377 448.515 363.187 448.31 363.027 448.07V451.67H360.972V441.74H363.027V442.7C363.187 442.45 363.377 442.24 363.597 442.07C363.817 441.9 364.062 441.77 364.332 441.68C364.612 441.58 364.912 441.53 365.232 441.53C365.722 441.53 366.162 441.63 366.552 441.83C366.942 442.02 367.277 442.29 367.557 442.64C367.847 442.99 368.067 443.4 368.217 443.87C368.367 444.33 368.442 444.83 368.442 445.37C368.442 445.91 368.367 446.415 368.217 446.885C368.067 447.345 367.847 447.75 367.557 448.1C367.277 448.45 366.937 448.725 366.537 448.925C366.147 449.115 365.712 449.21 365.232 449.21ZM363.027 445.37C363.027 445.82 363.097 446.21 363.237 446.54C363.377 446.87 363.572 447.125 363.822 447.305C364.072 447.475 364.362 447.56 364.692 447.56C364.942 447.56 365.167 447.51 365.367 447.41C365.577 447.31 365.757 447.165 365.907 446.975C366.057 446.775 366.167 446.545 366.237 446.285C366.317 446.015 366.357 445.71 366.357 445.37C366.357 444.92 366.287 444.535 366.147 444.215C366.017 443.885 365.827 443.63 365.577 443.45C365.327 443.27 365.032 443.18 364.692 443.18C364.442 443.18 364.217 443.23 364.017 443.33C363.817 443.43 363.642 443.575 363.492 443.765C363.342 443.955 363.227 444.185 363.147 444.455C363.067 444.725 363.027 445.03 363.027 445.37Z" fill="#F4F2FF"/>
<defs>
<linearGradient id="paint0_linear_9003_8606" x1="187.5" y1="0" x2="187.5" y2="56" gradientUnits="userSpaceOnUse">
<stop stop-color="#090C18"/>
<stop offset="1" stop-color="#090C18" stop-opacity="0"/>
</linearGradient>
<linearGradient id="paint1_linear_9003_8606" x1="187.5" y1="0" x2="187.5" y2="56" gradientUnits="userSpaceOnUse">
<stop stop-color="#090C18"/>
<stop offset="1" stop-color="#090C18" stop-opacity="0"/>
</linearGradient>
<linearGradient id="paint2_linear_9003_8606" x1="187.5" y1="0" x2="187.5" y2="56" gradientUnits="userSpaceOnUse">
<stop stop-color="#090C18"/>
<stop offset="1" stop-color="#090C18" stop-opacity="0"/>
</linearGradient>
<linearGradient id="paint3_linear_9003_8606" x1="187.5" y1="0" x2="187.5" y2="56" gradientUnits="userSpaceOnUse">
<stop stop-color="#090C18"/>
<stop offset="1" stop-color="#090C18" stop-opacity="0"/>
</linearGradient>
<linearGradient id="paint4_linear_9003_8606" x1="187.5" y1="0" x2="187.5" y2="56" gradientUnits="userSpaceOnUse">
<stop stop-color="#090C18"/>
<stop offset="1" stop-color="#090C18" stop-opacity="0"/>
</linearGradient>
<linearGradient id="paint5_linear_9003_8606" x1="187.5" y1="0" x2="187.5" y2="56" gradientUnits="userSpaceOnUse">
<stop stop-color="#090C18"/>
<stop offset="1" stop-color="#090C18" stop-opacity="0"/>
</linearGradient>
<linearGradient id="paint6_linear_9003_8606" x1="187.5" y1="0" x2="187.5" y2="56" gradientUnits="userSpaceOnUse">
<stop stop-color="#090C18"/>
<stop offset="1" stop-color="#090C18" stop-opacity="0"/>
</linearGradient>
<linearGradient id="paint7_linear_9003_8606" x1="187.5" y1="0" x2="187.5" y2="56" gradientUnits="userSpaceOnUse">
<stop stop-color="#090C18"/>
<stop offset="1" stop-color="#090C18" stop-opacity="0"/>
</linearGradient>
<linearGradient id="paint8_linear_9003_8606" x1="187.5" y1="0" x2="187.5" y2="56" gradientUnits="userSpaceOnUse">
<stop stop-color="#090C18"/>
<stop offset="1" stop-color="#090C18" stop-opacity="0"/>
</linearGradient>
<linearGradient id="paint9_linear_9003_8606" x1="187.5" y1="0" x2="187.5" y2="56" gradientUnits="userSpaceOnUse">
<stop stop-color="#090C18"/>
<stop offset="1" stop-color="#090C18" stop-opacity="0"/>
</linearGradient>
<linearGradient id="paint10_linear_9003_8606" x1="187.5" y1="0" x2="187.5" y2="56" gradientUnits="userSpaceOnUse">
<stop stop-color="#090C18"/>
<stop offset="1" stop-color="#090C18" stop-opacity="0"/>
</linearGradient>
<linearGradient id="paint11_linear_9003_8606" x1="187.5" y1="0" x2="187.5" y2="56" gradientUnits="userSpaceOnUse">
<stop stop-color="#090C18"/>
<stop offset="1" stop-color="#090C18" stop-opacity="0"/>
</linearGradient>
</defs>
</svg>

