<svg width="19" height="19" viewBox="0 0 19 19" fill="none" xmlns="http://www.w3.org/2000/svg">
<path d="M15.5697 8.56325H3.11397V13.39C3.11397 14.0567 3.11424 14.5099 3.14286 14.8603C3.17074 15.2016 3.22147 15.3764 3.2835 15.4981C3.43276 15.791 3.67101 16.0293 3.96391 16.1785C4.08567 16.2406 4.26045 16.2913 4.60175 16.3192C4.9521 16.3478 5.40536 16.3481 6.07205 16.3481H12.6116C13.2783 16.3481 13.7315 16.3478 14.0819 16.3192C14.4232 16.2913 14.598 16.2406 14.7197 16.1785C15.0126 16.0293 15.2509 15.791 15.4001 15.4981C15.4622 15.3764 15.5129 15.2016 15.5408 14.8603C15.5694 14.5099 15.5697 14.0567 15.5697 13.39V8.56325ZM11.6773 4.67085V3.89237H7.00638V4.67085C7.00638 5.10079 6.65784 5.44933 6.22789 5.44933C5.79795 5.44933 5.44941 5.10079 5.44941 4.67085V3.89465C5.10263 3.89708 4.83028 3.90259 4.60175 3.92126C4.26045 3.94914 4.08567 3.99986 3.96391 4.0619C3.67101 4.21116 3.43276 4.4494 3.2835 4.74231C3.22147 4.86406 3.17074 5.03885 3.14286 5.38015C3.11424 5.73049 3.11397 6.18376 3.11397 6.85044V7.00629H15.5697V6.85044C15.5697 6.18376 15.5694 5.73049 15.5408 5.38015C15.5129 5.03885 15.4622 4.86406 15.4001 4.74231C15.2509 4.4494 15.0126 4.21116 14.7197 4.0619C14.598 3.99986 14.4232 3.94914 14.0819 3.92126C13.8534 3.90259 13.581 3.89708 13.2342 3.89465V4.67085C13.2342 5.10079 12.8857 5.44933 12.4557 5.44933C12.0258 5.44933 11.6773 5.10079 11.6773 4.67085ZM17.1266 13.39C17.1266 14.0311 17.1274 14.5588 17.0924 14.9872C17.0567 15.4248 16.9801 15.8273 16.7876 16.2051C16.489 16.7909 16.0126 17.2674 15.4267 17.566C15.0489 17.7585 14.6464 17.8351 14.2088 17.8708C13.7804 17.9058 13.2527 17.905 12.6116 17.905H6.07205C5.43097 17.905 4.90325 17.9058 4.47479 17.8708C4.03724 17.8351 3.6347 17.7585 3.25689 17.566C2.67108 17.2674 2.1946 16.7909 1.89607 16.2051C1.70357 15.8273 1.62697 15.4248 1.59122 14.9872C1.55621 14.5588 1.55701 14.0311 1.55701 13.39V6.85044C1.55701 6.20937 1.55621 5.68165 1.59122 5.25319C1.62697 4.81564 1.70357 4.41309 1.89607 4.03529C2.1946 3.44948 2.67108 2.97299 3.25689 2.67447C3.6347 2.48197 4.03724 2.40537 4.47479 2.36961C4.75567 2.34667 5.07928 2.34023 5.44941 2.33769V1.55692C5.44941 1.12698 5.79795 0.778442 6.22789 0.778442C6.65784 0.778442 7.00638 1.12698 7.00638 1.55692V2.3354H11.6773V1.55692C11.6773 1.12698 12.0258 0.778442 12.4557 0.778442C12.8857 0.778442 13.2342 1.12698 13.2342 1.55692V2.33769C13.6044 2.34023 13.928 2.34667 14.2088 2.36961C14.6464 2.40537 15.0489 2.48197 15.4267 2.67447C16.0126 2.97299 16.489 3.44948 16.7876 4.03529C16.9801 4.41309 17.0567 4.81564 17.0924 5.25319C17.1274 5.68165 17.1266 6.20937 17.1266 6.85044V13.39Z" fill="#2B7FFF"/>
</svg>

