<svg width="334" height="120" viewBox="0 0 334 120" fill="none" xmlns="http://www.w3.org/2000/svg">
<g filter="url(#filter0_i_437_668)">
<path d="M0 28C0 12.536 12.536 0 28 0H306C321.464 0 334 12.536 334 28V28C334 43.464 321.464 56 306 56H28C12.536 56 0 43.464 0 28V28Z" fill="#F4F2FF"/>
<path d="M131.388 33.288C130.412 33.288 129.524 33.08 128.724 32.664C127.94 32.248 127.268 31.656 126.708 30.888C126.148 30.12 125.716 29.208 125.412 28.152C125.124 27.096 124.98 25.92 124.98 24.624C124.98 23.6 125.076 22.648 125.268 21.768C125.46 20.872 125.74 20.072 126.108 19.368C126.476 18.648 126.924 18.04 127.452 17.544C127.98 17.032 128.572 16.64 129.228 16.368C129.9 16.096 130.628 15.96 131.412 15.96C132.18 15.96 132.892 16.096 133.548 16.368C134.22 16.64 134.812 17.056 135.324 17.616C135.852 18.176 136.3 18.88 136.668 19.728C137.036 20.576 137.3 21.576 137.46 22.728L133.356 23.112C133.292 22.152 133.164 21.384 132.972 20.808C132.78 20.232 132.54 19.824 132.252 19.584C131.98 19.328 131.676 19.2 131.34 19.2C131.052 19.2 130.788 19.288 130.548 19.464C130.324 19.624 130.116 19.864 129.924 20.184C129.748 20.488 129.596 20.864 129.468 21.312C129.34 21.744 129.244 22.24 129.18 22.8C129.116 23.36 129.084 23.968 129.084 24.624C129.084 25.712 129.172 26.664 129.348 27.48C129.54 28.296 129.804 28.928 130.14 29.376C130.476 29.824 130.868 30.048 131.316 30.048C131.684 30.048 132.012 29.896 132.3 29.592C132.604 29.288 132.844 28.872 133.02 28.344C133.212 27.8 133.324 27.168 133.356 26.448L137.412 26.64C137.348 27.632 137.156 28.536 136.836 29.352C136.532 30.168 136.116 30.872 135.588 31.464C135.06 32.04 134.444 32.488 133.74 32.808C133.036 33.128 132.252 33.288 131.388 33.288ZM143.475 33.288C142.739 33.288 142.067 33.144 141.459 32.856C140.851 32.568 140.331 32.16 139.899 31.632C139.483 31.088 139.155 30.44 138.915 29.688C138.691 28.936 138.579 28.096 138.579 27.168C138.579 26.24 138.691 25.4 138.915 24.648C139.155 23.896 139.483 23.256 139.899 22.728C140.331 22.184 140.851 21.768 141.459 21.48C142.067 21.192 142.739 21.048 143.475 21.048C144.227 21.048 144.899 21.192 145.491 21.48C146.099 21.768 146.619 22.184 147.051 22.728C147.483 23.272 147.811 23.92 148.035 24.672C148.259 25.424 148.371 26.256 148.371 27.168C148.371 28.08 148.259 28.912 148.035 29.664C147.811 30.416 147.483 31.064 147.051 31.608C146.619 32.152 146.099 32.568 145.491 32.856C144.899 33.144 144.227 33.288 143.475 33.288ZM143.475 30.216C143.667 30.216 143.827 30.152 143.955 30.024C144.099 29.88 144.211 29.68 144.291 29.424C144.387 29.168 144.459 28.848 144.507 28.464C144.555 28.08 144.579 27.648 144.579 27.168C144.579 26.512 144.539 25.96 144.459 25.512C144.379 25.064 144.259 24.72 144.099 24.48C143.939 24.24 143.731 24.12 143.475 24.12C143.299 24.12 143.139 24.192 142.995 24.336C142.867 24.464 142.755 24.656 142.659 24.912C142.579 25.168 142.515 25.488 142.467 25.872C142.419 26.24 142.395 26.672 142.395 27.168C142.395 27.824 142.435 28.384 142.515 28.848C142.595 29.296 142.715 29.64 142.875 29.88C143.035 30.104 143.235 30.216 143.475 30.216ZM155.842 33V25.848C155.842 25.288 155.762 24.864 155.602 24.576C155.458 24.272 155.226 24.12 154.906 24.12C154.634 24.12 154.418 24.232 154.258 24.456C154.114 24.68 154.01 25.024 153.946 25.488C153.882 25.936 153.85 26.496 153.85 27.168V33H150.034V21.336H153.85V22.44C154.058 22.136 154.298 21.888 154.57 21.696C154.842 21.488 155.138 21.328 155.458 21.216C155.778 21.104 156.114 21.048 156.466 21.048C157.09 21.048 157.642 21.216 158.122 21.552C158.602 21.888 158.978 22.392 159.25 23.064C159.522 23.736 159.658 24.576 159.658 25.584V33H155.842ZM166.231 33.288C165.383 33.288 164.671 33.112 164.095 32.76C163.519 32.392 163.087 31.896 162.799 31.272C162.511 30.648 162.367 29.92 162.367 29.088V17.856H166.183V28.56C166.183 29.136 166.255 29.552 166.399 29.808C166.559 30.064 166.783 30.192 167.071 30.192C167.279 30.192 167.455 30.144 167.599 30.048C167.743 29.952 167.871 29.824 167.983 29.664L168.415 32.616C168.239 32.776 168.031 32.904 167.791 33C167.551 33.112 167.295 33.184 167.023 33.216C166.767 33.264 166.503 33.288 166.231 33.288ZM160.879 24.36V21.336H168.199V24.36H160.879ZM169.877 33V21.336H173.693V33H169.877ZM169.805 19.68V16.248H173.765V19.68H169.805ZM181.529 33V25.848C181.529 25.288 181.449 24.864 181.289 24.576C181.145 24.272 180.913 24.12 180.593 24.12C180.321 24.12 180.105 24.232 179.945 24.456C179.801 24.68 179.697 25.024 179.633 25.488C179.569 25.936 179.537 26.496 179.537 27.168V33H175.721V21.336H179.537V22.44C179.745 22.136 179.985 21.888 180.257 21.696C180.529 21.488 180.825 21.328 181.145 21.216C181.465 21.104 181.801 21.048 182.153 21.048C182.777 21.048 183.329 21.216 183.809 21.552C184.289 21.888 184.665 22.392 184.937 23.064C185.209 23.736 185.345 24.576 185.345 25.584V33H181.529ZM190.427 33.288C189.803 33.288 189.251 33.12 188.771 32.784C188.291 32.448 187.915 31.944 187.643 31.272C187.371 30.6 187.235 29.76 187.235 28.752V21.336H191.051V28.488C191.051 29.032 191.131 29.456 191.291 29.76C191.451 30.064 191.683 30.216 191.987 30.216C192.259 30.216 192.467 30.104 192.611 29.88C192.771 29.64 192.883 29.296 192.947 28.848C193.011 28.4 193.043 27.84 193.043 27.168V21.336H196.859V33H193.043V31.896C192.835 32.2 192.595 32.456 192.323 32.664C192.051 32.856 191.755 33.008 191.435 33.12C191.131 33.232 190.795 33.288 190.427 33.288ZM203.549 33.288C202.813 33.288 202.133 33.144 201.509 32.856C200.885 32.552 200.349 32.128 199.901 31.584C199.453 31.04 199.101 30.4 198.845 29.664C198.605 28.912 198.485 28.08 198.485 27.168C198.485 26.272 198.605 25.456 198.845 24.72C199.085 23.968 199.429 23.32 199.877 22.776C200.325 22.216 200.861 21.792 201.485 21.504C202.109 21.2 202.805 21.048 203.573 21.048C204.469 21.048 205.245 21.248 205.901 21.648C206.573 22.032 207.109 22.56 207.509 23.232C207.925 23.888 208.197 24.632 208.325 25.464C208.469 26.28 208.445 27.128 208.253 28.008H200.453L202.181 26.112C202.053 26.752 201.989 27.328 201.989 27.84C202.005 28.336 202.077 28.768 202.205 29.136C202.333 29.488 202.509 29.76 202.733 29.952C202.957 30.128 203.221 30.216 203.525 30.216C203.829 30.216 204.077 30.112 204.269 29.904C204.461 29.696 204.581 29.4 204.629 29.016L208.229 29.256C208.133 30.04 207.861 30.736 207.413 31.344C206.981 31.952 206.429 32.432 205.757 32.784C205.101 33.12 204.365 33.288 203.549 33.288ZM202.277 25.656H204.581C204.565 25.304 204.509 25 204.413 24.744C204.333 24.488 204.213 24.288 204.053 24.144C203.909 24 203.725 23.928 203.501 23.928C203.261 23.928 203.053 24.008 202.877 24.168C202.717 24.312 202.581 24.52 202.469 24.792C202.373 25.048 202.309 25.336 202.277 25.656Z" fill="#090C18"/>
</g>
<g filter="url(#filter1_i_437_668)">
<path d="M0 92C0 76.536 12.536 64 28 64H306C321.464 64 334 76.536 334 92V92C334 107.464 321.464 120 306 120H28C12.536 120 0 107.464 0 92V92Z" fill="white" fill-opacity="0.1"/>
<path d="M117.904 97.288C117.056 97.288 116.288 97.144 115.6 96.856C114.912 96.552 114.32 96.128 113.824 95.584C113.344 95.04 112.968 94.384 112.696 93.616C112.424 92.848 112.272 91.992 112.24 91.048L116.056 90.64C116.056 91.312 116.12 91.904 116.248 92.416C116.392 92.912 116.592 93.304 116.848 93.592C117.12 93.864 117.456 94 117.856 94C118.128 94 118.36 93.944 118.552 93.832C118.76 93.704 118.92 93.536 119.032 93.328C119.16 93.12 119.224 92.888 119.224 92.632C119.224 92.296 119.128 92 118.936 91.744C118.76 91.488 118.512 91.256 118.192 91.048C117.888 90.824 117.536 90.616 117.136 90.424C116.752 90.216 116.352 90 115.936 89.776C115.536 89.536 115.136 89.272 114.736 88.984C114.352 88.696 114 88.36 113.68 87.976C113.376 87.592 113.128 87.144 112.936 86.632C112.76 86.12 112.672 85.528 112.672 84.856C112.672 84.136 112.784 83.48 113.008 82.888C113.248 82.28 113.584 81.76 114.016 81.328C114.448 80.88 114.968 80.544 115.576 80.32C116.2 80.08 116.904 79.96 117.688 79.96C118.808 79.96 119.76 80.2 120.544 80.68C121.344 81.144 121.952 81.8 122.368 82.648C122.784 83.48 122.992 84.456 122.992 85.576L119.008 85.912C119.056 85.304 119.024 84.808 118.912 84.424C118.8 84.024 118.64 83.728 118.432 83.536C118.24 83.344 118.008 83.248 117.736 83.248C117.544 83.248 117.368 83.296 117.208 83.392C117.064 83.472 116.944 83.6 116.848 83.776C116.768 83.952 116.728 84.168 116.728 84.424C116.728 84.792 116.816 85.12 116.992 85.408C117.184 85.696 117.432 85.96 117.736 86.2C118.056 86.424 118.408 86.648 118.792 86.872C119.192 87.096 119.592 87.328 119.992 87.568C120.408 87.792 120.808 88.048 121.192 88.336C121.592 88.624 121.944 88.952 122.248 89.32C122.568 89.688 122.816 90.112 122.992 90.592C123.184 91.072 123.28 91.632 123.28 92.272C123.28 93.264 123.048 94.136 122.584 94.888C122.12 95.64 121.48 96.232 120.664 96.664C119.864 97.08 118.944 97.288 117.904 97.288ZM124.87 97V85.336H128.686V97H124.87ZM124.798 83.68V80.248H128.758V83.68H124.798ZM134.889 101.56C133.801 101.56 132.897 101.424 132.177 101.152C131.457 100.88 130.921 100.504 130.569 100.024C130.217 99.544 130.041 98.992 130.041 98.368C130.041 97.808 130.153 97.344 130.377 96.976C130.617 96.608 130.921 96.32 131.289 96.112C131.673 95.888 132.073 95.736 132.489 95.656L133.281 96.64C133.105 96.848 133.009 97.016 132.993 97.144C132.977 97.288 132.969 97.424 132.969 97.552C132.969 97.792 133.033 98.024 133.161 98.248C133.305 98.472 133.529 98.648 133.833 98.776C134.137 98.92 134.537 98.992 135.033 98.992C135.401 98.992 135.697 98.952 135.921 98.872C136.145 98.792 136.313 98.68 136.425 98.536C136.537 98.408 136.593 98.248 136.593 98.056C136.593 97.752 136.489 97.544 136.281 97.432C136.089 97.32 135.857 97.264 135.585 97.264C135.409 97.264 135.225 97.28 135.033 97.312C134.857 97.344 134.657 97.376 134.433 97.408C134.225 97.456 133.977 97.48 133.689 97.48C132.921 97.48 132.305 97.328 131.841 97.024C131.393 96.72 131.065 96.344 130.857 95.896C130.665 95.448 130.569 95.008 130.569 94.576C130.569 94.16 130.649 93.776 130.809 93.424C130.969 93.056 131.209 92.72 131.529 92.416C131.849 92.096 132.241 91.808 132.705 91.552L134.265 92.968C134.297 92.968 134.257 93.064 134.145 93.256C134.033 93.432 133.977 93.632 133.977 93.856C133.977 94.08 134.049 94.224 134.193 94.288C134.337 94.352 134.481 94.384 134.625 94.384C134.801 94.384 134.985 94.368 135.177 94.336C135.369 94.304 135.577 94.272 135.801 94.24C136.041 94.192 136.297 94.168 136.569 94.168C137.273 94.168 137.889 94.312 138.417 94.6C138.945 94.888 139.353 95.296 139.641 95.824C139.945 96.352 140.097 96.984 140.097 97.72C140.097 98.536 139.897 99.224 139.497 99.784C139.113 100.36 138.537 100.8 137.769 101.104C137.001 101.408 136.041 101.56 134.889 101.56ZM134.745 93.568C133.961 93.568 133.225 93.392 132.537 93.04C131.865 92.688 131.321 92.2 130.905 91.576C130.489 90.936 130.281 90.2 130.281 89.368C130.281 88.52 130.489 87.776 130.905 87.136C131.321 86.48 131.865 85.968 132.537 85.6C133.225 85.232 133.961 85.048 134.745 85.048C135.529 85.048 136.257 85.232 136.929 85.6C137.601 85.968 138.145 86.48 138.561 87.136C138.993 87.776 139.209 88.52 139.209 89.368C139.209 90.2 138.993 90.936 138.561 91.576C138.145 92.2 137.601 92.688 136.929 93.04C136.257 93.392 135.529 93.568 134.745 93.568ZM134.745 91.168C134.937 91.168 135.097 91.08 135.225 90.904C135.369 90.728 135.473 90.496 135.537 90.208C135.617 89.92 135.657 89.608 135.657 89.272C135.657 88.776 135.577 88.352 135.417 88C135.257 87.632 135.033 87.448 134.745 87.448C134.553 87.448 134.385 87.536 134.241 87.712C134.113 87.872 134.009 88.088 133.929 88.36C133.865 88.632 133.833 88.936 133.833 89.272C133.833 89.784 133.905 90.232 134.049 90.616C134.209 90.984 134.441 91.168 134.745 91.168ZM137.193 88.744L135.825 86.728C136.337 86.2 136.881 85.704 137.457 85.24C138.049 84.776 138.665 84.392 139.305 84.088L140.817 86.656C140.225 86.864 139.593 87.144 138.921 87.496C138.265 87.848 137.689 88.264 137.193 88.744ZM147.404 97V89.848C147.404 89.288 147.324 88.864 147.164 88.576C147.02 88.272 146.788 88.12 146.468 88.12C146.196 88.12 145.98 88.232 145.82 88.456C145.676 88.68 145.572 89.024 145.508 89.488C145.444 89.936 145.412 90.496 145.412 91.168V97H141.596V85.336H145.412V86.44C145.62 86.136 145.86 85.888 146.132 85.696C146.404 85.488 146.7 85.328 147.02 85.216C147.34 85.104 147.676 85.048 148.028 85.048C148.652 85.048 149.204 85.216 149.684 85.552C150.164 85.888 150.54 86.392 150.812 87.064C151.084 87.736 151.22 88.576 151.22 89.584V97H147.404ZM162.89 97.288C162.586 97.288 162.306 97.248 162.05 97.168C161.794 97.088 161.562 96.976 161.354 96.832C161.162 96.672 160.986 96.488 160.826 96.28V97H157.01V80.248H160.826V86.056C160.986 85.832 161.162 85.648 161.354 85.504C161.562 85.36 161.794 85.248 162.05 85.168C162.306 85.088 162.586 85.048 162.89 85.048C163.546 85.048 164.114 85.208 164.594 85.528C165.074 85.832 165.474 86.264 165.794 86.824C166.13 87.384 166.378 88.032 166.538 88.768C166.698 89.504 166.778 90.304 166.778 91.168C166.778 92.032 166.698 92.832 166.538 93.568C166.378 94.304 166.13 94.952 165.794 95.512C165.474 96.072 165.074 96.512 164.594 96.832C164.114 97.136 163.546 97.288 162.89 97.288ZM160.826 91.168C160.826 91.808 160.858 92.36 160.922 92.824C161.002 93.272 161.122 93.616 161.282 93.856C161.442 94.096 161.634 94.216 161.858 94.216C162.05 94.216 162.21 94.152 162.338 94.024C162.482 93.88 162.594 93.68 162.674 93.424C162.77 93.152 162.842 92.832 162.89 92.464C162.938 92.08 162.962 91.648 162.962 91.168C162.962 90.528 162.922 89.984 162.842 89.536C162.762 89.088 162.642 88.744 162.482 88.504C162.322 88.248 162.114 88.12 161.858 88.12C161.682 88.12 161.53 88.192 161.402 88.336C161.274 88.464 161.162 88.656 161.066 88.912C160.986 89.168 160.922 89.488 160.874 89.872C160.842 90.256 160.826 90.688 160.826 91.168ZM173.904 97C173.856 96.84 173.816 96.648 173.784 96.424C173.752 96.2 173.728 95.952 173.712 95.68C173.696 95.408 173.688 95.128 173.688 94.84V88.84C173.688 88.568 173.616 88.352 173.472 88.192C173.328 88.016 173.128 87.928 172.872 87.928C172.568 87.928 172.312 88.08 172.104 88.384C171.912 88.672 171.808 89.064 171.792 89.56L168.12 89.152C168.184 88.544 168.352 87.992 168.624 87.496C168.896 87 169.248 86.568 169.68 86.2C170.128 85.832 170.632 85.552 171.192 85.36C171.768 85.152 172.392 85.048 173.064 85.048C173.96 85.048 174.736 85.232 175.392 85.6C176.048 85.968 176.56 86.504 176.928 87.208C177.296 87.896 177.48 88.752 177.48 89.776V94.36C177.48 94.712 177.488 95.072 177.504 95.44C177.536 95.792 177.584 96.112 177.648 96.4C177.712 96.672 177.792 96.872 177.888 97H173.904ZM171.144 97.288C170.584 97.288 170.064 97.168 169.584 96.928C169.104 96.672 168.72 96.304 168.432 95.824C168.16 95.344 168.024 94.76 168.024 94.072C168.024 93.48 168.12 92.984 168.312 92.584C168.52 92.184 168.792 91.856 169.128 91.6C169.464 91.344 169.832 91.128 170.232 90.952C170.632 90.776 171.032 90.624 171.432 90.496C171.832 90.368 172.2 90.232 172.536 90.088C172.872 89.944 173.144 89.776 173.352 89.584C173.56 89.392 173.672 89.144 173.688 88.84L174 91.648C173.92 91.744 173.808 91.84 173.664 91.936C173.536 92.032 173.392 92.128 173.232 92.224C173.088 92.304 172.936 92.392 172.776 92.488C172.632 92.584 172.496 92.696 172.368 92.824C172.24 92.936 172.136 93.072 172.056 93.232C171.992 93.376 171.96 93.544 171.96 93.736C171.96 93.976 172.016 94.16 172.128 94.288C172.256 94.416 172.4 94.48 172.56 94.48C172.736 94.48 172.896 94.416 173.04 94.288C173.184 94.16 173.304 93.984 173.4 93.76C173.496 93.52 173.568 93.248 173.616 92.944C173.664 92.624 173.688 92.288 173.688 91.936L174.096 93.64C174.112 94.392 174 95.04 173.76 95.584C173.536 96.128 173.2 96.552 172.752 96.856C172.32 97.144 171.784 97.288 171.144 97.288ZM184.065 97.288C183.073 97.288 182.193 97.032 181.425 96.52C180.673 95.992 180.081 95.272 179.649 94.36C179.217 93.432 179.001 92.368 179.001 91.168C179.001 90.272 179.121 89.456 179.361 88.72C179.601 87.968 179.945 87.32 180.393 86.776C180.841 86.232 181.369 85.816 181.977 85.528C182.601 85.224 183.281 85.072 184.017 85.072C184.673 85.072 185.273 85.192 185.817 85.432C186.377 85.656 186.865 85.976 187.281 86.392C187.713 86.808 188.049 87.304 188.289 87.88C188.545 88.456 188.689 89.096 188.721 89.8L185.097 90.256C185.097 89.76 185.041 89.36 184.929 89.056C184.833 88.752 184.705 88.528 184.545 88.384C184.401 88.224 184.233 88.144 184.041 88.144C183.865 88.144 183.697 88.216 183.537 88.36C183.393 88.504 183.265 88.704 183.153 88.96C183.041 89.216 182.953 89.528 182.889 89.896C182.841 90.264 182.817 90.68 182.817 91.144C182.817 92.072 182.937 92.816 183.177 93.376C183.417 93.936 183.713 94.216 184.065 94.216C184.353 94.216 184.585 94.032 184.761 93.664C184.953 93.296 185.065 92.808 185.097 92.2L188.721 92.56C188.609 93.536 188.337 94.376 187.905 95.08C187.489 95.784 186.953 96.328 186.297 96.712C185.641 97.096 184.897 97.288 184.065 97.288ZM192.836 95.512V90.688L196.148 85.336H200.684L192.836 95.512ZM190.268 97V80.248H194.084V97H190.268ZM196.532 97L193.604 90.616L197.18 89.344L200.9 97H196.532ZM205.377 97V85.336H209.193V97H205.377ZM205.305 83.68V80.248H209.265V83.68H205.305ZM217.029 97V89.848C217.029 89.288 216.949 88.864 216.789 88.576C216.645 88.272 216.413 88.12 216.093 88.12C215.821 88.12 215.605 88.232 215.445 88.456C215.301 88.68 215.197 89.024 215.133 89.488C215.069 89.936 215.037 90.496 215.037 91.168V97H211.221V85.336H215.037V86.44C215.245 86.136 215.485 85.888 215.757 85.696C216.029 85.488 216.325 85.328 216.645 85.216C216.965 85.104 217.301 85.048 217.653 85.048C218.277 85.048 218.829 85.216 219.309 85.552C219.789 85.888 220.165 86.392 220.437 87.064C220.709 87.736 220.845 88.576 220.845 89.584V97H217.029Z" fill="#F4F2FF"/>
</g>
<defs>
<filter id="filter0_i_437_668" x="0" y="0" width="334" height="56" filterUnits="userSpaceOnUse" color-interpolation-filters="sRGB">
<feFlood flood-opacity="0" result="BackgroundImageFix"/>
<feBlend mode="normal" in="SourceGraphic" in2="BackgroundImageFix" result="shape"/>
<feColorMatrix in="SourceAlpha" type="matrix" values="0 0 0 0 0 0 0 0 0 0 0 0 0 0 0 0 0 0 127 0" result="hardAlpha"/>
<feOffset dy="-4"/>
<feComposite in2="hardAlpha" operator="arithmetic" k2="-1" k3="1"/>
<feColorMatrix type="matrix" values="0 0 0 0 0 0 0 0 0 0 0 0 0 0 0 0 0 0 0.15 0"/>
<feBlend mode="normal" in2="shape" result="effect1_innerShadow_437_668"/>
</filter>
<filter id="filter1_i_437_668" x="0" y="64" width="334" height="56" filterUnits="userSpaceOnUse" color-interpolation-filters="sRGB">
<feFlood flood-opacity="0" result="BackgroundImageFix"/>
<feBlend mode="normal" in="SourceGraphic" in2="BackgroundImageFix" result="shape"/>
<feColorMatrix in="SourceAlpha" type="matrix" values="0 0 0 0 0 0 0 0 0 0 0 0 0 0 0 0 0 0 127 0" result="hardAlpha"/>
<feOffset dy="-4"/>
<feComposite in2="hardAlpha" operator="arithmetic" k2="-1" k3="1"/>
<feColorMatrix type="matrix" values="0 0 0 0 0 0 0 0 0 0 0 0 0 0 0 0 0 0 0.15 0"/>
<feBlend mode="normal" in2="shape" result="effect1_innerShadow_437_668"/>
</filter>
</defs>
</svg>

