<svg width="32" height="30" viewBox="0 0 32 30" fill="none" xmlns="http://www.w3.org/2000/svg">
<path d="M14.2828 29.0175C6.41411 29.0175 0 22.516 0 14.5087C0 6.50149 6.40026 0 14.2828 0C17.5522 0 20.6692 1.1258 23.1628 3.16631L23.1905 3.08188C23.5646 2.05458 24.5066 1.35096 25.5733 1.26652H25.7812C26.7925 1.26652 27.7206 1.81535 28.2055 2.70192L31.1701 8.09168C31.6965 9.06269 31.6273 10.2588 30.9762 11.1313C30.4636 11.849 29.6324 12.2712 28.7458 12.2712C28.6211 12.2712 28.5102 12.2712 28.3856 12.2431C28.4964 12.9748 28.5518 13.7348 28.5518 14.4947C28.5518 22.4878 22.1516 29.0034 14.269 29.0034L14.2828 29.0175Z" fill="#F5B53D"/>
<path d="M14.2824 27.0332C7.49427 27.0332 1.9668 21.4183 1.9668 14.5228C1.9668 7.62725 7.49427 2.01233 14.2824 2.01233C21.0706 2.01233 26.5981 7.62725 26.5981 14.5228C26.5981 21.4183 21.0706 27.0332 14.2824 27.0332ZM14.2824 3.65881C8.38089 3.65881 3.58762 8.52789 3.58762 14.5228C3.58762 20.5177 8.38089 25.3867 14.2824 25.3867C20.184 25.3867 24.9772 20.5177 24.9772 14.5228C24.9772 8.52789 20.184 3.65881 14.2824 3.65881Z" fill="#2A1D04"/>
<path d="M14.2823 22.7834C9.79382 22.7834 6.15039 19.0823 6.15039 14.5228C6.15039 9.96333 9.79382 6.26227 14.2823 6.26227C18.7708 6.26227 22.4142 9.96333 22.4142 14.5228C22.4142 19.0823 18.7708 22.7834 14.2823 22.7834ZM14.2823 7.90875C10.6943 7.90875 7.77125 10.878 7.77125 14.5228C7.77125 18.1676 10.6943 21.1369 14.2823 21.1369C17.8703 21.1369 20.7934 18.1676 20.7934 14.5228C20.7934 10.878 17.8703 7.90875 14.2823 7.90875Z" fill="#2A1D04"/>
<path d="M14.2823 18.3928C12.1766 18.3928 10.4727 16.6618 10.4727 14.5228C10.4727 12.3838 12.1766 10.6529 14.2823 10.6529C16.388 10.6529 18.092 12.3838 18.092 14.5228C18.092 16.6618 16.388 18.3928 14.2823 18.3928ZM14.2823 12.2994C13.0771 12.2994 12.0935 13.2985 12.0935 14.5228C12.0935 15.7471 13.0771 16.7463 14.2823 16.7463C15.4876 16.7463 16.4712 15.7471 16.4712 14.5228C16.4712 13.2985 15.4876 12.2994 14.2823 12.2994Z" fill="#2A1D04"/>
<path d="M14.2826 15.339C14.0055 15.339 13.7285 15.1983 13.5761 14.9309C13.3544 14.5369 13.4791 14.0302 13.867 13.8051L26.4597 6.37481C26.8476 6.14965 27.3463 6.2763 27.568 6.67033C27.7896 7.06436 27.6649 7.57097 27.2771 7.79613L14.6843 15.2264C14.5597 15.2968 14.4211 15.339 14.2826 15.339Z" fill="#2A1D04"/>
<path d="M24.1465 8.51386L25.795 4.09509L28.7597 9.48486L24.1465 8.51386Z" fill="#2A1D04"/>
<path d="M28.7604 10.301C28.7604 10.301 28.6496 10.301 28.5942 10.287L23.981 9.31597C23.7454 9.25968 23.5515 9.11896 23.4407 8.90787C23.3299 8.69678 23.316 8.44348 23.3991 8.21832L25.0338 3.79955C25.1447 3.50403 25.4217 3.29294 25.7265 3.2648C26.0313 3.25073 26.336 3.40552 26.4884 3.68697L29.4531 9.07674C29.6054 9.35819 29.5916 9.71 29.3976 9.96331C29.2452 10.1744 28.9959 10.301 28.7465 10.301H28.7604ZM25.2416 7.90872L27.1949 8.31682L25.9482 6.03708L25.2555 7.90872H25.2416Z" fill="#2A1D04"/>
</svg>

