<svg width="32" height="32" viewBox="0 0 32 32" fill="none" xmlns="http://www.w3.org/2000/svg">
<path d="M14.5002 30.7296C6.51174 30.7296 0 24.1291 0 16C0 7.87084 6.49768 1.27039 14.5002 1.27039C17.8194 1.27039 20.9839 2.41332 23.5154 4.48489L23.5435 4.39917C23.9233 3.35624 24.8796 2.64191 25.9626 2.55619H26.1736C27.2003 2.55619 28.1426 3.11337 28.6348 4.01343L31.6445 9.48524C32.179 10.471 32.1087 11.6854 31.4477 12.5712C30.9273 13.2998 30.0834 13.7284 29.1833 13.7284C29.0567 13.7284 28.9442 13.7284 28.8176 13.6998C28.9301 14.4427 28.9864 15.2142 28.9864 15.9857C28.9864 24.1005 22.4887 30.7153 14.4862 30.7153L14.5002 30.7296Z" fill="#00C386"/>
<path d="M14.4999 28.7151C7.60844 28.7151 1.99683 23.0147 1.99683 16.0142C1.99683 9.01375 7.60844 3.31335 14.4999 3.31335C21.3914 3.31335 27.003 9.01375 27.003 16.0142C27.003 23.0147 21.3914 28.7151 14.4999 28.7151ZM14.4999 4.9849C8.50855 4.9849 3.64232 9.92809 3.64232 16.0142C3.64232 22.1004 8.50855 27.0436 14.4999 27.0436C20.4913 27.0436 25.3575 22.1004 25.3575 16.0142C25.3575 9.92809 20.4913 4.9849 14.4999 4.9849Z" fill="#0A1F18"/>
<path d="M14.4997 24.4008C9.94291 24.4008 6.24402 20.6434 6.24402 16.0145C6.24402 11.3856 9.94291 7.62817 14.4997 7.62817C19.0565 7.62817 22.7554 11.3856 22.7554 16.0145C22.7554 20.6434 19.0565 24.4008 14.4997 24.4008ZM14.4997 9.29972C10.8571 9.29972 7.88955 12.3142 7.88955 16.0145C7.88955 19.7147 10.8571 22.7292 14.4997 22.7292C18.1424 22.7292 21.1099 19.7147 21.1099 16.0145C21.1099 12.3142 18.1424 9.29972 14.4997 9.29972Z" fill="#0A1F18"/>
<path d="M14.4997 19.9429C12.362 19.9429 10.6321 18.1856 10.6321 16.014C10.6321 13.8425 12.362 12.0852 14.4997 12.0852C16.6375 12.0852 18.3674 13.8425 18.3674 16.014C18.3674 18.1856 16.6375 19.9429 14.4997 19.9429ZM14.4997 13.7567C13.2762 13.7567 12.2776 14.7711 12.2776 16.014C12.2776 17.257 13.2762 18.2713 14.4997 18.2713C15.7233 18.2713 16.7219 17.257 16.7219 16.014C16.7219 14.7711 15.7233 13.7567 14.4997 13.7567Z" fill="#0A1F18"/>
<path d="M14.5 16.8431C14.2187 16.8431 13.9374 16.7002 13.7827 16.4288C13.5577 16.0288 13.6842 15.5144 14.078 15.2858L26.8624 7.74247C27.2562 7.51388 27.7625 7.64246 27.9876 8.04249C28.2126 8.44252 28.086 8.95684 27.6922 9.18542L14.9078 16.7288C14.7813 16.8002 14.6406 16.8431 14.5 16.8431Z" fill="#0A1F18"/>
<path d="M24.514 9.91425L26.1877 5.42822L29.1975 10.9L24.514 9.91425Z" fill="#0A1F18"/>
<path d="M29.1982 11.7279C29.1982 11.7279 29.0856 11.7279 29.0294 11.7136L24.346 10.7279C24.1069 10.6707 23.91 10.5278 23.7975 10.3135C23.685 10.0992 23.6709 9.84208 23.7553 9.61349L25.4149 5.12747C25.5274 4.82745 25.8087 4.61315 26.1181 4.58458C26.4275 4.57029 26.7369 4.72744 26.8916 5.01318L29.9014 10.485C30.0561 10.7707 30.042 11.1279 29.8451 11.385C29.6904 11.5993 29.4372 11.7279 29.1841 11.7279H29.1982ZM25.6258 9.29918L27.6089 9.7135L26.3431 7.39905L25.6399 9.29918H25.6258Z" fill="#0A1F18"/>
</svg>

