<svg width="241" height="332" viewBox="0 0 241 332" fill="none" xmlns="http://www.w3.org/2000/svg">
<rect x="0.5" y="0.5" width="240" height="331" rx="4.5" stroke="white" stroke-opacity="0.1" stroke-dasharray="10 5"/>
<path d="M46.8803 81V27.952H59.7243V81H46.8803ZM23.0923 81V27.952H35.9363V81H23.0923ZM34.8723 58.808V48.548H47.9443V58.808H34.8723ZM78.4762 81.912C76.1455 81.912 73.9922 81.456 72.0162 80.544C70.0402 79.5813 68.3428 78.2387 66.9242 76.516C65.5055 74.7933 64.3908 72.7667 63.5802 70.436C62.8202 68.0547 62.4402 65.42 62.4402 62.532C62.4402 59.6947 62.8202 57.1107 63.5802 54.78C64.3402 52.3987 65.4295 50.3467 66.8482 48.624C68.2668 46.8507 69.9642 45.508 71.9402 44.596C73.9162 43.6333 76.1202 43.152 78.5522 43.152C81.3895 43.152 83.8468 43.7853 85.9242 45.052C88.0522 46.268 89.7495 47.94 91.0162 50.068C92.3335 52.1453 93.1948 54.5013 93.6002 57.136C94.0562 59.72 93.9802 62.4053 93.3722 65.192H68.6722L74.1442 59.188C73.7388 61.2147 73.5362 63.0387 73.5362 64.66C73.5868 66.2307 73.8148 67.5987 74.2202 68.764C74.6255 69.8787 75.1828 70.74 75.8922 71.348C76.6015 71.9053 77.4375 72.184 78.4002 72.184C79.3628 72.184 80.1482 71.8547 80.7562 71.196C81.3642 70.5373 81.7442 69.6 81.8962 68.384L93.2962 69.144C92.9922 71.6267 92.1308 73.8307 90.7122 75.756C89.3442 77.6813 87.5962 79.2013 85.4682 80.316C83.3908 81.38 81.0602 81.912 78.4762 81.912ZM74.4482 57.744H81.7442C81.6935 56.6293 81.5162 55.6667 81.2122 54.856C80.9588 54.0453 80.5788 53.412 80.0722 52.956C79.6162 52.5 79.0335 52.272 78.3242 52.272C77.5642 52.272 76.9055 52.5253 76.3482 53.032C75.8415 53.488 75.4108 54.1467 75.0562 55.008C74.7522 55.8187 74.5495 56.7307 74.4482 57.744ZM114.068 81C113.916 80.4933 113.789 79.8853 113.688 79.176C113.587 78.4667 113.511 77.6813 113.46 76.82C113.409 75.9587 113.384 75.072 113.384 74.16V55.16C113.384 54.2987 113.156 53.6147 112.7 53.108C112.244 52.5507 111.611 52.272 110.8 52.272C109.837 52.272 109.027 52.7533 108.368 53.716C107.76 54.628 107.431 55.8693 107.38 57.44L95.7519 56.148C95.9546 54.2227 96.4866 52.4747 97.3479 50.904C98.2092 49.3333 99.3239 47.9653 100.692 46.8C102.111 45.6347 103.707 44.748 105.48 44.14C107.304 43.4813 109.28 43.152 111.408 43.152C114.245 43.152 116.703 43.7347 118.78 44.9C120.857 46.0653 122.479 47.7627 123.644 49.992C124.809 52.1707 125.392 54.8813 125.392 58.124V72.64C125.392 73.7547 125.417 74.8947 125.468 76.06C125.569 77.1747 125.721 78.188 125.924 79.1C126.127 79.9613 126.38 80.5947 126.684 81H114.068ZM105.328 81.912C103.555 81.912 101.908 81.532 100.388 80.772C98.8679 79.9613 97.6519 78.796 96.7399 77.276C95.8786 75.756 95.4479 73.9067 95.4479 71.728C95.4479 69.8533 95.7519 68.2827 96.3599 67.016C97.0186 65.7493 97.8799 64.7107 98.9439 63.9C100.008 63.0893 101.173 62.4053 102.44 61.848C103.707 61.2907 104.973 60.8093 106.24 60.404C107.507 59.9987 108.672 59.568 109.736 59.112C110.8 58.656 111.661 58.124 112.32 57.516C112.979 56.908 113.333 56.1227 113.384 55.16L114.372 64.052C114.119 64.356 113.764 64.66 113.308 64.964C112.903 65.268 112.447 65.572 111.94 65.876C111.484 66.1293 111.003 66.408 110.496 66.712C110.04 67.016 109.609 67.3707 109.204 67.776C108.799 68.1307 108.469 68.5613 108.216 69.068C108.013 69.524 107.912 70.056 107.912 70.664C107.912 71.424 108.089 72.0067 108.444 72.412C108.849 72.8173 109.305 73.02 109.812 73.02C110.369 73.02 110.876 72.8173 111.332 72.412C111.788 72.0067 112.168 71.4493 112.472 70.74C112.776 69.98 113.004 69.1187 113.156 68.156C113.308 67.1427 113.384 66.0787 113.384 64.964L114.676 70.36C114.727 72.7413 114.372 74.7933 113.612 76.516C112.903 78.2387 111.839 79.5813 110.42 80.544C109.052 81.456 107.355 81.912 105.328 81.912ZM140.329 43.152C141.292 43.152 142.153 43.2787 142.913 43.532C143.724 43.7853 144.459 44.14 145.117 44.596C145.776 45.052 146.359 45.6347 146.865 46.344V27.952H158.949V81H146.865V78.72C146.409 79.3787 145.852 79.9613 145.193 80.468C144.535 80.924 143.8 81.2787 142.989 81.532C142.179 81.7853 141.292 81.912 140.329 81.912C138.303 81.912 136.504 81.4307 134.933 80.468C133.413 79.4547 132.121 78.0613 131.057 76.288C130.044 74.5147 129.284 72.4627 128.777 70.132C128.271 67.8013 128.017 65.268 128.017 62.532C128.017 59.796 128.271 57.2627 128.777 54.932C129.284 52.6013 130.044 50.5493 131.057 48.776C132.121 47.0027 133.413 45.6347 134.933 44.672C136.504 43.6587 138.303 43.152 140.329 43.152ZM140.101 62.532C140.101 64.508 140.228 66.2307 140.481 67.7C140.735 69.1187 141.115 70.2333 141.621 71.044C142.179 71.804 142.837 72.184 143.597 72.184C144.155 72.184 144.636 71.9813 145.041 71.576C145.447 71.12 145.776 70.4867 146.029 69.676C146.333 68.8653 146.536 67.852 146.637 66.636C146.789 65.42 146.865 64.052 146.865 62.532C146.865 60.4547 146.739 58.7067 146.485 57.288C146.283 55.8693 145.928 54.78 145.421 54.02C144.965 53.26 144.357 52.88 143.597 52.88C142.989 52.88 142.457 53.108 142.001 53.564C141.596 53.9693 141.241 54.6027 140.937 55.464C140.684 56.2747 140.481 57.288 140.329 58.504C140.177 59.6693 140.101 61.012 140.101 62.532ZM177.802 81.912C175.471 81.912 173.318 81.456 171.342 80.544C169.366 79.5813 167.668 78.2387 166.25 76.516C164.831 74.7933 163.716 72.7667 162.906 70.436C162.146 68.0547 161.766 65.42 161.766 62.532C161.766 59.6947 162.146 57.1107 162.906 54.78C163.666 52.3987 164.755 50.3467 166.174 48.624C167.592 46.8507 169.29 45.508 171.266 44.596C173.242 43.6333 175.446 43.152 177.878 43.152C180.715 43.152 183.172 43.7853 185.25 45.052C187.378 46.268 189.075 47.94 190.342 50.068C191.659 52.1453 192.52 54.5013 192.926 57.136C193.382 59.72 193.306 62.4053 192.698 65.192H167.998L173.47 59.188C173.064 61.2147 172.862 63.0387 172.862 64.66C172.912 66.2307 173.14 67.5987 173.546 68.764C173.951 69.8787 174.508 70.74 175.218 71.348C175.927 71.9053 176.763 72.184 177.726 72.184C178.688 72.184 179.474 71.8547 180.082 71.196C180.69 70.5373 181.07 69.6 181.222 68.384L192.622 69.144C192.318 71.6267 191.456 73.8307 190.038 75.756C188.67 77.6813 186.922 79.2013 184.794 80.316C182.716 81.38 180.386 81.912 177.802 81.912ZM173.774 57.744H181.07C181.019 56.6293 180.842 55.6667 180.538 54.856C180.284 54.0453 179.904 53.412 179.398 52.956C178.942 52.5 178.359 52.272 177.65 52.272C176.89 52.272 176.231 52.5253 175.674 53.032C175.167 53.488 174.736 54.1467 174.382 55.008C174.078 55.8187 173.875 56.7307 173.774 57.744ZM196.141 81V44.064H208.225V50.904C208.631 49.3333 209.213 47.9907 209.973 46.876C210.784 45.7107 211.721 44.7987 212.785 44.14C213.9 43.4813 215.116 43.152 216.433 43.152C217.092 43.152 217.776 43.228 218.485 43.38C219.195 43.532 219.853 43.76 220.461 44.064L219.473 55.54C218.561 55.1347 217.751 54.856 217.041 54.704C216.332 54.5013 215.623 54.4 214.913 54.4C213.951 54.4 213.115 54.552 212.405 54.856C211.696 55.1093 211.063 55.4893 210.505 55.996C209.999 56.5027 209.568 57.136 209.213 57.896C208.859 58.6053 208.605 59.416 208.453 60.328C208.301 61.24 208.225 62.2027 208.225 63.216V81H196.141Z" fill="#F4F2FF"/>
<path d="M96.4618 115.234C95.5858 115.234 94.7878 115.078 94.0678 114.766C93.3478 114.442 92.7238 113.992 92.1958 113.416C91.6678 112.84 91.2598 112.156 90.9718 111.364C90.6838 110.56 90.5398 109.672 90.5398 108.7C90.5398 107.932 90.6298 107.218 90.8098 106.558C90.9898 105.886 91.2538 105.286 91.6018 104.758C91.9498 104.23 92.3638 103.774 92.8438 103.39C93.3238 103.006 93.8578 102.712 94.4458 102.508C95.0338 102.304 95.6698 102.202 96.3538 102.202C97.0738 102.202 97.7398 102.31 98.3518 102.526C98.9638 102.742 99.5098 103.054 99.9898 103.462C100.47 103.87 100.86 104.368 101.16 104.956C101.46 105.544 101.646 106.21 101.718 106.954L100.098 107.17C100.05 106.378 99.8518 105.712 99.5038 105.172C99.1678 104.62 98.7298 104.206 98.1898 103.93C97.6498 103.642 97.0438 103.498 96.3718 103.498C95.8678 103.498 95.3998 103.582 94.9678 103.75C94.5478 103.906 94.1578 104.14 93.7978 104.452C93.4498 104.752 93.1498 105.118 92.8978 105.55C92.6578 105.97 92.4658 106.45 92.3218 106.99C92.1898 107.518 92.1238 108.088 92.1238 108.7C92.1238 109.744 92.3098 110.662 92.6818 111.454C93.0538 112.234 93.5638 112.846 94.2118 113.29C94.8718 113.722 95.6158 113.938 96.4438 113.938C97.1278 113.938 97.7338 113.794 98.2618 113.506C98.8018 113.206 99.2338 112.792 99.5578 112.264C99.8818 111.724 100.068 111.1 100.116 110.392L101.736 110.518C101.688 111.214 101.526 111.85 101.25 112.426C100.986 113.002 100.614 113.5 100.134 113.92C99.6658 114.34 99.1198 114.664 98.4958 114.892C97.8838 115.12 97.2058 115.234 96.4618 115.234ZM109.073 115C109.025 114.856 108.983 114.664 108.947 114.424C108.911 114.184 108.887 113.938 108.875 113.686C108.863 113.422 108.857 113.206 108.857 113.038V108.79C108.857 108.358 108.677 108.01 108.317 107.746C107.957 107.47 107.459 107.332 106.823 107.332C106.091 107.332 105.521 107.518 105.113 107.89C104.705 108.25 104.483 108.73 104.447 109.33L103.007 109.186C103.055 108.742 103.181 108.334 103.385 107.962C103.589 107.59 103.859 107.272 104.195 107.008C104.531 106.744 104.921 106.54 105.365 106.396C105.809 106.252 106.295 106.18 106.823 106.18C107.507 106.18 108.107 106.3 108.623 106.54C109.151 106.768 109.565 107.098 109.865 107.53C110.165 107.962 110.315 108.478 110.315 109.078V112.876C110.315 113.032 110.321 113.254 110.333 113.542C110.357 113.818 110.393 114.094 110.441 114.37C110.501 114.646 110.579 114.856 110.675 115H109.073ZM105.743 115.234C105.203 115.234 104.723 115.138 104.303 114.946C103.895 114.754 103.571 114.478 103.331 114.118C103.103 113.746 102.989 113.308 102.989 112.804C102.989 112.312 103.091 111.904 103.295 111.58C103.511 111.256 103.793 110.998 104.141 110.806C104.489 110.602 104.873 110.446 105.293 110.338C105.713 110.218 106.127 110.116 106.535 110.032C106.955 109.948 107.339 109.858 107.687 109.762C108.035 109.666 108.317 109.546 108.533 109.402C108.749 109.246 108.857 109.042 108.857 108.79L109.037 109.942C108.941 110.158 108.761 110.332 108.497 110.464C108.245 110.584 107.945 110.686 107.597 110.77C107.249 110.854 106.895 110.944 106.535 111.04C106.175 111.124 105.839 111.232 105.527 111.364C105.215 111.496 104.963 111.67 104.771 111.886C104.579 112.102 104.483 112.39 104.483 112.75C104.483 113.17 104.627 113.5 104.915 113.74C105.203 113.968 105.593 114.082 106.085 114.082C106.541 114.082 106.937 113.998 107.273 113.83C107.621 113.65 107.909 113.428 108.137 113.164C108.377 112.888 108.557 112.594 108.677 112.282C108.797 111.97 108.857 111.67 108.857 111.382L108.983 112.48C108.959 113.02 108.803 113.5 108.515 113.92C108.227 114.34 107.843 114.664 107.363 114.892C106.895 115.12 106.355 115.234 105.743 115.234ZM117.032 115.234C116.588 115.234 116.162 115.156 115.754 115C115.358 114.856 115.004 114.646 114.692 114.37C114.392 114.094 114.146 113.764 113.954 113.38V118.204H112.478V106.396H113.954V108.052C114.146 107.656 114.392 107.32 114.692 107.044C115.004 106.768 115.358 106.558 115.754 106.414C116.162 106.258 116.594 106.18 117.05 106.18C117.602 106.18 118.106 106.288 118.562 106.504C119.018 106.72 119.414 107.032 119.75 107.44C120.098 107.836 120.368 108.31 120.56 108.862C120.752 109.414 120.848 110.026 120.848 110.698C120.848 111.37 120.752 111.982 120.56 112.534C120.368 113.086 120.098 113.566 119.75 113.974C119.414 114.37 119.012 114.682 118.544 114.91C118.088 115.126 117.584 115.234 117.032 115.234ZM113.954 110.698C113.954 111.394 114.068 111.994 114.296 112.498C114.536 112.99 114.86 113.368 115.268 113.632C115.676 113.884 116.138 114.01 116.654 114.01C117.062 114.01 117.434 113.938 117.77 113.794C118.106 113.638 118.388 113.416 118.616 113.128C118.856 112.828 119.036 112.474 119.156 112.066C119.288 111.658 119.354 111.202 119.354 110.698C119.354 110.026 119.246 109.444 119.03 108.952C118.814 108.448 118.502 108.064 118.094 107.8C117.686 107.524 117.206 107.386 116.654 107.386C116.27 107.386 115.91 107.464 115.574 107.62C115.25 107.764 114.962 107.98 114.71 108.268C114.47 108.544 114.284 108.892 114.152 109.312C114.02 109.72 113.954 110.182 113.954 110.698ZM125.709 115.234C125.229 115.234 124.797 115.138 124.413 114.946C124.041 114.742 123.747 114.448 123.531 114.064C123.315 113.668 123.207 113.182 123.207 112.606V103.768H124.665V112.426C124.665 112.978 124.779 113.38 125.007 113.632C125.235 113.872 125.535 113.992 125.907 113.992C126.111 113.992 126.333 113.95 126.573 113.866C126.813 113.782 127.017 113.626 127.185 113.398L127.491 114.64C127.359 114.748 127.203 114.85 127.023 114.946C126.843 115.042 126.639 115.114 126.411 115.162C126.183 115.21 125.949 115.234 125.709 115.234ZM121.497 107.566V106.396H127.311V107.566H121.497ZM128.939 115V106.396H130.415V115H128.939ZM129.677 104.83C129.389 104.83 129.155 104.746 128.975 104.578C128.795 104.398 128.705 104.176 128.705 103.912C128.705 103.648 128.795 103.426 128.975 103.246C129.155 103.066 129.389 102.976 129.677 102.976C129.953 102.976 130.181 103.066 130.361 103.246C130.553 103.426 130.649 103.648 130.649 103.912C130.649 104.092 130.607 104.254 130.523 104.398C130.439 104.53 130.319 104.638 130.163 104.722C130.019 104.794 129.857 104.83 129.677 104.83ZM136.361 115.234C135.737 115.234 135.167 115.126 134.651 114.91C134.147 114.682 133.709 114.37 133.337 113.974C132.965 113.566 132.677 113.086 132.473 112.534C132.269 111.982 132.167 111.37 132.167 110.698C132.167 110.038 132.269 109.432 132.473 108.88C132.677 108.328 132.965 107.848 133.337 107.44C133.709 107.032 134.147 106.72 134.651 106.504C135.167 106.288 135.737 106.18 136.361 106.18C136.973 106.18 137.537 106.288 138.053 106.504C138.569 106.72 139.013 107.032 139.385 107.44C139.769 107.848 140.063 108.328 140.267 108.88C140.471 109.432 140.573 110.038 140.573 110.698C140.573 111.358 140.471 111.97 140.267 112.534C140.063 113.086 139.769 113.566 139.385 113.974C139.013 114.37 138.569 114.682 138.053 114.91C137.549 115.126 136.985 115.234 136.361 115.234ZM136.361 114.028C136.757 114.028 137.123 113.95 137.459 113.794C137.795 113.626 138.083 113.398 138.323 113.11C138.575 112.822 138.767 112.474 138.899 112.066C139.031 111.658 139.097 111.202 139.097 110.698C139.097 110.038 138.977 109.456 138.737 108.952C138.509 108.448 138.191 108.064 137.783 107.8C137.375 107.524 136.901 107.386 136.361 107.386C135.953 107.386 135.581 107.464 135.245 107.62C134.921 107.776 134.639 108.004 134.399 108.304C134.159 108.592 133.973 108.94 133.841 109.348C133.709 109.744 133.643 110.194 133.643 110.698C133.643 111.358 133.757 111.94 133.985 112.444C134.213 112.936 134.531 113.326 134.939 113.614C135.359 113.89 135.833 114.028 136.361 114.028ZM148.679 115V109.906C148.679 109.09 148.487 108.472 148.103 108.052C147.719 107.62 147.191 107.404 146.519 107.404C146.015 107.404 145.553 107.536 145.133 107.8C144.725 108.052 144.401 108.43 144.161 108.934C143.921 109.426 143.801 110.026 143.801 110.734V115H142.325V106.396H143.801V108.178C143.969 107.782 144.197 107.434 144.485 107.134C144.785 106.834 145.145 106.6 145.565 106.432C145.985 106.264 146.453 106.18 146.969 106.18C147.605 106.18 148.157 106.318 148.625 106.594C149.105 106.858 149.477 107.26 149.741 107.8C150.005 108.328 150.137 108.982 150.137 109.762V115H148.679Z" fill="#F5F3FF" fill-opacity="0.68"/>
<path d="M77.8781 171V140.288H85.3141V171H77.8781ZM64.1061 171V140.288H71.5421V171H64.1061ZM70.9261 158.152V152.212H78.4941V158.152H70.9261ZM96.1704 171.528C94.8211 171.528 93.5744 171.264 92.4304 170.736C91.2864 170.179 90.3037 169.401 89.4824 168.404C88.6611 167.407 88.0157 166.233 87.5464 164.884C87.1064 163.505 86.8864 161.98 86.8864 160.308C86.8864 158.665 87.1064 157.169 87.5464 155.82C87.9864 154.441 88.6171 153.253 89.4384 152.256C90.2597 151.229 91.2424 150.452 92.3864 149.924C93.5304 149.367 94.8064 149.088 96.2144 149.088C97.8571 149.088 99.2797 149.455 100.482 150.188C101.714 150.892 102.697 151.86 103.43 153.092C104.193 154.295 104.692 155.659 104.926 157.184C105.19 158.68 105.146 160.235 104.794 161.848H90.4944L93.6624 158.372C93.4277 159.545 93.3104 160.601 93.3104 161.54C93.3397 162.449 93.4717 163.241 93.7064 163.916C93.9411 164.561 94.2637 165.06 94.6744 165.412C95.0851 165.735 95.5691 165.896 96.1264 165.896C96.6837 165.896 97.1384 165.705 97.4904 165.324C97.8424 164.943 98.0624 164.4 98.1504 163.696L104.75 164.136C104.574 165.573 104.076 166.849 103.254 167.964C102.462 169.079 101.45 169.959 100.218 170.604C99.0157 171.22 97.6664 171.528 96.1704 171.528ZM93.8384 157.536H98.0624C98.0331 156.891 97.9304 156.333 97.7544 155.864C97.6077 155.395 97.3877 155.028 97.0944 154.764C96.8304 154.5 96.4931 154.368 96.0824 154.368C95.6424 154.368 95.2611 154.515 94.9384 154.808C94.6451 155.072 94.3957 155.453 94.1904 155.952C94.0144 156.421 93.8971 156.949 93.8384 157.536ZM116.776 171C116.688 170.707 116.615 170.355 116.556 169.944C116.497 169.533 116.453 169.079 116.424 168.58C116.395 168.081 116.38 167.568 116.38 167.04V156.04C116.38 155.541 116.248 155.145 115.984 154.852C115.72 154.529 115.353 154.368 114.884 154.368C114.327 154.368 113.857 154.647 113.476 155.204C113.124 155.732 112.933 156.451 112.904 157.36L106.172 156.612C106.289 155.497 106.597 154.485 107.096 153.576C107.595 152.667 108.24 151.875 109.032 151.2C109.853 150.525 110.777 150.012 111.804 149.66C112.86 149.279 114.004 149.088 115.236 149.088C116.879 149.088 118.301 149.425 119.504 150.1C120.707 150.775 121.645 151.757 122.32 153.048C122.995 154.309 123.332 155.879 123.332 157.756V166.16C123.332 166.805 123.347 167.465 123.376 168.14C123.435 168.785 123.523 169.372 123.64 169.9C123.757 170.399 123.904 170.765 124.08 171H116.776ZM111.716 171.528C110.689 171.528 109.736 171.308 108.856 170.868C107.976 170.399 107.272 169.724 106.744 168.844C106.245 167.964 105.996 166.893 105.996 165.632C105.996 164.547 106.172 163.637 106.524 162.904C106.905 162.171 107.404 161.569 108.02 161.1C108.636 160.631 109.311 160.235 110.044 159.912C110.777 159.589 111.511 159.311 112.244 159.076C112.977 158.841 113.652 158.592 114.268 158.328C114.884 158.064 115.383 157.756 115.764 157.404C116.145 157.052 116.351 156.597 116.38 156.04L116.952 161.188C116.805 161.364 116.6 161.54 116.336 161.716C116.101 161.892 115.837 162.068 115.544 162.244C115.28 162.391 115.001 162.552 114.708 162.728C114.444 162.904 114.195 163.109 113.96 163.344C113.725 163.549 113.535 163.799 113.388 164.092C113.271 164.356 113.212 164.664 113.212 165.016C113.212 165.456 113.315 165.793 113.52 166.028C113.755 166.263 114.019 166.38 114.312 166.38C114.635 166.38 114.928 166.263 115.192 166.028C115.456 165.793 115.676 165.471 115.852 165.06C116.028 164.62 116.16 164.121 116.248 163.564C116.336 162.977 116.38 162.361 116.38 161.716L117.128 164.84C117.157 166.219 116.952 167.407 116.512 168.404C116.101 169.401 115.485 170.179 114.664 170.736C113.872 171.264 112.889 171.528 111.716 171.528ZM131.98 149.088C132.538 149.088 133.036 149.161 133.476 149.308C133.946 149.455 134.371 149.66 134.752 149.924C135.134 150.188 135.471 150.525 135.764 150.936V140.288H142.76V171H135.764V169.68C135.5 170.061 135.178 170.399 134.796 170.692C134.415 170.956 133.99 171.161 133.52 171.308C133.051 171.455 132.538 171.528 131.98 171.528C130.807 171.528 129.766 171.249 128.856 170.692C127.976 170.105 127.228 169.299 126.612 168.272C126.026 167.245 125.586 166.057 125.292 164.708C124.999 163.359 124.852 161.892 124.852 160.308C124.852 158.724 124.999 157.257 125.292 155.908C125.586 154.559 126.026 153.371 126.612 152.344C127.228 151.317 127.976 150.525 128.856 149.968C129.766 149.381 130.807 149.088 131.98 149.088ZM131.848 160.308C131.848 161.452 131.922 162.449 132.068 163.3C132.215 164.121 132.435 164.767 132.728 165.236C133.051 165.676 133.432 165.896 133.872 165.896C134.195 165.896 134.474 165.779 134.708 165.544C134.943 165.28 135.134 164.913 135.28 164.444C135.456 163.975 135.574 163.388 135.632 162.684C135.72 161.98 135.764 161.188 135.764 160.308C135.764 159.105 135.691 158.093 135.544 157.272C135.427 156.451 135.222 155.82 134.928 155.38C134.664 154.94 134.312 154.72 133.872 154.72C133.52 154.72 133.212 154.852 132.948 155.116C132.714 155.351 132.508 155.717 132.332 156.216C132.186 156.685 132.068 157.272 131.98 157.976C131.892 158.651 131.848 159.428 131.848 160.308ZM153.675 171.528C152.325 171.528 151.079 171.264 149.935 170.736C148.791 170.179 147.808 169.401 146.987 168.404C146.165 167.407 145.52 166.233 145.051 164.884C144.611 163.505 144.391 161.98 144.391 160.308C144.391 158.665 144.611 157.169 145.051 155.82C145.491 154.441 146.121 153.253 146.943 152.256C147.764 151.229 148.747 150.452 149.891 149.924C151.035 149.367 152.311 149.088 153.719 149.088C155.361 149.088 156.784 149.455 157.987 150.188C159.219 150.892 160.201 151.86 160.935 153.092C161.697 154.295 162.196 155.659 162.431 157.184C162.695 158.68 162.651 160.235 162.299 161.848H147.999L151.167 158.372C150.932 159.545 150.815 160.601 150.815 161.54C150.844 162.449 150.976 163.241 151.211 163.916C151.445 164.561 151.768 165.06 152.179 165.412C152.589 165.735 153.073 165.896 153.631 165.896C154.188 165.896 154.643 165.705 154.995 165.324C155.347 164.943 155.567 164.4 155.655 163.696L162.255 164.136C162.079 165.573 161.58 166.849 160.759 167.964C159.967 169.079 158.955 169.959 157.723 170.604C156.52 171.22 155.171 171.528 153.675 171.528ZM151.343 157.536H155.567C155.537 156.891 155.435 156.333 155.259 155.864C155.112 155.395 154.892 155.028 154.599 154.764C154.335 154.5 153.997 154.368 153.587 154.368C153.147 154.368 152.765 154.515 152.443 154.808C152.149 155.072 151.9 155.453 151.695 155.952C151.519 156.421 151.401 156.949 151.343 157.536ZM164.292 171V149.616H171.288V153.576C171.523 152.667 171.86 151.889 172.3 151.244C172.77 150.569 173.312 150.041 173.928 149.66C174.574 149.279 175.278 149.088 176.04 149.088C176.422 149.088 176.818 149.132 177.228 149.22C177.639 149.308 178.02 149.44 178.372 149.616L177.8 156.26C177.272 156.025 176.803 155.864 176.392 155.776C175.982 155.659 175.571 155.6 175.16 155.6C174.603 155.6 174.119 155.688 173.708 155.864C173.298 156.011 172.931 156.231 172.608 156.524C172.315 156.817 172.066 157.184 171.86 157.624C171.655 158.035 171.508 158.504 171.42 159.032C171.332 159.56 171.288 160.117 171.288 160.704V171H164.292Z" fill="#F4F2FF"/>
<path d="M96.4618 199.234C95.5858 199.234 94.7878 199.078 94.0678 198.766C93.3478 198.442 92.7238 197.992 92.1958 197.416C91.6678 196.84 91.2598 196.156 90.9718 195.364C90.6838 194.56 90.5398 193.672 90.5398 192.7C90.5398 191.932 90.6298 191.218 90.8098 190.558C90.9898 189.886 91.2538 189.286 91.6018 188.758C91.9498 188.23 92.3638 187.774 92.8438 187.39C93.3238 187.006 93.8578 186.712 94.4458 186.508C95.0338 186.304 95.6698 186.202 96.3538 186.202C97.0738 186.202 97.7398 186.31 98.3518 186.526C98.9638 186.742 99.5098 187.054 99.9898 187.462C100.47 187.87 100.86 188.368 101.16 188.956C101.46 189.544 101.646 190.21 101.718 190.954L100.098 191.17C100.05 190.378 99.8518 189.712 99.5038 189.172C99.1678 188.62 98.7298 188.206 98.1898 187.93C97.6498 187.642 97.0438 187.498 96.3718 187.498C95.8678 187.498 95.3998 187.582 94.9678 187.75C94.5478 187.906 94.1578 188.14 93.7978 188.452C93.4498 188.752 93.1498 189.118 92.8978 189.55C92.6578 189.97 92.4658 190.45 92.3218 190.99C92.1898 191.518 92.1238 192.088 92.1238 192.7C92.1238 193.744 92.3098 194.662 92.6818 195.454C93.0538 196.234 93.5638 196.846 94.2118 197.29C94.8718 197.722 95.6158 197.938 96.4438 197.938C97.1278 197.938 97.7338 197.794 98.2618 197.506C98.8018 197.206 99.2338 196.792 99.5578 196.264C99.8818 195.724 100.068 195.1 100.116 194.392L101.736 194.518C101.688 195.214 101.526 195.85 101.25 196.426C100.986 197.002 100.614 197.5 100.134 197.92C99.6658 198.34 99.1198 198.664 98.4958 198.892C97.8838 199.12 97.2058 199.234 96.4618 199.234ZM109.073 199C109.025 198.856 108.983 198.664 108.947 198.424C108.911 198.184 108.887 197.938 108.875 197.686C108.863 197.422 108.857 197.206 108.857 197.038V192.79C108.857 192.358 108.677 192.01 108.317 191.746C107.957 191.47 107.459 191.332 106.823 191.332C106.091 191.332 105.521 191.518 105.113 191.89C104.705 192.25 104.483 192.73 104.447 193.33L103.007 193.186C103.055 192.742 103.181 192.334 103.385 191.962C103.589 191.59 103.859 191.272 104.195 191.008C104.531 190.744 104.921 190.54 105.365 190.396C105.809 190.252 106.295 190.18 106.823 190.18C107.507 190.18 108.107 190.3 108.623 190.54C109.151 190.768 109.565 191.098 109.865 191.53C110.165 191.962 110.315 192.478 110.315 193.078V196.876C110.315 197.032 110.321 197.254 110.333 197.542C110.357 197.818 110.393 198.094 110.441 198.37C110.501 198.646 110.579 198.856 110.675 199H109.073ZM105.743 199.234C105.203 199.234 104.723 199.138 104.303 198.946C103.895 198.754 103.571 198.478 103.331 198.118C103.103 197.746 102.989 197.308 102.989 196.804C102.989 196.312 103.091 195.904 103.295 195.58C103.511 195.256 103.793 194.998 104.141 194.806C104.489 194.602 104.873 194.446 105.293 194.338C105.713 194.218 106.127 194.116 106.535 194.032C106.955 193.948 107.339 193.858 107.687 193.762C108.035 193.666 108.317 193.546 108.533 193.402C108.749 193.246 108.857 193.042 108.857 192.79L109.037 193.942C108.941 194.158 108.761 194.332 108.497 194.464C108.245 194.584 107.945 194.686 107.597 194.77C107.249 194.854 106.895 194.944 106.535 195.04C106.175 195.124 105.839 195.232 105.527 195.364C105.215 195.496 104.963 195.67 104.771 195.886C104.579 196.102 104.483 196.39 104.483 196.75C104.483 197.17 104.627 197.5 104.915 197.74C105.203 197.968 105.593 198.082 106.085 198.082C106.541 198.082 106.937 197.998 107.273 197.83C107.621 197.65 107.909 197.428 108.137 197.164C108.377 196.888 108.557 196.594 108.677 196.282C108.797 195.97 108.857 195.67 108.857 195.382L108.983 196.48C108.959 197.02 108.803 197.5 108.515 197.92C108.227 198.34 107.843 198.664 107.363 198.892C106.895 199.12 106.355 199.234 105.743 199.234ZM117.032 199.234C116.588 199.234 116.162 199.156 115.754 199C115.358 198.856 115.004 198.646 114.692 198.37C114.392 198.094 114.146 197.764 113.954 197.38V202.204H112.478V190.396H113.954V192.052C114.146 191.656 114.392 191.32 114.692 191.044C115.004 190.768 115.358 190.558 115.754 190.414C116.162 190.258 116.594 190.18 117.05 190.18C117.602 190.18 118.106 190.288 118.562 190.504C119.018 190.72 119.414 191.032 119.75 191.44C120.098 191.836 120.368 192.31 120.56 192.862C120.752 193.414 120.848 194.026 120.848 194.698C120.848 195.37 120.752 195.982 120.56 196.534C120.368 197.086 120.098 197.566 119.75 197.974C119.414 198.37 119.012 198.682 118.544 198.91C118.088 199.126 117.584 199.234 117.032 199.234ZM113.954 194.698C113.954 195.394 114.068 195.994 114.296 196.498C114.536 196.99 114.86 197.368 115.268 197.632C115.676 197.884 116.138 198.01 116.654 198.01C117.062 198.01 117.434 197.938 117.77 197.794C118.106 197.638 118.388 197.416 118.616 197.128C118.856 196.828 119.036 196.474 119.156 196.066C119.288 195.658 119.354 195.202 119.354 194.698C119.354 194.026 119.246 193.444 119.03 192.952C118.814 192.448 118.502 192.064 118.094 191.8C117.686 191.524 117.206 191.386 116.654 191.386C116.27 191.386 115.91 191.464 115.574 191.62C115.25 191.764 114.962 191.98 114.71 192.268C114.47 192.544 114.284 192.892 114.152 193.312C114.02 193.72 113.954 194.182 113.954 194.698ZM125.709 199.234C125.229 199.234 124.797 199.138 124.413 198.946C124.041 198.742 123.747 198.448 123.531 198.064C123.315 197.668 123.207 197.182 123.207 196.606V187.768H124.665V196.426C124.665 196.978 124.779 197.38 125.007 197.632C125.235 197.872 125.535 197.992 125.907 197.992C126.111 197.992 126.333 197.95 126.573 197.866C126.813 197.782 127.017 197.626 127.185 197.398L127.491 198.64C127.359 198.748 127.203 198.85 127.023 198.946C126.843 199.042 126.639 199.114 126.411 199.162C126.183 199.21 125.949 199.234 125.709 199.234ZM121.497 191.566V190.396H127.311V191.566H121.497ZM128.939 199V190.396H130.415V199H128.939ZM129.677 188.83C129.389 188.83 129.155 188.746 128.975 188.578C128.795 188.398 128.705 188.176 128.705 187.912C128.705 187.648 128.795 187.426 128.975 187.246C129.155 187.066 129.389 186.976 129.677 186.976C129.953 186.976 130.181 187.066 130.361 187.246C130.553 187.426 130.649 187.648 130.649 187.912C130.649 188.092 130.607 188.254 130.523 188.398C130.439 188.53 130.319 188.638 130.163 188.722C130.019 188.794 129.857 188.83 129.677 188.83ZM136.361 199.234C135.737 199.234 135.167 199.126 134.651 198.91C134.147 198.682 133.709 198.37 133.337 197.974C132.965 197.566 132.677 197.086 132.473 196.534C132.269 195.982 132.167 195.37 132.167 194.698C132.167 194.038 132.269 193.432 132.473 192.88C132.677 192.328 132.965 191.848 133.337 191.44C133.709 191.032 134.147 190.72 134.651 190.504C135.167 190.288 135.737 190.18 136.361 190.18C136.973 190.18 137.537 190.288 138.053 190.504C138.569 190.72 139.013 191.032 139.385 191.44C139.769 191.848 140.063 192.328 140.267 192.88C140.471 193.432 140.573 194.038 140.573 194.698C140.573 195.358 140.471 195.97 140.267 196.534C140.063 197.086 139.769 197.566 139.385 197.974C139.013 198.37 138.569 198.682 138.053 198.91C137.549 199.126 136.985 199.234 136.361 199.234ZM136.361 198.028C136.757 198.028 137.123 197.95 137.459 197.794C137.795 197.626 138.083 197.398 138.323 197.11C138.575 196.822 138.767 196.474 138.899 196.066C139.031 195.658 139.097 195.202 139.097 194.698C139.097 194.038 138.977 193.456 138.737 192.952C138.509 192.448 138.191 192.064 137.783 191.8C137.375 191.524 136.901 191.386 136.361 191.386C135.953 191.386 135.581 191.464 135.245 191.62C134.921 191.776 134.639 192.004 134.399 192.304C134.159 192.592 133.973 192.94 133.841 193.348C133.709 193.744 133.643 194.194 133.643 194.698C133.643 195.358 133.757 195.94 133.985 196.444C134.213 196.936 134.531 197.326 134.939 197.614C135.359 197.89 135.833 198.028 136.361 198.028ZM148.679 199V193.906C148.679 193.09 148.487 192.472 148.103 192.052C147.719 191.62 147.191 191.404 146.519 191.404C146.015 191.404 145.553 191.536 145.133 191.8C144.725 192.052 144.401 192.43 144.161 192.934C143.921 193.426 143.801 194.026 143.801 194.734V199H142.325V190.396H143.801V192.178C143.969 191.782 144.197 191.434 144.485 191.134C144.785 190.834 145.145 190.6 145.565 190.432C145.985 190.264 146.453 190.18 146.969 190.18C147.605 190.18 148.157 190.318 148.625 190.594C149.105 190.858 149.477 191.26 149.741 191.8C150.005 192.328 150.137 192.982 150.137 193.762V199H148.679Z" fill="#F5F3FF" fill-opacity="0.68"/>
<path d="M99.356 237V224.436H102.002V237H99.356ZM91.49 237V224.436H94.136V237H91.49ZM93.83 231.528V229.512H99.68V231.528H93.83ZM107.969 237.252C107.237 237.252 106.583 237.132 106.007 236.892C105.443 236.652 104.969 236.322 104.585 235.902C104.213 235.47 103.931 234.978 103.739 234.426C103.547 233.874 103.451 233.292 103.451 232.68C103.451 232.032 103.553 231.426 103.757 230.862C103.973 230.298 104.279 229.806 104.675 229.386C105.071 228.954 105.545 228.624 106.097 228.396C106.661 228.156 107.291 228.036 107.987 228.036C108.755 228.036 109.421 228.18 109.985 228.468C110.561 228.756 111.023 229.146 111.371 229.638C111.731 230.118 111.971 230.658 112.091 231.258C112.211 231.846 112.205 232.452 112.073 233.076H104.729L105.899 232.14C105.815 232.68 105.803 233.148 105.863 233.544C105.935 233.94 106.067 234.276 106.259 234.552C106.451 234.828 106.685 235.032 106.961 235.164C107.249 235.296 107.573 235.368 107.933 235.38C108.449 235.392 108.857 235.272 109.157 235.02C109.457 234.768 109.631 234.45 109.679 234.066L112.091 234.228C112.031 234.78 111.821 235.29 111.461 235.758C111.113 236.214 110.645 236.58 110.057 236.856C109.469 237.12 108.773 237.252 107.969 237.252ZM105.971 231.618H109.661C109.673 231.282 109.613 230.982 109.481 230.718C109.361 230.454 109.169 230.244 108.905 230.088C108.653 229.932 108.329 229.854 107.933 229.854C107.549 229.854 107.219 229.932 106.943 230.088C106.667 230.232 106.445 230.436 106.277 230.7C106.121 230.964 106.019 231.27 105.971 231.618ZM118.972 237C118.924 236.868 118.888 236.706 118.864 236.514C118.84 236.322 118.822 236.118 118.81 235.902C118.798 235.674 118.792 235.464 118.792 235.272V230.898C118.792 230.598 118.666 230.358 118.414 230.178C118.162 229.986 117.814 229.89 117.37 229.89C116.866 229.89 116.464 230.028 116.164 230.304C115.864 230.568 115.708 230.922 115.696 231.366L113.284 231.114C113.332 230.67 113.47 230.262 113.698 229.89C113.938 229.518 114.244 229.194 114.616 228.918C114.988 228.63 115.408 228.414 115.876 228.27C116.356 228.114 116.872 228.036 117.424 228.036C118.192 228.036 118.864 228.174 119.44 228.45C120.016 228.726 120.46 229.116 120.772 229.62C121.096 230.124 121.258 230.736 121.258 231.456V234.822C121.258 235.014 121.264 235.254 121.276 235.542C121.288 235.83 121.318 236.112 121.366 236.388C121.426 236.652 121.498 236.856 121.582 237H118.972ZM116.038 237.252C115.51 237.252 115.03 237.156 114.598 236.964C114.178 236.76 113.842 236.472 113.59 236.1C113.35 235.716 113.23 235.266 113.23 234.75C113.23 234.246 113.332 233.832 113.536 233.508C113.74 233.184 114.004 232.926 114.328 232.734C114.664 232.542 115.03 232.392 115.426 232.284C115.822 232.164 116.212 232.068 116.596 231.996C116.992 231.912 117.352 231.828 117.676 231.744C118.012 231.66 118.282 231.552 118.486 231.42C118.69 231.288 118.792 231.114 118.792 230.898L119.098 232.482C118.99 232.65 118.828 232.788 118.612 232.896C118.408 232.992 118.18 233.076 117.928 233.148C117.688 233.22 117.442 233.292 117.19 233.364C116.938 233.436 116.704 233.52 116.488 233.616C116.272 233.712 116.098 233.838 115.966 233.994C115.846 234.15 115.786 234.342 115.786 234.57C115.786 234.846 115.876 235.062 116.056 235.218C116.248 235.362 116.5 235.434 116.812 235.434C117.124 235.434 117.4 235.374 117.64 235.254C117.88 235.134 118.084 234.972 118.252 234.768C118.432 234.552 118.564 234.318 118.648 234.066C118.744 233.814 118.792 233.556 118.792 233.292L119.008 234.534C119.008 235.086 118.882 235.566 118.63 235.974C118.39 236.382 118.048 236.7 117.604 236.928C117.172 237.144 116.65 237.252 116.038 237.252ZM126.473 228.036C126.845 228.036 127.193 228.09 127.517 228.198C127.853 228.306 128.153 228.462 128.417 228.666C128.681 228.87 128.909 229.116 129.101 229.404V224.436H131.585V237H129.101V235.848C128.921 236.136 128.693 236.388 128.417 236.604C128.153 236.808 127.853 236.964 127.517 237.072C127.193 237.192 126.839 237.252 126.455 237.252C125.879 237.252 125.351 237.138 124.871 236.91C124.403 236.67 123.995 236.34 123.647 235.92C123.311 235.5 123.053 235.014 122.873 234.462C122.693 233.898 122.603 233.292 122.603 232.644C122.603 231.996 122.693 231.396 122.873 230.844C123.053 230.28 123.311 229.788 123.647 229.368C123.995 228.948 124.403 228.624 124.871 228.396C125.351 228.156 125.885 228.036 126.473 228.036ZM125.105 232.644C125.105 233.172 125.183 233.634 125.339 234.03C125.507 234.426 125.741 234.732 126.041 234.948C126.353 235.164 126.707 235.272 127.103 235.272C127.403 235.272 127.673 235.212 127.913 235.092C128.153 234.972 128.363 234.804 128.543 234.588C128.723 234.36 128.861 234.084 128.957 233.76C129.053 233.424 129.101 233.052 129.101 232.644C129.101 232.092 129.017 231.624 128.849 231.24C128.681 230.844 128.447 230.544 128.147 230.34C127.847 230.124 127.499 230.016 127.103 230.016C126.803 230.016 126.527 230.076 126.275 230.196C126.035 230.316 125.825 230.496 125.645 230.736C125.477 230.964 125.345 231.24 125.249 231.564C125.153 231.888 125.105 232.248 125.105 232.644ZM137.513 237.252C136.781 237.252 136.127 237.132 135.551 236.892C134.987 236.652 134.513 236.322 134.129 235.902C133.757 235.47 133.475 234.978 133.283 234.426C133.091 233.874 132.995 233.292 132.995 232.68C132.995 232.032 133.097 231.426 133.301 230.862C133.517 230.298 133.823 229.806 134.219 229.386C134.615 228.954 135.089 228.624 135.641 228.396C136.205 228.156 136.835 228.036 137.531 228.036C138.299 228.036 138.965 228.18 139.529 228.468C140.105 228.756 140.567 229.146 140.915 229.638C141.275 230.118 141.515 230.658 141.635 231.258C141.755 231.846 141.749 232.452 141.617 233.076H134.273L135.443 232.14C135.359 232.68 135.347 233.148 135.407 233.544C135.479 233.94 135.611 234.276 135.803 234.552C135.995 234.828 136.229 235.032 136.505 235.164C136.793 235.296 137.117 235.368 137.477 235.38C137.993 235.392 138.401 235.272 138.701 235.02C139.001 234.768 139.175 234.45 139.223 234.066L141.635 234.228C141.575 234.78 141.365 235.29 141.005 235.758C140.657 236.214 140.189 236.58 139.601 236.856C139.013 237.12 138.317 237.252 137.513 237.252ZM135.515 231.618H139.205C139.217 231.282 139.157 230.982 139.025 230.718C138.905 230.454 138.713 230.244 138.449 230.088C138.197 229.932 137.873 229.854 137.477 229.854C137.093 229.854 136.763 229.932 136.487 230.088C136.211 230.232 135.989 230.436 135.821 230.7C135.665 230.964 135.563 231.27 135.515 231.618ZM143.169 237V228.288H145.635V229.998C145.755 229.614 145.935 229.278 146.175 228.99C146.415 228.69 146.709 228.456 147.057 228.288C147.405 228.12 147.795 228.036 148.227 228.036C148.407 228.036 148.593 228.06 148.785 228.108C148.989 228.144 149.187 228.21 149.379 228.306L149.163 230.646C148.947 230.514 148.731 230.418 148.515 230.358C148.299 230.298 148.071 230.268 147.831 230.268C147.639 230.268 147.441 230.298 147.237 230.358C147.033 230.418 146.835 230.508 146.643 230.628C146.451 230.748 146.277 230.91 146.121 231.114C145.965 231.318 145.845 231.57 145.761 231.87C145.677 232.17 145.635 232.524 145.635 232.932V237H143.169Z" fill="#F4F2FF"/>
<path d="M94.856 258.156C94.272 258.156 93.74 258.052 93.26 257.844C92.78 257.628 92.364 257.328 92.012 256.944C91.66 256.56 91.388 256.104 91.196 255.576C91.004 255.04 90.908 254.448 90.908 253.8C90.908 253.288 90.968 252.812 91.088 252.372C91.208 251.924 91.384 251.524 91.616 251.172C91.848 250.82 92.124 250.516 92.444 250.26C92.764 250.004 93.12 249.808 93.512 249.672C93.904 249.536 94.328 249.468 94.784 249.468C95.264 249.468 95.708 249.54 96.116 249.684C96.524 249.828 96.888 250.036 97.208 250.308C97.528 250.58 97.788 250.912 97.988 251.304C98.188 251.696 98.312 252.14 98.36 252.636L97.28 252.78C97.248 252.252 97.116 251.808 96.884 251.448C96.66 251.08 96.368 250.804 96.008 250.62C95.648 250.428 95.244 250.332 94.796 250.332C94.46 250.332 94.148 250.388 93.86 250.5C93.58 250.604 93.32 250.76 93.08 250.968C92.848 251.168 92.648 251.412 92.48 251.7C92.32 251.98 92.192 252.3 92.096 252.66C92.008 253.012 91.964 253.392 91.964 253.8C91.964 254.496 92.088 255.108 92.336 255.636C92.584 256.156 92.924 256.564 93.356 256.86C93.796 257.148 94.292 257.292 94.844 257.292C95.3 257.292 95.704 257.196 96.056 257.004C96.416 256.804 96.704 256.528 96.92 256.176C97.136 255.816 97.26 255.4 97.292 254.928L98.372 255.012C98.34 255.476 98.232 255.9 98.048 256.284C97.872 256.668 97.624 257 97.304 257.28C96.992 257.56 96.628 257.776 96.212 257.928C95.804 258.08 95.352 258.156 94.856 258.156ZM103.263 258C103.231 257.904 103.203 257.776 103.179 257.616C103.155 257.456 103.139 257.292 103.131 257.124C103.123 256.948 103.119 256.804 103.119 256.692V253.86C103.119 253.572 102.999 253.34 102.759 253.164C102.519 252.98 102.187 252.888 101.763 252.888C101.275 252.888 100.895 253.012 100.623 253.26C100.351 253.5 100.203 253.82 100.179 254.22L99.2194 254.124C99.2514 253.828 99.3354 253.556 99.4714 253.308C99.6074 253.06 99.7874 252.848 100.011 252.672C100.235 252.496 100.495 252.36 100.791 252.264C101.087 252.168 101.411 252.12 101.763 252.12C102.219 252.12 102.619 252.2 102.963 252.36C103.315 252.512 103.591 252.732 103.791 253.02C103.991 253.308 104.091 253.652 104.091 254.052V256.584C104.091 256.688 104.095 256.836 104.103 257.028C104.119 257.212 104.143 257.396 104.175 257.58C104.215 257.764 104.267 257.904 104.331 258H103.263ZM101.043 258.156C100.683 258.156 100.363 258.092 100.083 257.964C99.8114 257.836 99.5954 257.652 99.4354 257.412C99.2834 257.164 99.2074 256.872 99.2074 256.536C99.2074 256.208 99.2754 255.936 99.4114 255.72C99.5554 255.504 99.7434 255.332 99.9754 255.204C100.207 255.068 100.463 254.964 100.743 254.892C101.023 254.812 101.299 254.744 101.571 254.688C101.851 254.632 102.107 254.572 102.339 254.508C102.571 254.444 102.759 254.364 102.903 254.268C103.047 254.164 103.119 254.028 103.119 253.86L103.239 254.628C103.175 254.772 103.055 254.888 102.879 254.976C102.711 255.056 102.511 255.124 102.279 255.18C102.047 255.236 101.811 255.296 101.571 255.36C101.331 255.416 101.107 255.488 100.899 255.576C100.691 255.664 100.523 255.78 100.395 255.924C100.267 256.068 100.203 256.26 100.203 256.5C100.203 256.78 100.299 257 100.491 257.16C100.683 257.312 100.943 257.388 101.271 257.388C101.575 257.388 101.839 257.332 102.063 257.22C102.295 257.1 102.487 256.952 102.639 256.776C102.799 256.592 102.919 256.396 102.999 256.188C103.079 255.98 103.119 255.78 103.119 255.588L103.203 256.32C103.187 256.68 103.083 257 102.891 257.28C102.699 257.56 102.443 257.776 102.123 257.928C101.811 258.08 101.451 258.156 101.043 258.156ZM108.569 258.156C108.273 258.156 107.989 258.104 107.717 258C107.453 257.904 107.217 257.764 107.009 257.58C106.809 257.396 106.645 257.176 106.517 256.92V260.136H105.533V252.264H106.517V253.368C106.645 253.104 106.809 252.88 107.009 252.696C107.217 252.512 107.453 252.372 107.717 252.276C107.989 252.172 108.277 252.12 108.581 252.12C108.949 252.12 109.285 252.192 109.589 252.336C109.893 252.48 110.157 252.688 110.381 252.96C110.613 253.224 110.793 253.54 110.921 253.908C111.049 254.276 111.113 254.684 111.113 255.132C111.113 255.58 111.049 255.988 110.921 256.356C110.793 256.724 110.613 257.044 110.381 257.316C110.157 257.58 109.889 257.788 109.577 257.94C109.273 258.084 108.937 258.156 108.569 258.156ZM106.517 255.132C106.517 255.596 106.593 255.996 106.745 256.332C106.905 256.66 107.121 256.912 107.393 257.088C107.665 257.256 107.973 257.34 108.317 257.34C108.589 257.34 108.837 257.292 109.061 257.196C109.285 257.092 109.473 256.944 109.625 256.752C109.785 256.552 109.905 256.316 109.985 256.044C110.073 255.772 110.117 255.468 110.117 255.132C110.117 254.684 110.045 254.296 109.901 253.968C109.757 253.632 109.549 253.376 109.277 253.2C109.005 253.016 108.685 252.924 108.317 252.924C108.061 252.924 107.821 252.976 107.597 253.08C107.381 253.176 107.189 253.32 107.021 253.512C106.861 253.696 106.737 253.928 106.649 254.208C106.561 254.48 106.517 254.788 106.517 255.132ZM114.354 258.156C114.034 258.156 113.746 258.092 113.49 257.964C113.242 257.828 113.046 257.632 112.902 257.376C112.758 257.112 112.686 256.788 112.686 256.404V250.512H113.658V256.284C113.658 256.652 113.734 256.92 113.886 257.088C114.038 257.248 114.238 257.328 114.486 257.328C114.622 257.328 114.77 257.3 114.93 257.244C115.09 257.188 115.226 257.084 115.338 256.932L115.542 257.76C115.454 257.832 115.35 257.9 115.23 257.964C115.11 258.028 114.974 258.076 114.822 258.108C114.67 258.14 114.514 258.156 114.354 258.156ZM111.546 253.044V252.264H115.422V253.044H111.546ZM116.508 258V252.264H117.492V258H116.508ZM117 251.22C116.808 251.22 116.652 251.164 116.532 251.052C116.412 250.932 116.352 250.784 116.352 250.608C116.352 250.432 116.412 250.284 116.532 250.164C116.652 250.044 116.808 249.984 117 249.984C117.184 249.984 117.336 250.044 117.456 250.164C117.584 250.284 117.648 250.432 117.648 250.608C117.648 250.728 117.62 250.836 117.564 250.932C117.508 251.02 117.428 251.092 117.324 251.148C117.228 251.196 117.12 251.22 117 251.22ZM121.455 258.156C121.039 258.156 120.659 258.084 120.315 257.94C119.979 257.788 119.687 257.58 119.439 257.316C119.191 257.044 118.999 256.724 118.863 256.356C118.727 255.988 118.659 255.58 118.659 255.132C118.659 254.692 118.727 254.288 118.863 253.92C118.999 253.552 119.191 253.232 119.439 252.96C119.687 252.688 119.979 252.48 120.315 252.336C120.659 252.192 121.039 252.12 121.455 252.12C121.863 252.12 122.239 252.192 122.583 252.336C122.927 252.48 123.223 252.688 123.471 252.96C123.727 253.232 123.923 253.552 124.059 253.92C124.195 254.288 124.263 254.692 124.263 255.132C124.263 255.572 124.195 255.98 124.059 256.356C123.923 256.724 123.727 257.044 123.471 257.316C123.223 257.58 122.927 257.788 122.583 257.94C122.247 258.084 121.871 258.156 121.455 258.156ZM121.455 257.352C121.719 257.352 121.963 257.3 122.187 257.196C122.411 257.084 122.603 256.932 122.763 256.74C122.931 256.548 123.059 256.316 123.147 256.044C123.235 255.772 123.279 255.468 123.279 255.132C123.279 254.692 123.199 254.304 123.039 253.968C122.887 253.632 122.675 253.376 122.403 253.2C122.131 253.016 121.815 252.924 121.455 252.924C121.183 252.924 120.935 252.976 120.711 253.08C120.495 253.184 120.307 253.336 120.147 253.536C119.987 253.728 119.863 253.96 119.775 254.232C119.687 254.496 119.643 254.796 119.643 255.132C119.643 255.572 119.719 255.96 119.871 256.296C120.023 256.624 120.235 256.884 120.507 257.076C120.787 257.26 121.103 257.352 121.455 257.352ZM129.667 258V254.604C129.667 254.06 129.539 253.648 129.283 253.368C129.027 253.08 128.675 252.936 128.227 252.936C127.891 252.936 127.583 253.024 127.303 253.2C127.031 253.368 126.815 253.62 126.655 253.956C126.495 254.284 126.415 254.684 126.415 255.156V258H125.431V252.264H126.415V253.452C126.527 253.188 126.679 252.956 126.871 252.756C127.071 252.556 127.311 252.4 127.591 252.288C127.871 252.176 128.183 252.12 128.527 252.12C128.951 252.12 129.319 252.212 129.631 252.396C129.951 252.572 130.199 252.84 130.375 253.2C130.551 253.552 130.639 253.988 130.639 254.508V258H129.667Z" fill="#F5F3FF" fill-opacity="0.68"/>
<path d="M102.88 293V282.53H105.085V293H102.88ZM96.325 293V282.53H98.53V293H96.325ZM98.275 288.44V286.76H103.15V288.44H98.275ZM110.058 293.21C109.448 293.21 108.903 293.11 108.423 292.91C107.953 292.71 107.558 292.435 107.238 292.085C106.928 291.725 106.693 291.315 106.533 290.855C106.373 290.395 106.293 289.91 106.293 289.4C106.293 288.86 106.378 288.355 106.548 287.885C106.728 287.415 106.983 287.005 107.313 286.655C107.643 286.295 108.038 286.02 108.498 285.83C108.968 285.63 109.493 285.53 110.073 285.53C110.713 285.53 111.268 285.65 111.738 285.89C112.218 286.13 112.603 286.455 112.893 286.865C113.193 287.265 113.393 287.715 113.493 288.215C113.593 288.705 113.588 289.21 113.478 289.73H107.358L108.333 288.95C108.263 289.4 108.253 289.79 108.303 290.12C108.363 290.45 108.473 290.73 108.633 290.96C108.793 291.19 108.988 291.36 109.218 291.47C109.458 291.58 109.728 291.64 110.028 291.65C110.458 291.66 110.798 291.56 111.048 291.35C111.298 291.14 111.443 290.875 111.483 290.555L113.493 290.69C113.443 291.15 113.268 291.575 112.968 291.965C112.678 292.345 112.288 292.65 111.798 292.88C111.308 293.1 110.728 293.21 110.058 293.21ZM108.393 288.515H111.468C111.478 288.235 111.428 287.985 111.318 287.765C111.218 287.545 111.058 287.37 110.838 287.24C110.628 287.11 110.358 287.045 110.028 287.045C109.708 287.045 109.433 287.11 109.203 287.24C108.973 287.36 108.788 287.53 108.648 287.75C108.518 287.97 108.433 288.225 108.393 288.515ZM119.226 293C119.186 292.89 119.156 292.755 119.136 292.595C119.116 292.435 119.101 292.265 119.091 292.085C119.081 291.895 119.076 291.72 119.076 291.56V287.915C119.076 287.665 118.971 287.465 118.761 287.315C118.551 287.155 118.261 287.075 117.891 287.075C117.471 287.075 117.136 287.19 116.886 287.42C116.636 287.64 116.506 287.935 116.496 288.305L114.486 288.095C114.526 287.725 114.641 287.385 114.831 287.075C115.031 286.765 115.286 286.495 115.596 286.265C115.906 286.025 116.256 285.845 116.646 285.725C117.046 285.595 117.476 285.53 117.936 285.53C118.576 285.53 119.136 285.645 119.616 285.875C120.096 286.105 120.466 286.43 120.726 286.85C120.996 287.27 121.131 287.78 121.131 288.38V291.185C121.131 291.345 121.136 291.545 121.146 291.785C121.156 292.025 121.181 292.26 121.221 292.49C121.271 292.71 121.331 292.88 121.401 293H119.226ZM116.781 293.21C116.341 293.21 115.941 293.13 115.581 292.97C115.231 292.8 114.951 292.56 114.741 292.25C114.541 291.93 114.441 291.555 114.441 291.125C114.441 290.705 114.526 290.36 114.696 290.09C114.866 289.82 115.086 289.605 115.356 289.445C115.636 289.285 115.941 289.16 116.271 289.07C116.601 288.97 116.926 288.89 117.246 288.83C117.576 288.76 117.876 288.69 118.146 288.62C118.426 288.55 118.651 288.46 118.821 288.35C118.991 288.24 119.076 288.095 119.076 287.915L119.331 289.235C119.241 289.375 119.106 289.49 118.926 289.58C118.756 289.66 118.566 289.73 118.356 289.79C118.156 289.85 117.951 289.91 117.741 289.97C117.531 290.03 117.336 290.1 117.156 290.18C116.976 290.26 116.831 290.365 116.721 290.495C116.621 290.625 116.571 290.785 116.571 290.975C116.571 291.205 116.646 291.385 116.796 291.515C116.956 291.635 117.166 291.695 117.426 291.695C117.686 291.695 117.916 291.645 118.116 291.545C118.316 291.445 118.486 291.31 118.626 291.14C118.776 290.96 118.886 290.765 118.956 290.555C119.036 290.345 119.076 290.13 119.076 289.91L119.256 290.945C119.256 291.405 119.151 291.805 118.941 292.145C118.741 292.485 118.456 292.75 118.086 292.94C117.726 293.12 117.291 293.21 116.781 293.21ZM125.477 285.53C125.787 285.53 126.077 285.575 126.347 285.665C126.627 285.755 126.877 285.885 127.097 286.055C127.317 286.225 127.507 286.43 127.667 286.67V282.53H129.737V293H127.667V292.04C127.517 292.28 127.327 292.49 127.097 292.67C126.877 292.84 126.627 292.97 126.347 293.06C126.077 293.16 125.782 293.21 125.462 293.21C124.982 293.21 124.542 293.115 124.142 292.925C123.752 292.725 123.412 292.45 123.122 292.1C122.842 291.75 122.627 291.345 122.477 290.885C122.327 290.415 122.252 289.91 122.252 289.37C122.252 288.83 122.327 288.33 122.477 287.87C122.627 287.4 122.842 286.99 123.122 286.64C123.412 286.29 123.752 286.02 124.142 285.83C124.542 285.63 124.987 285.53 125.477 285.53ZM124.337 289.37C124.337 289.81 124.402 290.195 124.532 290.525C124.672 290.855 124.867 291.11 125.117 291.29C125.377 291.47 125.672 291.56 126.002 291.56C126.252 291.56 126.477 291.51 126.677 291.41C126.877 291.31 127.052 291.17 127.202 290.99C127.352 290.8 127.467 290.57 127.547 290.3C127.627 290.02 127.667 289.71 127.667 289.37C127.667 288.91 127.597 288.52 127.457 288.2C127.317 287.87 127.122 287.62 126.872 287.45C126.622 287.27 126.332 287.18 126.002 287.18C125.752 287.18 125.522 287.23 125.312 287.33C125.112 287.43 124.937 287.58 124.787 287.78C124.647 287.97 124.537 288.2 124.457 288.47C124.377 288.74 124.337 289.04 124.337 289.37ZM134.678 293.21C134.068 293.21 133.523 293.11 133.043 292.91C132.573 292.71 132.178 292.435 131.858 292.085C131.548 291.725 131.313 291.315 131.153 290.855C130.993 290.395 130.913 289.91 130.913 289.4C130.913 288.86 130.998 288.355 131.168 287.885C131.348 287.415 131.603 287.005 131.933 286.655C132.263 286.295 132.658 286.02 133.118 285.83C133.588 285.63 134.113 285.53 134.693 285.53C135.333 285.53 135.888 285.65 136.358 285.89C136.838 286.13 137.223 286.455 137.513 286.865C137.813 287.265 138.013 287.715 138.113 288.215C138.213 288.705 138.208 289.21 138.098 289.73H131.978L132.953 288.95C132.883 289.4 132.873 289.79 132.923 290.12C132.983 290.45 133.093 290.73 133.253 290.96C133.413 291.19 133.608 291.36 133.838 291.47C134.078 291.58 134.348 291.64 134.648 291.65C135.078 291.66 135.418 291.56 135.668 291.35C135.918 291.14 136.063 290.875 136.103 290.555L138.113 290.69C138.063 291.15 137.888 291.575 137.588 291.965C137.298 292.345 136.908 292.65 136.418 292.88C135.928 293.1 135.348 293.21 134.678 293.21ZM133.013 288.515H136.088C136.098 288.235 136.048 287.985 135.938 287.765C135.838 287.545 135.678 287.37 135.458 287.24C135.248 287.11 134.978 287.045 134.648 287.045C134.328 287.045 134.053 287.11 133.823 287.24C133.593 287.36 133.408 287.53 133.268 287.75C133.138 287.97 133.053 288.225 133.013 288.515ZM139.391 293V285.74H141.446V287.165C141.546 286.845 141.696 286.565 141.896 286.325C142.096 286.075 142.341 285.88 142.631 285.74C142.921 285.6 143.246 285.53 143.606 285.53C143.756 285.53 143.911 285.55 144.071 285.59C144.241 285.62 144.406 285.675 144.566 285.755L144.386 287.705C144.206 287.595 144.026 287.515 143.846 287.465C143.666 287.415 143.476 287.39 143.276 287.39C143.116 287.39 142.951 287.415 142.781 287.465C142.611 287.515 142.446 287.59 142.286 287.69C142.126 287.79 141.981 287.925 141.851 288.095C141.721 288.265 141.621 288.475 141.551 288.725C141.481 288.975 141.446 289.27 141.446 289.61V293H139.391Z" fill="#F4F2FF"/>
<path d="M98.767 309.117C98.329 309.117 97.93 309.039 97.57 308.883C97.21 308.721 96.898 308.496 96.634 308.208C96.37 307.92 96.166 307.578 96.022 307.182C95.878 306.78 95.806 306.336 95.806 305.85C95.806 305.466 95.851 305.109 95.941 304.779C96.031 304.443 96.163 304.143 96.337 303.879C96.511 303.615 96.718 303.387 96.958 303.195C97.198 303.003 97.465 302.856 97.759 302.754C98.053 302.652 98.371 302.601 98.713 302.601C99.073 302.601 99.406 302.655 99.712 302.763C100.018 302.871 100.291 303.027 100.531 303.231C100.771 303.435 100.966 303.684 101.116 303.978C101.266 304.272 101.359 304.605 101.395 304.977L100.585 305.085C100.561 304.689 100.462 304.356 100.288 304.086C100.12 303.81 99.901 303.603 99.631 303.465C99.361 303.321 99.058 303.249 98.722 303.249C98.47 303.249 98.236 303.291 98.02 303.375C97.81 303.453 97.615 303.57 97.435 303.726C97.261 303.876 97.111 304.059 96.985 304.275C96.865 304.485 96.769 304.725 96.697 304.995C96.631 305.259 96.598 305.544 96.598 305.85C96.598 306.372 96.691 306.831 96.877 307.227C97.063 307.617 97.318 307.923 97.642 308.145C97.972 308.361 98.344 308.469 98.758 308.469C99.1 308.469 99.403 308.397 99.667 308.253C99.937 308.103 100.153 307.896 100.315 307.632C100.477 307.362 100.57 307.05 100.594 306.696L101.404 306.759C101.38 307.107 101.299 307.425 101.161 307.713C101.029 308.001 100.843 308.25 100.603 308.46C100.369 308.67 100.096 308.832 99.784 308.946C99.478 309.06 99.139 309.117 98.767 309.117ZM105.073 309C105.049 308.928 105.028 308.832 105.01 308.712C104.992 308.592 104.98 308.469 104.974 308.343C104.968 308.211 104.965 308.103 104.965 308.019V305.895C104.965 305.679 104.875 305.505 104.695 305.373C104.515 305.235 104.266 305.166 103.948 305.166C103.582 305.166 103.297 305.259 103.093 305.445C102.889 305.625 102.778 305.865 102.76 306.165L102.04 306.093C102.064 305.871 102.127 305.667 102.229 305.481C102.331 305.295 102.466 305.136 102.634 305.004C102.802 304.872 102.997 304.77 103.219 304.698C103.441 304.626 103.684 304.59 103.948 304.59C104.29 304.59 104.59 304.65 104.848 304.77C105.112 304.884 105.319 305.049 105.469 305.265C105.619 305.481 105.694 305.739 105.694 306.039V307.938C105.694 308.016 105.697 308.127 105.703 308.271C105.715 308.409 105.733 308.547 105.757 308.685C105.787 308.823 105.826 308.928 105.874 309H105.073ZM103.408 309.117C103.138 309.117 102.898 309.069 102.688 308.973C102.484 308.877 102.322 308.739 102.202 308.559C102.088 308.373 102.031 308.154 102.031 307.902C102.031 307.656 102.082 307.452 102.184 307.29C102.292 307.128 102.433 306.999 102.607 306.903C102.781 306.801 102.973 306.723 103.183 306.669C103.393 306.609 103.6 306.558 103.804 306.516C104.014 306.474 104.206 306.429 104.38 306.381C104.554 306.333 104.695 306.273 104.803 306.201C104.911 306.123 104.965 306.021 104.965 305.895L105.055 306.471C105.007 306.579 104.917 306.666 104.785 306.732C104.659 306.792 104.509 306.843 104.335 306.885C104.161 306.927 103.984 306.972 103.804 307.02C103.624 307.062 103.456 307.116 103.3 307.182C103.144 307.248 103.018 307.335 102.922 307.443C102.826 307.551 102.778 307.695 102.778 307.875C102.778 308.085 102.85 308.25 102.994 308.37C103.138 308.484 103.333 308.541 103.579 308.541C103.807 308.541 104.005 308.499 104.173 308.415C104.347 308.325 104.491 308.214 104.605 308.082C104.725 307.944 104.815 307.797 104.875 307.641C104.935 307.485 104.965 307.335 104.965 307.191L105.028 307.74C105.016 308.01 104.938 308.25 104.794 308.46C104.65 308.67 104.458 308.832 104.218 308.946C103.984 309.06 103.714 309.117 103.408 309.117ZM109.052 309.117C108.83 309.117 108.617 309.078 108.413 309C108.215 308.928 108.038 308.823 107.882 308.685C107.732 308.547 107.609 308.382 107.513 308.19V310.602H106.775V304.698H107.513V305.526C107.609 305.328 107.732 305.16 107.882 305.022C108.038 304.884 108.215 304.779 108.413 304.707C108.617 304.629 108.833 304.59 109.061 304.59C109.337 304.59 109.589 304.644 109.817 304.752C110.045 304.86 110.243 305.016 110.411 305.22C110.585 305.418 110.72 305.655 110.816 305.931C110.912 306.207 110.96 306.513 110.96 306.849C110.96 307.185 110.912 307.491 110.816 307.767C110.72 308.043 110.585 308.283 110.411 308.487C110.243 308.685 110.042 308.841 109.808 308.955C109.58 309.063 109.328 309.117 109.052 309.117ZM107.513 306.849C107.513 307.197 107.57 307.497 107.684 307.749C107.804 307.995 107.966 308.184 108.17 308.316C108.374 308.442 108.605 308.505 108.863 308.505C109.067 308.505 109.253 308.469 109.421 308.397C109.589 308.319 109.73 308.208 109.844 308.064C109.964 307.914 110.054 307.737 110.114 307.533C110.18 307.329 110.213 307.101 110.213 306.849C110.213 306.513 110.159 306.222 110.051 305.976C109.943 305.724 109.787 305.532 109.583 305.4C109.379 305.262 109.139 305.193 108.863 305.193C108.671 305.193 108.491 305.232 108.323 305.31C108.161 305.382 108.017 305.49 107.891 305.634C107.771 305.772 107.678 305.946 107.612 306.156C107.546 306.36 107.513 306.591 107.513 306.849ZM113.391 309.117C113.151 309.117 112.935 309.069 112.743 308.973C112.557 308.871 112.41 308.724 112.302 308.532C112.194 308.334 112.14 308.091 112.14 307.803V303.384H112.869V307.713C112.869 307.989 112.926 308.19 113.04 308.316C113.154 308.436 113.304 308.496 113.49 308.496C113.592 308.496 113.703 308.475 113.823 308.433C113.943 308.391 114.045 308.313 114.129 308.199L114.282 308.82C114.216 308.874 114.138 308.925 114.048 308.973C113.958 309.021 113.856 309.057 113.742 309.081C113.628 309.105 113.511 309.117 113.391 309.117ZM111.285 305.283V304.698H114.192V305.283H111.285ZM115.006 309V304.698H115.744V309H115.006ZM115.375 303.915C115.231 303.915 115.114 303.873 115.024 303.789C114.934 303.699 114.889 303.588 114.889 303.456C114.889 303.324 114.934 303.213 115.024 303.123C115.114 303.033 115.231 302.988 115.375 302.988C115.513 302.988 115.627 303.033 115.717 303.123C115.813 303.213 115.861 303.324 115.861 303.456C115.861 303.546 115.84 303.627 115.798 303.699C115.756 303.765 115.696 303.819 115.618 303.861C115.546 303.897 115.465 303.915 115.375 303.915ZM118.716 309.117C118.404 309.117 118.119 309.063 117.861 308.955C117.609 308.841 117.39 308.685 117.204 308.487C117.018 308.283 116.874 308.043 116.772 307.767C116.67 307.491 116.619 307.185 116.619 306.849C116.619 306.519 116.67 306.216 116.772 305.94C116.874 305.664 117.018 305.424 117.204 305.22C117.39 305.016 117.609 304.86 117.861 304.752C118.119 304.644 118.404 304.59 118.716 304.59C119.022 304.59 119.304 304.644 119.562 304.752C119.82 304.86 120.042 305.016 120.228 305.22C120.42 305.424 120.567 305.664 120.669 305.94C120.771 306.216 120.822 306.519 120.822 306.849C120.822 307.179 120.771 307.485 120.669 307.767C120.567 308.043 120.42 308.283 120.228 308.487C120.042 308.685 119.82 308.841 119.562 308.955C119.31 309.063 119.028 309.117 118.716 309.117ZM118.716 308.514C118.914 308.514 119.097 308.475 119.265 308.397C119.433 308.313 119.577 308.199 119.697 308.055C119.823 307.911 119.919 307.737 119.985 307.533C120.051 307.329 120.084 307.101 120.084 306.849C120.084 306.519 120.024 306.228 119.904 305.976C119.79 305.724 119.631 305.532 119.427 305.4C119.223 305.262 118.986 305.193 118.716 305.193C118.512 305.193 118.326 305.232 118.158 305.31C117.996 305.388 117.855 305.502 117.735 305.652C117.615 305.796 117.522 305.97 117.456 306.174C117.39 306.372 117.357 306.597 117.357 306.849C117.357 307.179 117.414 307.47 117.528 307.722C117.642 307.968 117.801 308.163 118.005 308.307C118.215 308.445 118.452 308.514 118.716 308.514ZM124.876 309V306.453C124.876 306.045 124.78 305.736 124.588 305.526C124.396 305.31 124.132 305.202 123.796 305.202C123.544 305.202 123.313 305.268 123.103 305.4C122.899 305.526 122.737 305.715 122.617 305.967C122.497 306.213 122.437 306.513 122.437 306.867V309H121.699V304.698H122.437V305.589C122.521 305.391 122.635 305.217 122.779 305.067C122.929 304.917 123.109 304.8 123.319 304.716C123.529 304.632 123.763 304.59 124.021 304.59C124.339 304.59 124.615 304.659 124.849 304.797C125.089 304.929 125.275 305.13 125.407 305.4C125.539 305.664 125.605 305.991 125.605 306.381V309H124.876Z" fill="#F5F3FF" fill-opacity="0.68"/>
</svg>

