<svg width="34" height="44" viewBox="0 0 34 44" fill="none" xmlns="http://www.w3.org/2000/svg">
<path d="M6.25684 30.66V34.3975C6.25684 39.3143 10.192 43.3117 15.0322 43.3117H18.81C23.6502 43.3117 27.5853 39.3143 27.5853 34.3975V30.7599C24.6733 33.1184 20.994 34.5574 16.9801 34.5574C12.9663 34.5574 9.16885 33.0984 6.25684 30.68V30.66Z" fill="#7B65E0"/>
<path d="M1.65332 9.8935C1.65332 9.8935 1.73356 9.73361 1.75363 9.67365C1.7135 9.75359 1.67339 9.81355 1.65332 9.8935Z" fill="#F5B53D"/>
<path d="M0.0393596 17.1887C0.0393596 14.5704 0.629642 12.112 1.65277 9.89343C0.609967 12.132 0 14.6304 0 17.2687C0 22.6652 2.43979 27.482 6.25686 30.66V30.5001C2.32174 27.2622 0.0196948 22.4053 0.0196948 17.2087L0.0393596 17.1887Z" fill="#F5B53D"/>
<path d="M25.4007 2.35858C25.4007 2.35858 25.4007 2.31861 25.4007 2.29862C24.0431 1.49914 22.5674 0.919516 21.0131 0.519775C21.0131 0.519775 21.0131 0.539762 21.0131 0.559749C22.5674 0.95949 24.0431 1.5591 25.4007 2.35858Z" fill="#F5B53D"/>
<path d="M33.8426 17.1887C33.8426 22.3853 31.5406 27.2422 27.6055 30.4801V30.7399C31.5012 27.5819 34 22.7251 34 17.2686C34 13.7109 32.9375 10.4131 31.1274 7.65485C31.088 7.65485 31.0684 7.69482 31.029 7.69482C32.7998 10.4131 33.8426 13.6709 33.8426 17.1687V17.1887Z" fill="#F5B53D"/>
<path d="M2.91231 7.61499C2.47944 8.25458 2.1056 8.95412 1.77112 9.65367C2.1056 8.95412 2.49911 8.25458 2.93197 7.61499H2.91231Z" fill="#F5B53D"/>
<path d="M12.8673 0.539551C12.1393 0.719434 11.431 0.959279 10.7423 1.21911C11.431 0.939292 12.1393 0.719434 12.8673 0.539551Z" fill="#F5B53D"/>
<path d="M25.4217 2.27852C25.4217 2.27852 25.4217 2.31849 25.4217 2.33848C24.0641 1.539 22.5884 0.919401 21.034 0.539648C21.034 0.539648 21.034 0.519662 21.034 0.499675C19.7354 0.179883 18.3975 0 17.0202 0C15.6429 0 14.2065 0.19987 12.8883 0.539648C12.1603 0.719531 11.4519 0.959375 10.7633 1.21921C10.0746 1.49902 9.40565 1.81882 8.77603 2.17858C6.43462 3.49772 4.42769 5.3765 2.93233 7.61504C2.49947 8.25462 2.12564 8.95417 1.77147 9.65371C1.73212 9.73366 1.69276 9.79362 1.67309 9.87357C0.649949 12.0921 0.0596924 14.5705 0.0596924 17.1688C0.0596924 22.3654 2.36175 27.2223 6.2969 30.4602V30.6201C9.22858 33.0385 12.967 34.4975 17.0202 34.4975C21.0734 34.4975 24.7134 33.0785 27.6254 30.7V30.4402C31.5605 27.2023 33.8626 22.3454 33.8626 17.1488C33.8626 13.6511 32.8198 10.3932 31.049 7.675C31.0883 7.675 31.108 7.63503 31.1473 7.63503C29.6913 5.41647 27.7238 3.57767 25.4414 2.25853L25.4217 2.27852Z" fill="#7B65E0"/>
<path d="M16.9406 3.31769C9.42444 3.31769 3.3053 9.53364 3.3053 17.1887C3.3053 21.9056 5.70573 26.2827 9.5425 28.8011V34.3775C9.5425 37.4754 12.0216 39.9938 15.0714 39.9938H18.8491C21.8989 39.9938 24.378 37.4754 24.378 34.3775V28.8011C28.2148 26.2627 30.6152 21.9056 30.6152 17.1887C30.6152 9.55363 24.4961 3.31769 16.9799 3.31769H16.9406ZM21.7415 30.0003V32.1389C18.5343 32.6986 15.3075 32.6786 12.12 32.079V30.0003C15.2485 30.9997 18.6327 30.9997 21.7415 30.0003ZM18.8295 37.3555H15.0517C13.576 37.3555 12.3955 36.2163 12.1987 34.7772C13.8318 35.057 15.4649 35.2169 17.098 35.2169C18.613 35.2169 20.1477 35.077 21.6628 34.8372C21.4463 36.2562 20.2855 37.3755 18.8295 37.3755V37.3555ZM22.1743 27.0023C18.8098 28.4413 15.0517 28.4413 11.6872 27.0023C8.14552 25.0435 5.90248 21.286 5.90248 17.1887C5.90248 11.0127 10.8608 5.97596 16.9406 5.97596C23.0204 5.97596 27.9787 11.0127 27.9787 17.1887C27.9787 21.306 25.716 25.0635 22.1743 27.0023Z" fill="#15103A"/>
</svg>

