<svg width="396" height="342" viewBox="0 0 396 342" fill="none" xmlns="http://www.w3.org/2000/svg">
<rect width="396" height="342" rx="27" fill="black" fill-opacity="0.25"/>
<rect width="396" height="342" rx="27" fill="#CCCCCC" style="mix-blend-mode:plus-darker"/>
<rect width="396" height="342" rx="27" fill="#0D0D0D" style="mix-blend-mode:plus-lighter"/>
<rect width="396" height="342" rx="27" fill="#262626" fill-opacity="0.9" style="mix-blend-mode:luminosity"/>
<path d="M47.1858 19.022L46.4637 23.7451H44.8118L46.115 19.022H47.1858ZM49.9417 19.022L49.2195 23.7451H47.5677L48.8709 19.022H49.9417ZM55.4883 31V20.3667H51.6284V19.022H60.8423V20.3667H56.9824V31H55.4883ZM62.6203 31V18.499H64.0646V23.3965H64.1974C64.4243 22.9206 64.7508 22.5526 65.1769 22.2925C65.603 22.0269 66.1453 21.894 66.8039 21.894C67.4735 21.894 68.0407 22.0241 68.5055 22.2842C68.9704 22.5387 69.3245 22.9123 69.568 23.4048C69.8115 23.8973 69.9333 24.4977 69.9333 25.2061V31H68.4889V25.5547C68.4889 24.7467 68.3174 24.1491 67.9743 23.7617C67.6367 23.3688 67.111 23.1724 66.3971 23.1724C65.9212 23.1724 65.509 23.2747 65.1603 23.4795C64.8117 23.6842 64.5405 23.9748 64.3468 24.3511C64.1587 24.7274 64.0646 25.1784 64.0646 25.7041V31H62.6203ZM75.7704 31.1577C74.9181 31.1577 74.1849 30.9696 73.5707 30.5933C72.9619 30.217 72.4916 29.6857 72.1595 28.9995C71.833 28.3078 71.6698 27.4943 71.6698 26.5591V26.5508C71.6698 25.6266 71.833 24.8159 72.1595 24.1187C72.4916 23.4214 72.9592 22.8763 73.5624 22.4834C74.1655 22.0905 74.8711 21.894 75.6791 21.894C76.4925 21.894 77.1898 22.0822 77.7708 22.4585C78.3574 22.8348 78.8057 23.3605 79.1156 24.0356C79.431 24.7052 79.5887 25.4855 79.5887 26.3765V26.9409H72.4168V25.7871H78.8499L78.1361 26.8413V26.2686C78.1361 25.5658 78.0309 24.9875 77.8207 24.5337C77.6104 24.0799 77.3198 23.7424 76.9491 23.521C76.5783 23.2941 76.1522 23.1807 75.6707 23.1807C75.1893 23.1807 74.7577 23.2996 74.3758 23.5376C73.9995 23.77 73.7007 24.1159 73.4793 24.5752C73.258 25.0345 73.1473 25.599 73.1473 26.2686V26.8413C73.1473 27.4777 73.2552 28.0228 73.471 28.4766C73.6869 28.9248 73.994 29.2707 74.3924 29.5142C74.7909 29.7521 75.2612 29.8711 75.8036 29.8711C76.2075 29.8711 76.5589 29.8158 76.8578 29.7051C77.1566 29.5944 77.4028 29.4533 77.5965 29.2817C77.7902 29.1102 77.9258 28.9359 78.0033 28.7588L78.0365 28.6841H79.4808L79.4642 28.7505C79.3867 29.0549 79.2484 29.3509 79.0492 29.6387C78.8555 29.9209 78.6037 30.1782 78.2938 30.4106C77.9839 30.6375 77.6159 30.8201 77.1898 30.9585C76.7692 31.0913 76.2961 31.1577 75.7704 31.1577ZM81.3916 23.7451L82.1138 19.022H83.7657L82.4624 23.7451H81.3916ZM84.1475 23.7451L84.8697 19.022H86.5215L85.2183 23.7451H84.1475Z" fill="#F5F5F5"/>
<g opacity="0.1" style="mix-blend-mode:plus-lighter">
<rect x="131.333" y="12" width="1" height="25" fill="#333333"/>
</g>
<path d="M190.005 31.0664C189.086 31.0664 188.419 30.881 188.004 30.5103C187.595 30.1395 187.39 29.528 187.39 28.6758V23.2471H185.979V22.0518H187.39V19.7358H188.884V22.0518H190.843V23.2471H188.884V28.3105C188.884 28.8363 188.984 29.2153 189.183 29.4478C189.382 29.6746 189.714 29.7881 190.179 29.7881C190.306 29.7881 190.414 29.7853 190.503 29.7798C190.597 29.7743 190.71 29.766 190.843 29.7549V30.9834C190.705 31.0055 190.567 31.0249 190.428 31.0415C190.29 31.0581 190.149 31.0664 190.005 31.0664ZM192.654 31V18.499H194.099V23.3965H194.232C194.458 22.9206 194.785 22.5526 195.211 22.2925C195.637 22.0269 196.18 21.894 196.838 21.894C197.508 21.894 198.075 22.0241 198.54 22.2842C199.005 22.5387 199.359 22.9123 199.602 23.4048C199.846 23.8973 199.967 24.4977 199.967 25.2061V31H198.523V25.5547C198.523 24.7467 198.352 24.1491 198.008 23.7617C197.671 23.3688 197.145 23.1724 196.431 23.1724C195.955 23.1724 195.543 23.2747 195.194 23.4795C194.846 23.6842 194.575 23.9748 194.381 24.3511C194.193 24.7274 194.099 25.1784 194.099 25.7041V31H192.654ZM205.805 31.1577C204.952 31.1577 204.219 30.9696 203.605 30.5933C202.996 30.217 202.526 29.6857 202.194 28.9995C201.867 28.3078 201.704 27.4943 201.704 26.5591V26.5508C201.704 25.6266 201.867 24.8159 202.194 24.1187C202.526 23.4214 202.993 22.8763 203.597 22.4834C204.2 22.0905 204.905 21.894 205.713 21.894C206.527 21.894 207.224 22.0822 207.805 22.4585C208.392 22.8348 208.84 23.3605 209.15 24.0356C209.465 24.7052 209.623 25.4855 209.623 26.3765V26.9409H202.451V25.7871H208.884L208.17 26.8413V26.2686C208.17 25.5658 208.065 24.9875 207.855 24.5337C207.645 24.0799 207.354 23.7424 206.983 23.521C206.612 23.2941 206.186 23.1807 205.705 23.1807C205.223 23.1807 204.792 23.2996 204.41 23.5376C204.034 23.77 203.735 24.1159 203.514 24.5752C203.292 25.0345 203.181 25.599 203.181 26.2686V26.8413C203.181 27.4777 203.289 28.0228 203.505 28.4766C203.721 28.9248 204.028 29.2707 204.427 29.5142C204.825 29.7521 205.295 29.8711 205.838 29.8711C206.242 29.8711 206.593 29.8158 206.892 29.7051C207.191 29.5944 207.437 29.4533 207.631 29.2817C207.824 29.1102 207.96 28.9359 208.037 28.7588L208.071 28.6841H209.515L209.498 28.7505C209.421 29.0549 209.283 29.3509 209.083 29.6387C208.89 29.9209 208.638 30.1782 208.328 30.4106C208.018 30.6375 207.65 30.8201 207.224 30.9585C206.803 31.0913 206.33 31.1577 205.805 31.1577Z" fill="#F5F5F5"/>
<g opacity="0.1" style="mix-blend-mode:plus-lighter">
<rect x="263.667" y="12" width="1" height="25" fill="#333333"/>
</g>
<path d="M327.02 31.0664C326.102 31.0664 325.435 30.881 325.02 30.5103C324.61 30.1395 324.406 29.528 324.406 28.6758V23.2471H322.994V22.0518H324.406V19.7358H325.9V22.0518H327.859V23.2471H325.9V28.3105C325.9 28.8363 325.999 29.2153 326.199 29.4478C326.398 29.6746 326.73 29.7881 327.195 29.7881C327.322 29.7881 327.43 29.7853 327.518 29.7798C327.612 29.7743 327.726 29.766 327.859 29.7549V30.9834C327.72 31.0055 327.582 31.0249 327.444 31.0415C327.305 31.0581 327.164 31.0664 327.02 31.0664ZM333.148 31.1577C332.301 31.1577 331.568 30.9723 330.948 30.6016C330.334 30.2253 329.858 29.6912 329.521 28.9995C329.188 28.3078 329.022 27.486 329.022 26.5342V26.5176C329.022 25.5602 329.188 24.7357 329.521 24.0439C329.858 23.3522 330.334 22.821 330.948 22.4502C331.568 22.0794 332.301 21.894 333.148 21.894C334 21.894 334.733 22.0794 335.348 22.4502C335.962 22.821 336.435 23.3522 336.767 24.0439C337.105 24.7357 337.273 25.5602 337.273 26.5176V26.5342C337.273 27.486 337.105 28.3078 336.767 28.9995C336.435 29.6912 335.962 30.2253 335.348 30.6016C334.733 30.9723 334 31.1577 333.148 31.1577ZM333.148 29.8794C333.712 29.8794 334.191 29.7466 334.584 29.481C334.977 29.2153 335.276 28.8335 335.48 28.3354C335.691 27.8374 335.796 27.237 335.796 26.5342V26.5176C335.796 25.8092 335.691 25.2061 335.48 24.708C335.276 24.21 334.977 23.8309 334.584 23.5708C334.191 23.3052 333.712 23.1724 333.148 23.1724C332.583 23.1724 332.105 23.3052 331.712 23.5708C331.319 23.8309 331.017 24.21 330.807 24.708C330.602 25.2061 330.5 25.8092 330.5 26.5176V26.5342C330.5 27.237 330.602 27.8374 330.807 28.3354C331.017 28.8335 331.319 29.2153 331.712 29.481C332.105 29.7466 332.583 29.8794 333.148 29.8794Z" fill="#F5F5F5"/>
<rect x="8.5" y="49" width="32.5" height="45" rx="8.5" fill="#999999" fill-opacity="0.15"/>
<rect x="8.5" y="49" width="32.5" height="45" rx="8.5" fill="#121212" style="mix-blend-mode:plus-lighter"/>
<path d="M24.1821 64.9629C24.8088 64.9629 25.3703 65.0443 25.8667 65.207C26.3631 65.3698 26.7944 65.6017 27.1606 65.9028C27.5269 66.2039 27.832 66.562 28.0762 66.9771H28.1494V65.1582H30.2734V82.2603H28.064V76.1689H27.9907C27.8605 76.4375 27.6733 76.6979 27.4292 76.9502C27.1932 77.1943 26.9084 77.41 26.5747 77.5972C26.2492 77.7843 25.883 77.9308 25.4761 78.0366C25.0773 78.1424 24.6379 78.1953 24.1577 78.1953C23.1486 78.1953 22.2697 77.9471 21.521 77.4507C20.7804 76.9543 20.2026 76.2463 19.7876 75.3267C19.3807 74.3989 19.1772 73.3003 19.1772 72.0308V71.0054C19.1772 69.7765 19.3807 68.7104 19.7876 67.8071C20.2026 66.9038 20.7845 66.2039 21.5332 65.7075C22.29 65.2111 23.173 64.9629 24.1821 64.9629ZM24.6704 66.8672C24.0031 66.8672 23.4253 67.034 22.937 67.3677C22.4487 67.7013 22.0703 68.1855 21.8018 68.8203C21.5413 69.4551 21.4111 70.2241 21.4111 71.1274V71.9575C21.4111 72.8527 21.5413 73.6258 21.8018 74.2769C22.0622 74.9279 22.4365 75.4325 22.9248 75.7905C23.4131 76.1405 24.0031 76.3154 24.6948 76.3154C25.4028 76.3154 26.0091 76.1364 26.5137 75.7783C27.0264 75.4202 27.417 74.9157 27.6855 74.2646C27.9541 73.6136 28.0884 72.8446 28.0884 71.9575V71.1274C28.0884 70.2648 27.9541 69.5161 27.6855 68.8813C27.417 68.2466 27.0264 67.7542 26.5137 67.4043C26.001 67.0462 25.3866 66.8672 24.6704 66.8672Z" fill="#A6A6A6"/>
<rect x="47" y="49" width="32.5" height="45" rx="8.5" fill="#999999" fill-opacity="0.15"/>
<rect x="47" y="49" width="32.5" height="45" rx="8.5" fill="#121212" style="mix-blend-mode:plus-lighter"/>
<path d="M72.0571 65.1582L68.7002 78H66.4053L63.5366 68.1733H63.4756L60.5947 78H58.2876L54.9429 65.1582H57.189L59.4961 75.2534H59.5938L62.4502 65.1582H64.5498L67.4185 75.2534H67.5161L69.8232 65.1582H72.0571Z" fill="#A6A6A6"/>
<rect x="85.5" y="49" width="32.5" height="45" rx="8.5" fill="#999999" fill-opacity="0.15"/>
<rect x="85.5" y="49" width="32.5" height="45" rx="8.5" fill="#121212" style="mix-blend-mode:plus-lighter"/>
<path d="M102.122 78.2075C101.007 78.2075 100.043 77.9634 99.229 77.4751C98.4152 76.9787 97.7886 76.2788 97.3491 75.3755C96.9178 74.4722 96.7021 73.4102 96.7021 72.1895V70.7734C96.7021 69.626 96.9097 68.6169 97.3247 67.7461C97.7479 66.8753 98.3542 66.1917 99.1436 65.6953C99.9411 65.1989 100.905 64.9507 102.037 64.9507C103.16 64.9507 104.116 65.203 104.905 65.7075C105.703 66.2039 106.309 66.8997 106.724 67.7949C107.147 68.6901 107.359 69.7318 107.359 70.9199V72.1162H98.8994V72.3604C98.8994 73.5485 99.1883 74.5169 99.7661 75.2656C100.352 76.0143 101.158 76.3887 102.183 76.3887C102.671 76.3887 103.103 76.3114 103.477 76.1567C103.851 76.0021 104.165 75.7824 104.417 75.4976C104.677 75.2046 104.877 74.8628 105.015 74.4722H107.188C107.074 75.0011 106.883 75.4935 106.614 75.9492C106.346 76.3968 106 76.7915 105.577 77.1333C105.153 77.467 104.653 77.7314 104.075 77.9268C103.506 78.1139 102.854 78.2075 102.122 78.2075ZM98.8994 70.3828H105.162C105.162 70.3747 105.162 70.3706 105.162 70.3706C105.162 70.3625 105.162 70.3543 105.162 70.3462C105.162 69.6789 105.031 69.0767 104.771 68.5396C104.511 67.9943 104.144 67.563 103.672 67.2456C103.208 66.9282 102.663 66.7695 102.037 66.7695C101.402 66.7695 100.848 66.9282 100.376 67.2456C99.9126 67.563 99.5505 67.9943 99.29 68.5396C99.0296 69.0767 98.8994 69.6789 98.8994 70.3462C98.8994 70.3543 98.8994 70.3625 98.8994 70.3706C98.8994 70.3706 98.8994 70.3747 98.8994 70.3828Z" fill="#A6A6A6"/>
<rect x="124" y="49" width="32.5" height="45" rx="8.5" fill="#999999" fill-opacity="0.15"/>
<rect x="124" y="49" width="32.5" height="45" rx="8.5" fill="#121212" style="mix-blend-mode:plus-lighter"/>
<path d="M138.071 78V65.1582H140.28V66.7573H140.354C140.476 66.4969 140.667 66.2284 140.927 65.9517C141.188 65.675 141.529 65.443 141.953 65.2559C142.376 65.0605 142.893 64.9629 143.503 64.9629C143.641 64.9629 143.776 64.971 143.906 64.9873C144.044 64.9954 144.178 65.0076 144.309 65.0239V67.0381C144.195 67.0137 144.04 66.9974 143.845 66.9893C143.658 66.973 143.462 66.9648 143.259 66.9648C142.51 66.9648 141.92 67.1073 141.489 67.3921C141.057 67.6769 140.748 68.0594 140.561 68.5396C140.382 69.0116 140.292 69.5365 140.292 70.1143V78H138.071Z" fill="#A6A6A6"/>
<rect x="162.5" y="49" width="32.5" height="45" rx="8.5" fill="#999999" fill-opacity="0.15"/>
<rect x="162.5" y="49" width="32.5" height="45" rx="8.5" fill="#121212" style="mix-blend-mode:plus-lighter"/>
<path d="M177.413 65.1582V61.9722H179.598V65.1582H182.125V66.9893H179.598V74.3867C179.598 75.1436 179.749 75.6522 180.05 75.9126C180.351 76.1649 180.892 76.291 181.673 76.291C181.779 76.291 181.877 76.291 181.966 76.291C182.056 76.2829 182.141 76.2747 182.223 76.2666V78.0244C182.133 78.0407 181.983 78.057 181.771 78.0732C181.559 78.0977 181.34 78.1099 181.112 78.1099C180.095 78.1099 179.317 77.9797 178.78 77.7192C178.251 77.4507 177.885 77.0438 177.682 76.4985C177.486 75.9451 177.389 75.2453 177.389 74.3989V66.9893H175.655V65.1582H177.413Z" fill="#A6A6A6"/>
<rect x="201" y="49" width="32.5" height="45" rx="8.5" fill="#999999" fill-opacity="0.15"/>
<rect x="201" y="49" width="32.5" height="45" rx="8.5" fill="#121212" style="mix-blend-mode:plus-lighter"/>
<path d="M223.335 65.1582C222.944 66.2975 222.55 67.4246 222.151 68.5396C221.76 69.6545 221.374 70.7531 220.991 71.8354C220.609 72.9097 220.234 73.9635 219.868 74.9971C219.502 76.0306 219.144 77.0397 218.794 78.0244L218.464 78.9155C217.96 80.2827 217.358 81.2227 216.658 81.7354C215.958 82.248 215.05 82.5044 213.936 82.5044C213.74 82.5044 213.533 82.4922 213.313 82.4678C213.093 82.4515 212.894 82.4271 212.715 82.3945V80.6245C212.821 80.6326 212.963 80.6449 213.142 80.6611C213.321 80.6774 213.492 80.6855 213.655 80.6855C214.387 80.6855 214.945 80.5431 215.327 80.2583C215.71 79.9816 215.99 79.5096 216.169 78.8423L216.353 78.1709L211.641 65.1582H214.106L217.5 75.6196H217.573L220.991 65.1582H223.335Z" fill="#A6A6A6"/>
<rect x="239.5" y="49" width="32.5" height="45" rx="8.5" fill="#999999" fill-opacity="0.15"/>
<rect x="239.5" y="49" width="32.5" height="45" rx="8.5" fill="#121212" style="mix-blend-mode:plus-lighter"/>
<path d="M261.164 65.1582V78H258.979V76.3032H258.881C258.734 76.6369 258.498 76.9502 258.173 77.2432C257.855 77.5361 257.449 77.7721 256.952 77.9512C256.456 78.1221 255.866 78.2075 255.182 78.2075C254.295 78.2075 253.51 78.0407 252.826 77.707C252.143 77.3652 251.605 76.8647 251.215 76.2056C250.832 75.5464 250.641 74.7244 250.641 73.7397V65.1582H252.863V73.1172C252.863 73.9066 252.997 74.5291 253.266 74.9849C253.542 75.4325 253.909 75.7539 254.364 75.9492C254.82 76.1364 255.32 76.23 255.866 76.23C256.476 76.23 257.009 76.1079 257.465 75.8638C257.929 75.6196 258.291 75.2616 258.551 74.7896C258.82 74.3175 258.954 73.7479 258.954 73.0806V65.1582H261.164Z" fill="#A6A6A6"/>
<rect x="278" y="49" width="32.5" height="45" rx="8.5" fill="#999999" fill-opacity="0.15"/>
<rect x="278" y="49" width="32.5" height="45" rx="8.5" fill="#121212" style="mix-blend-mode:plus-lighter"/>
<path d="M293.389 78V65.1582H295.599V78H293.389ZM293.096 62.0576C293.096 61.667 293.23 61.3415 293.499 61.0811C293.776 60.8125 294.105 60.6782 294.488 60.6782C294.878 60.6782 295.208 60.8125 295.477 61.0811C295.753 61.3415 295.892 61.667 295.892 62.0576C295.892 62.4401 295.753 62.7656 295.477 63.0342C295.208 63.2946 294.878 63.4248 294.488 63.4248C294.105 63.4248 293.776 63.2946 293.499 63.0342C293.23 62.7656 293.096 62.4401 293.096 62.0576Z" fill="#A6A6A6"/>
<rect x="316.5" y="49" width="32.5" height="45" rx="8.5" fill="#999999" fill-opacity="0.15"/>
<rect x="316.5" y="49" width="32.5" height="45" rx="8.5" fill="#121212" style="mix-blend-mode:plus-lighter"/>
<path d="M333 64.9507C334.204 64.9507 335.218 65.2152 336.04 65.7441C336.861 66.2731 337.484 66.9933 337.907 67.9048C338.33 68.8162 338.542 69.8457 338.542 70.9932V72.1162C338.542 73.2799 338.33 74.3257 337.907 75.2534C337.484 76.173 336.861 76.8973 336.04 77.4263C335.218 77.9471 334.204 78.2075 333 78.2075C331.796 78.2075 330.778 77.9471 329.948 77.4263C329.118 76.8973 328.492 76.173 328.068 75.2534C327.653 74.3257 327.446 73.2799 327.446 72.1162V70.9932C327.446 69.8457 327.657 68.8162 328.081 67.9048C328.504 66.9933 329.126 66.2731 329.948 65.7441C330.778 65.2152 331.796 64.9507 333 64.9507ZM333 66.8184C332.284 66.8184 331.674 66.9933 331.169 67.3433C330.673 67.6932 330.294 68.1855 330.034 68.8203C329.781 69.4551 329.655 70.2038 329.655 71.0664V72.0674C329.655 72.9137 329.781 73.6584 330.034 74.3013C330.294 74.936 330.673 75.4325 331.169 75.7905C331.665 76.1486 332.276 76.3276 333 76.3276C333.724 76.3276 334.331 76.1486 334.819 75.7905C335.315 75.4325 335.69 74.936 335.942 74.3013C336.194 73.6665 336.32 72.9219 336.32 72.0674V71.0664C336.32 70.2038 336.194 69.4551 335.942 68.8203C335.69 68.1855 335.315 67.6932 334.819 67.3433C334.331 66.9933 333.724 66.8184 333 66.8184Z" fill="#A6A6A6"/>
<rect x="355" y="49" width="32.5" height="45" rx="8.5" fill="#999999" fill-opacity="0.15"/>
<rect x="355" y="49" width="32.5" height="45" rx="8.5" fill="#121212" style="mix-blend-mode:plus-lighter"/>
<path d="M372.171 78.1953C371.626 78.1953 371.122 78.118 370.658 77.9634C370.202 77.8006 369.795 77.5728 369.437 77.2798C369.087 76.9868 368.79 76.6532 368.546 76.2788H368.485V82.2603H366.275V65.1582H368.399V67.0015H368.46C368.648 66.7004 368.867 66.4237 369.12 66.1714C369.38 65.9191 369.669 65.7035 369.986 65.5244C370.304 65.3454 370.654 65.207 371.036 65.1094C371.419 65.0117 371.821 64.9629 372.245 64.9629C373.213 64.9629 374.072 65.203 374.82 65.6831C375.577 66.1551 376.171 66.8387 376.603 67.7339C377.042 68.6291 377.262 69.7114 377.262 70.981V72.1772C377.262 73.4224 377.042 74.4966 376.603 75.3999C376.171 76.3032 375.573 76.995 374.808 77.4751C374.051 77.9552 373.172 78.1953 372.171 78.1953ZM371.878 76.291C372.505 76.291 373.054 76.1283 373.526 75.8027C374.007 75.4772 374.377 74.9971 374.637 74.3623C374.906 73.7194 375.04 72.9341 375.04 72.0063V71.0664C375.04 70.1794 374.91 69.4225 374.649 68.7959C374.397 68.1611 374.031 67.6769 373.551 67.3433C373.079 67.0096 372.505 66.8428 371.83 66.8428C371.13 66.8428 370.528 67.0218 370.023 67.3799C369.518 67.7298 369.128 68.2181 368.851 68.8447C368.583 69.4714 368.448 70.2078 368.448 71.0542V72.0063C368.448 72.869 368.587 73.6258 368.863 74.2769C369.14 74.9198 369.535 75.4162 370.047 75.7661C370.56 76.116 371.17 76.291 371.878 76.291Z" fill="#A6A6A6"/>
<rect x="28.5" y="105" width="32.3333" height="45" rx="8.5" fill="#999999" fill-opacity="0.15"/>
<rect x="28.5" y="105" width="32.3333" height="45" rx="8.5" fill="#121212" style="mix-blend-mode:plus-lighter"/>
<path d="M43.8525 134.208C42.6074 134.208 41.5942 133.854 40.813 133.146C40.0399 132.438 39.6533 131.493 39.6533 130.313C39.6533 129.19 40.0358 128.295 40.8008 127.628C41.5739 126.961 42.6969 126.623 44.1699 126.615H47.5269V125.333C47.5269 124.511 47.2949 123.88 46.8311 123.441C46.3753 123.001 45.7243 122.782 44.8779 122.782C44.3408 122.782 43.881 122.867 43.4985 123.038C43.116 123.209 42.819 123.453 42.6074 123.771C42.3958 124.08 42.2656 124.442 42.2168 124.857H40.1416C40.1742 124.304 40.2922 123.791 40.4956 123.319C40.7072 122.839 41.0083 122.424 41.3989 122.074C41.7977 121.724 42.29 121.451 42.876 121.256C43.4701 121.052 44.1618 120.951 44.9512 120.951C45.8708 120.951 46.6886 121.113 47.4048 121.439C48.1291 121.764 48.6947 122.241 49.1016 122.867C49.5166 123.486 49.7241 124.251 49.7241 125.162V134H47.6123V132.401H47.5391C47.3275 132.751 47.0549 133.06 46.7212 133.329C46.3875 133.597 45.9847 133.813 45.5127 133.976C45.0407 134.13 44.4873 134.208 43.8525 134.208ZM44.4629 132.401C45.0488 132.401 45.5737 132.287 46.0376 132.059C46.5015 131.831 46.8636 131.518 47.124 131.119C47.3926 130.72 47.5269 130.261 47.5269 129.74V128.263H44.3896C43.5189 128.263 42.8882 128.446 42.4976 128.812C42.1069 129.178 41.9116 129.65 41.9116 130.228C41.9116 130.969 42.172 131.518 42.6929 131.876C43.2137 132.226 43.8037 132.401 44.4629 132.401Z" fill="#A6A6A6"/>
<rect x="66.8335" y="105" width="32.3333" height="45" rx="8.5" fill="#999999" fill-opacity="0.15"/>
<rect x="66.8335" y="105" width="32.3333" height="45" rx="8.5" fill="#121212" style="mix-blend-mode:plus-lighter"/>
<path d="M78.585 124.845C78.585 123.933 78.8088 123.193 79.2563 122.623C79.7121 122.045 80.3062 121.622 81.0386 121.354C81.771 121.085 82.5482 120.951 83.3701 120.951C84.3792 120.951 85.2215 121.122 85.897 121.463C86.5806 121.805 87.0973 122.269 87.4473 122.855C87.7972 123.433 87.9722 124.084 87.9722 124.808H85.9336C85.9092 124.483 85.8115 124.161 85.6406 123.844C85.4779 123.518 85.2093 123.25 84.835 123.038C84.4606 122.826 83.9479 122.721 83.2969 122.721C82.5482 122.721 81.9338 122.883 81.4536 123.209C80.9735 123.526 80.7334 123.994 80.7334 124.613C80.7334 124.971 80.827 125.264 81.0142 125.492C81.2095 125.72 81.4618 125.907 81.771 126.053C82.0802 126.192 82.422 126.306 82.7964 126.395C83.1789 126.476 83.5532 126.55 83.9194 126.615C84.717 126.753 85.4453 126.944 86.1045 127.188C86.7718 127.424 87.3049 127.778 87.7036 128.25C88.1024 128.714 88.3018 129.361 88.3018 130.191C88.3018 131.046 88.0861 131.774 87.6548 132.376C87.2316 132.979 86.6335 133.434 85.8604 133.744C85.0954 134.053 84.2043 134.208 83.187 134.208C82.2267 134.208 81.3844 134.061 80.6602 133.768C79.9359 133.475 79.3703 133.056 78.9634 132.511C78.5565 131.957 78.353 131.298 78.353 130.533H80.5137C80.5788 130.916 80.7253 131.249 80.9531 131.534C81.1891 131.819 81.5065 132.043 81.9053 132.206C82.3122 132.36 82.7923 132.438 83.3457 132.438C83.9886 132.438 84.5135 132.348 84.9204 132.169C85.3354 131.99 85.6406 131.75 85.8359 131.449C86.0394 131.148 86.1411 130.822 86.1411 130.472C86.1411 129.992 85.9946 129.626 85.7017 129.374C85.4168 129.121 85.0303 128.926 84.542 128.788C84.0537 128.649 83.5125 128.523 82.9185 128.409C82.1291 128.246 81.4048 128.039 80.7456 127.787C80.0864 127.526 79.5615 127.164 79.1709 126.7C78.7803 126.236 78.585 125.618 78.585 124.845Z" fill="#A6A6A6"/>
<rect x="105.167" y="105" width="32.3333" height="45" rx="8.5" fill="#999999" fill-opacity="0.15"/>
<rect x="105.167" y="105" width="32.3333" height="45" rx="8.5" fill="#121212" style="mix-blend-mode:plus-lighter"/>
<path d="M120.971 120.963C121.532 120.963 122.053 121.048 122.533 121.219C123.013 121.39 123.432 121.626 123.791 121.927C124.149 122.228 124.433 122.57 124.645 122.953H124.718V116.458H126.928V134H124.804V132.059H124.743C124.564 132.393 124.344 132.694 124.083 132.962C123.831 133.223 123.546 133.443 123.229 133.622C122.912 133.801 122.562 133.939 122.179 134.037C121.805 134.134 121.402 134.183 120.971 134.183C119.864 134.183 118.928 133.931 118.163 133.426C117.406 132.922 116.833 132.218 116.442 131.314C116.051 130.403 115.856 129.349 115.856 128.153V126.993C115.856 125.821 116.059 124.784 116.466 123.88C116.873 122.977 117.455 122.265 118.212 121.744C118.977 121.223 119.896 120.963 120.971 120.963ZM121.325 122.867C120.706 122.867 120.149 123.022 119.652 123.331C119.164 123.64 118.782 124.108 118.505 124.735C118.228 125.361 118.09 126.143 118.09 127.079V128.08C118.09 129.015 118.228 129.797 118.505 130.423C118.79 131.05 119.176 131.518 119.665 131.827C120.161 132.136 120.727 132.291 121.361 132.291C122.061 132.291 122.663 132.128 123.168 131.803C123.681 131.469 124.071 130.993 124.34 130.375C124.617 129.748 124.755 128.987 124.755 128.092V127.079C124.755 126.224 124.617 125.484 124.34 124.857C124.063 124.222 123.668 123.734 123.156 123.392C122.643 123.042 122.033 122.867 121.325 122.867Z" fill="#A6A6A6"/>
<rect x="143.5" y="105" width="32.3333" height="45" rx="8.5" fill="#999999" fill-opacity="0.15"/>
<rect x="143.5" y="105" width="32.3333" height="45" rx="8.5" fill="#121212" style="mix-blend-mode:plus-lighter"/>
<path d="M158.486 134V122.989H156.753V121.158H158.486V119.876C158.486 118.648 158.804 117.74 159.438 117.154C160.081 116.568 161.07 116.275 162.405 116.275C162.633 116.275 162.828 116.288 162.991 116.312C163.153 116.328 163.288 116.345 163.394 116.361V118.131C163.304 118.115 163.21 118.102 163.113 118.094C163.015 118.086 162.885 118.082 162.722 118.082C162.039 118.082 161.526 118.22 161.184 118.497C160.85 118.774 160.684 119.291 160.684 120.047V121.158H163.21V122.989H160.696V134H158.486Z" fill="#A6A6A6"/>
<rect x="181.833" y="105" width="32.3333" height="45" rx="8.5" fill="#999999" fill-opacity="0.15"/>
<rect x="181.833" y="105" width="32.3333" height="45" rx="8.5" fill="#121212" style="mix-blend-mode:plus-lighter"/>
<path d="M198.089 136.893C199.098 136.893 199.9 136.612 200.494 136.051C201.088 135.497 201.385 134.724 201.385 133.731V131.852H201.312C201.19 132.128 201.011 132.389 200.775 132.633C200.547 132.877 200.27 133.093 199.945 133.28C199.627 133.467 199.273 133.613 198.883 133.719C198.5 133.825 198.089 133.878 197.65 133.878C196.657 133.878 195.774 133.65 195.001 133.194C194.236 132.73 193.634 132.055 193.194 131.168C192.763 130.281 192.547 129.199 192.547 127.921V126.871C192.547 125.61 192.763 124.54 193.194 123.661C193.626 122.782 194.224 122.114 194.989 121.659C195.762 121.195 196.649 120.963 197.65 120.963C198.236 120.963 198.773 121.056 199.261 121.244C199.758 121.423 200.185 121.667 200.543 121.976C200.909 122.277 201.19 122.611 201.385 122.977H201.446V121.158H203.595V133.78C203.595 134.61 203.444 135.331 203.143 135.941C202.842 136.559 202.435 137.072 201.922 137.479C201.41 137.894 200.824 138.199 200.165 138.395C199.505 138.598 198.814 138.7 198.089 138.7C196.991 138.7 196.067 138.533 195.318 138.199C194.57 137.874 193.988 137.426 193.573 136.856C193.166 136.287 192.918 135.648 192.828 134.94H195.074C195.156 135.274 195.322 135.591 195.575 135.892C195.835 136.193 196.177 136.433 196.6 136.612C197.023 136.799 197.52 136.893 198.089 136.893ZM198.126 122.843C197.418 122.843 196.812 123.01 196.307 123.343C195.811 123.669 195.428 124.141 195.16 124.759C194.899 125.378 194.769 126.135 194.769 127.03V127.823C194.769 128.694 194.899 129.443 195.16 130.069C195.428 130.696 195.811 131.18 196.307 131.522C196.812 131.856 197.418 132.022 198.126 132.022C198.818 132.022 199.404 131.852 199.884 131.51C200.372 131.168 200.742 130.688 200.995 130.069C201.255 129.443 201.385 128.694 201.385 127.823V127.03C201.385 126.175 201.251 125.435 200.982 124.808C200.714 124.181 200.335 123.697 199.847 123.355C199.367 123.014 198.793 122.843 198.126 122.843Z" fill="#A6A6A6"/>
<rect x="220.167" y="105" width="32.3333" height="45" rx="8.5" fill="#999999" fill-opacity="0.15"/>
<rect x="220.167" y="105" width="32.3333" height="45" rx="8.5" fill="#121212" style="mix-blend-mode:plus-lighter"/>
<path d="M231.479 134V116.458H233.688V122.879H233.761C233.916 122.603 234.152 122.318 234.469 122.025C234.787 121.724 235.194 121.472 235.69 121.268C236.194 121.056 236.793 120.951 237.484 120.951C238.811 120.951 239.905 121.362 240.768 122.184C241.639 123.006 242.074 124.198 242.074 125.76V134H239.865V126.151C239.865 125.435 239.735 124.841 239.474 124.369C239.222 123.889 238.864 123.53 238.4 123.294C237.936 123.05 237.399 122.928 236.789 122.928C236.072 122.928 235.486 123.083 235.031 123.392C234.575 123.693 234.237 124.092 234.018 124.588C233.798 125.085 233.688 125.626 233.688 126.212V134H231.479Z" fill="#A6A6A6"/>
<rect x="258.5" y="105" width="32.3333" height="45" rx="8.5" fill="#999999" fill-opacity="0.15"/>
<rect x="258.5" y="105" width="32.3333" height="45" rx="8.5" fill="#121212" style="mix-blend-mode:plus-lighter"/>
<path d="M273.596 118.058C273.596 117.667 273.73 117.341 273.999 117.081C274.276 116.812 274.605 116.678 274.988 116.678C275.378 116.678 275.708 116.812 275.977 117.081C276.253 117.341 276.392 117.667 276.392 118.058C276.392 118.44 276.253 118.766 275.977 119.034C275.708 119.295 275.378 119.425 274.988 119.425C274.605 119.425 274.276 119.295 273.999 119.034C273.73 118.766 273.596 118.44 273.596 118.058ZM276.099 121.158V134.305C276.099 135.298 275.952 136.104 275.659 136.722C275.374 137.341 274.967 137.792 274.438 138.077C273.91 138.362 273.279 138.504 272.546 138.504C272.335 138.504 272.103 138.492 271.851 138.468C271.59 138.443 271.411 138.419 271.313 138.395V136.661C271.411 136.677 271.533 136.69 271.68 136.698C271.826 136.714 271.969 136.722 272.107 136.722C272.758 136.722 273.218 136.527 273.486 136.136C273.755 135.746 273.889 135.127 273.889 134.281V121.158H276.099Z" fill="#A6A6A6"/>
<rect x="296.833" y="105" width="32.3333" height="45" rx="8.5" fill="#999999" fill-opacity="0.15"/>
<rect x="296.833" y="105" width="32.3333" height="45" rx="8.5" fill="#121212" style="mix-blend-mode:plus-lighter"/>
<path d="M311.417 129.386V134H309.208V116.458H311.417V126.798H311.502L316.532 121.158H319.242L314.212 126.737L319.559 134H316.861L312.564 128.116L311.417 129.386Z" fill="#A6A6A6"/>
<rect x="335.167" y="105" width="32.3333" height="45" rx="8.5" fill="#999999" fill-opacity="0.15"/>
<rect x="335.167" y="105" width="32.3333" height="45" rx="8.5" fill="#121212" style="mix-blend-mode:plus-lighter"/>
<path d="M350.556 134V116.458H352.765V134H350.556Z" fill="#A6A6A6"/>
<rect x="8.5" y="161" width="44.6667" height="45" rx="8.5" fill="#999999" fill-opacity="0.15"/>
<rect x="8.5" y="161" width="44.6667" height="45" rx="8.5" fill="#121212" style="mix-blend-mode:plus-lighter"/>
<path d="M27.687 193.201C26.9233 193.201 26.3394 192.992 25.9351 192.572C25.5308 192.153 25.3286 191.584 25.3286 190.865V186.16H21.0947C20.638 186.16 20.2562 186.036 19.9492 185.789C19.6423 185.535 19.4888 185.198 19.4888 184.778C19.4888 184.509 19.5449 184.277 19.6572 184.082C19.7695 183.887 19.938 183.681 20.1626 183.464L29.6523 173.975C29.862 173.757 30.0754 173.593 30.2925 173.48C30.5171 173.368 30.7529 173.312 31 173.312C31.2471 173.312 31.4829 173.368 31.7075 173.48C31.9321 173.593 32.1455 173.757 32.3477 173.975L41.8486 183.464C42.0583 183.674 42.223 183.88 42.3428 184.082C42.4626 184.284 42.5225 184.516 42.5225 184.778C42.5225 185.198 42.369 185.535 42.062 185.789C41.755 186.036 41.3732 186.16 40.9165 186.16H36.6714V190.865C36.6714 191.584 36.4692 192.153 36.0649 192.572C35.6681 192.992 35.0841 193.201 34.313 193.201H27.687ZM27.979 191.337H34.021C34.2082 191.337 34.3617 191.273 34.4814 191.146C34.6087 191.026 34.6724 190.873 34.6724 190.686V184.756C34.6724 184.516 34.7922 184.396 35.0317 184.396H39.7935C39.8683 184.396 39.9058 184.37 39.9058 184.318C39.9058 184.28 39.887 184.239 39.8496 184.194L31.2134 175.614C31.1759 175.577 31.1385 175.551 31.1011 175.536C31.0711 175.513 31.0374 175.502 31 175.502C30.9626 175.502 30.9289 175.513 30.8989 175.536C30.869 175.551 30.8315 175.577 30.7866 175.614L22.1616 184.194C22.1167 184.239 22.0942 184.28 22.0942 184.318C22.0942 184.37 22.1317 184.396 22.2065 184.396H26.9795C27.2116 184.396 27.3276 184.516 27.3276 184.756V190.686C27.3276 190.873 27.3875 191.026 27.5073 191.146C27.6271 191.273 27.7843 191.337 27.979 191.337Z" fill="#A6A6A6"/>
<rect x="67.4165" y="161" width="32.119" height="45" rx="8.5" fill="#999999" fill-opacity="0.15"/>
<rect x="67.4165" y="161" width="32.119" height="45" rx="8.5" fill="#121212" style="mix-blend-mode:plus-lighter"/>
<path d="M79.2046 190V188.413L86.0283 179.124V179.05H79.2534V177.158H88.7627V178.77L81.9756 188.035V188.108H88.8481V190H79.2046Z" fill="#A6A6A6"/>
<rect x="105.536" y="161" width="32.119" height="45" rx="8.5" fill="#999999" fill-opacity="0.15"/>
<rect x="105.536" y="161" width="32.119" height="45" rx="8.5" fill="#121212" style="mix-blend-mode:plus-lighter"/>
<path d="M125.185 190L121.975 185.19H121.95L118.764 190H116.286L120.656 183.579C120.42 183.213 120.184 182.855 119.948 182.505C119.712 182.147 119.472 181.793 119.228 181.443C118.992 181.085 118.756 180.727 118.52 180.369C118.284 180.011 118.044 179.657 117.8 179.307C117.564 178.949 117.328 178.59 117.092 178.232C116.856 177.874 116.616 177.516 116.372 177.158H119.008L122.097 181.98H122.109L125.197 177.158H127.712L123.403 183.579C123.639 183.937 123.879 184.295 124.123 184.653C124.375 185.003 124.624 185.357 124.868 185.715C125.112 186.073 125.356 186.431 125.6 186.79C125.844 187.139 126.088 187.498 126.333 187.864C126.577 188.222 126.821 188.58 127.065 188.938C127.309 189.288 127.553 189.642 127.797 190H125.185Z" fill="#A6A6A6"/>
<rect x="143.655" y="161" width="32.119" height="45" rx="8.5" fill="#999999" fill-opacity="0.15"/>
<rect x="143.655" y="161" width="32.119" height="45" rx="8.5" fill="#121212" style="mix-blend-mode:plus-lighter"/>
<path d="M155.101 184.141V182.896C155.101 181.74 155.313 180.715 155.736 179.819C156.159 178.916 156.769 178.212 157.567 177.708C158.373 177.203 159.337 176.951 160.46 176.951C161.469 176.951 162.332 177.146 163.048 177.537C163.764 177.919 164.326 178.416 164.732 179.026C165.139 179.636 165.359 180.275 165.392 180.942H163.243C163.154 180.584 162.987 180.247 162.743 179.929C162.499 179.612 162.193 179.355 161.827 179.16C161.469 178.965 161.062 178.867 160.606 178.867C159.565 178.867 158.755 179.233 158.177 179.966C157.599 180.698 157.311 181.703 157.311 182.981V184.165C157.311 185.41 157.608 186.407 158.202 187.156C158.804 187.904 159.61 188.279 160.619 188.279C161.148 188.279 161.599 188.193 161.974 188.022C162.348 187.852 162.649 187.624 162.877 187.339C163.105 187.054 163.255 186.745 163.329 186.411H165.477C165.347 187.16 165.07 187.823 164.647 188.401C164.232 188.971 163.679 189.414 162.987 189.731C162.295 190.049 161.453 190.208 160.46 190.208C159.321 190.208 158.352 189.943 157.555 189.414C156.757 188.885 156.147 188.165 155.724 187.253C155.309 186.334 155.101 185.296 155.101 184.141Z" fill="#A6A6A6"/>
<rect x="181.773" y="161" width="32.119" height="45" rx="8.5" fill="#999999" fill-opacity="0.15"/>
<rect x="181.773" y="161" width="32.119" height="45" rx="8.5" fill="#121212" style="mix-blend-mode:plus-lighter"/>
<path d="M197.016 190L192.548 177.158H194.88L198.164 187.412H198.237L201.765 177.158H203.999L199.409 190H197.016Z" fill="#A6A6A6"/>
<rect x="219.893" y="161" width="32.119" height="45" rx="8.5" fill="#999999" fill-opacity="0.15"/>
<rect x="219.893" y="161" width="32.119" height="45" rx="8.5" fill="#121212" style="mix-blend-mode:plus-lighter"/>
<path d="M237.125 190.195C236.515 190.195 235.969 190.11 235.489 189.939C235.009 189.768 234.586 189.524 234.22 189.207C233.854 188.889 233.548 188.507 233.304 188.059H233.231V190H231.107V172.458H233.316V178.928H233.39C233.552 178.643 233.76 178.383 234.012 178.147C234.273 177.903 234.566 177.695 234.891 177.524C235.225 177.345 235.583 177.207 235.965 177.109C236.348 177.012 236.743 176.963 237.149 176.963C238.15 176.963 239.029 177.195 239.786 177.659C240.551 178.123 241.149 178.802 241.581 179.697C242.012 180.584 242.228 181.671 242.228 182.957V184.189C242.228 185.435 242.016 186.509 241.593 187.412C241.17 188.307 240.576 188.995 239.811 189.475C239.046 189.955 238.15 190.195 237.125 190.195ZM236.795 188.291C237.43 188.291 237.984 188.128 238.456 187.803C238.936 187.477 239.31 187.001 239.579 186.375C239.855 185.748 239.994 184.983 239.994 184.08V183.079C239.994 182.167 239.855 181.402 239.579 180.784C239.31 180.157 238.936 179.681 238.456 179.355C237.975 179.03 237.422 178.867 236.795 178.867C236.071 178.867 235.444 179.03 234.916 179.355C234.395 179.673 233.992 180.145 233.707 180.771C233.43 181.39 233.292 182.159 233.292 183.079V184.055C233.292 184.967 233.43 185.74 233.707 186.375C233.984 187.001 234.382 187.477 234.903 187.803C235.432 188.128 236.063 188.291 236.795 188.291Z" fill="#A6A6A6"/>
<rect x="258.012" y="161" width="32.119" height="45" rx="8.5" fill="#999999" fill-opacity="0.15"/>
<rect x="258.012" y="161" width="32.119" height="45" rx="8.5" fill="#121212" style="mix-blend-mode:plus-lighter"/>
<path d="M269.312 190V177.158H271.509V178.879H271.57C271.724 178.603 271.96 178.318 272.278 178.025C272.603 177.724 273.018 177.472 273.523 177.268C274.028 177.056 274.626 176.951 275.317 176.951C276.636 176.951 277.73 177.362 278.601 178.184C279.472 179.006 279.907 180.198 279.907 181.76V190H277.698V182.151C277.698 181.435 277.568 180.841 277.307 180.369C277.047 179.889 276.685 179.53 276.221 179.294C275.765 179.05 275.232 178.928 274.622 178.928C273.905 178.928 273.315 179.083 272.852 179.392C272.396 179.693 272.058 180.092 271.838 180.588C271.627 181.085 271.521 181.626 271.521 182.212V190H269.312Z" fill="#A6A6A6"/>
<rect x="296.131" y="161" width="32.119" height="45" rx="8.5" fill="#999999" fill-opacity="0.15"/>
<rect x="296.131" y="161" width="32.119" height="45" rx="8.5" fill="#121212" style="mix-blend-mode:plus-lighter"/>
<path d="M303.866 190V177.158H306.063V178.757H306.173C306.312 178.464 306.527 178.18 306.82 177.903C307.113 177.626 307.475 177.398 307.907 177.219C308.346 177.04 308.855 176.951 309.433 176.951C310.1 176.951 310.678 177.036 311.166 177.207C311.662 177.378 312.069 177.618 312.387 177.927C312.712 178.236 312.956 178.607 313.119 179.038H313.217C313.388 178.664 313.644 178.322 313.986 178.013C314.336 177.695 314.775 177.439 315.304 177.244C315.841 177.048 316.46 176.951 317.16 176.951C318.511 176.951 319.564 177.341 320.321 178.123C321.078 178.896 321.457 179.941 321.457 181.26V190H319.259V181.736C319.259 181.191 319.153 180.706 318.942 180.283C318.738 179.86 318.437 179.526 318.039 179.282C317.64 179.038 317.139 178.916 316.537 178.916C315.951 178.916 315.447 179.046 315.023 179.307C314.608 179.559 314.291 179.909 314.071 180.356C313.86 180.804 313.754 181.325 313.754 181.919V190H311.569V181.931C311.569 181.272 311.459 180.723 311.239 180.283C311.02 179.836 310.706 179.498 310.299 179.27C309.892 179.034 309.404 178.916 308.834 178.916C308.322 178.916 307.854 179.03 307.431 179.258C307.016 179.486 306.686 179.823 306.442 180.271C306.198 180.71 306.076 181.252 306.076 181.895V190H303.866Z" fill="#A6A6A6"/>
<rect x="342.5" y="161" width="45" height="45" rx="8.5" fill="#999999" fill-opacity="0.15"/>
<rect x="342.5" y="161" width="45" height="45" rx="8.5" fill="#121212" style="mix-blend-mode:plus-lighter"/>
<path d="M372.861 193.19H363.664C363.214 193.19 362.795 193.141 362.406 193.044C362.024 192.954 361.661 192.808 361.316 192.606C360.979 192.404 360.658 192.142 360.351 191.82L354.219 185.407C353.844 185.018 353.575 184.659 353.41 184.329C353.253 183.992 353.174 183.659 353.174 183.33C353.174 183.105 353.208 182.884 353.275 182.667C353.35 182.45 353.463 182.225 353.612 181.993C353.77 181.761 353.972 181.514 354.219 181.252L360.339 174.817C360.646 174.487 360.968 174.229 361.305 174.042C361.65 173.847 362.013 173.709 362.395 173.626C362.784 173.537 363.203 173.492 363.652 173.492H372.861C373.992 173.492 374.845 173.776 375.422 174.345C375.998 174.907 376.287 175.749 376.287 176.872V189.866C376.287 190.989 375.998 191.824 375.422 192.37C374.845 192.917 373.992 193.19 372.861 193.19ZM372.794 191.292C373.303 191.292 373.692 191.157 373.962 190.888C374.239 190.618 374.377 190.218 374.377 189.686V177.007C374.377 176.475 374.239 176.075 373.962 175.805C373.692 175.536 373.303 175.401 372.794 175.401H363.596C363.214 175.401 362.885 175.45 362.608 175.547C362.331 175.637 362.058 175.82 361.788 176.097L355.701 182.487C355.409 182.802 355.263 183.083 355.263 183.33C355.263 183.457 355.293 183.588 355.353 183.723C355.42 183.85 355.536 184.003 355.701 184.183L361.799 190.54C362.069 190.817 362.338 191.011 362.608 191.124C362.885 191.236 363.218 191.292 363.607 191.292H372.794ZM363.136 187.822C362.881 187.822 362.664 187.732 362.484 187.552C362.312 187.373 362.226 187.159 362.226 186.912C362.226 186.658 362.32 186.444 362.507 186.272L365.416 183.352L362.507 180.432C362.32 180.26 362.226 180.05 362.226 179.803C362.226 179.549 362.312 179.335 362.484 179.163C362.664 178.991 362.881 178.905 363.136 178.905C363.39 178.905 363.6 178.995 363.765 179.174L366.685 182.083L369.627 179.163C369.814 178.983 370.028 178.894 370.267 178.894C370.514 178.894 370.728 178.98 370.907 179.152C371.087 179.324 371.177 179.541 371.177 179.803C371.177 180.043 371.083 180.249 370.896 180.421L367.976 183.352L370.885 186.261C371.072 186.448 371.166 186.665 371.166 186.912C371.166 187.159 371.076 187.373 370.896 187.552C370.716 187.732 370.503 187.822 370.256 187.822C370.001 187.822 369.784 187.728 369.604 187.541L366.685 184.644L363.787 187.541C363.622 187.728 363.405 187.822 363.136 187.822Z" fill="#A6A6A6"/>
<rect x="8.5" y="217" width="91.67" height="45" rx="8.5" fill="#999999" fill-opacity="0.15"/>
<rect x="8.5" y="217" width="91.67" height="45" rx="8.5" fill="#121212" style="mix-blend-mode:plus-lighter"/>
<path d="M39.5586 246.114C39.1191 246.114 38.8291 245.859 38.8291 245.455C38.8291 245.279 38.873 245.112 38.9434 244.901L42.5557 234.803C42.7754 234.188 43.083 233.906 43.6455 233.906C44.208 233.906 44.5156 234.188 44.7354 234.803L48.3477 244.901C48.418 245.095 48.4619 245.279 48.4619 245.446C48.4619 245.859 48.1719 246.114 47.7236 246.114C47.3018 246.114 47.0645 245.912 46.8975 245.394L45.8867 242.396H41.3955L40.3848 245.394C40.2178 245.921 39.9805 246.114 39.5586 246.114ZM41.8086 241.157H45.4736L43.6719 235.813H43.6104L41.8086 241.157ZM50.3604 244.699V235.304C50.3604 234.372 50.7646 234.003 51.7754 234.003H54.8604C56.9082 234.003 58.1914 235.146 58.1914 236.956C58.1914 238.292 57.5146 239.224 56.2754 239.61V239.672C57.9014 239.892 58.877 240.99 58.877 242.643C58.877 244.726 57.2861 246 54.6846 246H51.7754C50.7646 246 50.3604 245.631 50.3604 244.699ZM51.8896 239.171H53.7266C55.7393 239.171 56.6445 238.556 56.6445 237.22C56.6445 236.033 55.8975 235.348 54.6143 235.348H51.8896V239.171ZM51.8896 244.655H53.9727C56.3457 244.655 57.3037 244.066 57.3037 242.651C57.3037 241.28 56.3809 240.489 54.7812 240.489H51.8896V244.655ZM60.626 240.955V239.048C60.626 235.717 62.3486 233.748 65.3193 233.748C66.7783 233.748 67.9209 234.214 68.7646 235.075C69.3535 235.69 69.7314 236.464 69.7314 236.974C69.7314 237.404 69.4678 237.659 69.0635 237.659C68.7207 237.659 68.501 237.519 68.2549 237.053C67.5518 235.743 66.6465 235.137 65.3809 235.137C63.3154 235.137 62.1641 236.561 62.1641 239.057V240.946C62.1641 243.469 63.3154 244.875 65.3809 244.875C66.6641 244.875 67.6309 244.277 68.29 242.994C68.5361 242.555 68.7207 242.388 69.0459 242.388C69.4854 242.388 69.7314 242.66 69.7314 243.073C69.7314 243.609 69.3359 244.392 68.7383 244.989C67.9121 245.815 66.7607 246.255 65.3193 246.255C62.3398 246.255 60.626 244.321 60.626 240.955Z" fill="#A6A6A6"/>
<rect x="106.17" y="217" width="183.33" height="45" rx="8.5" fill="#999999" fill-opacity="0.15"/>
<rect x="106.17" y="217" width="183.33" height="45" rx="8.5" fill="#121212" style="mix-blend-mode:plus-lighter"/>
<path d="M295.5 230.6C295.5 225.84 295.5 223.459 296.426 221.641C297.241 220.042 298.542 218.741 300.141 217.926C301.959 217 304.34 217 309.1 217H373.9C378.66 217 381.041 217 382.859 217.926C384.458 218.741 385.759 220.042 386.574 221.641C387.5 223.459 387.5 225.84 387.5 230.6V248.4C387.5 253.16 387.5 255.541 386.574 257.359C385.759 258.958 384.458 260.259 382.859 261.074C381.041 262 378.66 262 373.9 262H309.1C304.34 262 301.959 262 300.141 261.074C298.542 260.259 297.241 258.958 296.426 257.359C295.5 255.541 295.5 253.16 295.5 248.4V230.6Z" fill="#0091FF"/>
<path d="M338.04 247.373C337.811 247.373 337.613 247.29 337.446 247.123L331.991 241.77C331.898 241.677 331.827 241.578 331.777 241.473C331.734 241.368 331.712 241.259 331.712 241.148C331.712 241.03 331.734 240.919 331.777 240.814C331.827 240.709 331.898 240.613 331.991 240.526L337.446 235.173C337.613 235 337.811 234.914 338.04 234.914C338.287 234.914 338.485 234.991 338.633 235.146C338.788 235.3 338.865 235.495 338.865 235.73C338.865 235.854 338.844 235.962 338.8 236.055C338.763 236.147 338.711 236.231 338.643 236.305L335.961 238.912L333.67 240.87L333.503 240.443L336.379 240.322H348.226C348.715 240.322 349.07 240.211 349.293 239.988C349.516 239.759 349.627 239.391 349.627 238.884V233.401C349.627 232.907 349.516 232.548 349.293 232.325C349.07 232.103 348.715 231.991 348.226 231.991H343.031C342.771 231.991 342.564 231.911 342.409 231.75C342.261 231.589 342.187 231.394 342.187 231.166C342.187 230.937 342.264 230.742 342.418 230.581C342.573 230.42 342.777 230.34 343.031 230.34H348.226C349.308 230.34 350.088 230.581 350.564 231.063C351.046 231.54 351.288 232.319 351.288 233.401V238.884C351.288 239.936 351.046 240.715 350.564 241.222C350.088 241.723 349.308 241.974 348.226 241.974H336.379L333.503 241.844L333.67 241.417L335.961 243.384L338.643 245.991C338.711 246.065 338.763 246.148 338.8 246.241C338.844 246.334 338.865 246.439 338.865 246.557C338.865 246.798 338.788 246.993 338.633 247.141C338.485 247.296 338.287 247.373 338.04 247.373Z" fill="white"/>
<path d="M49.45 307.39C47.34 307.39 45.1 307.09 43.06 306.57C42.68 305.99 42.4 305.37 42.27 304.74C44.42 305.35 46.92 305.77 49.46 305.77C52 305.77 54.5 305.35 56.66 304.74C56.51 305.37 56.24 305.99 55.87 306.57C53.83 307.08 51.59 307.39 49.46 307.39H49.45ZM49.45 311.46C53.97 311.46 57.6 308.14 58.1 304.2C58.21 303.41 57.69 303.05 56.99 303.25C54.45 304 52.07 304.42 49.45 304.42C46.83 304.42 44.47 304 41.92 303.25C41.22 303.05 40.71 303.41 40.81 304.2C41.3 308.14 44.92 311.46 49.45 311.46ZM53.35 301.28C54.18 301.28 54.92 300.53 54.92 299.47C54.92 298.41 54.18 297.65 53.35 297.65C52.52 297.65 51.79 298.41 51.79 299.47C51.79 300.53 52.52 301.28 53.35 301.28ZM45.53 301.28C46.37 301.28 47.11 300.53 47.11 299.47C47.11 298.41 46.37 297.65 45.53 297.65C44.69 297.65 43.99 298.41 43.99 299.47C43.99 300.53 44.7 301.28 45.53 301.28ZM49.46 313.63C43.26 313.63 38.29 308.66 38.29 302.45C38.29 296.24 43.25 291.28 49.45 291.28C55.65 291.28 60.64 296.25 60.64 302.46C60.64 308.67 55.67 313.64 49.46 313.64V313.63ZM49.46 315.91C56.82 315.91 62.92 309.81 62.92 302.45C62.92 295.09 56.82 289 49.45 289C42.08 289 36 295.1 36 302.46C36 309.82 42.1 315.92 49.46 315.92V315.91Z" fill="white" fill-opacity="0.73"/>
<path d="M338.134 302.935V300.259C338.134 299.986 338.231 299.753 338.424 299.56C338.618 299.367 338.851 299.27 339.123 299.27C339.404 299.27 339.642 299.367 339.835 299.56C340.028 299.753 340.125 299.986 340.125 300.259V302.856C340.125 304.35 340.433 305.66 341.048 306.785C341.663 307.91 342.529 308.784 343.645 309.408C344.761 310.023 346.071 310.331 347.574 310.331C349.077 310.331 350.382 310.023 351.489 309.408C352.605 308.784 353.471 307.91 354.086 306.785C354.702 305.66 355.009 304.35 355.009 302.856V300.259C355.009 299.986 355.106 299.753 355.299 299.56C355.493 299.367 355.73 299.27 356.011 299.27C356.284 299.27 356.517 299.367 356.71 299.56C356.903 299.753 357 299.986 357 300.259V302.935C357 304.658 356.644 306.187 355.932 307.523C355.229 308.859 354.245 309.931 352.979 310.74C351.713 311.54 350.241 312.01 348.562 312.15V315.222H353.454C353.735 315.222 353.972 315.319 354.166 315.512C354.359 315.706 354.456 315.943 354.456 316.224C354.456 316.497 354.359 316.729 354.166 316.923C353.972 317.116 353.735 317.213 353.454 317.213H341.681C341.399 317.213 341.162 317.116 340.969 316.923C340.775 316.729 340.679 316.497 340.679 316.224C340.679 315.943 340.775 315.706 340.969 315.512C341.162 315.319 341.399 315.222 341.681 315.222H346.572V312.15C344.893 312.01 343.421 311.54 342.155 310.74C340.89 309.931 339.901 308.859 339.189 307.523C338.486 306.187 338.134 304.658 338.134 302.935ZM342.775 302.46V294.168C342.775 293.157 342.977 292.265 343.381 291.492C343.786 290.709 344.348 290.099 345.069 289.659C345.79 289.22 346.625 289 347.574 289C348.514 289 349.345 289.22 350.065 289.659C350.786 290.099 351.349 290.709 351.753 291.492C352.157 292.265 352.359 293.157 352.359 294.168V302.46C352.359 303.471 352.157 304.368 351.753 305.15C351.349 305.923 350.786 306.53 350.065 306.969C349.345 307.409 348.514 307.628 347.574 307.628C346.625 307.628 345.79 307.409 345.069 306.969C344.348 306.53 343.786 305.923 343.381 305.15C342.977 304.368 342.775 303.471 342.775 302.46ZM344.766 302.46C344.766 303.436 345.021 304.214 345.53 304.794C346.049 305.374 346.73 305.664 347.574 305.664C348.417 305.664 349.094 305.374 349.604 304.794C350.114 304.214 350.369 303.436 350.369 302.46V294.168C350.369 293.192 350.114 292.415 349.604 291.834C349.094 291.254 348.417 290.964 347.574 290.964C346.73 290.964 346.049 291.254 345.53 291.834C345.021 292.415 344.766 293.192 344.766 294.168V302.46Z" fill="white" fill-opacity="0.73"/>
</svg>

