<svg width="280" height="80" viewBox="0 0 280 80" fill="none" xmlns="http://www.w3.org/2000/svg">
<path d="M1.99633 40.4099C1.216 40.0543 1.216 38.9457 1.99633 38.5901L12.8352 33.6497C13.4974 33.3478 14.25 33.8319 14.25 34.5596L14.25 44.4404C14.25 45.1681 13.4974 45.6522 12.8352 45.3503L1.99633 40.4099Z" fill="#22242F"/>
<path d="M13 25.6C13 16.6392 13 12.1587 14.7439 8.73615C16.2779 5.72556 18.7256 3.27787 21.7362 1.7439C25.1587 0 29.6392 0 38.6 0H254.4C263.361 0 267.841 0 271.264 1.7439C274.274 3.27787 276.722 5.72556 278.256 8.73615C280 12.1587 280 16.6392 280 25.6V54.4C280 63.3608 280 67.8413 278.256 71.2638C276.722 74.2744 274.274 76.7221 271.264 78.2561C267.841 80 263.361 80 254.4 80H38.6C29.6392 80 25.1587 80 21.7362 78.2561C18.7256 76.7221 16.2779 74.2744 14.7439 71.2638C13 67.8413 13 63.3608 13 54.4V25.6Z" fill="#22242F"/>
<path d="M35.534 33.234C34.658 33.234 33.86 33.078 33.14 32.766C32.42 32.442 31.796 31.992 31.268 31.416C30.74 30.84 30.332 30.156 30.044 29.364C29.756 28.56 29.612 27.672 29.612 26.7C29.612 25.932 29.702 25.218 29.882 24.558C30.062 23.886 30.326 23.286 30.674 22.758C31.022 22.23 31.436 21.774 31.916 21.39C32.396 21.006 32.93 20.712 33.518 20.508C34.106 20.304 34.742 20.202 35.426 20.202C36.146 20.202 36.812 20.31 37.424 20.526C38.036 20.742 38.582 21.054 39.062 21.462C39.542 21.87 39.932 22.368 40.232 22.956C40.532 23.544 40.718 24.21 40.79 24.954L39.17 25.17C39.122 24.378 38.924 23.712 38.576 23.172C38.24 22.62 37.802 22.206 37.262 21.93C36.722 21.642 36.116 21.498 35.444 21.498C34.94 21.498 34.472 21.582 34.04 21.75C33.62 21.906 33.23 22.14 32.87 22.452C32.522 22.752 32.222 23.118 31.97 23.55C31.73 23.97 31.538 24.45 31.394 24.99C31.262 25.518 31.196 26.088 31.196 26.7C31.196 27.744 31.382 28.662 31.754 29.454C32.126 30.234 32.636 30.846 33.284 31.29C33.944 31.722 34.688 31.938 35.516 31.938C36.2 31.938 36.806 31.794 37.334 31.506C37.874 31.206 38.306 30.792 38.63 30.264C38.954 29.724 39.14 29.1 39.188 28.392L40.808 28.518C40.76 29.214 40.598 29.85 40.322 30.426C40.058 31.002 39.686 31.5 39.206 31.92C38.738 32.34 38.192 32.664 37.568 32.892C36.956 33.12 36.278 33.234 35.534 33.234ZM46.2187 33.234C45.5947 33.234 45.0247 33.126 44.5087 32.91C44.0047 32.682 43.5667 32.37 43.1947 31.974C42.8227 31.566 42.5347 31.086 42.3307 30.534C42.1267 29.982 42.0247 29.37 42.0247 28.698C42.0247 28.038 42.1267 27.432 42.3307 26.88C42.5347 26.328 42.8227 25.848 43.1947 25.44C43.5667 25.032 44.0047 24.72 44.5087 24.504C45.0247 24.288 45.5947 24.18 46.2187 24.18C46.8307 24.18 47.3947 24.288 47.9107 24.504C48.4267 24.72 48.8707 25.032 49.2427 25.44C49.6267 25.848 49.9207 26.328 50.1247 26.88C50.3287 27.432 50.4307 28.038 50.4307 28.698C50.4307 29.358 50.3287 29.97 50.1247 30.534C49.9207 31.086 49.6267 31.566 49.2427 31.974C48.8707 32.37 48.4267 32.682 47.9107 32.91C47.4067 33.126 46.8427 33.234 46.2187 33.234ZM46.2187 32.028C46.6147 32.028 46.9807 31.95 47.3167 31.794C47.6527 31.626 47.9407 31.398 48.1807 31.11C48.4327 30.822 48.6247 30.474 48.7567 30.066C48.8887 29.658 48.9547 29.202 48.9547 28.698C48.9547 28.038 48.8347 27.456 48.5947 26.952C48.3667 26.448 48.0487 26.064 47.6407 25.8C47.2327 25.524 46.7587 25.386 46.2187 25.386C45.8107 25.386 45.4387 25.464 45.1027 25.62C44.7787 25.776 44.4967 26.004 44.2567 26.304C44.0167 26.592 43.8307 26.94 43.6987 27.348C43.5667 27.744 43.5007 28.194 43.5007 28.698C43.5007 29.358 43.6147 29.94 43.8427 30.444C44.0707 30.936 44.3887 31.326 44.7967 31.614C45.2167 31.89 45.6907 32.028 46.2187 32.028ZM54.6309 33.216C54.1509 33.216 53.7189 33.12 53.3349 32.928C52.9629 32.724 52.6689 32.436 52.4529 32.064C52.2369 31.68 52.1289 31.224 52.1289 30.696V20.436H53.6049V30.516C53.6049 31.02 53.7189 31.392 53.9469 31.632C54.1749 31.872 54.4749 31.992 54.8469 31.992C55.0389 31.992 55.2489 31.95 55.4769 31.866C55.7049 31.782 55.9029 31.65 56.0709 31.47L56.3049 32.73C56.1849 32.838 56.0289 32.928 55.8369 33C55.6569 33.072 55.4649 33.126 55.2609 33.162C55.0569 33.198 54.8469 33.216 54.6309 33.216ZM60.9752 33.234C60.3512 33.234 59.7812 33.126 59.2652 32.91C58.7612 32.682 58.3232 32.37 57.9512 31.974C57.5792 31.566 57.2912 31.086 57.0872 30.534C56.8832 29.982 56.7812 29.37 56.7812 28.698C56.7812 28.038 56.8832 27.432 57.0872 26.88C57.2912 26.328 57.5792 25.848 57.9512 25.44C58.3232 25.032 58.7612 24.72 59.2652 24.504C59.7812 24.288 60.3512 24.18 60.9752 24.18C61.5872 24.18 62.1512 24.288 62.6672 24.504C63.1832 24.72 63.6272 25.032 63.9992 25.44C64.3832 25.848 64.6772 26.328 64.8812 26.88C65.0852 27.432 65.1872 28.038 65.1872 28.698C65.1872 29.358 65.0852 29.97 64.8812 30.534C64.6772 31.086 64.3832 31.566 63.9992 31.974C63.6272 32.37 63.1832 32.682 62.6672 32.91C62.1632 33.126 61.5992 33.234 60.9752 33.234ZM60.9752 32.028C61.3712 32.028 61.7372 31.95 62.0732 31.794C62.4092 31.626 62.6972 31.398 62.9372 31.11C63.1892 30.822 63.3812 30.474 63.5132 30.066C63.6452 29.658 63.7112 29.202 63.7112 28.698C63.7112 28.038 63.5912 27.456 63.3512 26.952C63.1232 26.448 62.8052 26.064 62.3972 25.8C61.9892 25.524 61.5152 25.386 60.9752 25.386C60.5672 25.386 60.1952 25.464 59.8592 25.62C59.5352 25.776 59.2532 26.004 59.0132 26.304C58.7732 26.592 58.5872 26.94 58.4552 27.348C58.3232 27.744 58.2572 28.194 58.2572 28.698C58.2572 29.358 58.3712 29.94 58.5992 30.444C58.8272 30.936 59.1452 31.326 59.5532 31.614C59.9732 31.89 60.4472 32.028 60.9752 32.028ZM66.9394 33V24.396H68.4154V26.142C68.5594 25.71 68.7634 25.35 69.0274 25.062C69.3034 24.774 69.6154 24.558 69.9634 24.414C70.3234 24.258 70.6894 24.18 71.0614 24.18C71.2414 24.18 71.4274 24.204 71.6194 24.252C71.8114 24.288 71.9914 24.354 72.1594 24.45L72.0154 25.854C71.8354 25.734 71.6494 25.65 71.4574 25.602C71.2654 25.542 71.0614 25.512 70.8454 25.512C70.6894 25.512 70.5034 25.536 70.2874 25.584C70.0834 25.632 69.8674 25.722 69.6394 25.854C69.4234 25.974 69.2194 26.154 69.0274 26.394C68.8474 26.622 68.6974 26.922 68.5774 27.294C68.4694 27.666 68.4154 28.122 68.4154 28.662V33H66.9394ZM76.3518 33.234C75.6318 33.234 74.9898 33.108 74.4258 32.856C73.8738 32.604 73.4358 32.244 73.1118 31.776C72.7878 31.308 72.6078 30.762 72.5718 30.138L73.9938 30.03C74.0178 30.45 74.1258 30.816 74.3178 31.128C74.5218 31.44 74.7978 31.686 75.1458 31.866C75.4938 32.034 75.8958 32.118 76.3518 32.118C76.7478 32.118 77.0898 32.064 77.3778 31.956C77.6658 31.836 77.8878 31.668 78.0438 31.452C78.1998 31.236 78.2778 30.984 78.2778 30.696C78.2778 30.372 78.1758 30.114 77.9718 29.922C77.7798 29.73 77.5218 29.58 77.1978 29.472C76.8858 29.352 76.5378 29.25 76.1538 29.166C75.7698 29.082 75.3858 28.986 75.0018 28.878C74.6298 28.77 74.2818 28.632 73.9578 28.464C73.6338 28.296 73.3758 28.074 73.1838 27.798C72.9918 27.522 72.8958 27.162 72.8958 26.718C72.8958 26.19 73.0338 25.74 73.3098 25.368C73.5978 24.984 73.9878 24.69 74.4798 24.486C74.9838 24.282 75.5538 24.18 76.1898 24.18C76.8498 24.18 77.4198 24.288 77.8998 24.504C78.3918 24.708 78.7818 25.002 79.0698 25.386C79.3578 25.758 79.5138 26.196 79.5378 26.7L78.1518 26.808C78.1278 26.364 77.9478 25.998 77.6118 25.71C77.2878 25.41 76.8138 25.26 76.1898 25.26C75.8298 25.26 75.5118 25.314 75.2358 25.422C74.9598 25.53 74.7438 25.68 74.5878 25.872C74.4438 26.064 74.3718 26.292 74.3718 26.556C74.3718 26.856 74.4678 27.096 74.6598 27.276C74.8518 27.444 75.1098 27.582 75.4338 27.69C75.7578 27.786 76.1118 27.876 76.4958 27.96C76.8798 28.044 77.2578 28.14 77.6298 28.248C78.0138 28.356 78.3678 28.5 78.6918 28.68C79.0158 28.848 79.2738 29.082 79.4658 29.382C79.6578 29.682 79.7538 30.072 79.7538 30.552C79.7538 31.116 79.6098 31.602 79.3218 32.01C79.0458 32.406 78.6498 32.712 78.1338 32.928C77.6298 33.132 77.0358 33.234 76.3518 33.234ZM90.8677 33C90.8197 32.856 90.7777 32.664 90.7417 32.424C90.7057 32.184 90.6817 31.938 90.6697 31.686C90.6577 31.422 90.6517 31.206 90.6517 31.038V26.79C90.6517 26.358 90.4717 26.01 90.1117 25.746C89.7517 25.47 89.2537 25.332 88.6177 25.332C87.8857 25.332 87.3157 25.518 86.9077 25.89C86.4997 26.25 86.2777 26.73 86.2417 27.33L84.8017 27.186C84.8497 26.742 84.9757 26.334 85.1797 25.962C85.3837 25.59 85.6537 25.272 85.9897 25.008C86.3257 24.744 86.7157 24.54 87.1597 24.396C87.6037 24.252 88.0897 24.18 88.6177 24.18C89.3017 24.18 89.9017 24.3 90.4177 24.54C90.9457 24.768 91.3597 25.098 91.6597 25.53C91.9597 25.962 92.1097 26.478 92.1097 27.078V30.876C92.1097 31.032 92.1157 31.254 92.1277 31.542C92.1517 31.818 92.1877 32.094 92.2357 32.37C92.2957 32.646 92.3737 32.856 92.4697 33H90.8677ZM87.5377 33.234C86.9977 33.234 86.5177 33.138 86.0977 32.946C85.6897 32.754 85.3657 32.478 85.1257 32.118C84.8977 31.746 84.7837 31.308 84.7837 30.804C84.7837 30.312 84.8857 29.904 85.0897 29.58C85.3057 29.256 85.5877 28.998 85.9357 28.806C86.2837 28.602 86.6677 28.446 87.0877 28.338C87.5077 28.218 87.9217 28.116 88.3297 28.032C88.7497 27.948 89.1337 27.858 89.4817 27.762C89.8297 27.666 90.1117 27.546 90.3277 27.402C90.5437 27.246 90.6517 27.042 90.6517 26.79L90.8317 27.942C90.7357 28.158 90.5557 28.332 90.2917 28.464C90.0397 28.584 89.7397 28.686 89.3917 28.77C89.0437 28.854 88.6897 28.944 88.3297 29.04C87.9697 29.124 87.6337 29.232 87.3217 29.364C87.0097 29.496 86.7577 29.67 86.5657 29.886C86.3737 30.102 86.2777 30.39 86.2777 30.75C86.2777 31.17 86.4217 31.5 86.7097 31.74C86.9977 31.968 87.3877 32.082 87.8797 32.082C88.3357 32.082 88.7317 31.998 89.0677 31.83C89.4157 31.65 89.7037 31.428 89.9317 31.164C90.1717 30.888 90.3517 30.594 90.4717 30.282C90.5917 29.97 90.6517 29.67 90.6517 29.382L90.7777 30.48C90.7537 31.02 90.5977 31.5 90.3097 31.92C90.0217 32.34 89.6377 32.664 89.1577 32.892C88.6897 33.12 88.1497 33.234 87.5377 33.234ZM94.2726 33V24.396H95.7486V26.142C95.8926 25.71 96.0966 25.35 96.3606 25.062C96.6366 24.774 96.9486 24.558 97.2966 24.414C97.6566 24.258 98.0226 24.18 98.3946 24.18C98.5746 24.18 98.7606 24.204 98.9526 24.252C99.1446 24.288 99.3246 24.354 99.4926 24.45L99.3486 25.854C99.1686 25.734 98.9826 25.65 98.7906 25.602C98.5986 25.542 98.3946 25.512 98.1786 25.512C98.0226 25.512 97.8366 25.536 97.6206 25.584C97.4166 25.632 97.2006 25.722 96.9726 25.854C96.7566 25.974 96.5526 26.154 96.3606 26.394C96.1806 26.622 96.0306 26.922 95.9106 27.294C95.8026 27.666 95.7486 28.122 95.7486 28.662V33H94.2726ZM103.979 33.234C103.307 33.234 102.707 33.12 102.179 32.892C101.663 32.652 101.225 32.328 100.865 31.92C100.517 31.5 100.253 31.02 100.073 30.48C99.8926 29.928 99.8026 29.34 99.8026 28.716C99.8026 28.056 99.8986 27.45 100.091 26.898C100.295 26.346 100.577 25.866 100.937 25.458C101.309 25.05 101.753 24.738 102.269 24.522C102.785 24.294 103.361 24.18 103.997 24.18C104.693 24.18 105.293 24.306 105.797 24.558C106.313 24.798 106.727 25.14 107.039 25.584C107.363 26.016 107.579 26.508 107.687 27.06C107.795 27.612 107.789 28.194 107.669 28.806H100.577L101.279 28.212C101.207 28.932 101.237 29.538 101.369 30.03C101.513 30.522 101.717 30.918 101.981 31.218C102.257 31.506 102.569 31.716 102.917 31.848C103.265 31.98 103.625 32.046 103.997 32.046C104.693 32.058 105.233 31.89 105.617 31.542C106.001 31.182 106.223 30.744 106.283 30.228L107.723 30.336C107.663 30.888 107.471 31.386 107.147 31.83C106.823 32.262 106.391 32.604 105.851 32.856C105.311 33.108 104.687 33.234 103.979 33.234ZM101.315 27.798H106.283C106.319 27.354 106.253 26.946 106.085 26.574C105.929 26.202 105.677 25.902 105.329 25.674C104.981 25.446 104.537 25.332 103.997 25.332C103.493 25.332 103.049 25.44 102.665 25.656C102.281 25.86 101.975 26.148 101.747 26.52C101.519 26.892 101.375 27.318 101.315 27.798ZM116.995 33.234C116.323 33.234 115.723 33.12 115.195 32.892C114.679 32.652 114.241 32.328 113.881 31.92C113.533 31.5 113.269 31.02 113.089 30.48C112.909 29.928 112.819 29.34 112.819 28.716C112.819 28.056 112.915 27.45 113.107 26.898C113.311 26.346 113.593 25.866 113.953 25.458C114.325 25.05 114.769 24.738 115.285 24.522C115.801 24.294 116.377 24.18 117.013 24.18C117.709 24.18 118.309 24.306 118.813 24.558C119.329 24.798 119.743 25.14 120.055 25.584C120.379 26.016 120.595 26.508 120.703 27.06C120.811 27.612 120.805 28.194 120.685 28.806H113.593L114.295 28.212C114.223 28.932 114.253 29.538 114.385 30.03C114.529 30.522 114.733 30.918 114.997 31.218C115.273 31.506 115.585 31.716 115.933 31.848C116.281 31.98 116.641 32.046 117.013 32.046C117.709 32.058 118.249 31.89 118.633 31.542C119.017 31.182 119.239 30.744 119.299 30.228L120.739 30.336C120.679 30.888 120.487 31.386 120.163 31.83C119.839 32.262 119.407 32.604 118.867 32.856C118.327 33.108 117.703 33.234 116.995 33.234ZM114.331 27.798H119.299C119.335 27.354 119.269 26.946 119.101 26.574C118.945 26.202 118.693 25.902 118.345 25.674C117.997 25.446 117.553 25.332 117.013 25.332C116.509 25.332 116.065 25.44 115.681 25.656C115.297 25.86 114.991 26.148 114.763 26.52C114.535 26.892 114.391 27.318 114.331 27.798ZM128.207 33C128.159 32.856 128.117 32.664 128.081 32.424C128.045 32.184 128.021 31.938 128.009 31.686C127.997 31.422 127.991 31.206 127.991 31.038V26.79C127.991 26.358 127.811 26.01 127.451 25.746C127.091 25.47 126.593 25.332 125.957 25.332C125.225 25.332 124.655 25.518 124.247 25.89C123.839 26.25 123.617 26.73 123.581 27.33L122.141 27.186C122.189 26.742 122.315 26.334 122.519 25.962C122.723 25.59 122.993 25.272 123.329 25.008C123.665 24.744 124.055 24.54 124.499 24.396C124.943 24.252 125.429 24.18 125.957 24.18C126.641 24.18 127.241 24.3 127.757 24.54C128.285 24.768 128.699 25.098 128.999 25.53C129.299 25.962 129.449 26.478 129.449 27.078V30.876C129.449 31.032 129.455 31.254 129.467 31.542C129.491 31.818 129.527 32.094 129.575 32.37C129.635 32.646 129.713 32.856 129.809 33H128.207ZM124.877 33.234C124.337 33.234 123.857 33.138 123.437 32.946C123.029 32.754 122.705 32.478 122.465 32.118C122.237 31.746 122.123 31.308 122.123 30.804C122.123 30.312 122.225 29.904 122.429 29.58C122.645 29.256 122.927 28.998 123.275 28.806C123.623 28.602 124.007 28.446 124.427 28.338C124.847 28.218 125.261 28.116 125.669 28.032C126.089 27.948 126.473 27.858 126.821 27.762C127.169 27.666 127.451 27.546 127.667 27.402C127.883 27.246 127.991 27.042 127.991 26.79L128.171 27.942C128.075 28.158 127.895 28.332 127.631 28.464C127.379 28.584 127.079 28.686 126.731 28.77C126.383 28.854 126.029 28.944 125.669 29.04C125.309 29.124 124.973 29.232 124.661 29.364C124.349 29.496 124.097 29.67 123.905 29.886C123.713 30.102 123.617 30.39 123.617 30.75C123.617 31.17 123.761 31.5 124.049 31.74C124.337 31.968 124.727 32.082 125.219 32.082C125.675 32.082 126.071 31.998 126.407 31.83C126.755 31.65 127.043 31.428 127.271 31.164C127.511 30.888 127.691 30.594 127.811 30.282C127.931 29.97 127.991 29.67 127.991 29.382L128.117 30.48C128.093 31.02 127.937 31.5 127.649 31.92C127.361 32.34 126.977 32.664 126.497 32.892C126.029 33.12 125.489 33.234 124.877 33.234ZM134.78 33.234C134.06 33.234 133.418 33.108 132.854 32.856C132.302 32.604 131.864 32.244 131.54 31.776C131.216 31.308 131.036 30.762 131 30.138L132.422 30.03C132.446 30.45 132.554 30.816 132.746 31.128C132.95 31.44 133.226 31.686 133.574 31.866C133.922 32.034 134.324 32.118 134.78 32.118C135.176 32.118 135.518 32.064 135.806 31.956C136.094 31.836 136.316 31.668 136.472 31.452C136.628 31.236 136.706 30.984 136.706 30.696C136.706 30.372 136.604 30.114 136.4 29.922C136.208 29.73 135.95 29.58 135.626 29.472C135.314 29.352 134.966 29.25 134.582 29.166C134.198 29.082 133.814 28.986 133.43 28.878C133.058 28.77 132.71 28.632 132.386 28.464C132.062 28.296 131.804 28.074 131.612 27.798C131.42 27.522 131.324 27.162 131.324 26.718C131.324 26.19 131.462 25.74 131.738 25.368C132.026 24.984 132.416 24.69 132.908 24.486C133.412 24.282 133.982 24.18 134.618 24.18C135.278 24.18 135.848 24.288 136.328 24.504C136.82 24.708 137.21 25.002 137.498 25.386C137.786 25.758 137.942 26.196 137.966 26.7L136.58 26.808C136.556 26.364 136.376 25.998 136.04 25.71C135.716 25.41 135.242 25.26 134.618 25.26C134.258 25.26 133.94 25.314 133.664 25.422C133.388 25.53 133.172 25.68 133.016 25.872C132.872 26.064 132.8 26.292 132.8 26.556C132.8 26.856 132.896 27.096 133.088 27.276C133.28 27.444 133.538 27.582 133.862 27.69C134.186 27.786 134.54 27.876 134.924 27.96C135.308 28.044 135.686 28.14 136.058 28.248C136.442 28.356 136.796 28.5 137.12 28.68C137.444 28.848 137.702 29.082 137.894 29.382C138.086 29.682 138.182 30.072 138.182 30.552C138.182 31.116 138.038 31.602 137.75 32.01C137.474 32.406 137.078 32.712 136.562 32.928C136.058 33.132 135.464 33.234 134.78 33.234ZM140.1 36.42C139.884 36.42 139.674 36.39 139.47 36.33C139.278 36.282 139.098 36.21 138.93 36.114L138.84 34.746C139.008 34.878 139.194 34.98 139.398 35.052C139.602 35.136 139.806 35.178 140.01 35.178C140.25 35.178 140.484 35.124 140.712 35.016C140.94 34.908 141.15 34.734 141.342 34.494C141.546 34.266 141.726 33.966 141.882 33.594L142.26 32.658L138.732 24.396H140.316L142.998 31.11L145.68 24.396H147.246L143.178 33.864C142.926 34.452 142.638 34.932 142.314 35.304C142.002 35.688 141.654 35.97 141.27 36.15C140.898 36.33 140.508 36.42 140.1 36.42ZM156.517 33.234C156.073 33.234 155.647 33.156 155.239 33C154.843 32.856 154.489 32.646 154.177 32.37C153.877 32.094 153.631 31.764 153.439 31.38V36.204H151.963V24.396H153.439V26.052C153.631 25.656 153.877 25.32 154.177 25.044C154.489 24.768 154.843 24.558 155.239 24.414C155.647 24.258 156.079 24.18 156.535 24.18C157.087 24.18 157.591 24.288 158.047 24.504C158.503 24.72 158.899 25.032 159.235 25.44C159.583 25.836 159.853 26.31 160.045 26.862C160.237 27.414 160.333 28.026 160.333 28.698C160.333 29.37 160.237 29.982 160.045 30.534C159.853 31.086 159.583 31.566 159.235 31.974C158.899 32.37 158.497 32.682 158.029 32.91C157.573 33.126 157.069 33.234 156.517 33.234ZM153.439 28.698C153.439 29.394 153.553 29.994 153.781 30.498C154.021 30.99 154.345 31.368 154.753 31.632C155.161 31.884 155.623 32.01 156.139 32.01C156.547 32.01 156.919 31.938 157.255 31.794C157.591 31.638 157.873 31.416 158.101 31.128C158.341 30.828 158.521 30.474 158.641 30.066C158.773 29.658 158.839 29.202 158.839 28.698C158.839 28.026 158.731 27.444 158.515 26.952C158.299 26.448 157.987 26.064 157.579 25.8C157.171 25.524 156.691 25.386 156.139 25.386C155.755 25.386 155.395 25.464 155.059 25.62C154.735 25.764 154.447 25.98 154.195 26.268C153.955 26.544 153.769 26.892 153.637 27.312C153.505 27.72 153.439 28.182 153.439 28.698ZM165.764 33.234C165.092 33.234 164.492 33.12 163.964 32.892C163.448 32.652 163.01 32.328 162.65 31.92C162.302 31.5 162.038 31.02 161.858 30.48C161.678 29.928 161.588 29.34 161.588 28.716C161.588 28.056 161.684 27.45 161.876 26.898C162.08 26.346 162.362 25.866 162.722 25.458C163.094 25.05 163.538 24.738 164.054 24.522C164.57 24.294 165.146 24.18 165.782 24.18C166.478 24.18 167.078 24.306 167.582 24.558C168.098 24.798 168.512 25.14 168.824 25.584C169.148 26.016 169.364 26.508 169.472 27.06C169.58 27.612 169.574 28.194 169.454 28.806H162.362L163.064 28.212C162.992 28.932 163.022 29.538 163.154 30.03C163.298 30.522 163.502 30.918 163.766 31.218C164.042 31.506 164.354 31.716 164.702 31.848C165.05 31.98 165.41 32.046 165.782 32.046C166.478 32.058 167.018 31.89 167.402 31.542C167.786 31.182 168.008 30.744 168.068 30.228L169.508 30.336C169.448 30.888 169.256 31.386 168.932 31.83C168.608 32.262 168.176 32.604 167.636 32.856C167.096 33.108 166.472 33.234 165.764 33.234ZM163.1 27.798H168.068C168.104 27.354 168.038 26.946 167.87 26.574C167.714 26.202 167.462 25.902 167.114 25.674C166.766 25.446 166.322 25.332 165.782 25.332C165.278 25.332 164.834 25.44 164.45 25.656C164.066 25.86 163.76 26.148 163.532 26.52C163.304 26.892 163.16 27.318 163.1 27.798ZM176.977 33C176.929 32.856 176.887 32.664 176.851 32.424C176.815 32.184 176.791 31.938 176.779 31.686C176.767 31.422 176.761 31.206 176.761 31.038V26.79C176.761 26.358 176.581 26.01 176.221 25.746C175.861 25.47 175.363 25.332 174.727 25.332C173.995 25.332 173.425 25.518 173.017 25.89C172.609 26.25 172.387 26.73 172.351 27.33L170.911 27.186C170.959 26.742 171.085 26.334 171.289 25.962C171.493 25.59 171.763 25.272 172.099 25.008C172.435 24.744 172.825 24.54 173.269 24.396C173.713 24.252 174.199 24.18 174.727 24.18C175.411 24.18 176.011 24.3 176.527 24.54C177.055 24.768 177.469 25.098 177.769 25.53C178.069 25.962 178.219 26.478 178.219 27.078V30.876C178.219 31.032 178.225 31.254 178.237 31.542C178.261 31.818 178.297 32.094 178.345 32.37C178.405 32.646 178.483 32.856 178.579 33H176.977ZM173.647 33.234C173.107 33.234 172.627 33.138 172.207 32.946C171.799 32.754 171.475 32.478 171.235 32.118C171.007 31.746 170.893 31.308 170.893 30.804C170.893 30.312 170.995 29.904 171.199 29.58C171.415 29.256 171.697 28.998 172.045 28.806C172.393 28.602 172.777 28.446 173.197 28.338C173.617 28.218 174.031 28.116 174.439 28.032C174.859 27.948 175.243 27.858 175.591 27.762C175.939 27.666 176.221 27.546 176.437 27.402C176.653 27.246 176.761 27.042 176.761 26.79L176.941 27.942C176.845 28.158 176.665 28.332 176.401 28.464C176.149 28.584 175.849 28.686 175.501 28.77C175.153 28.854 174.799 28.944 174.439 29.04C174.079 29.124 173.743 29.232 173.431 29.364C173.119 29.496 172.867 29.67 172.675 29.886C172.483 30.102 172.387 30.39 172.387 30.75C172.387 31.17 172.531 31.5 172.819 31.74C173.107 31.968 173.497 32.082 173.989 32.082C174.445 32.082 174.841 31.998 175.177 31.83C175.525 31.65 175.813 31.428 176.041 31.164C176.281 30.888 176.461 30.594 176.581 30.282C176.701 29.97 176.761 29.67 176.761 29.382L176.887 30.48C176.863 31.02 176.707 31.5 176.419 31.92C176.131 32.34 175.747 32.664 175.267 32.892C174.799 33.12 174.259 33.234 173.647 33.234ZM183.55 33.234C182.83 33.234 182.188 33.108 181.624 32.856C181.072 32.604 180.634 32.244 180.31 31.776C179.986 31.308 179.806 30.762 179.77 30.138L181.192 30.03C181.216 30.45 181.324 30.816 181.516 31.128C181.72 31.44 181.996 31.686 182.344 31.866C182.692 32.034 183.094 32.118 183.55 32.118C183.946 32.118 184.288 32.064 184.576 31.956C184.864 31.836 185.086 31.668 185.242 31.452C185.398 31.236 185.476 30.984 185.476 30.696C185.476 30.372 185.374 30.114 185.17 29.922C184.978 29.73 184.72 29.58 184.396 29.472C184.084 29.352 183.736 29.25 183.352 29.166C182.968 29.082 182.584 28.986 182.2 28.878C181.828 28.77 181.48 28.632 181.156 28.464C180.832 28.296 180.574 28.074 180.382 27.798C180.19 27.522 180.094 27.162 180.094 26.718C180.094 26.19 180.232 25.74 180.508 25.368C180.796 24.984 181.186 24.69 181.678 24.486C182.182 24.282 182.752 24.18 183.388 24.18C184.048 24.18 184.618 24.288 185.098 24.504C185.59 24.708 185.98 25.002 186.268 25.386C186.556 25.758 186.712 26.196 186.736 26.7L185.35 26.808C185.326 26.364 185.146 25.998 184.81 25.71C184.486 25.41 184.012 25.26 183.388 25.26C183.028 25.26 182.71 25.314 182.434 25.422C182.158 25.53 181.942 25.68 181.786 25.872C181.642 26.064 181.57 26.292 181.57 26.556C181.57 26.856 181.666 27.096 181.858 27.276C182.05 27.444 182.308 27.582 182.632 27.69C182.956 27.786 183.31 27.876 183.694 27.96C184.078 28.044 184.456 28.14 184.828 28.248C185.212 28.356 185.566 28.5 185.89 28.68C186.214 28.848 186.472 29.082 186.664 29.382C186.856 29.682 186.952 30.072 186.952 30.552C186.952 31.116 186.808 31.602 186.52 32.01C186.244 32.406 185.848 32.712 185.332 32.928C184.828 33.132 184.234 33.234 183.55 33.234ZM188.869 36.42C188.653 36.42 188.443 36.39 188.239 36.33C188.047 36.282 187.867 36.21 187.699 36.114L187.609 34.746C187.777 34.878 187.963 34.98 188.167 35.052C188.371 35.136 188.575 35.178 188.779 35.178C189.019 35.178 189.253 35.124 189.481 35.016C189.709 34.908 189.919 34.734 190.111 34.494C190.315 34.266 190.495 33.966 190.651 33.594L191.029 32.658L187.501 24.396H189.085L191.767 31.11L194.449 24.396H196.015L191.947 33.864C191.695 34.452 191.407 34.932 191.083 35.304C190.771 35.688 190.423 35.97 190.039 36.15C189.667 36.33 189.277 36.42 188.869 36.42ZM196.046 35.538C196.19 35.286 196.328 34.998 196.46 34.674C196.592 34.362 196.7 34.038 196.784 33.702C196.88 33.378 196.934 33.078 196.946 32.802L197.342 33.018C197.03 33.126 196.748 33.156 196.496 33.108C196.244 33.072 196.046 32.976 195.902 32.82C195.758 32.652 195.686 32.442 195.686 32.19C195.686 31.974 195.734 31.788 195.83 31.632C195.926 31.476 196.058 31.356 196.226 31.272C196.406 31.176 196.598 31.128 196.802 31.128C197.114 31.128 197.378 31.236 197.594 31.452C197.822 31.668 197.93 32.04 197.918 32.568C197.918 32.868 197.87 33.204 197.774 33.576C197.69 33.948 197.582 34.308 197.45 34.656C197.318 35.004 197.18 35.298 197.036 35.538H196.046ZM208.673 33C208.625 32.856 208.583 32.664 208.547 32.424C208.511 32.184 208.487 31.938 208.475 31.686C208.463 31.422 208.457 31.206 208.457 31.038V26.79C208.457 26.358 208.277 26.01 207.917 25.746C207.557 25.47 207.059 25.332 206.423 25.332C205.691 25.332 205.121 25.518 204.713 25.89C204.305 26.25 204.083 26.73 204.047 27.33L202.607 27.186C202.655 26.742 202.781 26.334 202.985 25.962C203.189 25.59 203.459 25.272 203.795 25.008C204.131 24.744 204.521 24.54 204.965 24.396C205.409 24.252 205.895 24.18 206.423 24.18C207.107 24.18 207.707 24.3 208.223 24.54C208.751 24.768 209.165 25.098 209.465 25.53C209.765 25.962 209.915 26.478 209.915 27.078V30.876C209.915 31.032 209.921 31.254 209.933 31.542C209.957 31.818 209.993 32.094 210.041 32.37C210.101 32.646 210.179 32.856 210.275 33H208.673ZM205.343 33.234C204.803 33.234 204.323 33.138 203.903 32.946C203.495 32.754 203.171 32.478 202.931 32.118C202.703 31.746 202.589 31.308 202.589 30.804C202.589 30.312 202.691 29.904 202.895 29.58C203.111 29.256 203.393 28.998 203.741 28.806C204.089 28.602 204.473 28.446 204.893 28.338C205.313 28.218 205.727 28.116 206.135 28.032C206.555 27.948 206.939 27.858 207.287 27.762C207.635 27.666 207.917 27.546 208.133 27.402C208.349 27.246 208.457 27.042 208.457 26.79L208.637 27.942C208.541 28.158 208.361 28.332 208.097 28.464C207.845 28.584 207.545 28.686 207.197 28.77C206.849 28.854 206.495 28.944 206.135 29.04C205.775 29.124 205.439 29.232 205.127 29.364C204.815 29.496 204.563 29.67 204.371 29.886C204.179 30.102 204.083 30.39 204.083 30.75C204.083 31.17 204.227 31.5 204.515 31.74C204.803 31.968 205.193 32.082 205.685 32.082C206.141 32.082 206.537 31.998 206.873 31.83C207.221 31.65 207.509 31.428 207.737 31.164C207.977 30.888 208.157 30.594 208.277 30.282C208.397 29.97 208.457 29.67 208.457 29.382L208.583 30.48C208.559 31.02 208.403 31.5 208.115 31.92C207.827 32.34 207.443 32.664 206.963 32.892C206.495 33.12 205.955 33.234 205.343 33.234ZM212.078 33V24.396H213.554V26.142C213.698 25.71 213.902 25.35 214.166 25.062C214.442 24.774 214.754 24.558 215.102 24.414C215.462 24.258 215.828 24.18 216.2 24.18C216.38 24.18 216.566 24.204 216.758 24.252C216.95 24.288 217.13 24.354 217.298 24.45L217.154 25.854C216.974 25.734 216.788 25.65 216.596 25.602C216.404 25.542 216.2 25.512 215.984 25.512C215.828 25.512 215.642 25.536 215.426 25.584C215.222 25.632 215.006 25.722 214.778 25.854C214.562 25.974 214.358 26.154 214.166 26.394C213.986 26.622 213.836 26.922 213.716 27.294C213.608 27.666 213.554 28.122 213.554 28.662V33H212.078ZM221.784 33.234C221.112 33.234 220.512 33.12 219.984 32.892C219.468 32.652 219.03 32.328 218.67 31.92C218.322 31.5 218.058 31.02 217.878 30.48C217.698 29.928 217.608 29.34 217.608 28.716C217.608 28.056 217.704 27.45 217.896 26.898C218.1 26.346 218.382 25.866 218.742 25.458C219.114 25.05 219.558 24.738 220.074 24.522C220.59 24.294 221.166 24.18 221.802 24.18C222.498 24.18 223.098 24.306 223.602 24.558C224.118 24.798 224.532 25.14 224.844 25.584C225.168 26.016 225.384 26.508 225.492 27.06C225.6 27.612 225.594 28.194 225.474 28.806H218.382L219.084 28.212C219.012 28.932 219.042 29.538 219.174 30.03C219.318 30.522 219.522 30.918 219.786 31.218C220.062 31.506 220.374 31.716 220.722 31.848C221.07 31.98 221.43 32.046 221.802 32.046C222.498 32.058 223.038 31.89 223.422 31.542C223.806 31.182 224.028 30.744 224.088 30.228L225.528 30.336C225.468 30.888 225.276 31.386 224.952 31.83C224.628 32.262 224.196 32.604 223.656 32.856C223.116 33.108 222.492 33.234 221.784 33.234ZM219.12 27.798H224.088C224.124 27.354 224.058 26.946 223.89 26.574C223.734 26.202 223.482 25.902 223.134 25.674C222.786 25.446 222.342 25.332 221.802 25.332C221.298 25.332 220.854 25.44 220.47 25.656C220.086 25.86 219.78 26.148 219.552 26.52C219.324 26.892 219.18 27.318 219.12 27.798ZM233.699 33V27.906C233.699 27.09 233.507 26.472 233.123 26.052C232.739 25.62 232.211 25.404 231.539 25.404C231.035 25.404 230.573 25.536 230.153 25.8C229.745 26.052 229.421 26.43 229.181 26.934C228.941 27.426 228.821 28.026 228.821 28.734V33H227.345V24.396H228.821V26.178C228.989 25.782 229.217 25.434 229.505 25.134C229.805 24.834 230.165 24.6 230.585 24.432C231.005 24.264 231.473 24.18 231.989 24.18C232.625 24.18 233.177 24.318 233.645 24.594C234.125 24.858 234.497 25.26 234.761 25.8C235.025 26.328 235.157 26.982 235.157 27.762V33H233.699ZM236.309 24.72C236.453 24.468 236.591 24.186 236.723 23.874C236.855 23.55 236.963 23.226 237.047 22.902C237.143 22.566 237.197 22.26 237.209 21.984L237.605 22.2C237.293 22.308 237.011 22.344 236.759 22.308C236.507 22.26 236.309 22.158 236.165 22.002C236.021 21.834 235.949 21.624 235.949 21.372C235.949 21.156 235.997 20.97 236.093 20.814C236.189 20.658 236.321 20.538 236.489 20.454C236.669 20.358 236.861 20.31 237.065 20.31C237.377 20.31 237.641 20.418 237.857 20.634C238.085 20.85 238.193 21.222 238.181 21.75C238.181 22.05 238.133 22.386 238.037 22.758C237.953 23.13 237.845 23.49 237.713 23.838C237.581 24.186 237.443 24.48 237.299 24.72H236.309ZM243.234 33.234C242.754 33.234 242.322 33.138 241.938 32.946C241.566 32.742 241.272 32.448 241.056 32.064C240.84 31.668 240.732 31.182 240.732 30.606V21.768H242.19V30.426C242.19 30.978 242.304 31.38 242.532 31.632C242.76 31.872 243.06 31.992 243.432 31.992C243.636 31.992 243.858 31.95 244.098 31.866C244.338 31.782 244.542 31.626 244.71 31.398L245.016 32.64C244.884 32.748 244.728 32.85 244.548 32.946C244.368 33.042 244.164 33.114 243.936 33.162C243.708 33.21 243.474 33.234 243.234 33.234ZM239.022 25.566V24.396H244.836V25.566H239.022ZM33.374 57.234C32.894 57.234 32.462 57.138 32.078 56.946C31.706 56.742 31.412 56.448 31.196 56.064C30.98 55.668 30.872 55.182 30.872 54.606V45.768H32.33V54.426C32.33 54.978 32.444 55.38 32.672 55.632C32.9 55.872 33.2 55.992 33.572 55.992C33.776 55.992 33.998 55.95 34.238 55.866C34.478 55.782 34.682 55.626 34.85 55.398L35.156 56.64C35.024 56.748 34.868 56.85 34.688 56.946C34.508 57.042 34.304 57.114 34.076 57.162C33.848 57.21 33.614 57.234 33.374 57.234ZM29.162 49.566V48.396H34.976V49.566H29.162ZM42.9764 57V51.852C42.9764 51.072 42.7784 50.472 42.3824 50.052C41.9864 49.62 41.4524 49.404 40.7804 49.404C40.2764 49.404 39.8204 49.536 39.4124 49.8C39.0044 50.052 38.6804 50.43 38.4404 50.934C38.2004 51.426 38.0804 52.026 38.0804 52.734V57H36.6044V44.436H38.0804V50.178C38.2724 49.758 38.5184 49.404 38.8184 49.116C39.1184 48.816 39.4724 48.588 39.8804 48.432C40.2884 48.264 40.7384 48.18 41.2304 48.18C41.8424 48.18 42.3884 48.318 42.8684 48.594C43.3604 48.858 43.7444 49.254 44.0204 49.782C44.2964 50.298 44.4344 50.934 44.4344 51.69V57H42.9764ZM50.2655 57.234C49.5935 57.234 48.9935 57.12 48.4655 56.892C47.9495 56.652 47.5115 56.328 47.1515 55.92C46.8035 55.5 46.5395 55.02 46.3595 54.48C46.1795 53.928 46.0895 53.34 46.0895 52.716C46.0895 52.056 46.1855 51.45 46.3775 50.898C46.5815 50.346 46.8635 49.866 47.2235 49.458C47.5955 49.05 48.0395 48.738 48.5555 48.522C49.0715 48.294 49.6475 48.18 50.2835 48.18C50.9795 48.18 51.5795 48.306 52.0835 48.558C52.5995 48.798 53.0135 49.14 53.3255 49.584C53.6495 50.016 53.8655 50.508 53.9735 51.06C54.0815 51.612 54.0755 52.194 53.9555 52.806H46.8635L47.5655 52.212C47.4935 52.932 47.5235 53.538 47.6555 54.03C47.7995 54.522 48.0035 54.918 48.2675 55.218C48.5435 55.506 48.8555 55.716 49.2035 55.848C49.5515 55.98 49.9115 56.046 50.2835 56.046C50.9795 56.058 51.5195 55.89 51.9035 55.542C52.2875 55.182 52.5095 54.744 52.5695 54.228L54.0095 54.336C53.9495 54.888 53.7575 55.386 53.4335 55.83C53.1095 56.262 52.6775 56.604 52.1375 56.856C51.5975 57.108 50.9735 57.234 50.2655 57.234ZM47.6015 51.798H52.5695C52.6055 51.354 52.5395 50.946 52.3715 50.574C52.2155 50.202 51.9635 49.902 51.6155 49.674C51.2675 49.446 50.8235 49.332 50.2835 49.332C49.7795 49.332 49.3355 49.44 48.9515 49.656C48.5675 49.86 48.2615 50.148 48.0335 50.52C47.8055 50.892 47.6615 51.318 47.6015 51.798ZM56.0125 60.42C55.7965 60.42 55.5865 60.39 55.3825 60.33C55.1905 60.282 55.0105 60.21 54.8425 60.114L54.7525 58.746C54.9205 58.878 55.1065 58.98 55.3105 59.052C55.5145 59.136 55.7185 59.178 55.9225 59.178C56.1625 59.178 56.3965 59.124 56.6245 59.016C56.8525 58.908 57.0625 58.734 57.2545 58.494C57.4585 58.266 57.6385 57.966 57.7945 57.594L58.1725 56.658L54.6445 48.396H56.2285L58.9105 55.11L61.5925 48.396H63.1585L59.0905 57.864C58.8385 58.452 58.5505 58.932 58.2265 59.304C57.9145 59.688 57.5665 59.97 57.1825 60.15C56.8105 60.33 56.4205 60.42 56.0125 60.42ZM67.7368 53.598C67.0288 53.598 66.4048 53.496 65.8648 53.292C65.3368 53.088 64.9228 52.8 64.6228 52.428C64.3348 52.056 64.1908 51.618 64.1908 51.114C64.1908 50.67 64.2928 50.304 64.4968 50.016C64.7128 49.716 64.9948 49.476 65.3428 49.296C65.6908 49.104 66.0688 48.948 66.4768 48.828C66.8848 48.696 67.2928 48.576 67.7008 48.468C68.1088 48.348 68.4868 48.222 68.8348 48.09C69.1828 47.946 69.4588 47.772 69.6628 47.568C69.8788 47.352 69.9868 47.082 69.9868 46.758C69.9868 46.302 69.7948 45.948 69.4108 45.696C69.0388 45.444 68.5588 45.318 67.9708 45.318C67.5148 45.318 67.1068 45.402 66.7468 45.57C66.3868 45.738 66.0928 45.978 65.8648 46.29C65.6488 46.602 65.5168 46.974 65.4688 47.406L64.0108 47.226C64.0708 46.626 64.2688 46.104 64.6048 45.66C64.9528 45.204 65.4088 44.85 65.9728 44.598C66.5488 44.334 67.2148 44.202 67.9708 44.202C68.6188 44.202 69.2068 44.304 69.7348 44.508C70.2628 44.7 70.6768 44.994 70.9768 45.39C71.2888 45.774 71.4448 46.254 71.4448 46.83C71.4568 47.31 71.3548 47.706 71.1388 48.018C70.9348 48.33 70.6588 48.588 70.3108 48.792C69.9748 48.984 69.6028 49.146 69.1948 49.278C68.7868 49.41 68.3728 49.53 67.9528 49.638C67.5448 49.734 67.1668 49.842 66.8188 49.962C66.4708 50.082 66.1888 50.238 65.9728 50.43C65.7688 50.622 65.6668 50.868 65.6668 51.168C65.6668 51.564 65.8528 51.888 66.2248 52.14C66.5968 52.392 67.0888 52.518 67.7008 52.518C68.1568 52.518 68.5588 52.446 68.9068 52.302C69.2668 52.158 69.5488 51.96 69.7528 51.708C69.9688 51.456 70.0888 51.162 70.1128 50.826L71.5348 50.988C71.4868 51.504 71.3008 51.96 70.9768 52.356C70.6528 52.74 70.2148 53.046 69.6628 53.274C69.1228 53.49 68.4808 53.598 67.7368 53.598ZM67.7548 57.18C67.4548 57.18 67.2028 57.084 66.9988 56.892C66.8068 56.688 66.7108 56.436 66.7108 56.136C66.7108 55.824 66.8068 55.572 66.9988 55.38C67.2028 55.188 67.4548 55.092 67.7548 55.092C68.0668 55.092 68.3188 55.188 68.5108 55.38C68.7148 55.572 68.8168 55.824 68.8168 56.136C68.8168 56.328 68.7688 56.508 68.6728 56.676C68.5768 56.832 68.4508 56.952 68.2948 57.036C68.1388 57.132 67.9588 57.18 67.7548 57.18Z" fill="#F4F2FF"/>
</svg>

