<svg width="744" height="420" viewBox="0 0 744 420" fill="none" xmlns="http://www.w3.org/2000/svg">
<rect x="0.5" y="0.5" width="743" height="419" rx="4.5" stroke="#8A38F5" stroke-dasharray="10 5"/>
<rect x="12" y="20" width="350" height="24" rx="12" fill="white" fill-opacity="0.1"/>
<path d="M14 32C14 26.4772 18.4772 22 24 22C29.5228 22 34 26.4772 34 32C34 37.5228 29.5228 42 24 42C18.4772 42 14 37.5228 14 32Z" fill="#9178E6"/>
<rect x="12" y="64" width="350" height="24" rx="12" fill="white" fill-opacity="0.1"/>
<path d="M14 76C14 70.4772 18.4772 66 24 66H89.6263C95.1491 66 99.6263 70.4772 99.6263 76C99.6263 81.5228 95.1491 86 89.6263 86H24C18.4772 86 14 81.5228 14 76Z" fill="#9178E6"/>
<rect x="12" y="108" width="350" height="24" rx="12" fill="white" fill-opacity="0.1"/>
<path d="M14 120C14 114.477 18.4772 110 24 110H177C182.523 110 187 114.477 187 120C187 125.523 182.523 130 177 130H24C18.4771 130 14 125.523 14 120Z" fill="#9178E6"/>
<rect x="12" y="152" width="350" height="24" rx="12" fill="white" fill-opacity="0.1"/>
<path d="M14 164C14 158.477 18.4772 154 24 154H264.374C269.897 154 274.374 158.477 274.374 164C274.374 169.523 269.897 174 264.374 174H24C18.4771 174 14 169.523 14 164Z" fill="#9178E6"/>
<rect x="12" y="196" width="350" height="24" rx="12" fill="white" fill-opacity="0.1"/>
<path d="M14 208C14 202.477 18.4772 198 24 198H350C355.523 198 360 202.477 360 208C360 213.523 355.523 218 350 218H24C18.4772 218 14 213.523 14 208Z" fill="#9178E6"/>
<rect x="12" y="240" width="350" height="16" rx="8" fill="white" fill-opacity="0.1"/>
<path d="M12 248C12 243.582 15.5817 240 20 240C24.4183 240 28 243.582 28 248C28 252.418 24.4183 256 20 256C15.5817 256 12 252.418 12 248Z" fill="#9178E6"/>
<rect x="12" y="276" width="350" height="16" rx="8" fill="white" fill-opacity="0.1"/>
<path d="M12 284C12 279.582 15.5817 276 20 276H91.5C95.9183 276 99.5 279.582 99.5 284C99.5 288.418 95.9183 292 91.5 292H20C15.5817 292 12 288.418 12 284Z" fill="#9178E6"/>
<rect x="12" y="312" width="350" height="16" rx="8" fill="white" fill-opacity="0.1"/>
<path d="M12 320C12 315.582 15.5817 312 20 312H179C183.418 312 187 315.582 187 320C187 324.418 183.418 328 179 328H20C15.5817 328 12 324.418 12 320Z" fill="#9178E6"/>
<rect x="12" y="348" width="350" height="16" rx="8" fill="white" fill-opacity="0.1"/>
<path d="M12 356C12 351.582 15.5817 348 20 348H266.5C270.918 348 274.5 351.582 274.5 356C274.5 360.418 270.918 364 266.5 364H20C15.5817 364 12 360.418 12 356Z" fill="#9178E6"/>
<rect x="12" y="384" width="350" height="16" rx="8" fill="white" fill-opacity="0.1"/>
<path d="M12 392C12 387.582 15.5817 384 20 384H354C358.418 384 362 387.582 362 392C362 396.418 358.418 400 354 400H20C15.5817 400 12 396.418 12 392Z" fill="#9178E6"/>
<rect x="382" y="20" width="350" height="24" rx="12" fill="white" fill-opacity="0.1"/>
<path d="M384 32C384 26.4772 388.477 22 394 22C399.523 22 404 26.4772 404 32C404 37.5228 399.523 42 394 42C388.477 42 384 37.5228 384 32Z" fill="#FB7E5B"/>
<rect x="382" y="64" width="350" height="24" rx="12" fill="white" fill-opacity="0.1"/>
<path d="M384 76C384 70.4772 388.477 66 394 66H459.626C465.149 66 469.626 70.4772 469.626 76C469.626 81.5228 465.149 86 459.626 86H394C388.477 86 384 81.5228 384 76Z" fill="#FB7E5B"/>
<rect x="382" y="108" width="350" height="24" rx="12" fill="white" fill-opacity="0.1"/>
<path d="M384 120C384 114.477 388.477 110 394 110H547C552.523 110 557 114.477 557 120C557 125.523 552.523 130 547 130H394C388.477 130 384 125.523 384 120Z" fill="#FB7E5B"/>
<rect x="382" y="152" width="350" height="24" rx="12" fill="white" fill-opacity="0.1"/>
<path d="M384 164C384 158.477 388.477 154 394 154H634.374C639.897 154 644.374 158.477 644.374 164C644.374 169.523 639.897 174 634.374 174H394C388.477 174 384 169.523 384 164Z" fill="#FB7E5B"/>
<rect x="382" y="196" width="350" height="24" rx="12" fill="white" fill-opacity="0.1"/>
<path d="M384 208C384 202.477 388.477 198 394 198H720C725.523 198 730 202.477 730 208C730 213.523 725.523 218 720 218H394C388.477 218 384 213.523 384 208Z" fill="#FB7E5B"/>
<rect x="382" y="240" width="350" height="16" rx="8" fill="white" fill-opacity="0.1"/>
<path d="M382 248C382 243.582 385.582 240 390 240C394.418 240 398 243.582 398 248C398 252.418 394.418 256 390 256C385.582 256 382 252.418 382 248Z" fill="#FB7E5B"/>
<rect x="382" y="276" width="350" height="16" rx="8" fill="white" fill-opacity="0.1"/>
<path d="M382 284C382 279.582 385.582 276 390 276H461.5C465.918 276 469.5 279.582 469.5 284C469.5 288.418 465.918 292 461.5 292H390C385.582 292 382 288.418 382 284Z" fill="#FB7E5B"/>
<rect x="382" y="312" width="350" height="16" rx="8" fill="white" fill-opacity="0.1"/>
<path d="M382 320C382 315.582 385.582 312 390 312H549C553.418 312 557 315.582 557 320C557 324.418 553.418 328 549 328H390C385.582 328 382 324.418 382 320Z" fill="#FB7E5B"/>
<rect x="382" y="348" width="350" height="16" rx="8" fill="white" fill-opacity="0.1"/>
<path d="M382 356C382 351.582 385.582 348 390 348H636.5C640.918 348 644.5 351.582 644.5 356C644.5 360.418 640.918 364 636.5 364H390C385.582 364 382 360.418 382 356Z" fill="#FB7E5B"/>
<rect x="382" y="384" width="350" height="16" rx="8" fill="white" fill-opacity="0.1"/>
<path d="M382 392C382 387.582 385.582 384 390 384H724C728.418 384 732 387.582 732 392C732 396.418 728.418 400 724 400H390C385.582 400 382 396.418 382 392Z" fill="#FB7E5B"/>
</svg>

