<svg width="411" height="731" viewBox="0 0 411 731" fill="none" xmlns="http://www.w3.org/2000/svg">
<g clip-path="url(#clip0_4589_35266)">
<path d="M0 24C0 10.7452 10.7452 0 24 0H387C400.255 0 411 10.7452 411 24V707C411 720.255 400.255 731 387 731H24C10.7452 731 0 720.255 0 707V24Z" fill="#090C18"/>
<g clip-path="url(#clip1_4589_35266)">
<path d="M354.178 26.4267C355.459 25.3444 357.335 25.3444 358.616 26.4267C358.68 26.4849 358.717 26.5675 358.719 26.6542C358.721 26.7409 358.686 26.824 358.625 26.8847L356.62 28.9072C356.561 28.9666 356.481 28.9999 356.397 28.9999C356.313 28.9999 356.233 28.9666 356.174 28.9072L354.168 26.8847C354.107 26.824 354.073 26.7407 354.075 26.6542C354.077 26.5675 354.114 26.4848 354.178 26.4267ZM351.502 23.7294C354.262 21.165 358.534 21.1651 361.293 23.7294C361.356 23.7896 361.391 23.8724 361.392 23.9589C361.393 24.0453 361.359 24.1281 361.298 24.1894L360.139 25.3603C360.02 25.4796 359.827 25.4814 359.705 25.3652C358.799 24.5454 357.619 24.0917 356.397 24.0917C355.176 24.0923 353.998 24.5461 353.092 25.3652C352.97 25.4815 352.776 25.4798 352.657 25.3603L351.499 24.1894C351.437 24.1282 351.403 24.0453 351.404 23.9589C351.405 23.8724 351.44 23.7895 351.502 23.7294ZM348.827 21.039C353.058 16.9869 359.734 16.9871 363.966 21.039C364.028 21.0992 364.062 21.1817 364.063 21.2675C364.063 21.3533 364.03 21.4361 363.969 21.497L362.809 22.6669C362.69 22.787 362.495 22.7881 362.374 22.6699C360.761 21.1384 358.622 20.2842 356.397 20.2841C354.172 20.2841 352.032 21.1382 350.419 22.6699C350.298 22.7882 350.104 22.787 349.985 22.6669L348.824 21.497C348.763 21.4361 348.73 21.3532 348.73 21.2675C348.731 21.1817 348.765 21.0991 348.827 21.039Z" fill="#F4F2FF"/>
<path d="M329 24.667C329.552 24.667 330 25.1147 330 25.667V27.667C330 28.2191 329.552 28.667 329 28.667H328C327.448 28.667 327 28.2191 327 27.667V25.667C327 25.1147 327.448 24.667 328 24.667H329ZM333.3 22.667C333.852 22.667 334.3 23.1147 334.3 23.667V27.667C334.3 28.2191 333.852 28.667 333.3 28.667H332.3C331.748 28.6669 331.3 28.219 331.3 27.667V23.667C331.3 23.1148 331.748 22.6671 332.3 22.667H333.3ZM337.6 20.333C338.152 20.333 338.599 20.7809 338.6 21.333V27.667C338.599 28.2191 338.152 28.667 337.6 28.667H336.6C336.048 28.6668 335.6 28.219 335.6 27.667V21.333C335.6 20.781 336.048 20.3332 336.6 20.333H337.6ZM341.9 18C342.452 18.0002 342.9 18.4479 342.9 19V27.667C342.9 28.219 342.452 28.6668 341.9 28.667H340.9C340.348 28.667 339.901 28.2191 339.9 27.667V19C339.9 18.4477 340.348 18 340.9 18H341.9Z" fill="#F4F2FF"/>
<rect opacity="0.35" x="370" y="18.5" width="21" height="10.3333" rx="2.5" stroke="#F4F2FF"/>
<path opacity="0.4" d="M392.5 21.6667V25.6667C393.305 25.3279 393.828 24.5398 393.828 23.6667C393.828 22.7936 393.305 22.0055 392.5 21.6667Z" fill="#F4F2FF"/>
<rect x="371.5" y="20" width="18" height="7.33333" rx="1.5" fill="#F4F2FF"/>
<path d="M34.5014 29.2637C31.9892 29.2637 30.4804 27.1323 30.4804 23.7192V23.7046C30.4804 20.2915 31.9892 18.1675 34.5014 18.1675C37.0136 18.1675 38.537 20.2915 38.537 23.7046V23.7192C38.537 27.1323 37.0136 29.2637 34.5014 29.2637ZM34.5014 27.7329C35.849 27.7329 36.6327 26.2241 36.6327 23.7192V23.7046C36.6327 21.1997 35.849 19.7056 34.5014 19.7056C33.1537 19.7056 32.3847 21.1997 32.3847 23.7046V23.7192C32.3847 26.2241 33.1537 27.7329 34.5014 27.7329ZM44.0524 18.1675C46.3083 18.1675 48.2712 19.7715 48.2712 23.5801V23.5947C48.2712 27.1543 46.6672 29.2637 44.0085 29.2637C42.0676 29.2637 40.6174 28.1138 40.2805 26.4951L40.2658 26.4146H42.1262L42.1481 26.4878C42.4265 27.2275 43.0783 27.7109 44.0085 27.7109C45.6857 27.7109 46.3962 26.0703 46.4768 24.0488C46.4768 23.9683 46.4841 23.8877 46.4841 23.8071H46.3376C45.9494 24.6421 45.0266 25.3818 43.5764 25.3818C41.5476 25.3818 40.1267 23.9023 40.1267 21.8955V21.8809C40.1267 19.7349 41.76 18.1675 44.0524 18.1675ZM44.0451 23.9316C45.239 23.9316 46.1545 23.0674 46.1545 21.8735V21.8589C46.1545 20.6504 45.239 19.7056 44.0671 19.7056C42.9025 19.7056 41.9724 20.6357 41.9724 21.8149V21.8296C41.9724 23.0527 42.8439 23.9316 44.0451 23.9316ZM51.2964 22.1519C50.6299 22.1519 50.1318 21.6392 50.1318 20.9946C50.1318 20.3428 50.6299 19.8374 51.2964 19.8374C51.9702 19.8374 52.4609 20.3428 52.4609 20.9946C52.4609 21.6392 51.9702 22.1519 51.2964 22.1519ZM51.2964 27.5864C50.6299 27.5864 50.1318 27.0811 50.1318 26.4292C50.1318 25.7773 50.6299 25.272 51.2964 25.272C51.9702 25.272 52.4609 25.7773 52.4609 26.4292C52.4609 27.0811 51.9702 27.5864 51.2964 27.5864ZM59.4485 29V26.9712H54.2776V25.4258C55.6473 23.0454 57.1487 20.6138 58.5843 18.4312H61.2576V25.4111H62.6785V26.9712H61.2576V29H59.4485ZM56.0354 25.4551H59.4778V19.9399H59.368C58.284 21.5952 57.0608 23.5508 56.0354 25.3452V25.4551ZM66.7584 29V20.2915H66.6339L64.0045 22.1519V20.3721L66.7657 18.4312H68.648V29H66.7584Z" fill="#F4F2FF"/>
</g>
</g>
<defs>
<clipPath id="clip0_4589_35266">
<path d="M0 24C0 10.7452 10.7452 0 24 0H387C400.255 0 411 10.7452 411 24V707C411 720.255 400.255 731 387 731H24C10.7452 731 0 720.255 0 707V24Z" fill="white"/>
</clipPath>
<clipPath id="clip1_4589_35266">
<rect width="411" height="48" fill="white"/>
</clipPath>
</defs>
</svg>

