<svg width="32" height="30" viewBox="0 0 32 30" fill="none" xmlns="http://www.w3.org/2000/svg">
<path d="M15.2114 15.0044H4.35522M4.04751 16.4529L2.25393 21.9065C1.2716 24.8933 0.780435 26.3867 1.13292 27.3062C1.43901 28.105 2.09643 28.7104 2.90766 28.941C3.84182 29.2063 5.25275 28.56 8.07461 27.2675L26.1653 18.9811C28.9197 17.7194 30.2969 17.0887 30.7225 16.2123C31.0923 15.451 31.0923 14.5576 30.7225 13.7963C30.2969 12.9201 28.9197 12.2892 26.1653 11.0276L8.0434 2.72691C5.23004 1.43827 3.82338 0.793943 2.89015 1.05826C2.07969 1.28781 1.42233 1.89169 1.11517 2.68886C0.761477 3.6068 1.24739 5.09698 2.21925 8.07735L4.05099 13.6949C4.2179 14.2067 4.30137 14.4627 4.3343 14.7244C4.36354 14.9568 4.36324 15.1919 4.33343 15.4241C4.29982 15.6858 4.21572 15.9414 4.04751 16.4529Z" stroke="white" stroke-width="2" stroke-linecap="round" stroke-linejoin="round"/>
</svg>

