<svg width="23" height="24" viewBox="0 0 23 24" fill="none" xmlns="http://www.w3.org/2000/svg">
<path d="M21.0363 9.7334C22.1185 9.43695 22.8724 8.48585 22.9332 7.34946C22.9818 6.21307 22.3252 5.18785 21.2795 4.79259C19.6014 4.15028 19.1758 3.66855 18.7138 1.92692C18.4219 0.79053 17.4005 0 16.2454 0C15.1631 0 14.2269 0.66701 13.8499 1.69223C13.2176 3.39681 12.7434 3.82913 11.0167 4.29851C9.93447 4.59496 9.18057 5.54606 9.13193 6.68245C9.13193 6.76891 9.15625 6.84303 9.15625 6.92949H2.82106C1.26462 6.92949 0 8.2141 0 9.79516C0 11.3762 1.26462 12.6608 2.82106 12.6608V12.7349C1.26462 12.7349 0 14.0196 0 15.6006C0 16.947 0.924143 18.071 2.15227 18.3675C0.924143 18.6763 0 19.8003 0 21.1343C0 22.7154 1.26462 24 2.82106 24H19.3947C20.9512 24 22.2158 22.7154 22.2158 21.1343C22.2158 19.788 21.2916 18.6639 20.0635 18.3675C21.2916 18.0587 22.2158 16.9346 22.2158 15.6006C22.2158 14.0196 20.9512 12.7349 19.3947 12.7349H18.0085C18.0815 12.6114 18.1666 12.5003 18.2152 12.3644C18.8475 10.6598 19.3218 10.2275 21.0484 9.75811L21.0363 9.7334Z" fill="#4AE5B0"/>
<path d="M19.3828 22.1966H2.80914C2.35923 22.1966 2.00659 21.826 2.00659 21.3813C2.00659 20.9367 2.37139 20.5661 2.80914 20.5661H19.3828C19.8327 20.5661 20.1854 20.9367 20.1854 21.3813C20.1854 21.826 19.8206 22.1966 19.3828 22.1966Z" fill="#0A2E22"/>
<path d="M19.3828 16.391H2.80914C2.35923 16.391 2.00659 16.0204 2.00659 15.5757C2.00659 15.1311 2.37139 14.7605 2.80914 14.7605H19.3828C19.8327 14.7605 20.1854 15.1311 20.1854 15.5757C20.1854 16.0204 19.8206 16.391 19.3828 16.391Z" fill="#0A2E22"/>
<path d="M9.67938 10.5982H2.80914C2.35923 10.5982 2.00659 10.2276 2.00659 9.78295C2.00659 9.33827 2.37139 8.96771 2.80914 8.96771H9.67938C10.1293 8.96771 10.4819 9.33827 10.4819 9.78295C10.4819 10.2276 10.1171 10.5982 9.67938 10.5982Z" fill="#0A2E22"/>
<path d="M20.5625 6.70706C18.2765 5.84242 17.3888 4.84191 16.7565 2.44561C16.6228 1.92683 15.9054 1.88977 15.723 2.3962C14.8718 4.71838 13.8868 5.62008 11.5278 6.26239C11.0171 6.39826 10.9807 7.12703 11.4792 7.31231C13.7652 8.17695 14.6529 9.17747 15.2852 11.5738C15.419 12.0925 16.1364 12.1296 16.3188 11.6232C17.17 9.30099 18.1549 8.39929 20.5139 7.75698C21.0246 7.62111 21.0611 6.89234 20.5625 6.70706Z" fill="#0A2E22"/>
</svg>

