<svg width="400" height="29" viewBox="0 0 400 29" fill="none" xmlns="http://www.w3.org/2000/svg">
<g clip-path="url(#clip0_4589_35285)">
<path d="M200 29V28H0V29V30H200V29Z" fill="#9D85FF"/>
<path d="M78.7036 21V8.63184H80.9199V19.124H86.4316V21H78.7036ZM90.7979 21.1826C90.2113 21.1826 89.6828 21.0775 89.2124 20.8672C88.742 20.6569 88.3713 20.347 88.1001 19.9375C87.8345 19.528 87.7017 19.0189 87.7017 18.4102C87.7017 17.89 87.7985 17.4611 87.9922 17.1235C88.1859 16.786 88.4487 16.5148 88.7808 16.3101C89.1183 16.1053 89.4946 15.9531 89.9097 15.8535C90.3302 15.7484 90.7674 15.6709 91.2212 15.6211C91.7635 15.5602 92.2007 15.5076 92.5327 15.4634C92.8647 15.4191 93.1082 15.3499 93.2632 15.2559C93.4181 15.1562 93.4956 15.0013 93.4956 14.791V14.7412C93.4956 14.4479 93.432 14.1961 93.3047 13.9858C93.1829 13.7756 93.0031 13.6151 92.7651 13.5044C92.5272 13.3937 92.2311 13.3384 91.877 13.3384C91.5228 13.3384 91.2129 13.3937 90.9473 13.5044C90.6872 13.6151 90.4741 13.759 90.3081 13.936C90.1476 14.1131 90.0314 14.3096 89.9595 14.5254L87.959 14.1851C88.1195 13.6317 88.3851 13.1696 88.7559 12.7988C89.1266 12.4281 89.5776 12.1486 90.1089 11.9604C90.6457 11.7723 91.235 11.6782 91.877 11.6782C92.3363 11.6782 92.7873 11.7336 93.23 11.8442C93.6782 11.9549 94.0822 12.132 94.4419 12.3755C94.8071 12.619 95.0977 12.9427 95.3135 13.3467C95.5293 13.7451 95.6372 14.2404 95.6372 14.8325V21H93.5786V19.73H93.4956C93.3628 19.9901 93.1746 20.2308 92.9312 20.4521C92.6932 20.6735 92.3971 20.8506 92.043 20.9834C91.6943 21.1162 91.2793 21.1826 90.7979 21.1826ZM91.3457 19.5889C91.7884 19.5889 92.1702 19.5031 92.4912 19.3315C92.8177 19.1545 93.0667 18.922 93.2383 18.6343C93.4154 18.341 93.5039 18.0256 93.5039 17.688V16.6089C93.4375 16.6642 93.3241 16.7168 93.1636 16.7666C93.0031 16.8109 92.8205 16.8524 92.6157 16.8911C92.411 16.9299 92.209 16.9631 92.0098 16.9907C91.8105 17.0184 91.6335 17.0433 91.4785 17.0654C91.1576 17.1097 90.867 17.1816 90.6069 17.2812C90.3524 17.3809 90.1504 17.5192 90.001 17.6963C89.8516 17.8734 89.7769 18.103 89.7769 18.3853C89.7769 18.6453 89.8433 18.8667 89.9761 19.0493C90.1144 19.2264 90.2998 19.362 90.5322 19.4561C90.7702 19.5446 91.0413 19.5889 91.3457 19.5889ZM102.743 21.1743C102.234 21.1743 101.805 21.0885 101.456 20.917C101.107 20.7454 100.822 20.5352 100.601 20.2861C100.385 20.0371 100.214 19.7936 100.086 19.5557H99.9702V21H97.8618V8.63184H100.012V13.2969H100.095C100.216 13.0589 100.385 12.8154 100.601 12.5664C100.817 12.3174 101.096 12.1071 101.439 11.9355C101.788 11.764 102.225 11.6782 102.751 11.6782C103.47 11.6782 104.118 11.8636 104.693 12.2344C105.269 12.5996 105.723 13.1364 106.055 13.8447C106.392 14.5531 106.561 15.4108 106.561 16.418C106.561 17.4141 106.395 18.2663 106.063 18.9746C105.736 19.6829 105.285 20.228 104.71 20.6099C104.134 20.9862 103.479 21.1743 102.743 21.1743ZM102.17 19.3979C102.646 19.3979 103.047 19.2707 103.374 19.0161C103.7 18.7616 103.946 18.4102 104.112 17.9619C104.284 17.5081 104.37 16.9907 104.37 16.4097C104.37 15.8286 104.284 15.3167 104.112 14.874C103.946 14.4258 103.7 14.0771 103.374 13.8281C103.047 13.5736 102.646 13.4463 102.17 13.4463C101.7 13.4463 101.298 13.5708 100.966 13.8198C100.64 14.0633 100.391 14.4064 100.219 14.8491C100.048 15.2918 99.9619 15.812 99.9619 16.4097C99.9619 17.0018 100.048 17.5247 100.219 17.9785C100.391 18.4268 100.643 18.7754 100.975 19.0244C101.307 19.2734 101.705 19.3979 102.17 19.3979ZM112.438 21.1909C111.514 21.1909 110.717 20.9945 110.047 20.6016C109.383 20.2087 108.871 19.658 108.512 18.9497C108.152 18.2414 107.972 17.4085 107.972 16.4512C107.972 15.5104 108.149 14.6831 108.503 13.9692C108.863 13.2498 109.367 12.6882 110.014 12.2842C110.667 11.8802 111.431 11.6782 112.305 11.6782C112.881 11.6782 113.423 11.7723 113.932 11.9604C114.447 12.1486 114.898 12.4364 115.285 12.8237C115.678 13.2056 115.985 13.6898 116.207 14.2764C116.433 14.8574 116.547 15.5464 116.547 16.3433V16.999H108.952V15.5381H115.468L114.472 15.9614C114.472 15.4412 114.389 14.9875 114.223 14.6001C114.062 14.2072 113.821 13.9028 113.5 13.687C113.18 13.4712 112.787 13.3633 112.322 13.3633C111.851 13.3633 111.45 13.474 111.118 13.6953C110.786 13.9111 110.532 14.2072 110.354 14.5835C110.183 14.9543 110.097 15.3693 110.097 15.8286V16.833C110.097 17.403 110.194 17.8872 110.388 18.2856C110.587 18.6841 110.864 18.9884 111.218 19.1987C111.577 19.4035 111.995 19.5059 112.471 19.5059C112.792 19.5059 113.083 19.4588 113.343 19.3647C113.603 19.2707 113.824 19.1351 114.007 18.958C114.195 18.7754 114.336 18.554 114.43 18.2939L116.406 18.6343C116.267 19.1434 116.016 19.5916 115.65 19.979C115.285 20.3608 114.831 20.6597 114.289 20.8755C113.747 21.0858 113.13 21.1909 112.438 21.1909ZM120.465 8.63184V21H118.315V8.63184H120.465Z" fill="#F4F2FF"/>
<path d="M278.704 21V8.63184H280.92V19.124H286.432V21H278.704ZM290.798 21.1826C290.211 21.1826 289.683 21.0775 289.212 20.8672C288.742 20.6569 288.371 20.347 288.1 19.9375C287.834 19.528 287.702 19.0189 287.702 18.4102C287.702 17.89 287.799 17.4611 287.992 17.1235C288.186 16.786 288.449 16.5148 288.781 16.3101C289.118 16.1053 289.495 15.9531 289.91 15.8535C290.33 15.7484 290.767 15.6709 291.221 15.6211C291.764 15.5602 292.201 15.5076 292.533 15.4634C292.865 15.4191 293.108 15.3499 293.263 15.2559C293.418 15.1562 293.496 15.0013 293.496 14.791V14.7412C293.496 14.4479 293.432 14.1961 293.305 13.9858C293.183 13.7756 293.003 13.6151 292.765 13.5044C292.527 13.3937 292.231 13.3384 291.877 13.3384C291.523 13.3384 291.213 13.3937 290.947 13.5044C290.687 13.6151 290.474 13.759 290.308 13.936C290.148 14.1131 290.031 14.3096 289.959 14.5254L287.959 14.1851C288.119 13.6317 288.385 13.1696 288.756 12.7988C289.127 12.4281 289.578 12.1486 290.109 11.9604C290.646 11.7723 291.235 11.6782 291.877 11.6782C292.336 11.6782 292.787 11.7336 293.23 11.8442C293.678 11.9549 294.082 12.132 294.442 12.3755C294.807 12.619 295.098 12.9427 295.313 13.3467C295.529 13.7451 295.637 14.2404 295.637 14.8325V21H293.579V19.73H293.496C293.363 19.9901 293.175 20.2308 292.931 20.4521C292.693 20.6735 292.397 20.8506 292.043 20.9834C291.694 21.1162 291.279 21.1826 290.798 21.1826ZM291.346 19.5889C291.788 19.5889 292.17 19.5031 292.491 19.3315C292.818 19.1545 293.067 18.922 293.238 18.6343C293.415 18.341 293.504 18.0256 293.504 17.688V16.6089C293.438 16.6642 293.324 16.7168 293.164 16.7666C293.003 16.8109 292.82 16.8524 292.616 16.8911C292.411 16.9299 292.209 16.9631 292.01 16.9907C291.811 17.0184 291.633 17.0433 291.479 17.0654C291.158 17.1097 290.867 17.1816 290.607 17.2812C290.352 17.3809 290.15 17.5192 290.001 17.6963C289.852 17.8734 289.777 18.103 289.777 18.3853C289.777 18.6453 289.843 18.8667 289.976 19.0493C290.114 19.2264 290.3 19.362 290.532 19.4561C290.77 19.5446 291.041 19.5889 291.346 19.5889ZM302.743 21.1743C302.234 21.1743 301.805 21.0885 301.456 20.917C301.107 20.7454 300.822 20.5352 300.601 20.2861C300.385 20.0371 300.214 19.7936 300.086 19.5557H299.97V21H297.862V8.63184H300.012V13.2969H300.095C300.216 13.0589 300.385 12.8154 300.601 12.5664C300.817 12.3174 301.096 12.1071 301.439 11.9355C301.788 11.764 302.225 11.6782 302.751 11.6782C303.47 11.6782 304.118 11.8636 304.693 12.2344C305.269 12.5996 305.723 13.1364 306.055 13.8447C306.392 14.5531 306.561 15.4108 306.561 16.418C306.561 17.4141 306.395 18.2663 306.063 18.9746C305.736 19.6829 305.285 20.228 304.71 20.6099C304.134 20.9862 303.479 21.1743 302.743 21.1743ZM302.17 19.3979C302.646 19.3979 303.047 19.2707 303.374 19.0161C303.7 18.7616 303.946 18.4102 304.112 17.9619C304.284 17.5081 304.37 16.9907 304.37 16.4097C304.37 15.8286 304.284 15.3167 304.112 14.874C303.946 14.4258 303.7 14.0771 303.374 13.8281C303.047 13.5736 302.646 13.4463 302.17 13.4463C301.7 13.4463 301.298 13.5708 300.966 13.8198C300.64 14.0633 300.391 14.4064 300.219 14.8491C300.048 15.2918 299.962 15.812 299.962 16.4097C299.962 17.0018 300.048 17.5247 300.219 17.9785C300.391 18.4268 300.643 18.7754 300.975 19.0244C301.307 19.2734 301.705 19.3979 302.17 19.3979ZM312.438 21.1909C311.514 21.1909 310.717 20.9945 310.047 20.6016C309.383 20.2087 308.871 19.658 308.512 18.9497C308.152 18.2414 307.972 17.4085 307.972 16.4512C307.972 15.5104 308.149 14.6831 308.503 13.9692C308.863 13.2498 309.367 12.6882 310.014 12.2842C310.667 11.8802 311.431 11.6782 312.305 11.6782C312.881 11.6782 313.423 11.7723 313.932 11.9604C314.447 12.1486 314.898 12.4364 315.285 12.8237C315.678 13.2056 315.985 13.6898 316.207 14.2764C316.433 14.8574 316.547 15.5464 316.547 16.3433V16.999H308.952V15.5381H315.468L314.472 15.9614C314.472 15.4412 314.389 14.9875 314.223 14.6001C314.062 14.2072 313.821 13.9028 313.5 13.687C313.18 13.4712 312.787 13.3633 312.322 13.3633C311.851 13.3633 311.45 13.474 311.118 13.6953C310.786 13.9111 310.532 14.2072 310.354 14.5835C310.183 14.9543 310.097 15.3693 310.097 15.8286V16.833C310.097 17.403 310.194 17.8872 310.388 18.2856C310.587 18.6841 310.864 18.9884 311.218 19.1987C311.577 19.4035 311.995 19.5059 312.471 19.5059C312.792 19.5059 313.083 19.4588 313.343 19.3647C313.603 19.2707 313.824 19.1351 314.007 18.958C314.195 18.7754 314.336 18.554 314.43 18.2939L316.406 18.6343C316.267 19.1434 316.016 19.5916 315.65 19.979C315.285 20.3608 314.831 20.6597 314.289 20.8755C313.747 21.0858 313.13 21.1909 312.438 21.1909ZM320.465 8.63184V21H318.315V8.63184H320.465Z" fill="white" fill-opacity="0.4"/>
</g>
<defs>
<clipPath id="clip0_4589_35285">
<rect width="400" height="29" fill="white"/>
</clipPath>
</defs>
</svg>

