<svg width="390" height="568" viewBox="0 0 390 568" fill="none" xmlns="http://www.w3.org/2000/svg">
<rect x="16.5" y="0.5" width="357" height="43" rx="15.5" fill="#232323"/>
<rect x="16.5" y="0.5" width="357" height="43" rx="15.5" stroke="#121212"/>
<path d="M33.0254 27V16.8145H39.6426V18.3525H34.8506V21.1006H39.2871V22.6182H34.8506V25.4619H39.6699V27H33.0254ZM44.0381 27.0957C43.514 27.0957 43.0537 26.984 42.6572 26.7607C42.2653 26.5374 41.96 26.2116 41.7412 25.7832C41.527 25.3503 41.4199 24.8285 41.4199 24.2178V19.3574H43.1973V23.9443C43.1973 24.4548 43.3294 24.8558 43.5938 25.1475C43.8626 25.4391 44.2295 25.585 44.6943 25.585C45.0088 25.585 45.2891 25.5166 45.5352 25.3799C45.7812 25.2432 45.9727 25.0426 46.1094 24.7783C46.2507 24.514 46.3213 24.1995 46.3213 23.835V19.3574H48.1055V27H46.417L46.3965 25.1133H46.5332C46.319 25.7786 46.0023 26.2754 45.583 26.6035C45.1637 26.9316 44.6488 27.0957 44.0381 27.0957ZM51.6191 24.5938V22.4404H51.8994L54.6543 19.3574H56.7393L53.3623 23.124H52.9932L51.6191 24.5938ZM49.9922 27V16.8145H51.7695V27H49.9922ZM54.7842 27L52.2822 23.5205L53.4854 22.2627L56.917 27H54.7842ZM60.0957 27.1572C59.6126 27.1572 59.1774 27.0706 58.79 26.8975C58.4027 26.7197 58.0973 26.46 57.874 26.1182C57.6507 25.7764 57.5391 25.3548 57.5391 24.8535C57.5391 24.4206 57.6188 24.0628 57.7783 23.7803C57.9424 23.4977 58.1611 23.2721 58.4346 23.1035C58.7126 22.9349 59.0247 22.8073 59.3711 22.7207C59.7174 22.6341 60.0775 22.5726 60.4512 22.5361C60.8932 22.486 61.2533 22.4427 61.5312 22.4062C61.8092 22.3698 62.012 22.3105 62.1396 22.2285C62.2718 22.1465 62.3379 22.0189 62.3379 21.8457V21.8115C62.3379 21.5609 62.2878 21.349 62.1875 21.1758C62.0872 20.998 61.9368 20.8636 61.7363 20.7725C61.5404 20.6768 61.2965 20.6289 61.0049 20.6289C60.7087 20.6289 60.4512 20.6745 60.2324 20.7656C60.0182 20.8568 59.8428 20.9753 59.7061 21.1211C59.5693 21.2669 59.4691 21.4242 59.4053 21.5928L57.7578 21.2578C57.9082 20.8066 58.1406 20.4352 58.4551 20.1436C58.7695 19.8473 59.1432 19.6263 59.5762 19.4805C60.0137 19.3346 60.4876 19.2617 60.998 19.2617C61.3581 19.2617 61.7204 19.305 62.085 19.3916C62.4541 19.4736 62.7913 19.6149 63.0967 19.8154C63.402 20.016 63.6481 20.2848 63.835 20.6221C64.0218 20.9593 64.1152 21.3831 64.1152 21.8936V27H62.4131V25.9473H62.3447C62.2308 26.1615 62.0736 26.362 61.873 26.5488C61.6771 26.7311 61.431 26.8792 61.1348 26.9932C60.8431 27.1025 60.4967 27.1572 60.0957 27.1572ZM60.5537 25.8379C60.9229 25.8379 61.2396 25.765 61.5039 25.6191C61.7728 25.4733 61.9801 25.2819 62.126 25.0449C62.2764 24.8034 62.3516 24.5413 62.3516 24.2588V23.3564C62.2923 23.402 62.1921 23.4453 62.0508 23.4863C61.9141 23.5273 61.7591 23.5638 61.5859 23.5957C61.4173 23.6276 61.2487 23.6549 61.0801 23.6777C60.916 23.7005 60.777 23.7188 60.6631 23.7324C60.3988 23.7689 60.1595 23.8281 59.9453 23.9102C59.7311 23.9922 59.5625 24.1084 59.4395 24.2588C59.321 24.4046 59.2617 24.596 59.2617 24.833C59.2617 25.0518 59.3164 25.2363 59.4258 25.3867C59.5397 25.5326 59.6924 25.6442 59.8838 25.7217C60.0798 25.7992 60.3031 25.8379 60.5537 25.8379ZM66.002 27V19.3574H67.7246V20.6357H67.8066C67.9434 20.1937 68.1826 19.8542 68.5244 19.6172C68.8662 19.3757 69.2559 19.2549 69.6934 19.2549C69.7936 19.2549 69.9053 19.2594 70.0283 19.2686C70.1514 19.2777 70.2562 19.2891 70.3428 19.3027V20.9365C70.2699 20.9137 70.1514 20.8932 69.9873 20.875C69.8232 20.8568 69.6615 20.8477 69.502 20.8477C69.1738 20.8477 68.8776 20.9183 68.6133 21.0596C68.3535 21.2008 68.1484 21.3968 67.998 21.6475C67.8522 21.8936 67.7793 22.1784 67.7793 22.502V27H66.002ZM71.71 29.7275L72.127 28.3398L72.3389 28.3945C72.6077 28.4629 72.847 28.4811 73.0566 28.4492C73.2663 28.4219 73.4417 28.3307 73.583 28.1758C73.7243 28.0254 73.8245 27.8044 73.8838 27.5127L73.9932 27.0273L71.1084 19.3574H73.0088L74.4033 23.5137C74.5674 24.0059 74.7018 24.4958 74.8066 24.9834C74.9115 25.471 75.0277 25.9701 75.1553 26.4805H74.6904C74.8135 25.9701 74.9365 25.471 75.0596 24.9834C75.1826 24.4912 75.3262 24.0013 75.4902 23.5137L76.9326 19.3574H78.8125L75.5312 27.9844C75.3763 28.39 75.1826 28.7363 74.9502 29.0234C74.7178 29.3151 74.4329 29.5361 74.0957 29.6865C73.7585 29.8369 73.3597 29.9121 72.8994 29.9121C72.6488 29.9121 72.4163 29.8939 72.2021 29.8574C71.9925 29.821 71.8285 29.7777 71.71 29.7275ZM83.085 27.1572C82.3421 27.1572 81.6973 26.9932 81.1504 26.665C80.6035 26.3324 80.1797 25.8721 79.8789 25.2842C79.5827 24.6917 79.4346 24.0036 79.4346 23.2197C79.4346 22.4268 79.5827 21.734 79.8789 21.1416C80.1797 20.5446 80.6035 20.082 81.1504 19.7539C81.6973 19.4258 82.3421 19.2617 83.085 19.2617C83.8324 19.2617 84.4795 19.4258 85.0264 19.7539C85.5732 20.082 85.9948 20.5446 86.291 21.1416C86.5918 21.734 86.7422 22.4268 86.7422 23.2197C86.7422 24.0036 86.5918 24.6917 86.291 25.2842C85.9948 25.8721 85.5732 26.3324 85.0264 26.665C84.4795 26.9932 83.8324 27.1572 83.085 27.1572ZM83.085 25.7148C83.4997 25.7148 83.8438 25.6032 84.1172 25.3799C84.3952 25.1566 84.6003 24.8558 84.7324 24.4775C84.8691 24.0993 84.9375 23.6777 84.9375 23.2129C84.9375 22.7435 84.8691 22.3197 84.7324 21.9414C84.6003 21.5632 84.3952 21.2624 84.1172 21.0391C83.8438 20.8158 83.4997 20.7041 83.085 20.7041C82.6702 20.7041 82.3262 20.8158 82.0527 21.0391C81.7839 21.2624 81.5811 21.5632 81.4443 21.9414C81.3122 22.3151 81.2461 22.7389 81.2461 23.2129C81.2461 23.6777 81.3122 24.0993 81.4443 24.4775C81.5811 24.8558 81.7839 25.1566 82.0527 25.3799C82.3262 25.6032 82.6702 25.7148 83.085 25.7148ZM91.835 19.3574V20.752H87.4941V19.3574H91.835ZM88.5811 17.5391H90.3584V24.8467C90.3584 25.1247 90.4176 25.3298 90.5361 25.4619C90.6546 25.5895 90.8483 25.6533 91.1172 25.6533C91.1992 25.6533 91.3063 25.6442 91.4385 25.626C91.5752 25.6032 91.6846 25.5827 91.7666 25.5645L92.0469 26.9385C91.8509 26.9977 91.6504 27.0387 91.4453 27.0615C91.2402 27.0889 91.0443 27.1025 90.8574 27.1025C90.1237 27.1025 89.5609 26.9202 89.1689 26.5557C88.777 26.1911 88.5811 25.6715 88.5811 24.9971V17.5391ZM93.25 27V19.3574H95.0273V27H93.25ZM94.1387 18.2773C93.8561 18.2773 93.6123 18.1816 93.4072 17.9902C93.2067 17.7988 93.1064 17.571 93.1064 17.3066C93.1064 17.0332 93.2067 16.8031 93.4072 16.6162C93.6123 16.4248 93.8561 16.3291 94.1387 16.3291C94.4258 16.3291 94.6696 16.4248 94.8701 16.6162C95.0752 16.8031 95.1777 17.0332 95.1777 17.3066C95.1777 17.571 95.0752 17.7988 94.8701 17.9902C94.6696 18.1816 94.4258 18.2773 94.1387 18.2773ZM100.229 27.1572C99.4867 27.1572 98.8418 26.9932 98.2949 26.665C97.748 26.3324 97.3242 25.8721 97.0234 25.2842C96.7272 24.6917 96.5791 24.0036 96.5791 23.2197C96.5791 22.4268 96.7272 21.734 97.0234 21.1416C97.3242 20.5446 97.748 20.082 98.2949 19.7539C98.8418 19.4258 99.4867 19.2617 100.229 19.2617C100.653 19.2617 101.048 19.3164 101.412 19.4258C101.777 19.5352 102.103 19.6947 102.39 19.9043C102.677 20.1094 102.916 20.36 103.107 20.6562C103.303 20.9525 103.442 21.2874 103.524 21.6611L101.863 22.0098C101.813 21.8138 101.74 21.6361 101.645 21.4766C101.553 21.3125 101.439 21.1735 101.303 21.0596C101.166 20.9456 101.009 20.859 100.831 20.7998C100.653 20.736 100.457 20.7041 100.243 20.7041C99.8285 20.7041 99.4844 20.8158 99.2109 21.0391C98.9375 21.2578 98.7324 21.5563 98.5957 21.9346C98.459 22.3083 98.3906 22.7344 98.3906 23.2129C98.3906 23.6823 98.459 24.1061 98.5957 24.4844C98.7324 24.8626 98.9375 25.1634 99.2109 25.3867C99.4844 25.6055 99.8285 25.7148 100.243 25.7148C100.462 25.7148 100.66 25.6829 100.838 25.6191C101.02 25.5553 101.18 25.4642 101.316 25.3457C101.458 25.2272 101.576 25.0837 101.672 24.915C101.768 24.7464 101.838 24.5596 101.884 24.3545L103.545 24.7031C103.463 25.0859 103.324 25.4277 103.128 25.7285C102.937 26.0293 102.695 26.2868 102.403 26.501C102.116 26.7106 101.788 26.8724 101.419 26.9863C101.054 27.1003 100.658 27.1572 100.229 27.1572ZM110.736 27.1572C110.253 27.1572 109.818 27.0706 109.431 26.8975C109.043 26.7197 108.738 26.46 108.515 26.1182C108.291 25.7764 108.18 25.3548 108.18 24.8535C108.18 24.4206 108.259 24.0628 108.419 23.7803C108.583 23.4977 108.802 23.2721 109.075 23.1035C109.353 22.9349 109.665 22.8073 110.012 22.7207C110.358 22.6341 110.718 22.5726 111.092 22.5361C111.534 22.486 111.894 22.4427 112.172 22.4062C112.45 22.3698 112.653 22.3105 112.78 22.2285C112.912 22.1465 112.979 22.0189 112.979 21.8457V21.8115C112.979 21.5609 112.928 21.349 112.828 21.1758C112.728 20.998 112.577 20.8636 112.377 20.7725C112.181 20.6768 111.937 20.6289 111.646 20.6289C111.349 20.6289 111.092 20.6745 110.873 20.7656C110.659 20.8568 110.483 20.9753 110.347 21.1211C110.21 21.2669 110.11 21.4242 110.046 21.5928L108.398 21.2578C108.549 20.8066 108.781 20.4352 109.096 20.1436C109.41 19.8473 109.784 19.6263 110.217 19.4805C110.654 19.3346 111.128 19.2617 111.639 19.2617C111.999 19.2617 112.361 19.305 112.726 19.3916C113.095 19.4736 113.432 19.6149 113.737 19.8154C114.043 20.016 114.289 20.2848 114.476 20.6221C114.662 20.9593 114.756 21.3831 114.756 21.8936V27H113.054V25.9473H112.985C112.871 26.1615 112.714 26.362 112.514 26.5488C112.318 26.7311 112.072 26.8792 111.775 26.9932C111.484 27.1025 111.137 27.1572 110.736 27.1572ZM111.194 25.8379C111.563 25.8379 111.88 25.765 112.145 25.6191C112.413 25.4733 112.621 25.2819 112.767 25.0449C112.917 24.8034 112.992 24.5413 112.992 24.2588V23.3564C112.933 23.402 112.833 23.4453 112.691 23.4863C112.555 23.5273 112.4 23.5638 112.227 23.5957C112.058 23.6276 111.889 23.6549 111.721 23.6777C111.557 23.7005 111.418 23.7188 111.304 23.7324C111.039 23.7689 110.8 23.8281 110.586 23.9102C110.372 23.9922 110.203 24.1084 110.08 24.2588C109.962 24.4046 109.902 24.596 109.902 24.833C109.902 25.0518 109.957 25.2363 110.066 25.3867C110.18 25.5326 110.333 25.6442 110.524 25.7217C110.72 25.7992 110.944 25.8379 111.194 25.8379ZM118.42 22.5225V27H116.643V19.3574H118.324L118.352 21.2441H118.208C118.422 20.5833 118.737 20.0889 119.151 19.7607C119.566 19.4281 120.086 19.2617 120.71 19.2617C121.234 19.2617 121.692 19.3734 122.084 19.5967C122.476 19.82 122.779 20.1458 122.993 20.5742C123.212 21.0026 123.321 21.5244 123.321 22.1396V27H121.544V22.4131C121.544 21.9027 121.412 21.5016 121.147 21.21C120.883 20.9183 120.519 20.7725 120.054 20.7725C119.739 20.7725 119.459 20.8408 119.213 20.9775C118.967 21.1143 118.773 21.3148 118.632 21.5791C118.491 21.8389 118.42 22.1533 118.42 22.5225ZM128.031 27.1367C127.43 27.1367 126.89 26.984 126.411 26.6787C125.937 26.3688 125.563 25.9199 125.29 25.332C125.017 24.7441 124.88 24.0309 124.88 23.1924C124.88 22.3447 125.019 21.6292 125.297 21.0459C125.579 20.458 125.958 20.0137 126.432 19.7129C126.91 19.4121 127.441 19.2617 128.024 19.2617C128.48 19.2617 128.852 19.3392 129.139 19.4941C129.43 19.6445 129.66 19.8245 129.829 20.0342C130.002 20.2438 130.132 20.4398 130.219 20.6221H130.294V16.8145H132.071V27H130.328V25.79H130.219C130.128 25.9723 129.993 26.1683 129.815 26.3779C129.642 26.5876 129.412 26.7676 129.125 26.918C128.838 27.0638 128.473 27.1367 128.031 27.1367ZM128.517 25.6738C128.904 25.6738 129.232 25.5713 129.501 25.3662C129.77 25.1566 129.975 24.8649 130.116 24.4912C130.257 24.1175 130.328 23.6823 130.328 23.1855C130.328 22.6888 130.257 22.2581 130.116 21.8936C129.979 21.5244 129.774 21.2373 129.501 21.0322C129.232 20.8271 128.904 20.7246 128.517 20.7246C128.116 20.7246 127.781 20.8317 127.512 21.0459C127.243 21.2555 127.04 21.5472 126.903 21.9209C126.767 22.29 126.698 22.7116 126.698 23.1855C126.698 23.6595 126.767 24.0856 126.903 24.4639C127.04 24.8376 127.243 25.1338 127.512 25.3525C127.785 25.5667 128.12 25.6738 128.517 25.6738ZM137.561 27V16.8145H141.368C142.147 16.8145 142.804 16.9603 143.337 17.252C143.87 17.5436 144.273 17.9447 144.547 18.4551C144.82 18.9609 144.957 19.5374 144.957 20.1846C144.957 20.8363 144.818 21.415 144.54 21.9209C144.267 22.4268 143.861 22.8255 143.323 23.1172C142.785 23.4089 142.125 23.5547 141.341 23.5547H138.818V22.0508H141.102C141.562 22.0508 141.938 21.971 142.229 21.8115C142.526 21.652 142.742 21.431 142.879 21.1484C143.02 20.8659 143.091 20.5446 143.091 20.1846C143.091 19.8245 143.02 19.5055 142.879 19.2275C142.742 18.9495 142.526 18.7331 142.229 18.5781C141.933 18.4232 141.553 18.3457 141.088 18.3457H139.386V27H137.561ZM146.516 27V19.3574H148.238V20.6357H148.32C148.457 20.1937 148.696 19.8542 149.038 19.6172C149.38 19.3757 149.77 19.2549 150.207 19.2549C150.307 19.2549 150.419 19.2594 150.542 19.2686C150.665 19.2777 150.77 19.2891 150.856 19.3027V20.9365C150.784 20.9137 150.665 20.8932 150.501 20.875C150.337 20.8568 150.175 20.8477 150.016 20.8477C149.688 20.8477 149.391 20.9183 149.127 21.0596C148.867 21.2008 148.662 21.3968 148.512 21.6475C148.366 21.8936 148.293 22.1784 148.293 22.502V27H146.516ZM155.095 27.1572C154.352 27.1572 153.707 26.9932 153.16 26.665C152.613 26.3324 152.189 25.8721 151.889 25.2842C151.592 24.6917 151.444 24.0036 151.444 23.2197C151.444 22.4268 151.592 21.734 151.889 21.1416C152.189 20.5446 152.613 20.082 153.16 19.7539C153.707 19.4258 154.352 19.2617 155.095 19.2617C155.842 19.2617 156.489 19.4258 157.036 19.7539C157.583 20.082 158.005 20.5446 158.301 21.1416C158.602 21.734 158.752 22.4268 158.752 23.2197C158.752 24.0036 158.602 24.6917 158.301 25.2842C158.005 25.8721 157.583 26.3324 157.036 26.665C156.489 26.9932 155.842 27.1572 155.095 27.1572ZM155.095 25.7148C155.509 25.7148 155.854 25.6032 156.127 25.3799C156.405 25.1566 156.61 24.8558 156.742 24.4775C156.879 24.0993 156.947 23.6777 156.947 23.2129C156.947 22.7435 156.879 22.3197 156.742 21.9414C156.61 21.5632 156.405 21.2624 156.127 21.0391C155.854 20.8158 155.509 20.7041 155.095 20.7041C154.68 20.7041 154.336 20.8158 154.062 21.0391C153.794 21.2624 153.591 21.5632 153.454 21.9414C153.322 22.3151 153.256 22.7389 153.256 23.2129C153.256 23.6777 153.322 24.0993 153.454 24.4775C153.591 24.8558 153.794 25.1566 154.062 25.3799C154.336 25.6032 154.68 25.7148 155.095 25.7148ZM161.938 24.5938V22.4404H162.218L164.973 19.3574H167.058L163.681 23.124H163.312L161.938 24.5938ZM160.311 27V16.8145H162.088V27H160.311ZM165.103 27L162.601 23.5205L163.804 22.2627L167.235 27H165.103ZM170.414 27.1572C169.931 27.1572 169.496 27.0706 169.108 26.8975C168.721 26.7197 168.416 26.46 168.192 26.1182C167.969 25.7764 167.857 25.3548 167.857 24.8535C167.857 24.4206 167.937 24.0628 168.097 23.7803C168.261 23.4977 168.479 23.2721 168.753 23.1035C169.031 22.9349 169.343 22.8073 169.689 22.7207C170.036 22.6341 170.396 22.5726 170.77 22.5361C171.212 22.486 171.572 22.4427 171.85 22.4062C172.128 22.3698 172.33 22.3105 172.458 22.2285C172.59 22.1465 172.656 22.0189 172.656 21.8457V21.8115C172.656 21.5609 172.606 21.349 172.506 21.1758C172.406 20.998 172.255 20.8636 172.055 20.7725C171.859 20.6768 171.615 20.6289 171.323 20.6289C171.027 20.6289 170.77 20.6745 170.551 20.7656C170.337 20.8568 170.161 20.9753 170.024 21.1211C169.888 21.2669 169.787 21.4242 169.724 21.5928L168.076 21.2578C168.227 20.8066 168.459 20.4352 168.773 20.1436C169.088 19.8473 169.462 19.6263 169.895 19.4805C170.332 19.3346 170.806 19.2617 171.316 19.2617C171.676 19.2617 172.039 19.305 172.403 19.3916C172.772 19.4736 173.11 19.6149 173.415 19.8154C173.72 20.016 173.966 20.2848 174.153 20.6221C174.34 20.9593 174.434 21.3831 174.434 21.8936V27H172.731V25.9473H172.663C172.549 26.1615 172.392 26.362 172.191 26.5488C171.995 26.7311 171.749 26.8792 171.453 26.9932C171.161 27.1025 170.815 27.1572 170.414 27.1572ZM170.872 25.8379C171.241 25.8379 171.558 25.765 171.822 25.6191C172.091 25.4733 172.299 25.2819 172.444 25.0449C172.595 24.8034 172.67 24.5413 172.67 24.2588V23.3564C172.611 23.402 172.51 23.4453 172.369 23.4863C172.232 23.5273 172.077 23.5638 171.904 23.5957C171.736 23.6276 171.567 23.6549 171.398 23.6777C171.234 23.7005 171.095 23.7188 170.981 23.7324C170.717 23.7689 170.478 23.8281 170.264 23.9102C170.049 23.9922 169.881 24.1084 169.758 24.2588C169.639 24.4046 169.58 24.596 169.58 24.833C169.58 25.0518 169.635 25.2363 169.744 25.3867C169.858 25.5326 170.011 25.6442 170.202 25.7217C170.398 25.7992 170.621 25.8379 170.872 25.8379ZM176.32 27V19.3574H178.043V20.6357H178.125C178.262 20.1937 178.501 19.8542 178.843 19.6172C179.185 19.3757 179.574 19.2549 180.012 19.2549C180.112 19.2549 180.224 19.2594 180.347 19.2686C180.47 19.2777 180.575 19.2891 180.661 19.3027V20.9365C180.588 20.9137 180.47 20.8932 180.306 20.875C180.142 20.8568 179.98 20.8477 179.82 20.8477C179.492 20.8477 179.196 20.9183 178.932 21.0596C178.672 21.2008 178.467 21.3968 178.316 21.6475C178.171 21.8936 178.098 22.1784 178.098 22.502V27H176.32ZM182.028 29.7275L182.445 28.3398L182.657 28.3945C182.926 28.4629 183.165 28.4811 183.375 28.4492C183.585 28.4219 183.76 28.3307 183.901 28.1758C184.043 28.0254 184.143 27.8044 184.202 27.5127L184.312 27.0273L181.427 19.3574H183.327L184.722 23.5137C184.886 24.0059 185.02 24.4958 185.125 24.9834C185.23 25.471 185.346 25.9701 185.474 26.4805H185.009C185.132 25.9701 185.255 25.471 185.378 24.9834C185.501 24.4912 185.645 24.0013 185.809 23.5137L187.251 19.3574H189.131L185.85 27.9844C185.695 28.39 185.501 28.7363 185.269 29.0234C185.036 29.3151 184.751 29.5361 184.414 29.6865C184.077 29.8369 183.678 29.9121 183.218 29.9121C182.967 29.9121 182.735 29.8939 182.521 29.8574C182.311 29.821 182.147 29.7777 182.028 29.7275ZM193.403 27.1572C192.66 27.1572 192.016 26.9932 191.469 26.665C190.922 26.3324 190.498 25.8721 190.197 25.2842C189.901 24.6917 189.753 24.0036 189.753 23.2197C189.753 22.4268 189.901 21.734 190.197 21.1416C190.498 20.5446 190.922 20.082 191.469 19.7539C192.016 19.4258 192.66 19.2617 193.403 19.2617C194.151 19.2617 194.798 19.4258 195.345 19.7539C195.892 20.082 196.313 20.5446 196.609 21.1416C196.91 21.734 197.061 22.4268 197.061 23.2197C197.061 24.0036 196.91 24.6917 196.609 25.2842C196.313 25.8721 195.892 26.3324 195.345 26.665C194.798 26.9932 194.151 27.1572 193.403 27.1572ZM193.403 25.7148C193.818 25.7148 194.162 25.6032 194.436 25.3799C194.714 25.1566 194.919 24.8558 195.051 24.4775C195.188 24.0993 195.256 23.6777 195.256 23.2129C195.256 22.7435 195.188 22.3197 195.051 21.9414C194.919 21.5632 194.714 21.2624 194.436 21.0391C194.162 20.8158 193.818 20.7041 193.403 20.7041C192.989 20.7041 192.645 20.8158 192.371 21.0391C192.102 21.2624 191.899 21.5632 191.763 21.9414C191.631 22.3151 191.564 22.7389 191.564 23.2129C191.564 23.6777 191.631 24.0993 191.763 24.4775C191.899 24.8558 192.102 25.1566 192.371 25.3799C192.645 25.6032 192.989 25.7148 193.403 25.7148ZM202.153 19.3574V20.752H197.812V19.3574H202.153ZM198.899 17.5391H200.677V24.8467C200.677 25.1247 200.736 25.3298 200.854 25.4619C200.973 25.5895 201.167 25.6533 201.436 25.6533C201.518 25.6533 201.625 25.6442 201.757 25.626C201.894 25.6032 202.003 25.5827 202.085 25.5645L202.365 26.9385C202.169 26.9977 201.969 27.0387 201.764 27.0615C201.559 27.0889 201.363 27.1025 201.176 27.1025C200.442 27.1025 199.879 26.9202 199.487 26.5557C199.095 26.1911 198.899 25.6715 198.899 24.9971V17.5391ZM203.568 27V19.3574H205.346V27H203.568ZM204.457 18.2773C204.174 18.2773 203.931 18.1816 203.726 17.9902C203.525 17.7988 203.425 17.571 203.425 17.3066C203.425 17.0332 203.525 16.8031 203.726 16.6162C203.931 16.4248 204.174 16.3291 204.457 16.3291C204.744 16.3291 204.988 16.4248 205.188 16.6162C205.394 16.8031 205.496 17.0332 205.496 17.3066C205.496 17.571 205.394 17.7988 205.188 17.9902C204.988 18.1816 204.744 18.2773 204.457 18.2773ZM210.548 27.1572C209.805 27.1572 209.16 26.9932 208.613 26.665C208.066 26.3324 207.643 25.8721 207.342 25.2842C207.046 24.6917 206.897 24.0036 206.897 23.2197C206.897 22.4268 207.046 21.734 207.342 21.1416C207.643 20.5446 208.066 20.082 208.613 19.7539C209.16 19.4258 209.805 19.2617 210.548 19.2617C210.972 19.2617 211.366 19.3164 211.73 19.4258C212.095 19.5352 212.421 19.6947 212.708 19.9043C212.995 20.1094 213.234 20.36 213.426 20.6562C213.622 20.9525 213.761 21.2874 213.843 21.6611L212.182 22.0098C212.132 21.8138 212.059 21.6361 211.963 21.4766C211.872 21.3125 211.758 21.1735 211.621 21.0596C211.484 20.9456 211.327 20.859 211.149 20.7998C210.972 20.736 210.776 20.7041 210.562 20.7041C210.147 20.7041 209.803 20.8158 209.529 21.0391C209.256 21.2578 209.051 21.5563 208.914 21.9346C208.777 22.3083 208.709 22.7344 208.709 23.2129C208.709 23.6823 208.777 24.1061 208.914 24.4844C209.051 24.8626 209.256 25.1634 209.529 25.3867C209.803 25.6055 210.147 25.7148 210.562 25.7148C210.78 25.7148 210.979 25.6829 211.156 25.6191C211.339 25.5553 211.498 25.4642 211.635 25.3457C211.776 25.2272 211.895 25.0837 211.99 24.915C212.086 24.7464 212.157 24.5596 212.202 24.3545L213.863 24.7031C213.781 25.0859 213.642 25.4277 213.446 25.7285C213.255 26.0293 213.013 26.2868 212.722 26.501C212.435 26.7106 212.106 26.8724 211.737 26.9863C211.373 27.1003 210.976 27.1572 210.548 27.1572ZM223.345 27.1367C222.451 27.1367 221.654 26.9294 220.952 26.5146C220.25 26.0999 219.697 25.5029 219.291 24.7236C218.885 23.9443 218.683 23.0078 218.683 21.9141C218.683 20.8158 218.885 19.877 219.291 19.0977C219.701 18.3138 220.257 17.7145 220.959 17.2998C221.665 16.8851 222.461 16.6777 223.345 16.6777C223.901 16.6777 224.42 16.7575 224.903 16.917C225.391 17.0719 225.824 17.3021 226.202 17.6074C226.585 17.9082 226.899 18.2773 227.146 18.7148C227.392 19.1523 227.556 19.6491 227.638 20.2051H225.799C225.74 19.8997 225.637 19.6309 225.491 19.3984C225.35 19.166 225.172 18.9701 224.958 18.8105C224.744 18.6465 224.502 18.5234 224.233 18.4414C223.965 18.3548 223.677 18.3115 223.372 18.3115C222.816 18.3115 222.322 18.4528 221.889 18.7354C221.46 19.0133 221.123 19.4212 220.877 19.959C220.635 20.4922 220.515 21.1439 220.515 21.9141C220.515 22.6934 220.638 23.3496 220.884 23.8828C221.13 24.416 221.467 24.8193 221.896 25.0928C222.328 25.3662 222.818 25.5029 223.365 25.5029C223.671 25.5029 223.958 25.4619 224.227 25.3799C224.495 25.2933 224.737 25.1702 224.951 25.0107C225.17 24.8467 225.352 24.6484 225.498 24.416C225.644 24.179 225.744 23.9102 225.799 23.6094H227.645C227.576 24.097 227.426 24.555 227.193 24.9834C226.965 25.4072 226.665 25.7809 226.291 26.1045C225.917 26.4281 225.482 26.681 224.985 26.8633C224.493 27.0456 223.946 27.1367 223.345 27.1367ZM232.621 27.1572C231.851 27.1572 231.188 26.9954 230.632 26.6719C230.08 26.3483 229.654 25.8926 229.354 25.3047C229.057 24.7168 228.909 24.0241 228.909 23.2266C228.909 22.4382 229.055 21.7477 229.347 21.1553C229.643 20.5628 230.06 20.1003 230.598 19.7676C231.14 19.4303 231.776 19.2617 232.505 19.2617C232.97 19.2617 233.412 19.3369 233.831 19.4873C234.255 19.6377 234.629 19.8701 234.952 20.1846C235.28 20.499 235.535 20.9001 235.718 21.3877C235.905 21.8708 235.998 22.4473 235.998 23.1172V23.6777H229.75V22.4678H235.116L234.282 22.8232C234.282 22.3949 234.216 22.0189 234.084 21.6953C233.952 21.3672 233.754 21.112 233.489 20.9297C233.229 20.7474 232.904 20.6562 232.512 20.6562C232.12 20.6562 231.787 20.7497 231.514 20.9365C231.24 21.1188 231.031 21.3649 230.885 21.6748C230.743 21.9801 230.673 22.3219 230.673 22.7002V23.5342C230.673 24.0173 230.755 24.4251 230.919 24.7578C231.083 25.0905 231.313 25.3411 231.609 25.5098C231.906 25.6784 232.25 25.7627 232.642 25.7627C232.901 25.7627 233.136 25.7262 233.346 25.6533C233.56 25.5758 233.744 25.4642 233.899 25.3184C234.054 25.168 234.171 24.9857 234.248 24.7715L235.882 25.1064C235.759 25.5166 235.549 25.8766 235.253 26.1865C234.957 26.4919 234.585 26.7311 234.139 26.9043C233.697 27.0729 233.191 27.1572 232.621 27.1572ZM239.614 27.0479C238.903 27.0479 238.377 26.8861 238.035 26.5625C237.698 26.2344 237.529 25.7513 237.529 25.1133V16.8145H239.307V24.8193C239.307 25.1019 239.348 25.3047 239.43 25.4277C239.516 25.5462 239.671 25.6055 239.895 25.6055C240.013 25.6055 240.102 25.6032 240.161 25.5986C240.225 25.5895 240.282 25.5758 240.332 25.5576L240.633 26.9043C240.523 26.9362 240.38 26.9681 240.202 27C240.024 27.0319 239.828 27.0479 239.614 27.0479ZM243.784 27.0479C243.073 27.0479 242.547 26.8861 242.205 26.5625C241.868 26.2344 241.699 25.7513 241.699 25.1133V16.8145H243.477V24.8193C243.477 25.1019 243.518 25.3047 243.6 25.4277C243.686 25.5462 243.841 25.6055 244.064 25.6055C244.183 25.6055 244.272 25.6032 244.331 25.5986C244.395 25.5895 244.452 25.5758 244.502 25.5576L244.803 26.9043C244.693 26.9362 244.55 26.9681 244.372 27C244.194 27.0319 243.998 27.0479 243.784 27.0479ZM248.761 27.1572C248.173 27.1572 247.653 27.0729 247.202 26.9043C246.751 26.7357 246.38 26.4896 246.088 26.166C245.801 25.8424 245.614 25.4505 245.527 24.9902L247.188 24.6758C247.293 25.054 247.478 25.3366 247.742 25.5234C248.011 25.7057 248.362 25.7969 248.795 25.7969C249.232 25.7969 249.579 25.7103 249.834 25.5371C250.094 25.3594 250.224 25.1406 250.224 24.8809C250.224 24.6621 250.139 24.4821 249.971 24.3408C249.802 24.195 249.542 24.0833 249.191 24.0059L247.886 23.7256C247.166 23.5706 246.628 23.3154 246.272 22.96C245.917 22.6045 245.739 22.1465 245.739 21.5859C245.739 21.112 245.869 20.7018 246.129 20.3555C246.389 20.0091 246.749 19.7402 247.209 19.5488C247.674 19.3574 248.212 19.2617 248.822 19.2617C249.401 19.2617 249.898 19.3438 250.312 19.5078C250.732 19.6719 251.069 19.902 251.324 20.1982C251.584 20.4899 251.764 20.834 251.864 21.2305L250.278 21.5449C250.192 21.276 250.035 21.0505 249.807 20.8682C249.579 20.6813 249.257 20.5879 248.843 20.5879C248.465 20.5879 248.148 20.6722 247.893 20.8408C247.642 21.0049 247.517 21.2168 247.517 21.4766C247.517 21.6999 247.601 21.8844 247.77 22.0303C247.938 22.1761 248.216 22.29 248.604 22.3721L249.902 22.6455C250.627 22.8005 251.165 23.0488 251.516 23.3906C251.867 23.7324 252.042 24.1722 252.042 24.71C252.042 25.193 251.903 25.6191 251.625 25.9883C251.347 26.3529 250.96 26.64 250.463 26.8496C249.971 27.0547 249.403 27.1572 248.761 27.1572Z" fill="white"/>
<path d="M321.5 22L311.5 22M321.5 17L311.5 17M321.5 27L311.5 27M308.167 22C308.167 22.4602 307.794 22.8333 307.333 22.8333C306.873 22.8333 306.5 22.4602 306.5 22C306.5 21.5397 306.873 21.1666 307.333 21.1666C307.794 21.1666 308.167 21.5397 308.167 22ZM308.167 17C308.167 17.4602 307.794 17.8333 307.333 17.8333C306.873 17.8333 306.5 17.4602 306.5 17C306.5 16.5397 306.873 16.1666 307.333 16.1666C307.794 16.1666 308.167 16.5397 308.167 17ZM308.167 27C308.167 27.4602 307.794 27.8333 307.333 27.8333C306.873 27.8333 306.5 27.4602 306.5 27C306.5 26.5397 306.873 26.1666 307.333 26.1666C307.794 26.1666 308.167 26.5397 308.167 27Z" stroke="white" stroke-width="1.67" stroke-linecap="round" stroke-linejoin="round"/>
<rect x="110.5" y="80" width="110" height="110" rx="55" stroke="white" stroke-opacity="0.1" stroke-width="8"/>
<g filter="url(#filter0_i_394_900)">
<rect x="121.5" y="91" width="88" height="88" rx="44" fill="#8E51FF"/>
<path d="M180.985 153C182.228 153 183.235 154.008 183.235 155.25C183.235 156.492 182.228 157.5 180.985 157.5H180.963C179.721 157.5 178.713 156.493 178.713 155.25C178.713 154.007 179.721 153 180.963 153H180.985ZM180.179 146.366C180.181 146.366 180.19 146.364 180.201 146.36C180.223 146.352 180.261 146.338 180.313 146.318C180.418 146.278 180.579 146.214 180.774 146.127C181.171 145.951 181.683 145.693 182.178 145.362C183.306 144.61 183.705 143.934 183.706 143.442V143.437C183.706 142.774 183.473 142.132 183.046 141.625C182.619 141.117 182.026 140.777 181.372 140.665C180.718 140.552 180.045 140.676 179.474 141.012C178.902 141.348 178.468 141.876 178.248 142.501C177.835 143.674 176.55 144.289 175.378 143.877C174.206 143.464 173.59 142.179 174.002 141.007C174.575 139.38 175.706 138.008 177.193 137.134C178.681 136.259 180.431 135.939 182.132 136.23C183.834 136.522 185.378 137.406 186.49 138.727C187.6 140.046 188.207 141.717 188.206 143.442L188.181 143.969C187.942 146.549 185.988 148.231 184.675 149.106C183.906 149.619 183.152 149.995 182.6 150.24C182.322 150.364 182.086 150.459 181.915 150.524C181.83 150.556 181.76 150.582 181.708 150.601C181.683 150.61 181.661 150.617 181.645 150.623C181.636 150.625 181.628 150.627 181.623 150.629C181.62 150.63 181.616 150.633 181.614 150.634H181.609C180.431 151.026 179.155 150.391 178.762 149.212C178.393 148.107 178.931 146.918 179.97 146.45L180.179 146.366ZM161.5 139.5C162.743 139.5 163.75 140.507 163.75 141.75C163.75 142.993 162.743 144 161.5 144H157C155.757 144 154.75 142.993 154.75 141.75C154.75 140.507 155.757 139.5 157 139.5H161.5ZM170.5 130.5C171.743 130.5 172.75 131.507 172.75 132.75C172.75 133.993 171.743 135 170.5 135H157C155.757 135 154.75 133.993 154.75 132.75C154.75 131.507 155.757 130.5 157 130.5H170.5ZM181.75 129.375V123.3C181.75 121.373 181.749 120.063 181.667 119.05C181.586 118.064 181.439 117.558 181.26 117.207C180.829 116.36 180.14 115.671 179.293 115.24C178.942 115.061 178.436 114.914 177.45 114.833C176.437 114.751 175.127 114.75 173.2 114.75H158.8C156.873 114.75 155.563 114.751 154.55 114.833C153.564 114.914 153.058 115.061 152.707 115.24C151.86 115.671 151.171 116.36 150.74 117.207C150.561 117.558 150.414 118.064 150.333 119.05C150.251 120.063 150.25 121.373 150.25 123.3V146.7C150.25 148.627 150.251 149.937 150.333 150.95C150.414 151.936 150.561 152.442 150.74 152.793C151.171 153.64 151.86 154.329 152.707 154.76C153.058 154.939 153.564 155.086 154.55 155.166C155.563 155.249 156.873 155.25 158.8 155.25H170.5C171.743 155.25 172.75 156.257 172.75 157.5C172.75 158.743 171.743 159.75 170.5 159.75H158.8C156.947 159.75 155.421 159.752 154.183 159.651C152.918 159.548 151.755 159.326 150.663 158.77C148.97 157.907 147.593 156.53 146.73 154.837C146.174 153.745 145.952 152.582 145.849 151.317C145.748 150.079 145.75 148.553 145.75 146.7V123.3C145.75 121.447 145.748 119.921 145.849 118.683C145.952 117.418 146.174 116.255 146.73 115.163C147.593 113.47 148.97 112.093 150.663 111.23C151.755 110.674 152.918 110.452 154.183 110.349C155.421 110.248 156.947 110.25 158.8 110.25H173.2C175.053 110.25 176.579 110.248 177.817 110.349C179.082 110.452 180.245 110.674 181.337 111.23C183.03 112.093 184.407 113.47 185.27 115.163C185.826 116.255 186.048 117.418 186.151 118.683C186.252 119.921 186.25 121.447 186.25 123.3V129.375C186.25 130.618 185.243 131.625 184 131.625C182.757 131.625 181.75 130.618 181.75 129.375ZM175 121.5C176.243 121.5 177.25 122.507 177.25 123.75C177.25 124.993 176.243 126 175 126H157C155.757 126 154.75 124.993 154.75 123.75C154.75 122.507 155.757 121.5 157 121.5H175Z" fill="white"/>
</g>
<path d="M165.84 80.035C165.871 77.7189 167.853 75.9162 170.155 76.1753C172.669 76.4584 175.845 76.879 178.376 77.4199C181.429 78.0725 185.494 79.5221 188.134 80.5261C189.738 81.1363 190.708 82.7522 190.541 84.4606C190.278 87.1528 187.408 88.7867 184.896 87.7831C182.71 86.9095 180.166 85.9974 178 85.5C175.401 84.9031 172.03 84.4403 169.489 84.1417C167.406 83.8969 165.813 82.1321 165.84 80.035Z" fill="#8E51FF"/>
<path d="M137.862 219.137C136.969 219.137 136.169 218.929 135.463 218.515C134.757 218.1 134.198 217.503 133.788 216.724C133.382 215.944 133.18 215.008 133.18 213.914C133.18 212.816 133.382 211.877 133.788 211.098C134.198 210.314 134.757 209.715 135.463 209.3C136.169 208.885 136.969 208.678 137.862 208.678C138.751 208.678 139.546 208.885 140.248 209.3C140.954 209.715 141.51 210.314 141.916 211.098C142.326 211.877 142.531 212.816 142.531 213.914C142.531 215.008 142.326 215.947 141.916 216.73C141.51 217.51 140.954 218.107 140.248 218.521C139.546 218.932 138.751 219.137 137.862 219.137ZM137.862 217.503C138.414 217.503 138.901 217.366 139.325 217.093C139.754 216.815 140.089 216.409 140.33 215.876C140.572 215.338 140.692 214.684 140.692 213.914C140.692 213.135 140.572 212.479 140.33 211.945C140.089 211.408 139.754 211.002 139.325 210.729C138.901 210.451 138.414 210.312 137.862 210.312C137.306 210.312 136.814 210.451 136.386 210.729C135.957 211.007 135.62 211.414 135.374 211.952C135.132 212.485 135.012 213.139 135.012 213.914C135.012 214.684 135.132 215.336 135.374 215.869C135.62 216.402 135.957 216.808 136.386 217.086C136.814 217.364 137.306 217.503 137.862 217.503ZM144.179 219V211.357H145.901V212.636H145.983C146.12 212.194 146.359 211.854 146.701 211.617C147.043 211.376 147.433 211.255 147.87 211.255C147.97 211.255 148.082 211.259 148.205 211.269C148.328 211.278 148.433 211.289 148.52 211.303V212.937C148.447 212.914 148.328 212.893 148.164 212.875C148 212.857 147.838 212.848 147.679 212.848C147.351 212.848 147.054 212.918 146.79 213.06C146.53 213.201 146.325 213.397 146.175 213.647C146.029 213.894 145.956 214.178 145.956 214.502V219H144.179ZM152.737 222.021C152.127 222.021 151.593 221.944 151.138 221.789C150.687 221.634 150.315 221.422 150.023 221.153C149.736 220.889 149.529 220.588 149.401 220.251L150.905 219.711C150.987 219.852 151.099 219.998 151.24 220.148C151.386 220.299 151.577 220.422 151.814 220.518C152.056 220.618 152.361 220.668 152.73 220.668C153.282 220.668 153.724 220.538 154.057 220.278C154.389 220.023 154.556 219.622 154.556 219.075V217.633H154.405C154.319 217.815 154.191 218.004 154.022 218.2C153.854 218.392 153.626 218.553 153.339 218.686C153.056 218.818 152.694 218.884 152.252 218.884C151.669 218.884 151.138 218.747 150.659 218.474C150.185 218.196 149.807 217.781 149.524 217.229C149.246 216.678 149.107 215.988 149.107 215.158C149.107 214.32 149.249 213.611 149.531 213.032C149.814 212.453 150.192 212.014 150.666 211.713C151.145 211.412 151.678 211.262 152.266 211.262C152.717 211.262 153.088 211.337 153.38 211.487C153.672 211.638 153.904 211.82 154.077 212.034C154.25 212.244 154.382 212.44 154.474 212.622H154.569V211.357H156.312V219.021C156.312 219.7 156.158 220.26 155.848 220.702C155.538 221.149 155.114 221.479 154.576 221.693C154.038 221.912 153.425 222.021 152.737 222.021ZM152.751 217.482C153.138 217.482 153.466 217.391 153.735 217.209C154.004 217.022 154.209 216.753 154.351 216.402C154.492 216.051 154.562 215.632 154.562 215.145C154.562 214.661 154.492 214.24 154.351 213.88C154.214 213.515 154.011 213.233 153.742 213.032C153.473 212.827 153.143 212.725 152.751 212.725C152.35 212.725 152.013 212.832 151.739 213.046C151.47 213.256 151.268 213.543 151.131 213.907C150.994 214.267 150.926 214.68 150.926 215.145C150.926 215.614 150.994 216.024 151.131 216.375C151.272 216.726 151.477 216.999 151.746 217.195C152.02 217.387 152.354 217.482 152.751 217.482ZM160.339 219.157C159.856 219.157 159.421 219.071 159.033 218.897C158.646 218.72 158.34 218.46 158.117 218.118C157.894 217.776 157.782 217.355 157.782 216.854C157.782 216.421 157.862 216.063 158.021 215.78C158.186 215.498 158.404 215.272 158.678 215.104C158.956 214.935 159.268 214.807 159.614 214.721C159.961 214.634 160.321 214.573 160.694 214.536C161.136 214.486 161.496 214.443 161.774 214.406C162.052 214.37 162.255 214.311 162.383 214.229C162.515 214.146 162.581 214.019 162.581 213.846V213.812C162.581 213.561 162.531 213.349 162.431 213.176C162.33 212.998 162.18 212.864 161.979 212.772C161.784 212.677 161.54 212.629 161.248 212.629C160.952 212.629 160.694 212.674 160.476 212.766C160.261 212.857 160.086 212.975 159.949 213.121C159.812 213.267 159.712 213.424 159.648 213.593L158.001 213.258C158.151 212.807 158.384 212.435 158.698 212.144C159.013 211.847 159.386 211.626 159.819 211.48C160.257 211.335 160.731 211.262 161.241 211.262C161.601 211.262 161.964 211.305 162.328 211.392C162.697 211.474 163.035 211.615 163.34 211.815C163.645 212.016 163.891 212.285 164.078 212.622C164.265 212.959 164.358 213.383 164.358 213.894V219H162.656V217.947H162.588C162.474 218.161 162.317 218.362 162.116 218.549C161.92 218.731 161.674 218.879 161.378 218.993C161.086 219.103 160.74 219.157 160.339 219.157ZM160.797 217.838C161.166 217.838 161.483 217.765 161.747 217.619C162.016 217.473 162.223 217.282 162.369 217.045C162.52 216.803 162.595 216.541 162.595 216.259V215.356C162.535 215.402 162.435 215.445 162.294 215.486C162.157 215.527 162.002 215.564 161.829 215.596C161.66 215.628 161.492 215.655 161.323 215.678C161.159 215.701 161.02 215.719 160.906 215.732C160.642 215.769 160.403 215.828 160.188 215.91C159.974 215.992 159.806 216.108 159.683 216.259C159.564 216.405 159.505 216.596 159.505 216.833C159.505 217.052 159.56 217.236 159.669 217.387C159.783 217.533 159.936 217.644 160.127 217.722C160.323 217.799 160.546 217.838 160.797 217.838ZM168.022 214.522V219H166.245V211.357H167.927L167.954 213.244H167.811C168.025 212.583 168.339 212.089 168.754 211.761C169.169 211.428 169.688 211.262 170.312 211.262C170.837 211.262 171.295 211.373 171.687 211.597C172.078 211.82 172.382 212.146 172.596 212.574C172.814 213.003 172.924 213.524 172.924 214.14V219H171.146V214.413C171.146 213.903 171.014 213.502 170.75 213.21C170.486 212.918 170.121 212.772 169.656 212.772C169.342 212.772 169.062 212.841 168.815 212.978C168.569 213.114 168.376 213.315 168.234 213.579C168.093 213.839 168.022 214.153 168.022 214.522ZM178.194 219.157C177.424 219.157 176.761 218.995 176.205 218.672C175.654 218.348 175.228 217.893 174.927 217.305C174.631 216.717 174.482 216.024 174.482 215.227C174.482 214.438 174.628 213.748 174.92 213.155C175.216 212.563 175.633 212.1 176.171 211.768C176.713 211.43 177.349 211.262 178.078 211.262C178.543 211.262 178.985 211.337 179.404 211.487C179.828 211.638 180.202 211.87 180.525 212.185C180.854 212.499 181.109 212.9 181.291 213.388C181.478 213.871 181.571 214.447 181.571 215.117V215.678H175.323V214.468H180.689L179.855 214.823C179.855 214.395 179.789 214.019 179.657 213.695C179.525 213.367 179.327 213.112 179.062 212.93C178.803 212.747 178.477 212.656 178.085 212.656C177.693 212.656 177.36 212.75 177.087 212.937C176.813 213.119 176.604 213.365 176.458 213.675C176.317 213.98 176.246 214.322 176.246 214.7V215.534C176.246 216.017 176.328 216.425 176.492 216.758C176.656 217.09 176.886 217.341 177.183 217.51C177.479 217.678 177.823 217.763 178.215 217.763C178.475 217.763 178.709 217.726 178.919 217.653C179.133 217.576 179.318 217.464 179.473 217.318C179.628 217.168 179.744 216.986 179.821 216.771L181.455 217.106C181.332 217.517 181.122 217.877 180.826 218.187C180.53 218.492 180.159 218.731 179.712 218.904C179.27 219.073 178.764 219.157 178.194 219.157ZM185.188 219.048C184.477 219.048 183.95 218.886 183.608 218.562C183.271 218.234 183.103 217.751 183.103 217.113V208.814H184.88V216.819C184.88 217.102 184.921 217.305 185.003 217.428C185.09 217.546 185.244 217.605 185.468 217.605C185.586 217.605 185.675 217.603 185.734 217.599C185.798 217.59 185.855 217.576 185.905 217.558L186.206 218.904C186.097 218.936 185.953 218.968 185.775 219C185.598 219.032 185.402 219.048 185.188 219.048ZM189.357 219.048C188.646 219.048 188.12 218.886 187.778 218.562C187.441 218.234 187.272 217.751 187.272 217.113V208.814H189.05V216.819C189.05 217.102 189.091 217.305 189.173 217.428C189.259 217.546 189.414 217.605 189.638 217.605C189.756 217.605 189.845 217.603 189.904 217.599C189.968 217.59 190.025 217.576 190.075 217.558L190.376 218.904C190.267 218.936 190.123 218.968 189.945 219C189.768 219.032 189.572 219.048 189.357 219.048ZM194.56 219.157C193.789 219.157 193.126 218.995 192.57 218.672C192.019 218.348 191.593 217.893 191.292 217.305C190.996 216.717 190.848 216.024 190.848 215.227C190.848 214.438 190.993 213.748 191.285 213.155C191.581 212.563 191.998 212.1 192.536 211.768C193.078 211.43 193.714 211.262 194.443 211.262C194.908 211.262 195.35 211.337 195.77 211.487C196.193 211.638 196.567 211.87 196.891 212.185C197.219 212.499 197.474 212.9 197.656 213.388C197.843 213.871 197.937 214.447 197.937 215.117V215.678H191.688V214.468H197.055L196.221 214.823C196.221 214.395 196.155 214.019 196.022 213.695C195.89 213.367 195.692 213.112 195.428 212.93C195.168 212.747 194.842 212.656 194.45 212.656C194.058 212.656 193.726 212.75 193.452 212.937C193.179 213.119 192.969 213.365 192.823 213.675C192.682 213.98 192.611 214.322 192.611 214.7V215.534C192.611 216.017 192.693 216.425 192.857 216.758C193.021 217.09 193.252 217.341 193.548 217.51C193.844 217.678 194.188 217.763 194.58 217.763C194.84 217.763 195.075 217.726 195.284 217.653C195.498 217.576 195.683 217.464 195.838 217.318C195.993 217.168 196.109 216.986 196.187 216.771L197.82 217.106C197.697 217.517 197.488 217.877 197.191 218.187C196.895 218.492 196.524 218.731 196.077 218.904C195.635 219.073 195.129 219.157 194.56 219.157ZM123.685 224.814V235H121.859V224.814H123.685ZM128.477 235.137C127.875 235.137 127.335 234.984 126.856 234.679C126.382 234.369 126.009 233.92 125.735 233.332C125.462 232.744 125.325 232.031 125.325 231.192C125.325 230.345 125.464 229.629 125.742 229.046C126.025 228.458 126.403 228.014 126.877 227.713C127.355 227.412 127.886 227.262 128.47 227.262C128.925 227.262 129.297 227.339 129.584 227.494C129.876 227.645 130.106 227.825 130.274 228.034C130.448 228.244 130.577 228.44 130.664 228.622H130.739V224.814H132.517V235H130.773V233.79H130.664C130.573 233.972 130.438 234.168 130.261 234.378C130.088 234.588 129.857 234.768 129.57 234.918C129.283 235.064 128.919 235.137 128.477 235.137ZM128.962 233.674C129.349 233.674 129.677 233.571 129.946 233.366C130.215 233.157 130.42 232.865 130.562 232.491C130.703 232.118 130.773 231.682 130.773 231.186C130.773 230.689 130.703 230.258 130.562 229.894C130.425 229.524 130.22 229.237 129.946 229.032C129.677 228.827 129.349 228.725 128.962 228.725C128.561 228.725 128.226 228.832 127.957 229.046C127.688 229.256 127.485 229.547 127.349 229.921C127.212 230.29 127.144 230.712 127.144 231.186C127.144 231.66 127.212 232.086 127.349 232.464C127.485 232.838 127.688 233.134 127.957 233.353C128.23 233.567 128.565 233.674 128.962 233.674ZM137.773 235.157C137.003 235.157 136.34 234.995 135.784 234.672C135.233 234.348 134.807 233.893 134.506 233.305C134.21 232.717 134.062 232.024 134.062 231.227C134.062 230.438 134.207 229.748 134.499 229.155C134.795 228.563 135.212 228.1 135.75 227.768C136.292 227.43 136.928 227.262 137.657 227.262C138.122 227.262 138.564 227.337 138.983 227.487C139.407 227.638 139.781 227.87 140.104 228.185C140.433 228.499 140.688 228.9 140.87 229.388C141.057 229.871 141.15 230.447 141.15 231.117V231.678H134.902V230.468H140.269L139.435 230.823C139.435 230.395 139.368 230.019 139.236 229.695C139.104 229.367 138.906 229.112 138.642 228.93C138.382 228.747 138.056 228.656 137.664 228.656C137.272 228.656 136.939 228.75 136.666 228.937C136.393 229.119 136.183 229.365 136.037 229.675C135.896 229.98 135.825 230.322 135.825 230.7V231.534C135.825 232.017 135.907 232.425 136.071 232.758C136.235 233.09 136.465 233.341 136.762 233.51C137.058 233.678 137.402 233.763 137.794 233.763C138.054 233.763 138.288 233.726 138.498 233.653C138.712 233.576 138.897 233.464 139.052 233.318C139.207 233.168 139.323 232.986 139.4 232.771L141.034 233.106C140.911 233.517 140.701 233.877 140.405 234.187C140.109 234.492 139.738 234.731 139.291 234.904C138.849 235.073 138.343 235.157 137.773 235.157ZM144.459 230.522V235H142.682V227.357H144.363L144.391 229.244H144.247C144.461 228.583 144.776 228.089 145.19 227.761C145.605 227.428 146.125 227.262 146.749 227.262C147.273 227.262 147.731 227.373 148.123 227.597C148.515 227.82 148.818 228.146 149.032 228.574C149.251 229.003 149.36 229.524 149.36 230.14V235H147.583V230.413C147.583 229.903 147.451 229.502 147.187 229.21C146.922 228.918 146.558 228.772 146.093 228.772C145.778 228.772 145.498 228.841 145.252 228.978C145.006 229.114 144.812 229.315 144.671 229.579C144.53 229.839 144.459 230.153 144.459 230.522ZM154.788 227.357V228.752H150.447V227.357H154.788ZM151.534 225.539H153.312V232.847C153.312 233.125 153.371 233.33 153.489 233.462C153.608 233.59 153.801 233.653 154.07 233.653C154.152 233.653 154.259 233.644 154.392 233.626C154.528 233.603 154.638 233.583 154.72 233.564L155 234.938C154.804 234.998 154.604 235.039 154.398 235.062C154.193 235.089 153.997 235.103 153.811 235.103C153.077 235.103 152.514 234.92 152.122 234.556C151.73 234.191 151.534 233.672 151.534 232.997V225.539ZM156.203 235V227.357H157.98V235H156.203ZM157.092 226.277C156.809 226.277 156.565 226.182 156.36 225.99C156.16 225.799 156.06 225.571 156.06 225.307C156.06 225.033 156.16 224.803 156.36 224.616C156.565 224.425 156.809 224.329 157.092 224.329C157.379 224.329 157.623 224.425 157.823 224.616C158.028 224.803 158.131 225.033 158.131 225.307C158.131 225.571 158.028 225.799 157.823 225.99C157.623 226.182 157.379 226.277 157.092 226.277ZM163.887 227.357V228.752H159.061V227.357H163.887ZM160.462 235V226.626C160.462 226.116 160.567 225.692 160.776 225.354C160.991 225.017 161.278 224.764 161.638 224.596C162.002 224.423 162.401 224.336 162.834 224.336C163.148 224.336 163.426 224.361 163.668 224.411C163.91 224.461 164.087 224.507 164.201 224.548L163.839 225.929C163.761 225.906 163.666 225.883 163.552 225.86C163.442 225.833 163.312 225.819 163.162 225.819C162.829 225.819 162.59 225.901 162.444 226.065C162.303 226.229 162.232 226.462 162.232 226.763V235H160.462ZM165.391 235V227.357H167.168V235H165.391ZM166.279 226.277C165.997 226.277 165.753 226.182 165.548 225.99C165.347 225.799 165.247 225.571 165.247 225.307C165.247 225.033 165.347 224.803 165.548 224.616C165.753 224.425 165.997 224.329 166.279 224.329C166.566 224.329 166.81 224.425 167.011 224.616C167.216 224.803 167.318 225.033 167.318 225.307C167.318 225.571 167.216 225.799 167.011 225.99C166.81 226.182 166.566 226.277 166.279 226.277ZM172.37 235.157C171.627 235.157 170.982 234.993 170.436 234.665C169.889 234.332 169.465 233.872 169.164 233.284C168.868 232.692 168.72 232.004 168.72 231.22C168.72 230.427 168.868 229.734 169.164 229.142C169.465 228.545 169.889 228.082 170.436 227.754C170.982 227.426 171.627 227.262 172.37 227.262C172.794 227.262 173.188 227.316 173.553 227.426C173.917 227.535 174.243 227.695 174.53 227.904C174.817 228.109 175.057 228.36 175.248 228.656C175.444 228.952 175.583 229.287 175.665 229.661L174.004 230.01C173.954 229.814 173.881 229.636 173.785 229.477C173.694 229.312 173.58 229.174 173.443 229.06C173.307 228.946 173.149 228.859 172.972 228.8C172.794 228.736 172.598 228.704 172.384 228.704C171.969 228.704 171.625 228.816 171.352 229.039C171.078 229.258 170.873 229.556 170.736 229.935C170.6 230.308 170.531 230.734 170.531 231.213C170.531 231.682 170.6 232.106 170.736 232.484C170.873 232.863 171.078 233.163 171.352 233.387C171.625 233.605 171.969 233.715 172.384 233.715C172.603 233.715 172.801 233.683 172.979 233.619C173.161 233.555 173.32 233.464 173.457 233.346C173.598 233.227 173.717 233.084 173.812 232.915C173.908 232.746 173.979 232.56 174.024 232.354L175.686 232.703C175.604 233.086 175.465 233.428 175.269 233.729C175.077 234.029 174.836 234.287 174.544 234.501C174.257 234.711 173.929 234.872 173.56 234.986C173.195 235.1 172.799 235.157 172.37 235.157ZM179.486 235.157C179.003 235.157 178.568 235.071 178.181 234.897C177.793 234.72 177.488 234.46 177.265 234.118C177.041 233.776 176.93 233.355 176.93 232.854C176.93 232.421 177.009 232.063 177.169 231.78C177.333 231.498 177.552 231.272 177.825 231.104C178.103 230.935 178.415 230.807 178.762 230.721C179.108 230.634 179.468 230.573 179.842 230.536C180.284 230.486 180.644 230.443 180.922 230.406C181.2 230.37 181.403 230.311 181.53 230.229C181.662 230.146 181.729 230.019 181.729 229.846V229.812C181.729 229.561 181.678 229.349 181.578 229.176C181.478 228.998 181.327 228.864 181.127 228.772C180.931 228.677 180.687 228.629 180.396 228.629C180.099 228.629 179.842 228.674 179.623 228.766C179.409 228.857 179.233 228.975 179.097 229.121C178.96 229.267 178.86 229.424 178.796 229.593L177.148 229.258C177.299 228.807 177.531 228.435 177.846 228.144C178.16 227.847 178.534 227.626 178.967 227.48C179.404 227.335 179.878 227.262 180.389 227.262C180.749 227.262 181.111 227.305 181.476 227.392C181.845 227.474 182.182 227.615 182.487 227.815C182.793 228.016 183.039 228.285 183.226 228.622C183.412 228.959 183.506 229.383 183.506 229.894V235H181.804V233.947H181.735C181.621 234.161 181.464 234.362 181.264 234.549C181.068 234.731 180.822 234.879 180.525 234.993C180.234 235.103 179.887 235.157 179.486 235.157ZM179.944 233.838C180.313 233.838 180.63 233.765 180.895 233.619C181.163 233.473 181.371 233.282 181.517 233.045C181.667 232.803 181.742 232.541 181.742 232.259V231.356C181.683 231.402 181.583 231.445 181.441 231.486C181.305 231.527 181.15 231.564 180.977 231.596C180.808 231.628 180.639 231.655 180.471 231.678C180.307 231.701 180.168 231.719 180.054 231.732C179.789 231.769 179.55 231.828 179.336 231.91C179.122 231.992 178.953 232.108 178.83 232.259C178.712 232.405 178.652 232.596 178.652 232.833C178.652 233.052 178.707 233.236 178.816 233.387C178.93 233.533 179.083 233.644 179.274 233.722C179.47 233.799 179.694 233.838 179.944 233.838ZM188.927 227.357V228.752H184.586V227.357H188.927ZM185.673 225.539H187.45V232.847C187.45 233.125 187.509 233.33 187.628 233.462C187.746 233.59 187.94 233.653 188.209 233.653C188.291 233.653 188.398 233.644 188.53 233.626C188.667 233.603 188.776 233.583 188.858 233.564L189.139 234.938C188.943 234.998 188.742 235.039 188.537 235.062C188.332 235.089 188.136 235.103 187.949 235.103C187.215 235.103 186.653 234.92 186.261 234.556C185.869 234.191 185.673 233.672 185.673 232.997V225.539ZM190.342 235V227.357H192.119V235H190.342ZM191.23 226.277C190.948 226.277 190.704 226.182 190.499 225.99C190.299 225.799 190.198 225.571 190.198 225.307C190.198 225.033 190.299 224.803 190.499 224.616C190.704 224.425 190.948 224.329 191.23 224.329C191.518 224.329 191.761 224.425 191.962 224.616C192.167 224.803 192.27 225.033 192.27 225.307C192.27 225.571 192.167 225.799 191.962 225.99C191.761 226.182 191.518 226.277 191.23 226.277ZM197.321 235.157C196.578 235.157 195.934 234.993 195.387 234.665C194.84 234.332 194.416 233.872 194.115 233.284C193.819 232.692 193.671 232.004 193.671 231.22C193.671 230.427 193.819 229.734 194.115 229.142C194.416 228.545 194.84 228.082 195.387 227.754C195.934 227.426 196.578 227.262 197.321 227.262C198.069 227.262 198.716 227.426 199.263 227.754C199.81 228.082 200.231 228.545 200.527 229.142C200.828 229.734 200.979 230.427 200.979 231.22C200.979 232.004 200.828 232.692 200.527 233.284C200.231 233.872 199.81 234.332 199.263 234.665C198.716 234.993 198.069 235.157 197.321 235.157ZM197.321 233.715C197.736 233.715 198.08 233.603 198.354 233.38C198.632 233.157 198.837 232.856 198.969 232.478C199.105 232.099 199.174 231.678 199.174 231.213C199.174 230.743 199.105 230.32 198.969 229.941C198.837 229.563 198.632 229.262 198.354 229.039C198.08 228.816 197.736 228.704 197.321 228.704C196.907 228.704 196.562 228.816 196.289 229.039C196.02 229.262 195.817 229.563 195.681 229.941C195.549 230.315 195.482 230.739 195.482 231.213C195.482 231.678 195.549 232.099 195.681 232.478C195.817 232.856 196.02 233.157 196.289 233.38C196.562 233.603 196.907 233.715 197.321 233.715ZM204.314 230.522V235H202.537V227.357H204.219L204.246 229.244H204.103C204.317 228.583 204.631 228.089 205.046 227.761C205.461 227.428 205.98 227.262 206.604 227.262C207.129 227.262 207.587 227.373 207.979 227.597C208.37 227.82 208.674 228.146 208.888 228.574C209.106 229.003 209.216 229.524 209.216 230.14V235H207.438V230.413C207.438 229.903 207.306 229.502 207.042 229.21C206.778 228.918 206.413 228.772 205.948 228.772C205.634 228.772 205.354 228.841 205.107 228.978C204.861 229.114 204.668 229.315 204.526 229.579C204.385 229.839 204.314 230.153 204.314 230.522Z" fill="white"/>
<rect x="169.5" y="266" width="110" height="110" rx="55" stroke="white" stroke-opacity="0.1" stroke-width="8"/>
<rect x="180.5" y="277" width="88" height="88" rx="44" fill="white" fill-opacity="0.1"/>
<path d="M239.985 339C241.228 339 242.235 340.008 242.235 341.25C242.235 342.492 241.228 343.5 239.985 343.5H239.963C238.721 343.5 237.713 342.493 237.713 341.25C237.713 340.007 238.721 339 239.963 339H239.985ZM239.179 332.366C239.181 332.366 239.19 332.364 239.201 332.36C239.223 332.352 239.261 332.338 239.313 332.318C239.418 332.278 239.579 332.214 239.774 332.127C240.171 331.951 240.683 331.693 241.178 331.362C242.306 330.61 242.705 329.934 242.706 329.442V329.437C242.706 328.774 242.473 328.132 242.046 327.625C241.619 327.117 241.026 326.777 240.372 326.665C239.718 326.552 239.045 326.676 238.474 327.012C237.902 327.348 237.468 327.876 237.248 328.501C236.835 329.674 235.55 330.289 234.378 329.877C233.206 329.464 232.59 328.179 233.002 327.007C233.575 325.38 234.706 324.008 236.193 323.134C237.681 322.259 239.431 321.939 241.132 322.23C242.834 322.522 244.378 323.406 245.49 324.727C246.6 326.046 247.207 327.717 247.206 329.442L247.181 329.969C246.942 332.549 244.988 334.231 243.675 335.106C242.906 335.619 242.152 335.995 241.6 336.24C241.322 336.364 241.086 336.459 240.915 336.524C240.83 336.556 240.76 336.582 240.708 336.601C240.683 336.61 240.661 336.617 240.645 336.623C240.636 336.625 240.628 336.627 240.623 336.629C240.62 336.63 240.616 336.633 240.614 336.634H240.609C239.431 337.026 238.155 336.391 237.762 335.212C237.393 334.107 237.931 332.918 238.97 332.45L239.179 332.366ZM220.5 325.5C221.743 325.5 222.75 326.507 222.75 327.75C222.75 328.993 221.743 330 220.5 330H216C214.757 330 213.75 328.993 213.75 327.75C213.75 326.507 214.757 325.5 216 325.5H220.5ZM229.5 316.5C230.743 316.5 231.75 317.507 231.75 318.75C231.75 319.993 230.743 321 229.5 321H216C214.757 321 213.75 319.993 213.75 318.75C213.75 317.507 214.757 316.5 216 316.5H229.5ZM240.75 315.375V309.3C240.75 307.373 240.749 306.063 240.667 305.05C240.586 304.064 240.439 303.558 240.26 303.207C239.829 302.36 239.14 301.671 238.293 301.24C237.942 301.061 237.436 300.914 236.45 300.833C235.437 300.751 234.127 300.75 232.2 300.75H217.8C215.873 300.75 214.563 300.751 213.55 300.833C212.564 300.914 212.058 301.061 211.707 301.24C210.86 301.671 210.171 302.36 209.74 303.207C209.561 303.558 209.414 304.064 209.333 305.05C209.251 306.063 209.25 307.373 209.25 309.3V332.7C209.25 334.627 209.251 335.937 209.333 336.95C209.414 337.936 209.561 338.442 209.74 338.793C210.171 339.64 210.86 340.329 211.707 340.76C212.058 340.939 212.564 341.086 213.55 341.166C214.563 341.249 215.873 341.25 217.8 341.25H229.5C230.743 341.25 231.75 342.257 231.75 343.5C231.75 344.743 230.743 345.75 229.5 345.75H217.8C215.947 345.75 214.421 345.752 213.183 345.651C211.918 345.548 210.755 345.326 209.663 344.77C207.97 343.907 206.593 342.53 205.73 340.837C205.174 339.745 204.952 338.582 204.849 337.317C204.748 336.079 204.75 334.553 204.75 332.7V309.3C204.75 307.447 204.748 305.921 204.849 304.683C204.952 303.418 205.174 302.255 205.73 301.163C206.593 299.47 207.97 298.093 209.663 297.23C210.755 296.674 211.918 296.452 213.183 296.349C214.421 296.248 215.947 296.25 217.8 296.25H232.2C234.053 296.25 235.579 296.248 236.817 296.349C238.082 296.452 239.245 296.674 240.337 297.23C242.03 298.093 243.407 299.47 244.27 301.163C244.826 302.255 245.048 303.418 245.151 304.683C245.252 305.921 245.25 307.447 245.25 309.3V315.375C245.25 316.618 244.243 317.625 243 317.625C241.757 317.625 240.75 316.618 240.75 315.375ZM234 307.5C235.243 307.5 236.25 308.507 236.25 309.75C236.25 310.993 235.243 312 234 312H216C214.757 312 213.75 310.993 213.75 309.75C213.75 308.507 214.757 307.5 216 307.5H234Z" fill="#8E51FF"/>
<path d="M177.12 405.137C176.227 405.137 175.429 404.929 174.728 404.515C174.026 404.1 173.472 403.503 173.066 402.724C172.661 401.944 172.458 401.008 172.458 399.914C172.458 398.816 172.661 397.877 173.066 397.098C173.477 396.314 174.033 395.715 174.734 395.3C175.441 394.885 176.236 394.678 177.12 394.678C177.676 394.678 178.196 394.757 178.679 394.917C179.166 395.072 179.599 395.302 179.978 395.607C180.36 395.908 180.675 396.277 180.921 396.715C181.167 397.152 181.331 397.649 181.413 398.205H179.574C179.515 397.9 179.412 397.631 179.267 397.398C179.125 397.166 178.948 396.97 178.733 396.811C178.519 396.646 178.278 396.523 178.009 396.441C177.74 396.355 177.453 396.312 177.147 396.312C176.591 396.312 176.097 396.453 175.664 396.735C175.236 397.013 174.898 397.421 174.652 397.959C174.411 398.492 174.29 399.144 174.29 399.914C174.29 400.693 174.413 401.35 174.659 401.883C174.905 402.416 175.243 402.819 175.671 403.093C176.104 403.366 176.594 403.503 177.141 403.503C177.446 403.503 177.733 403.462 178.002 403.38C178.271 403.293 178.512 403.17 178.727 403.011C178.945 402.847 179.128 402.648 179.273 402.416C179.419 402.179 179.52 401.91 179.574 401.609H181.42C181.352 402.097 181.201 402.555 180.969 402.983C180.741 403.407 180.44 403.781 180.066 404.104C179.693 404.428 179.257 404.681 178.761 404.863C178.269 405.046 177.722 405.137 177.12 405.137ZM186.335 405.157C185.592 405.157 184.947 404.993 184.4 404.665C183.854 404.332 183.43 403.872 183.129 403.284C182.833 402.692 182.685 402.004 182.685 401.22C182.685 400.427 182.833 399.734 183.129 399.142C183.43 398.545 183.854 398.082 184.4 397.754C184.947 397.426 185.592 397.262 186.335 397.262C187.082 397.262 187.729 397.426 188.276 397.754C188.823 398.082 189.245 398.545 189.541 399.142C189.842 399.734 189.992 400.427 189.992 401.22C189.992 402.004 189.842 402.692 189.541 403.284C189.245 403.872 188.823 404.332 188.276 404.665C187.729 404.993 187.082 405.157 186.335 405.157ZM186.335 403.715C186.75 403.715 187.094 403.603 187.367 403.38C187.645 403.157 187.85 402.856 187.982 402.478C188.119 402.099 188.188 401.678 188.188 401.213C188.188 400.743 188.119 400.32 187.982 399.941C187.85 399.563 187.645 399.262 187.367 399.039C187.094 398.816 186.75 398.704 186.335 398.704C185.92 398.704 185.576 398.816 185.303 399.039C185.034 399.262 184.831 399.563 184.694 399.941C184.562 400.315 184.496 400.739 184.496 401.213C184.496 401.678 184.562 402.099 184.694 402.478C184.831 402.856 185.034 403.157 185.303 403.38C185.576 403.603 185.92 403.715 186.335 403.715ZM191.551 405V397.357H193.219L193.287 399.196H193.157C193.267 398.741 193.435 398.369 193.663 398.082C193.896 397.795 194.164 397.583 194.47 397.446C194.78 397.305 195.103 397.234 195.44 397.234C195.992 397.234 196.436 397.408 196.773 397.754C197.115 398.1 197.357 398.611 197.498 399.285H197.286C197.391 398.829 197.569 398.451 197.819 398.15C198.075 397.845 198.375 397.617 198.722 397.467C199.073 397.312 199.446 397.234 199.843 397.234C200.303 397.234 200.715 397.335 201.08 397.535C201.445 397.736 201.734 398.03 201.948 398.417C202.162 398.8 202.27 399.276 202.27 399.846V405H200.492V400.119C200.492 399.645 200.362 399.299 200.103 399.08C199.843 398.861 199.531 398.752 199.166 398.752C198.883 398.752 198.637 398.813 198.428 398.937C198.218 399.06 198.056 399.23 197.942 399.449C197.833 399.663 197.778 399.914 197.778 400.201V405H196.042V400.037C196.042 399.65 195.921 399.34 195.68 399.107C195.438 398.87 195.128 398.752 194.75 398.752C194.49 398.752 194.251 398.811 194.032 398.93C193.818 399.048 193.647 399.224 193.52 399.456C193.392 399.688 193.328 399.976 193.328 400.317V405H191.551ZM204.156 407.857V397.357H205.893V398.622H206.009C206.1 398.44 206.23 398.244 206.398 398.034C206.567 397.825 206.795 397.645 207.082 397.494C207.374 397.339 207.745 397.262 208.196 397.262C208.789 397.262 209.322 397.412 209.796 397.713C210.27 398.014 210.646 398.458 210.924 399.046C211.206 399.629 211.348 400.345 211.348 401.192C211.348 402.031 211.211 402.744 210.938 403.332C210.664 403.92 210.288 404.369 209.81 404.679C209.336 404.984 208.796 405.137 208.189 405.137C207.757 405.137 207.394 405.064 207.103 404.918C206.811 404.768 206.578 404.588 206.405 404.378C206.232 404.168 206.1 403.972 206.009 403.79H205.934V407.857H204.156ZM207.711 403.674C208.107 403.674 208.44 403.567 208.709 403.353C208.978 403.134 209.181 402.838 209.317 402.464C209.454 402.086 209.522 401.66 209.522 401.186C209.522 400.712 209.454 400.29 209.317 399.921C209.185 399.547 208.985 399.256 208.716 399.046C208.447 398.832 208.112 398.725 207.711 398.725C207.319 398.725 206.989 398.827 206.72 399.032C206.451 399.237 206.246 399.524 206.104 399.894C205.968 400.258 205.899 400.689 205.899 401.186C205.899 401.682 205.968 402.118 206.104 402.491C206.246 402.865 206.451 403.157 206.72 403.366C206.993 403.571 207.324 403.674 207.711 403.674ZM215.162 405.157C214.679 405.157 214.244 405.071 213.856 404.897C213.469 404.72 213.164 404.46 212.94 404.118C212.717 403.776 212.605 403.355 212.605 402.854C212.605 402.421 212.685 402.063 212.845 401.78C213.009 401.498 213.228 401.272 213.501 401.104C213.779 400.935 214.091 400.807 214.438 400.721C214.784 400.634 215.144 400.573 215.518 400.536C215.96 400.486 216.32 400.443 216.598 400.406C216.876 400.37 217.078 400.311 217.206 400.229C217.338 400.146 217.404 400.019 217.404 399.846V399.812C217.404 399.561 217.354 399.349 217.254 399.176C217.154 398.998 217.003 398.864 216.803 398.772C216.607 398.677 216.363 398.629 216.071 398.629C215.775 398.629 215.518 398.674 215.299 398.766C215.085 398.857 214.909 398.975 214.772 399.121C214.636 399.267 214.535 399.424 214.472 399.593L212.824 399.258C212.975 398.807 213.207 398.435 213.521 398.144C213.836 397.847 214.21 397.626 214.643 397.48C215.08 397.335 215.554 397.262 216.064 397.262C216.424 397.262 216.787 397.305 217.151 397.392C217.521 397.474 217.858 397.615 218.163 397.815C218.468 398.016 218.715 398.285 218.901 398.622C219.088 398.959 219.182 399.383 219.182 399.894V405H217.479V403.947H217.411C217.297 404.161 217.14 404.362 216.939 404.549C216.743 404.731 216.497 404.879 216.201 404.993C215.91 405.103 215.563 405.157 215.162 405.157ZM215.62 403.838C215.989 403.838 216.306 403.765 216.57 403.619C216.839 403.473 217.047 403.282 217.192 403.045C217.343 402.803 217.418 402.541 217.418 402.259V401.356C217.359 401.402 217.258 401.445 217.117 401.486C216.98 401.527 216.826 401.564 216.652 401.596C216.484 401.628 216.315 401.655 216.146 401.678C215.982 401.701 215.843 401.719 215.729 401.732C215.465 401.769 215.226 401.828 215.012 401.91C214.798 401.992 214.629 402.108 214.506 402.259C214.387 402.405 214.328 402.596 214.328 402.833C214.328 403.052 214.383 403.236 214.492 403.387C214.606 403.533 214.759 403.644 214.95 403.722C215.146 403.799 215.369 403.838 215.62 403.838ZM221.068 405V397.357H222.791V398.636H222.873C223.01 398.194 223.249 397.854 223.591 397.617C223.933 397.376 224.322 397.255 224.76 397.255C224.86 397.255 224.972 397.259 225.095 397.269C225.218 397.278 225.323 397.289 225.409 397.303V398.937C225.336 398.914 225.218 398.893 225.054 398.875C224.89 398.857 224.728 398.848 224.568 398.848C224.24 398.848 223.944 398.918 223.68 399.06C223.42 399.201 223.215 399.397 223.064 399.647C222.919 399.894 222.846 400.178 222.846 400.502V405H221.068ZM226.715 405V397.357H228.492V405H226.715ZM227.604 396.277C227.321 396.277 227.077 396.182 226.872 395.99C226.672 395.799 226.571 395.571 226.571 395.307C226.571 395.033 226.672 394.803 226.872 394.616C227.077 394.425 227.321 394.329 227.604 394.329C227.891 394.329 228.134 394.425 228.335 394.616C228.54 394.803 228.643 395.033 228.643 395.307C228.643 395.571 228.54 395.799 228.335 395.99C228.134 396.182 227.891 396.277 227.604 396.277ZM232.156 400.522V405H230.379V397.357H232.061L232.088 399.244H231.944C232.159 398.583 232.473 398.089 232.888 397.761C233.302 397.428 233.822 397.262 234.446 397.262C234.97 397.262 235.428 397.373 235.82 397.597C236.212 397.82 236.515 398.146 236.729 398.574C236.948 399.003 237.058 399.524 237.058 400.14V405H235.28V400.413C235.28 399.903 235.148 399.502 234.884 399.21C234.619 398.918 234.255 398.772 233.79 398.772C233.476 398.772 233.195 398.841 232.949 398.978C232.703 399.114 232.509 399.315 232.368 399.579C232.227 399.839 232.156 400.153 232.156 400.522ZM242.246 408.021C241.635 408.021 241.102 407.944 240.646 407.789C240.195 407.634 239.824 407.422 239.532 407.153C239.245 406.889 239.038 406.588 238.91 406.251L240.414 405.711C240.496 405.852 240.608 405.998 240.749 406.148C240.895 406.299 241.086 406.422 241.323 406.518C241.565 406.618 241.87 406.668 242.239 406.668C242.791 406.668 243.233 406.538 243.565 406.278C243.898 406.023 244.064 405.622 244.064 405.075V403.633H243.914C243.827 403.815 243.7 404.004 243.531 404.2C243.363 404.392 243.135 404.553 242.848 404.686C242.565 404.818 242.203 404.884 241.761 404.884C241.177 404.884 240.646 404.747 240.168 404.474C239.694 404.196 239.316 403.781 239.033 403.229C238.755 402.678 238.616 401.988 238.616 401.158C238.616 400.32 238.757 399.611 239.04 399.032C239.323 398.453 239.701 398.014 240.175 397.713C240.653 397.412 241.187 397.262 241.774 397.262C242.226 397.262 242.597 397.337 242.889 397.487C243.18 397.638 243.413 397.82 243.586 398.034C243.759 398.244 243.891 398.44 243.982 398.622H244.078V397.357H245.821V405.021C245.821 405.7 245.666 406.26 245.356 406.702C245.047 407.149 244.623 407.479 244.085 407.693C243.547 407.912 242.934 408.021 242.246 408.021ZM242.26 403.482C242.647 403.482 242.975 403.391 243.244 403.209C243.513 403.022 243.718 402.753 243.859 402.402C244.001 402.051 244.071 401.632 244.071 401.145C244.071 400.661 244.001 400.24 243.859 399.88C243.723 399.515 243.52 399.233 243.251 399.032C242.982 398.827 242.652 398.725 242.26 398.725C241.859 398.725 241.521 398.832 241.248 399.046C240.979 399.256 240.776 399.543 240.64 399.907C240.503 400.267 240.435 400.68 240.435 401.145C240.435 401.614 240.503 402.024 240.64 402.375C240.781 402.726 240.986 402.999 241.255 403.195C241.528 403.387 241.863 403.482 242.26 403.482ZM255.665 405.137C254.772 405.137 253.974 404.929 253.272 404.515C252.571 404.1 252.017 403.503 251.611 402.724C251.206 401.944 251.003 401.008 251.003 399.914C251.003 398.816 251.206 397.877 251.611 397.098C252.021 396.314 252.577 395.715 253.279 395.3C253.986 394.885 254.781 394.678 255.665 394.678C256.221 394.678 256.741 394.757 257.224 394.917C257.711 395.072 258.144 395.302 258.522 395.607C258.905 395.908 259.22 396.277 259.466 396.715C259.712 397.152 259.876 397.649 259.958 398.205H258.119C258.06 397.9 257.957 397.631 257.812 397.398C257.67 397.166 257.493 396.97 257.278 396.811C257.064 396.646 256.823 396.523 256.554 396.441C256.285 396.355 255.998 396.312 255.692 396.312C255.136 396.312 254.642 396.453 254.209 396.735C253.781 397.013 253.443 397.421 253.197 397.959C252.956 398.492 252.835 399.144 252.835 399.914C252.835 400.693 252.958 401.35 253.204 401.883C253.45 402.416 253.787 402.819 254.216 403.093C254.649 403.366 255.139 403.503 255.686 403.503C255.991 403.503 256.278 403.462 256.547 403.38C256.816 403.293 257.057 403.17 257.271 403.011C257.49 402.847 257.673 402.648 257.818 402.416C257.964 402.179 258.064 401.91 258.119 401.609H259.965C259.896 402.097 259.746 402.555 259.514 402.983C259.286 403.407 258.985 403.781 258.611 404.104C258.238 404.428 257.802 404.681 257.306 404.863C256.813 405.046 256.267 405.137 255.665 405.137ZM264.941 405.157C264.171 405.157 263.508 404.995 262.952 404.672C262.401 404.348 261.975 403.893 261.674 403.305C261.378 402.717 261.229 402.024 261.229 401.227C261.229 400.438 261.375 399.748 261.667 399.155C261.963 398.563 262.38 398.1 262.918 397.768C263.46 397.43 264.096 397.262 264.825 397.262C265.29 397.262 265.732 397.337 266.151 397.487C266.575 397.638 266.949 397.87 267.272 398.185C267.601 398.499 267.856 398.9 268.038 399.388C268.225 399.871 268.318 400.447 268.318 401.117V401.678H262.07V400.468H267.437L266.603 400.823C266.603 400.395 266.536 400.019 266.404 399.695C266.272 399.367 266.074 399.112 265.81 398.93C265.55 398.747 265.224 398.656 264.832 398.656C264.44 398.656 264.107 398.75 263.834 398.937C263.561 399.119 263.351 399.365 263.205 399.675C263.064 399.98 262.993 400.322 262.993 400.7V401.534C262.993 402.017 263.075 402.425 263.239 402.758C263.403 403.09 263.633 403.341 263.93 403.51C264.226 403.678 264.57 403.763 264.962 403.763C265.222 403.763 265.456 403.726 265.666 403.653C265.88 403.576 266.065 403.464 266.22 403.318C266.375 403.168 266.491 402.986 266.568 402.771L268.202 403.106C268.079 403.517 267.869 403.877 267.573 404.187C267.277 404.492 266.906 404.731 266.459 404.904C266.017 405.073 265.511 405.157 264.941 405.157ZM271.935 405.048C271.224 405.048 270.697 404.886 270.355 404.562C270.018 404.234 269.85 403.751 269.85 403.113V394.814H271.627V402.819C271.627 403.102 271.668 403.305 271.75 403.428C271.837 403.546 271.992 403.605 272.215 403.605C272.333 403.605 272.422 403.603 272.481 403.599C272.545 403.59 272.602 403.576 272.652 403.558L272.953 404.904C272.844 404.936 272.7 404.968 272.522 405C272.345 405.032 272.149 405.048 271.935 405.048ZM276.104 405.048C275.394 405.048 274.867 404.886 274.525 404.562C274.188 404.234 274.02 403.751 274.02 403.113V394.814H275.797V402.819C275.797 403.102 275.838 403.305 275.92 403.428C276.007 403.546 276.161 403.605 276.385 403.605C276.503 403.605 276.592 403.603 276.651 403.599C276.715 403.59 276.772 403.576 276.822 403.558L277.123 404.904C277.014 404.936 276.87 404.968 276.692 405C276.515 405.032 276.319 405.048 276.104 405.048ZM204.402 412.353V410.814H212.51V412.353H209.372V421H207.547V412.353H204.402ZM213.07 423.728L213.487 422.34L213.699 422.395C213.968 422.463 214.207 422.481 214.417 422.449C214.627 422.422 214.802 422.331 214.943 422.176C215.085 422.025 215.185 421.804 215.244 421.513L215.354 421.027L212.469 413.357H214.369L215.764 417.514C215.928 418.006 216.062 418.496 216.167 418.983C216.272 419.471 216.388 419.97 216.516 420.48H216.051C216.174 419.97 216.297 419.471 216.42 418.983C216.543 418.491 216.687 418.001 216.851 417.514L218.293 413.357H220.173L216.892 421.984C216.737 422.39 216.543 422.736 216.311 423.023C216.078 423.315 215.793 423.536 215.456 423.687C215.119 423.837 214.72 423.912 214.26 423.912C214.009 423.912 213.777 423.894 213.562 423.857C213.353 423.821 213.189 423.778 213.07 423.728ZM221.39 423.857V413.357H223.126V414.622H223.242C223.333 414.44 223.463 414.244 223.632 414.034C223.8 413.825 224.028 413.645 224.315 413.494C224.607 413.339 224.979 413.262 225.43 413.262C226.022 413.262 226.555 413.412 227.029 413.713C227.503 414.014 227.879 414.458 228.157 415.046C228.44 415.629 228.581 416.345 228.581 417.192C228.581 418.031 228.444 418.744 228.171 419.332C227.897 419.92 227.521 420.369 227.043 420.679C226.569 420.984 226.029 421.137 225.423 421.137C224.99 421.137 224.628 421.064 224.336 420.918C224.044 420.768 223.812 420.588 223.639 420.378C223.465 420.168 223.333 419.972 223.242 419.79H223.167V423.857H221.39ZM224.944 419.674C225.341 419.674 225.674 419.567 225.942 419.353C226.211 419.134 226.414 418.838 226.551 418.464C226.688 418.086 226.756 417.66 226.756 417.186C226.756 416.712 226.688 416.29 226.551 415.921C226.419 415.547 226.218 415.256 225.949 415.046C225.68 414.832 225.345 414.725 224.944 414.725C224.552 414.725 224.222 414.827 223.953 415.032C223.684 415.237 223.479 415.524 223.338 415.894C223.201 416.258 223.133 416.689 223.133 417.186C223.133 417.682 223.201 418.118 223.338 418.491C223.479 418.865 223.684 419.157 223.953 419.366C224.227 419.571 224.557 419.674 224.944 419.674ZM233.503 421.157C232.733 421.157 232.07 420.995 231.514 420.672C230.962 420.348 230.536 419.893 230.235 419.305C229.939 418.717 229.791 418.024 229.791 417.227C229.791 416.438 229.937 415.748 230.229 415.155C230.525 414.563 230.942 414.1 231.479 413.768C232.022 413.43 232.658 413.262 233.387 413.262C233.852 413.262 234.294 413.337 234.713 413.487C235.137 413.638 235.51 413.87 235.834 414.185C236.162 414.499 236.417 414.9 236.6 415.388C236.786 415.871 236.88 416.447 236.88 417.117V417.678H230.632V416.468H235.998L235.164 416.823C235.164 416.395 235.098 416.019 234.966 415.695C234.834 415.367 234.635 415.112 234.371 414.93C234.111 414.747 233.785 414.656 233.394 414.656C233.002 414.656 232.669 414.75 232.396 414.937C232.122 415.119 231.912 415.365 231.767 415.675C231.625 415.98 231.555 416.322 231.555 416.7V417.534C231.555 418.017 231.637 418.425 231.801 418.758C231.965 419.09 232.195 419.341 232.491 419.51C232.787 419.678 233.132 419.763 233.523 419.763C233.783 419.763 234.018 419.726 234.228 419.653C234.442 419.576 234.626 419.464 234.781 419.318C234.936 419.168 235.052 418.986 235.13 418.771L236.764 419.106C236.641 419.517 236.431 419.877 236.135 420.187C235.839 420.492 235.467 420.731 235.021 420.904C234.578 421.073 234.073 421.157 233.503 421.157ZM241.303 421.157C240.715 421.157 240.195 421.073 239.744 420.904C239.293 420.736 238.922 420.49 238.63 420.166C238.343 419.842 238.156 419.451 238.069 418.99L239.73 418.676C239.835 419.054 240.02 419.337 240.284 419.523C240.553 419.706 240.904 419.797 241.337 419.797C241.774 419.797 242.121 419.71 242.376 419.537C242.636 419.359 242.766 419.141 242.766 418.881C242.766 418.662 242.681 418.482 242.513 418.341C242.344 418.195 242.084 418.083 241.733 418.006L240.428 417.726C239.708 417.571 239.17 417.315 238.814 416.96C238.459 416.604 238.281 416.146 238.281 415.586C238.281 415.112 238.411 414.702 238.671 414.355C238.931 414.009 239.291 413.74 239.751 413.549C240.216 413.357 240.754 413.262 241.364 413.262C241.943 413.262 242.44 413.344 242.854 413.508C243.274 413.672 243.611 413.902 243.866 414.198C244.126 414.49 244.306 414.834 244.406 415.23L242.82 415.545C242.734 415.276 242.576 415.05 242.349 414.868C242.121 414.681 241.799 414.588 241.385 414.588C241.007 414.588 240.69 414.672 240.435 414.841C240.184 415.005 240.059 415.217 240.059 415.477C240.059 415.7 240.143 415.884 240.312 416.03C240.48 416.176 240.758 416.29 241.146 416.372L242.444 416.646C243.169 416.8 243.707 417.049 244.058 417.391C244.409 417.732 244.584 418.172 244.584 418.71C244.584 419.193 244.445 419.619 244.167 419.988C243.889 420.353 243.502 420.64 243.005 420.85C242.513 421.055 241.945 421.157 241.303 421.157Z" fill="white"/>
<rect x="110.5" y="454" width="110" height="110" rx="55" stroke="white" stroke-opacity="0.1" stroke-width="8"/>
<rect x="121.5" y="465" width="88" height="88" rx="44" fill="white" fill-opacity="0.1"/>
<path d="M180.985 527C182.228 527 183.235 528.008 183.235 529.25C183.235 530.492 182.228 531.5 180.985 531.5H180.963C179.721 531.5 178.713 530.493 178.713 529.25C178.713 528.007 179.721 527 180.963 527H180.985ZM180.179 520.366C180.181 520.366 180.19 520.364 180.201 520.36C180.223 520.352 180.261 520.338 180.313 520.318C180.418 520.278 180.579 520.214 180.774 520.127C181.171 519.951 181.683 519.693 182.178 519.362C183.306 518.61 183.705 517.934 183.706 517.442V517.437C183.706 516.774 183.473 516.132 183.046 515.625C182.619 515.117 182.026 514.777 181.372 514.665C180.718 514.552 180.045 514.676 179.474 515.012C178.902 515.348 178.468 515.876 178.248 516.501C177.835 517.674 176.55 518.289 175.378 517.877C174.206 517.464 173.59 516.179 174.002 515.007C174.575 513.38 175.706 512.008 177.193 511.134C178.681 510.259 180.431 509.939 182.132 510.23C183.834 510.522 185.378 511.406 186.49 512.727C187.6 514.046 188.207 515.717 188.206 517.442L188.181 517.969C187.942 520.549 185.988 522.231 184.675 523.106C183.906 523.619 183.152 523.995 182.6 524.24C182.322 524.364 182.086 524.459 181.915 524.524C181.83 524.556 181.76 524.582 181.708 524.601C181.683 524.61 181.661 524.617 181.645 524.623C181.636 524.625 181.628 524.627 181.623 524.629C181.62 524.63 181.616 524.633 181.614 524.634H181.609C180.431 525.026 179.155 524.391 178.762 523.212C178.393 522.107 178.931 520.918 179.97 520.45L180.179 520.366ZM161.5 513.5C162.743 513.5 163.75 514.507 163.75 515.75C163.75 516.993 162.743 518 161.5 518H157C155.757 518 154.75 516.993 154.75 515.75C154.75 514.507 155.757 513.5 157 513.5H161.5ZM170.5 504.5C171.743 504.5 172.75 505.507 172.75 506.75C172.75 507.993 171.743 509 170.5 509H157C155.757 509 154.75 507.993 154.75 506.75C154.75 505.507 155.757 504.5 157 504.5H170.5ZM181.75 503.375V497.3C181.75 495.373 181.749 494.063 181.667 493.05C181.586 492.064 181.439 491.558 181.26 491.207C180.829 490.36 180.14 489.671 179.293 489.24C178.942 489.061 178.436 488.914 177.45 488.833C176.437 488.751 175.127 488.75 173.2 488.75H158.8C156.873 488.75 155.563 488.751 154.55 488.833C153.564 488.914 153.058 489.061 152.707 489.24C151.86 489.671 151.171 490.36 150.74 491.207C150.561 491.558 150.414 492.064 150.333 493.05C150.251 494.063 150.25 495.373 150.25 497.3V520.7C150.25 522.627 150.251 523.937 150.333 524.95C150.414 525.936 150.561 526.442 150.74 526.793C151.171 527.64 151.86 528.329 152.707 528.76C153.058 528.939 153.564 529.086 154.55 529.166C155.563 529.249 156.873 529.25 158.8 529.25H170.5C171.743 529.25 172.75 530.257 172.75 531.5C172.75 532.743 171.743 533.75 170.5 533.75H158.8C156.947 533.75 155.421 533.752 154.183 533.651C152.918 533.548 151.755 533.326 150.663 532.77C148.97 531.907 147.593 530.53 146.73 528.837C146.174 527.745 145.952 526.582 145.849 525.317C145.748 524.079 145.75 522.553 145.75 520.7V497.3C145.75 495.447 145.748 493.921 145.849 492.683C145.952 491.418 146.174 490.255 146.73 489.163C147.593 487.47 148.97 486.093 150.663 485.23C151.755 484.674 152.918 484.452 154.183 484.349C155.421 484.248 156.947 484.25 158.8 484.25H173.2C175.053 484.25 176.579 484.248 177.817 484.349C179.082 484.452 180.245 484.674 181.337 485.23C183.03 486.093 184.407 487.47 185.27 489.163C185.826 490.255 186.048 491.418 186.151 492.683C186.252 493.921 186.25 495.447 186.25 497.3V503.375C186.25 504.618 185.243 505.625 184 505.625C182.757 505.625 181.75 504.618 181.75 503.375ZM175 495.5C176.243 495.5 177.25 496.507 177.25 497.75C177.25 498.993 176.243 500 175 500H157C155.757 500 154.75 498.993 154.75 497.75C154.75 496.507 155.757 495.5 157 495.5H175Z" fill="#8E51FF"/>
<circle cx="232.5" cy="208" r="4" fill="white" fill-opacity="0.1"/>
<circle cx="241.5" cy="223" r="4" fill="white" fill-opacity="0.1"/>
<circle cx="243.5" cy="240" r="4" fill="white" fill-opacity="0.1"/>
<circle cx="147.5" cy="394" r="4" fill="white" fill-opacity="0.1"/>
<circle cx="138.5" cy="409" r="4" fill="white" fill-opacity="0.1"/>
<circle cx="136.5" cy="427" r="4" fill="white" fill-opacity="0.1"/>
<defs>
<filter id="filter0_i_394_900" x="121.5" y="91" width="88" height="88" filterUnits="userSpaceOnUse" color-interpolation-filters="sRGB">
<feFlood flood-opacity="0" result="BackgroundImageFix"/>
<feBlend mode="normal" in="SourceGraphic" in2="BackgroundImageFix" result="shape"/>
<feColorMatrix in="SourceAlpha" type="matrix" values="0 0 0 0 0 0 0 0 0 0 0 0 0 0 0 0 0 0 127 0" result="hardAlpha"/>
<feOffset/>
<feGaussianBlur stdDeviation="5"/>
<feComposite in2="hardAlpha" operator="arithmetic" k2="-1" k3="1"/>
<feColorMatrix type="matrix" values="0 0 0 0 0.184314 0 0 0 0 0.0509804 0 0 0 0 0.407843 0 0 0 1 0"/>
<feBlend mode="normal" in2="shape" result="effect1_innerShadow_394_900"/>
</filter>
</defs>
</svg>

