<svg width="390" height="844" viewBox="0 0 390 844" fill="none" xmlns="http://www.w3.org/2000/svg">
<g clip-path="url(#clip0_377_2636)">
<path d="M0 24C0 10.7452 10.7452 0 24 0H366C379.255 0 390 10.7452 390 24V820C390 833.255 379.255 844 366 844H24C10.7452 844 0 833.255 0 820V24Z" fill="#090C18"/>
<g clip-path="url(#clip1_377_2636)">
<path d="M333.178 26.4267C334.459 25.3444 336.335 25.3444 337.616 26.4267C337.68 26.4849 337.718 26.5675 337.719 26.6542C337.721 26.7409 337.686 26.824 337.625 26.8847L335.62 28.9072C335.561 28.9666 335.481 28.9999 335.397 28.9999C335.313 28.9999 335.233 28.9666 335.174 28.9072L333.168 26.8847C333.107 26.824 333.073 26.7407 333.075 26.6542C333.077 26.5675 333.114 26.4848 333.178 26.4267ZM330.502 23.7294C333.262 21.165 337.534 21.1651 340.293 23.7294C340.356 23.7896 340.391 23.8724 340.392 23.9589C340.393 24.0453 340.359 24.1281 340.298 24.1894L339.139 25.3603C339.02 25.4796 338.827 25.4814 338.705 25.3652C337.799 24.5454 336.619 24.0917 335.397 24.0917C334.176 24.0923 332.998 24.5461 332.092 25.3652C331.97 25.4815 331.776 25.4798 331.657 25.3603L330.499 24.1894C330.437 24.1282 330.403 24.0453 330.404 23.9589C330.405 23.8724 330.44 23.7895 330.502 23.7294ZM327.827 21.039C332.059 16.9869 338.734 16.9871 342.966 21.039C343.028 21.0992 343.063 21.1817 343.063 21.2675C343.063 21.3533 343.03 21.4361 342.969 21.497L341.809 22.6669C341.69 22.787 341.495 22.7881 341.374 22.6699C339.761 21.1384 337.622 20.2842 335.397 20.2841C333.172 20.2841 331.032 21.1382 329.419 22.6699C329.298 22.7882 329.104 22.787 328.985 22.6669L327.824 21.497C327.763 21.4361 327.73 21.3532 327.73 21.2675C327.731 21.1817 327.765 21.0991 327.827 21.039Z" fill="#F4F2FF"/>
<path d="M308 24.667C308.552 24.667 309 25.1147 309 25.667V27.667C309 28.2191 308.552 28.667 308 28.667H307C306.448 28.667 306 28.2191 306 27.667V25.667C306 25.1147 306.448 24.667 307 24.667H308ZM312.3 22.667C312.852 22.667 313.3 23.1147 313.3 23.667V27.667C313.3 28.2191 312.852 28.667 312.3 28.667H311.3C310.748 28.6669 310.3 28.219 310.3 27.667V23.667C310.3 23.1148 310.748 22.6671 311.3 22.667H312.3ZM316.6 20.333C317.152 20.333 317.599 20.7809 317.6 21.333V27.667C317.599 28.2191 317.152 28.667 316.6 28.667H315.6C315.048 28.6668 314.6 28.219 314.6 27.667V21.333C314.6 20.781 315.048 20.3332 315.6 20.333H316.6ZM320.9 18C321.452 18.0002 321.9 18.4479 321.9 19V27.667C321.9 28.219 321.452 28.6668 320.9 28.667H319.9C319.348 28.667 318.901 28.2191 318.9 27.667V19C318.9 18.4477 319.348 18 319.9 18H320.9Z" fill="#F4F2FF"/>
<rect opacity="0.35" x="349" y="18.5" width="21" height="10.3333" rx="2.5" stroke="#F4F2FF"/>
<path opacity="0.4" d="M371.5 21.6666V25.6666C372.305 25.3278 372.828 24.5398 372.828 23.6666C372.828 22.7935 372.305 22.0054 371.5 21.6666Z" fill="#F4F2FF"/>
<rect x="350.5" y="20" width="18" height="7.33333" rx="1.5" fill="#F4F2FF"/>
<path d="M34.5014 29.2637C31.9892 29.2637 30.4804 27.1323 30.4804 23.7192V23.7046C30.4804 20.2915 31.9892 18.1675 34.5014 18.1675C37.0136 18.1675 38.537 20.2915 38.537 23.7046V23.7192C38.537 27.1323 37.0136 29.2637 34.5014 29.2637ZM34.5014 27.7329C35.849 27.7329 36.6327 26.2241 36.6327 23.7192V23.7046C36.6327 21.1997 35.849 19.7056 34.5014 19.7056C33.1537 19.7056 32.3847 21.1997 32.3847 23.7046V23.7192C32.3847 26.2241 33.1537 27.7329 34.5014 27.7329ZM44.0524 18.1675C46.3083 18.1675 48.2712 19.7715 48.2712 23.5801V23.5947C48.2712 27.1543 46.6672 29.2637 44.0085 29.2637C42.0676 29.2637 40.6174 28.1138 40.2805 26.4951L40.2658 26.4146H42.1262L42.1481 26.4878C42.4265 27.2275 43.0783 27.7109 44.0085 27.7109C45.6857 27.7109 46.3962 26.0703 46.4768 24.0488C46.4768 23.9683 46.4841 23.8877 46.4841 23.8071H46.3376C45.9494 24.6421 45.0266 25.3818 43.5764 25.3818C41.5476 25.3818 40.1267 23.9023 40.1267 21.8955V21.8809C40.1267 19.7349 41.76 18.1675 44.0524 18.1675ZM44.0451 23.9316C45.239 23.9316 46.1545 23.0674 46.1545 21.8735V21.8589C46.1545 20.6504 45.239 19.7056 44.0671 19.7056C42.9025 19.7056 41.9724 20.6357 41.9724 21.8149V21.8296C41.9724 23.0527 42.8439 23.9316 44.0451 23.9316ZM51.2964 22.1519C50.6299 22.1519 50.1318 21.6392 50.1318 20.9946C50.1318 20.3428 50.6299 19.8374 51.2964 19.8374C51.9702 19.8374 52.4609 20.3428 52.4609 20.9946C52.4609 21.6392 51.9702 22.1519 51.2964 22.1519ZM51.2964 27.5864C50.6299 27.5864 50.1318 27.0811 50.1318 26.4292C50.1318 25.7773 50.6299 25.272 51.2964 25.272C51.9702 25.272 52.4609 25.7773 52.4609 26.4292C52.4609 27.0811 51.9702 27.5864 51.2964 27.5864ZM59.4485 29V26.9712H54.2776V25.4258C55.6473 23.0454 57.1487 20.6138 58.5843 18.4312H61.2576V25.4111H62.6785V26.9712H61.2576V29H59.4485ZM56.0354 25.4551H59.4778V19.9399H59.368C58.284 21.5952 57.0608 23.5508 56.0354 25.3452V25.4551ZM66.7584 29V20.2915H66.6339L64.0045 22.1519V20.3721L66.7657 18.4312H68.648V29H66.7584Z" fill="#F4F2FF"/>
</g>
<path d="M186.005 346.667C175.42 346.667 166.839 355.248 166.839 365.833V381.167C166.839 391.752 175.42 400.333 186.005 400.333C196.591 400.333 205.172 391.752 205.172 381.167V365.833C205.172 355.248 196.591 346.667 186.005 346.667Z" fill="#F4F2FF"/>
<path d="M162.443 394.413C161.29 392.638 158.916 392.132 157.14 393.285C155.364 394.437 154.859 396.811 156.011 398.587C160.319 405.224 168.55 414.051 182.172 415.47V419.5C182.172 421.617 183.888 423.333 186.005 423.333C188.123 423.333 189.839 421.617 189.839 419.5V415.47C203.461 414.051 211.692 405.224 215.999 398.587C217.152 396.811 216.646 394.437 214.87 393.285C213.095 392.132 210.721 392.638 209.568 394.413C205.583 400.554 198.272 408 186.005 408C173.738 408 166.428 400.554 162.443 394.413Z" fill="#F4F2FF"/>
<foreignObject x="-16" y="384" width="422" height="122"><div xmlns="http://www.w3.org/1999/xhtml" style="backdrop-filter:blur(16px);clip-path:url(#bgblur_3_377_2636_clip_path);height:100%;width:100%"></div></foreignObject><g data-figma-bg-blur-radius="32">
<g clip-path="url(#clip2_377_2636)">
<rect x="16" y="416" width="358" height="58" rx="29" fill="#22242F"/>
<path d="M302.211 445.005H291.355M291.048 446.453L289.254 451.907C288.272 454.894 287.781 456.387 288.133 457.306C288.439 458.105 289.097 458.711 289.908 458.941C290.842 459.207 292.253 458.56 295.075 457.268L313.165 448.981C315.92 447.72 317.297 447.089 317.723 446.213C318.092 445.451 318.092 444.558 317.723 443.796C317.297 442.92 315.92 442.289 313.165 441.028L295.044 432.727C292.23 431.439 290.823 430.794 289.89 431.059C289.08 431.288 288.422 431.892 288.115 432.689C287.762 433.607 288.248 435.097 289.219 438.078L291.051 443.695C291.218 444.207 291.301 444.463 291.334 444.725C291.364 444.957 291.363 445.192 291.334 445.424C291.3 445.686 291.216 445.942 291.048 446.453Z" stroke="white" stroke-width="2" stroke-linecap="round" stroke-linejoin="round"/>
</g>
</g>
<rect x="16" y="486" width="358" height="342" rx="27" fill="black" fill-opacity="0.25"/>
<rect x="16" y="486" width="358" height="342" rx="27" fill="#CCCCCC" style="mix-blend-mode:plus-darker"/>
<rect x="16" y="486" width="358" height="342" rx="27" fill="#0D0D0D" style="mix-blend-mode:plus-lighter"/>
<rect x="16" y="486" width="358" height="342" rx="27" fill="#262626" fill-opacity="0.9" style="mix-blend-mode:luminosity"/>
<path d="M76.6908 504.022L75.9686 508.745H74.3167L75.62 504.022H76.6908ZM79.4466 504.022L78.7245 508.745H77.0726L78.3758 504.022H79.4466ZM84.9932 516V505.367H81.1333V504.022H90.3472V505.367H86.4873V516H84.9932ZM92.1252 516V503.499H93.5695V508.396H93.7024C93.9292 507.921 94.2557 507.553 94.6818 507.292C95.1079 507.027 95.6503 506.894 96.3088 506.894C96.9784 506.894 97.5456 507.024 98.0105 507.284C98.4753 507.539 98.8295 507.912 99.073 508.405C99.3164 508.897 99.4382 509.498 99.4382 510.206V516H97.9939V510.555C97.9939 509.747 97.8223 509.149 97.4792 508.762C97.1416 508.369 96.6159 508.172 95.9021 508.172C95.4261 508.172 95.0139 508.275 94.6652 508.479C94.3166 508.684 94.0454 508.975 93.8518 509.351C93.6636 509.727 93.5695 510.178 93.5695 510.704V516H92.1252ZM105.275 516.158C104.423 516.158 103.69 515.97 103.076 515.593C102.467 515.217 101.996 514.686 101.664 514C101.338 513.308 101.175 512.494 101.175 511.559V511.551C101.175 510.627 101.338 509.816 101.664 509.119C101.996 508.421 102.464 507.876 103.067 507.483C103.67 507.09 104.376 506.894 105.184 506.894C105.997 506.894 106.695 507.082 107.276 507.458C107.862 507.835 108.311 508.361 108.62 509.036C108.936 509.705 109.094 510.486 109.094 511.376V511.941H101.922V510.787H108.355L107.641 511.841V511.269C107.641 510.566 107.536 509.987 107.326 509.534C107.115 509.08 106.825 508.742 106.454 508.521C106.083 508.294 105.657 508.181 105.176 508.181C104.694 508.181 104.263 508.3 103.881 508.538C103.504 508.77 103.206 509.116 102.984 509.575C102.763 510.035 102.652 510.599 102.652 511.269V511.841C102.652 512.478 102.76 513.023 102.976 513.477C103.192 513.925 103.499 514.271 103.897 514.514C104.296 514.752 104.766 514.871 105.308 514.871C105.712 514.871 106.064 514.816 106.363 514.705C106.662 514.594 106.908 514.453 107.101 514.282C107.295 514.11 107.431 513.936 107.508 513.759L107.541 513.684H108.986L108.969 513.75C108.892 514.055 108.753 514.351 108.554 514.639C108.36 514.921 108.109 515.178 107.799 515.411C107.489 515.638 107.121 515.82 106.695 515.958C106.274 516.091 105.801 516.158 105.275 516.158ZM110.897 508.745L111.619 504.022H113.271L111.967 508.745H110.897ZM113.652 508.745L114.375 504.022H116.026L114.723 508.745H113.652Z" fill="#F5F5F5"/>
<g opacity="0.1" style="mix-blend-mode:plus-lighter">
<rect x="134.667" y="498" width="1" height="25" fill="#333333"/>
</g>
<path d="M206.843 516.066C205.924 516.066 205.257 515.881 204.842 515.51C204.433 515.139 204.228 514.528 204.228 513.676V508.247H202.817V507.052H204.228V504.736H205.722V507.052H207.681V508.247H205.722V513.311C205.722 513.836 205.822 514.215 206.021 514.448C206.22 514.675 206.552 514.788 207.017 514.788C207.145 514.788 207.252 514.785 207.341 514.78C207.435 514.774 207.549 514.766 207.681 514.755V515.983C207.543 516.006 207.405 516.025 207.266 516.042C207.128 516.058 206.987 516.066 206.843 516.066ZM209.493 516V503.499H210.937V508.396H211.07C211.297 507.921 211.623 507.553 212.049 507.292C212.475 507.027 213.018 506.894 213.676 506.894C214.346 506.894 214.913 507.024 215.378 507.284C215.843 507.539 216.197 507.912 216.44 508.405C216.684 508.897 216.806 509.498 216.806 510.206V516H215.361V510.555C215.361 509.747 215.19 509.149 214.847 508.762C214.509 508.369 213.983 508.172 213.269 508.172C212.793 508.172 212.381 508.275 212.033 508.479C211.684 508.684 211.413 508.975 211.219 509.351C211.031 509.727 210.937 510.178 210.937 510.704V516H209.493ZM222.643 516.158C221.79 516.158 221.057 515.97 220.443 515.593C219.834 515.217 219.364 514.686 219.032 514C218.705 513.308 218.542 512.494 218.542 511.559V511.551C218.542 510.627 218.705 509.816 219.032 509.119C219.364 508.421 219.831 507.876 220.435 507.483C221.038 507.09 221.743 506.894 222.551 506.894C223.365 506.894 224.062 507.082 224.643 507.458C225.23 507.835 225.678 508.361 225.988 509.036C226.303 509.705 226.461 510.486 226.461 511.376V511.941H219.289V510.787H225.722L225.008 511.841V511.269C225.008 510.566 224.903 509.987 224.693 509.534C224.483 509.08 224.192 508.742 223.821 508.521C223.451 508.294 223.024 508.181 222.543 508.181C222.062 508.181 221.63 508.3 221.248 508.538C220.872 508.77 220.573 509.116 220.352 509.575C220.13 510.035 220.02 510.599 220.02 511.269V511.841C220.02 512.478 220.127 513.023 220.343 513.477C220.559 513.925 220.866 514.271 221.265 514.514C221.663 514.752 222.134 514.871 222.676 514.871C223.08 514.871 223.431 514.816 223.73 514.705C224.029 514.594 224.275 514.453 224.469 514.282C224.662 514.11 224.798 513.936 224.876 513.759L224.909 513.684H226.353L226.336 513.75C226.259 514.055 226.121 514.351 225.921 514.639C225.728 514.921 225.476 515.178 225.166 515.411C224.856 515.638 224.488 515.82 224.062 515.958C223.641 516.091 223.168 516.158 222.643 516.158Z" fill="#F5F5F5"/>
<g opacity="0.1" style="mix-blend-mode:plus-lighter">
<rect x="254.333" y="498" width="1" height="25" fill="#333333"/>
</g>
<path d="M331.192 516.066C330.273 516.066 329.607 515.881 329.192 515.51C328.782 515.139 328.577 514.528 328.577 513.676V508.247H327.166V507.052H328.577V504.736H330.071V507.052H332.03V508.247H330.071V513.311C330.071 513.836 330.171 514.215 330.37 514.448C330.57 514.675 330.902 514.788 331.366 514.788C331.494 514.788 331.602 514.785 331.69 514.78C331.784 514.774 331.898 514.766 332.03 514.755V515.983C331.892 516.006 331.754 516.025 331.615 516.042C331.477 516.058 331.336 516.066 331.192 516.066ZM337.32 516.158C336.473 516.158 335.74 515.972 335.12 515.602C334.506 515.225 334.03 514.691 333.692 514C333.36 513.308 333.194 512.486 333.194 511.534V511.518C333.194 510.56 333.36 509.736 333.692 509.044C334.03 508.352 334.506 507.821 335.12 507.45C335.74 507.079 336.473 506.894 337.32 506.894C338.172 506.894 338.905 507.079 339.519 507.45C340.134 507.821 340.607 508.352 340.939 509.044C341.276 509.736 341.445 510.56 341.445 511.518V511.534C341.445 512.486 341.276 513.308 340.939 514C340.607 514.691 340.134 515.225 339.519 515.602C338.905 515.972 338.172 516.158 337.32 516.158ZM337.32 514.879C337.884 514.879 338.363 514.747 338.756 514.481C339.149 514.215 339.447 513.833 339.652 513.335C339.862 512.837 339.968 512.237 339.968 511.534V511.518C339.968 510.809 339.862 510.206 339.652 509.708C339.447 509.21 339.149 508.831 338.756 508.571C338.363 508.305 337.884 508.172 337.32 508.172C336.755 508.172 336.277 508.305 335.884 508.571C335.491 508.831 335.189 509.21 334.979 509.708C334.774 510.206 334.672 510.809 334.672 511.518V511.534C334.672 512.237 334.774 512.837 334.979 513.335C335.189 513.833 335.491 514.215 335.884 514.481C336.277 514.747 336.755 514.879 337.32 514.879Z" fill="#F5F5F5"/>
<rect x="24.5" y="535" width="28.7" height="45" rx="8.5" fill="#999999" fill-opacity="0.15"/>
<rect x="24.5" y="535" width="28.7" height="45" rx="8.5" fill="#121212" style="mix-blend-mode:plus-lighter"/>
<path d="M35.938 550.963C36.5646 550.963 37.1261 551.044 37.6226 551.207C38.119 551.37 38.5503 551.602 38.9165 551.903C39.2827 552.204 39.5879 552.562 39.832 552.977H39.9053V551.158H42.0293V568.26H39.8198V562.169H39.7466C39.6164 562.438 39.4292 562.698 39.1851 562.95C38.9491 563.194 38.6642 563.41 38.3306 563.597C38.005 563.784 37.6388 563.931 37.2319 564.037C36.8332 564.142 36.3937 564.195 35.9136 564.195C34.9045 564.195 34.0256 563.947 33.2769 563.451C32.5363 562.954 31.9585 562.246 31.5435 561.327C31.1366 560.399 30.9331 559.3 30.9331 558.031V557.005C30.9331 555.777 31.1366 554.71 31.5435 553.807C31.9585 552.904 32.5404 552.204 33.2891 551.708C34.0459 551.211 34.9289 550.963 35.938 550.963ZM36.4263 552.867C35.759 552.867 35.1812 553.034 34.6929 553.368C34.2046 553.701 33.8262 554.186 33.5576 554.82C33.2972 555.455 33.167 556.224 33.167 557.127V557.958C33.167 558.853 33.2972 559.626 33.5576 560.277C33.818 560.928 34.1924 561.432 34.6807 561.791C35.1689 562.14 35.759 562.315 36.4507 562.315C37.1587 562.315 37.765 562.136 38.2695 561.778C38.7822 561.42 39.1729 560.916 39.4414 560.265C39.71 559.614 39.8442 558.845 39.8442 557.958V557.127C39.8442 556.265 39.71 555.516 39.4414 554.881C39.1729 554.247 38.7822 553.754 38.2695 553.404C37.7568 553.046 37.1424 552.867 36.4263 552.867Z" fill="#A6A6A6"/>
<rect x="59.2" y="535" width="28.7" height="45" rx="8.5" fill="#999999" fill-opacity="0.15"/>
<rect x="59.2" y="535" width="28.7" height="45" rx="8.5" fill="#121212" style="mix-blend-mode:plus-lighter"/>
<path d="M80.013 551.158L76.656 564H74.3611L71.4925 554.173H71.4314L68.5506 564H66.2434L62.8987 551.158H65.1448L67.4519 561.253H67.5496L70.406 551.158H72.5056L75.3743 561.253H75.472L77.7791 551.158H80.013Z" fill="#A6A6A6"/>
<rect x="93.9" y="535" width="28.7" height="45" rx="8.5" fill="#999999" fill-opacity="0.15"/>
<rect x="93.9" y="535" width="28.7" height="45" rx="8.5" fill="#121212" style="mix-blend-mode:plus-lighter"/>
<path d="M106.278 564.208C105.163 564.208 104.199 563.963 103.385 563.475C102.571 562.979 101.944 562.279 101.505 561.375C101.074 560.472 100.858 559.41 100.858 558.189V556.773C100.858 555.626 101.066 554.617 101.481 553.746C101.904 552.875 102.51 552.192 103.299 551.695C104.097 551.199 105.061 550.951 106.192 550.951C107.316 550.951 108.272 551.203 109.061 551.708C109.859 552.204 110.465 552.9 110.88 553.795C111.303 554.69 111.515 555.732 111.515 556.92V558.116H103.055V558.36C103.055 559.549 103.344 560.517 103.922 561.266C104.508 562.014 105.314 562.389 106.339 562.389C106.827 562.389 107.259 562.311 107.633 562.157C108.007 562.002 108.321 561.782 108.573 561.498C108.833 561.205 109.033 560.863 109.171 560.472H111.344C111.23 561.001 111.039 561.493 110.77 561.949C110.502 562.397 110.156 562.792 109.732 563.133C109.309 563.467 108.809 563.731 108.231 563.927C107.661 564.114 107.01 564.208 106.278 564.208ZM103.055 556.383H109.317C109.317 556.375 109.317 556.371 109.317 556.371C109.317 556.362 109.317 556.354 109.317 556.346C109.317 555.679 109.187 555.077 108.927 554.54C108.666 553.994 108.3 553.563 107.828 553.246C107.364 552.928 106.819 552.77 106.192 552.77C105.558 552.77 105.004 552.928 104.532 553.246C104.068 553.563 103.706 553.994 103.446 554.54C103.185 555.077 103.055 555.679 103.055 556.346C103.055 556.354 103.055 556.362 103.055 556.371C103.055 556.371 103.055 556.375 103.055 556.383Z" fill="#A6A6A6"/>
<rect x="128.6" y="535" width="28.7" height="45" rx="8.5" fill="#999999" fill-opacity="0.15"/>
<rect x="128.6" y="535" width="28.7" height="45" rx="8.5" fill="#121212" style="mix-blend-mode:plus-lighter"/>
<path d="M138.427 564V551.158H140.636V552.757H140.709C140.831 552.497 141.023 552.228 141.283 551.952C141.543 551.675 141.885 551.443 142.308 551.256C142.732 551.061 143.248 550.963 143.859 550.963C143.997 550.963 144.131 550.971 144.262 550.987C144.4 550.995 144.534 551.008 144.664 551.024V553.038C144.55 553.014 144.396 552.997 144.201 552.989C144.013 552.973 143.818 552.965 143.615 552.965C142.866 552.965 142.276 553.107 141.845 553.392C141.413 553.677 141.104 554.059 140.917 554.54C140.738 555.012 140.648 555.536 140.648 556.114V564H138.427Z" fill="#A6A6A6"/>
<rect x="163.3" y="535" width="28.7" height="45" rx="8.5" fill="#999999" fill-opacity="0.15"/>
<rect x="163.3" y="535" width="28.7" height="45" rx="8.5" fill="#121212" style="mix-blend-mode:plus-lighter"/>
<path d="M173.969 551.158V547.972H176.154V551.158H178.681V552.989H176.154V560.387C176.154 561.144 176.305 561.652 176.606 561.913C176.907 562.165 177.448 562.291 178.229 562.291C178.335 562.291 178.433 562.291 178.522 562.291C178.612 562.283 178.697 562.275 178.778 562.267V564.024C178.689 564.041 178.538 564.057 178.327 564.073C178.115 564.098 177.896 564.11 177.668 564.11C176.65 564.11 175.873 563.98 175.336 563.719C174.807 563.451 174.441 563.044 174.237 562.499C174.042 561.945 173.945 561.245 173.945 560.399V552.989H172.211V551.158H173.969Z" fill="#A6A6A6"/>
<rect x="198" y="535" width="28.7" height="45" rx="8.5" fill="#999999" fill-opacity="0.15"/>
<rect x="198" y="535" width="28.7" height="45" rx="8.5" fill="#121212" style="mix-blend-mode:plus-lighter"/>
<path d="M216.091 551.158C215.7 552.298 215.305 553.425 214.907 554.54C214.516 555.654 214.13 556.753 213.747 557.835C213.365 558.91 212.99 559.964 212.624 560.997C212.258 562.031 211.9 563.04 211.55 564.024L211.22 564.916C210.716 566.283 210.113 567.223 209.414 567.735C208.714 568.248 207.806 568.504 206.691 568.504C206.496 568.504 206.289 568.492 206.069 568.468C205.849 568.451 205.65 568.427 205.471 568.395V566.625C205.576 566.633 205.719 566.645 205.898 566.661C206.077 566.677 206.248 566.686 206.411 566.686C207.143 566.686 207.7 566.543 208.083 566.258C208.465 565.982 208.746 565.51 208.925 564.842L209.108 564.171L204.396 551.158H206.862L210.256 561.62H210.329L213.747 551.158H216.091Z" fill="#A6A6A6"/>
<rect x="232.7" y="535" width="28.7" height="45" rx="8.5" fill="#999999" fill-opacity="0.15"/>
<rect x="232.7" y="535" width="28.7" height="45" rx="8.5" fill="#121212" style="mix-blend-mode:plus-lighter"/>
<path d="M250.119 551.158V564H247.934V562.303H247.837C247.69 562.637 247.454 562.95 247.129 563.243C246.811 563.536 246.404 563.772 245.908 563.951C245.412 564.122 244.822 564.208 244.138 564.208C243.251 564.208 242.466 564.041 241.782 563.707C241.098 563.365 240.561 562.865 240.171 562.206C239.788 561.546 239.597 560.724 239.597 559.74V551.158H241.819V559.117C241.819 559.907 241.953 560.529 242.221 560.985C242.498 561.432 242.864 561.754 243.32 561.949C243.776 562.136 244.276 562.23 244.822 562.23C245.432 562.23 245.965 562.108 246.421 561.864C246.885 561.62 247.247 561.262 247.507 560.79C247.776 560.318 247.91 559.748 247.91 559.081V551.158H250.119Z" fill="#A6A6A6"/>
<rect x="267.4" y="535" width="28.7" height="45" rx="8.5" fill="#999999" fill-opacity="0.15"/>
<rect x="267.4" y="535" width="28.7" height="45" rx="8.5" fill="#121212" style="mix-blend-mode:plus-lighter"/>
<path d="M278.545 564V551.158H280.754V564H278.545ZM278.252 548.058C278.252 547.667 278.386 547.341 278.655 547.081C278.932 546.812 279.261 546.678 279.644 546.678C280.034 546.678 280.364 546.812 280.632 547.081C280.909 547.341 281.047 547.667 281.047 548.058C281.047 548.44 280.909 548.766 280.632 549.034C280.364 549.295 280.034 549.425 279.644 549.425C279.261 549.425 278.932 549.295 278.655 549.034C278.386 548.766 278.252 548.44 278.252 548.058Z" fill="#A6A6A6"/>
<rect x="302.1" y="535" width="28.7" height="45" rx="8.5" fill="#999999" fill-opacity="0.15"/>
<rect x="302.1" y="535" width="28.7" height="45" rx="8.5" fill="#121212" style="mix-blend-mode:plus-lighter"/>
<path d="M314.356 550.951C315.56 550.951 316.573 551.215 317.395 551.744C318.217 552.273 318.84 552.993 319.263 553.905C319.686 554.816 319.898 555.846 319.898 556.993V558.116C319.898 559.28 319.686 560.326 319.263 561.253C318.84 562.173 318.217 562.897 317.395 563.426C316.573 563.947 315.56 564.208 314.356 564.208C313.151 564.208 312.134 563.947 311.304 563.426C310.474 562.897 309.847 562.173 309.424 561.253C309.009 560.326 308.802 559.28 308.802 558.116V556.993C308.802 555.846 309.013 554.816 309.436 553.905C309.86 552.993 310.482 552.273 311.304 551.744C312.134 551.215 313.151 550.951 314.356 550.951ZM314.356 552.818C313.64 552.818 313.029 552.993 312.525 553.343C312.028 553.693 311.65 554.186 311.39 554.82C311.137 555.455 311.011 556.204 311.011 557.066V558.067C311.011 558.914 311.137 559.658 311.39 560.301C311.65 560.936 312.028 561.432 312.525 561.791C313.021 562.149 313.632 562.328 314.356 562.328C315.08 562.328 315.686 562.149 316.175 561.791C316.671 561.432 317.045 560.936 317.298 560.301C317.55 559.667 317.676 558.922 317.676 558.067V557.066C317.676 556.204 317.55 555.455 317.298 554.82C317.045 554.186 316.671 553.693 316.175 553.343C315.686 552.993 315.08 552.818 314.356 552.818Z" fill="#A6A6A6"/>
<rect x="336.8" y="535" width="28.7" height="45" rx="8.5" fill="#999999" fill-opacity="0.15"/>
<rect x="336.8" y="535" width="28.7" height="45" rx="8.5" fill="#121212" style="mix-blend-mode:plus-lighter"/>
<path d="M349.727 564.195C349.182 564.195 348.677 564.118 348.214 563.963C347.758 563.801 347.351 563.573 346.993 563.28C346.643 562.987 346.346 562.653 346.102 562.279H346.041V568.26H343.831V551.158H345.955V553.001H346.016C346.203 552.7 346.423 552.424 346.675 552.171C346.936 551.919 347.225 551.703 347.542 551.524C347.86 551.345 348.209 551.207 348.592 551.109C348.974 551.012 349.377 550.963 349.8 550.963C350.769 550.963 351.627 551.203 352.376 551.683C353.133 552.155 353.727 552.839 354.158 553.734C354.598 554.629 354.818 555.711 354.818 556.981V558.177C354.818 559.422 354.598 560.497 354.158 561.4C353.727 562.303 353.129 562.995 352.364 563.475C351.607 563.955 350.728 564.195 349.727 564.195ZM349.434 562.291C350.061 562.291 350.61 562.128 351.082 561.803C351.562 561.477 351.933 560.997 352.193 560.362C352.462 559.719 352.596 558.934 352.596 558.006V557.066C352.596 556.179 352.466 555.423 352.205 554.796C351.953 554.161 351.587 553.677 351.107 553.343C350.635 553.01 350.061 552.843 349.385 552.843C348.686 552.843 348.083 553.022 347.579 553.38C347.074 553.73 346.684 554.218 346.407 554.845C346.138 555.471 346.004 556.208 346.004 557.054V558.006C346.004 558.869 346.142 559.626 346.419 560.277C346.696 560.92 347.091 561.416 347.603 561.766C348.116 562.116 348.726 562.291 349.434 562.291Z" fill="#A6A6A6"/>
<rect x="44.5" y="591" width="28.1111" height="45" rx="8.5" fill="#999999" fill-opacity="0.15"/>
<rect x="44.5" y="591" width="28.1111" height="45" rx="8.5" fill="#121212" style="mix-blend-mode:plus-lighter"/>
<path d="M54.6084 620.208C53.3633 620.208 52.3501 619.854 51.5688 619.146C50.7957 618.438 50.4092 617.493 50.4092 616.313C50.4092 615.19 50.7917 614.295 51.5566 613.628C52.3298 612.961 53.4528 612.623 54.9258 612.615H58.2827V611.333C58.2827 610.511 58.0508 609.88 57.5869 609.441C57.1312 609.001 56.4801 608.782 55.6338 608.782C55.0967 608.782 54.6369 608.867 54.2544 609.038C53.8719 609.209 53.5749 609.453 53.3633 609.771C53.1517 610.08 53.0215 610.442 52.9727 610.857H50.8975C50.93 610.304 51.048 609.791 51.2515 609.319C51.4631 608.839 51.7642 608.424 52.1548 608.074C52.5535 607.724 53.0459 607.451 53.6318 607.256C54.2259 607.052 54.9176 606.951 55.707 606.951C56.6266 606.951 57.4445 607.113 58.1606 607.439C58.8849 607.764 59.4505 608.241 59.8574 608.867C60.2725 609.486 60.48 610.251 60.48 611.162V620H58.3682V618.401H58.2949C58.0833 618.751 57.8107 619.06 57.4771 619.329C57.1434 619.597 56.7406 619.813 56.2686 619.976C55.7965 620.13 55.2432 620.208 54.6084 620.208ZM55.2188 618.401C55.8047 618.401 56.3296 618.287 56.7935 618.059C57.2573 617.831 57.6195 617.518 57.8799 617.119C58.1484 616.72 58.2827 616.261 58.2827 615.74V614.263H55.1455C54.2747 614.263 53.644 614.446 53.2534 614.812C52.8628 615.178 52.6675 615.65 52.6675 616.228C52.6675 616.969 52.9279 617.518 53.4487 617.876C53.9696 618.226 54.5596 618.401 55.2188 618.401Z" fill="#A6A6A6"/>
<rect x="78.6111" y="591" width="28.1111" height="45" rx="8.5" fill="#999999" fill-opacity="0.15"/>
<rect x="78.6111" y="591" width="28.1111" height="45" rx="8.5" fill="#121212" style="mix-blend-mode:plus-lighter"/>
<path d="M85.1184 610.845C85.1184 609.933 85.3422 609.193 85.7898 608.623C86.2456 608.045 86.8396 607.622 87.5721 607.354C88.3045 607.085 89.0817 606.951 89.9036 606.951C90.9127 606.951 91.755 607.122 92.4305 607.463C93.114 607.805 93.6308 608.269 93.9807 608.855C94.3307 609.433 94.5056 610.084 94.5056 610.808H92.4671C92.4427 610.483 92.345 610.161 92.1741 609.844C92.0113 609.518 91.7428 609.25 91.3684 609.038C90.9941 608.826 90.4814 608.721 89.8304 608.721C89.0817 608.721 88.4672 608.883 87.9871 609.209C87.5069 609.526 87.2669 609.994 87.2669 610.613C87.2669 610.971 87.3605 611.264 87.5476 611.492C87.743 611.72 87.9952 611.907 88.3045 612.053C88.6137 612.192 88.9555 612.306 89.3299 612.395C89.7124 612.476 90.0867 612.55 90.4529 612.615C91.2504 612.753 91.9788 612.944 92.638 613.188C93.3053 613.424 93.8383 613.778 94.2371 614.25C94.6359 614.714 94.8352 615.361 94.8352 616.191C94.8352 617.046 94.6196 617.774 94.1883 618.376C93.7651 618.979 93.1669 619.434 92.3938 619.744C91.6289 620.053 90.7377 620.208 89.7205 620.208C88.7602 620.208 87.9179 620.061 87.1936 619.768C86.4694 619.475 85.9038 619.056 85.4969 618.511C85.09 617.957 84.8865 617.298 84.8865 616.533H87.0471C87.1123 616.916 87.2587 617.249 87.4866 617.534C87.7226 617.819 88.04 618.043 88.4388 618.206C88.8457 618.36 89.3258 618.438 89.8792 618.438C90.5221 618.438 91.047 618.348 91.4539 618.169C91.8689 617.99 92.1741 617.75 92.3694 617.449C92.5729 617.148 92.6746 616.822 92.6746 616.472C92.6746 615.992 92.5281 615.626 92.2351 615.374C91.9503 615.121 91.5638 614.926 91.0755 614.788C90.5872 614.649 90.046 614.523 89.4519 614.409C88.6625 614.246 87.9383 614.039 87.2791 613.787C86.6199 613.526 86.095 613.164 85.7044 612.7C85.3138 612.236 85.1184 611.618 85.1184 610.845Z" fill="#A6A6A6"/>
<rect x="112.722" y="591" width="28.1111" height="45" rx="8.5" fill="#999999" fill-opacity="0.15"/>
<rect x="112.722" y="591" width="28.1111" height="45" rx="8.5" fill="#121212" style="mix-blend-mode:plus-lighter"/>
<path d="M123.282 606.963C123.844 606.963 124.365 607.048 124.845 607.219C125.325 607.39 125.744 607.626 126.102 607.927C126.46 608.228 126.745 608.57 126.957 608.953H127.03V602.458H129.239V620H127.115V618.059H127.054C126.875 618.393 126.655 618.694 126.395 618.962C126.143 619.223 125.858 619.443 125.541 619.622C125.223 619.801 124.873 619.939 124.491 620.037C124.116 620.134 123.714 620.183 123.282 620.183C122.176 620.183 121.24 619.931 120.475 619.426C119.718 618.922 119.144 618.218 118.753 617.314C118.363 616.403 118.168 615.349 118.168 614.153V612.993C118.168 611.821 118.371 610.784 118.778 609.88C119.185 608.977 119.767 608.265 120.523 607.744C121.288 607.223 122.208 606.963 123.282 606.963ZM123.636 608.867C123.018 608.867 122.46 609.022 121.964 609.331C121.476 609.64 121.093 610.108 120.816 610.735C120.54 611.361 120.401 612.143 120.401 613.079V614.08C120.401 615.015 120.54 615.797 120.816 616.423C121.101 617.05 121.488 617.518 121.976 617.827C122.473 618.136 123.038 618.291 123.673 618.291C124.373 618.291 124.975 618.128 125.48 617.803C125.992 617.469 126.383 616.993 126.651 616.375C126.928 615.748 127.066 614.987 127.066 614.092V613.079C127.066 612.224 126.928 611.484 126.651 610.857C126.375 610.222 125.98 609.734 125.467 609.392C124.955 609.042 124.344 608.867 123.636 608.867Z" fill="#A6A6A6"/>
<rect x="146.833" y="591" width="28.1111" height="45" rx="8.5" fill="#999999" fill-opacity="0.15"/>
<rect x="146.833" y="591" width="28.1111" height="45" rx="8.5" fill="#121212" style="mix-blend-mode:plus-lighter"/>
<path d="M156.576 620V608.989H154.842V607.158H156.576V605.876C156.576 604.648 156.893 603.74 157.528 603.154C158.171 602.568 159.159 602.275 160.494 602.275C160.722 602.275 160.917 602.288 161.08 602.312C161.243 602.328 161.377 602.345 161.483 602.361V604.131C161.393 604.115 161.3 604.102 161.202 604.094C161.104 604.086 160.974 604.082 160.811 604.082C160.128 604.082 159.615 604.22 159.273 604.497C158.94 604.774 158.773 605.291 158.773 606.047V607.158H161.3V608.989H158.785V620H156.576Z" fill="#A6A6A6"/>
<rect x="180.944" y="591" width="28.1111" height="45" rx="8.5" fill="#999999" fill-opacity="0.15"/>
<rect x="180.944" y="591" width="28.1111" height="45" rx="8.5" fill="#121212" style="mix-blend-mode:plus-lighter"/>
<path d="M191.956 622.893C192.965 622.893 193.767 622.612 194.361 622.051C194.955 621.497 195.252 620.724 195.252 619.731V617.852H195.179C195.057 618.128 194.878 618.389 194.642 618.633C194.414 618.877 194.137 619.093 193.812 619.28C193.494 619.467 193.14 619.613 192.75 619.719C192.367 619.825 191.956 619.878 191.517 619.878C190.524 619.878 189.641 619.65 188.868 619.194C188.103 618.73 187.501 618.055 187.061 617.168C186.63 616.281 186.414 615.199 186.414 613.921V612.871C186.414 611.61 186.63 610.54 187.061 609.661C187.492 608.782 188.091 608.114 188.856 607.659C189.629 607.195 190.516 606.963 191.517 606.963C192.103 606.963 192.64 607.056 193.128 607.244C193.624 607.423 194.052 607.667 194.41 607.976C194.776 608.277 195.057 608.611 195.252 608.977H195.313V607.158H197.462V619.78C197.462 620.61 197.311 621.331 197.01 621.941C196.709 622.559 196.302 623.072 195.789 623.479C195.276 623.894 194.691 624.199 194.031 624.395C193.372 624.598 192.68 624.7 191.956 624.7C190.858 624.7 189.934 624.533 189.185 624.199C188.436 623.874 187.855 623.426 187.44 622.856C187.033 622.287 186.784 621.648 186.695 620.94H188.941C189.022 621.274 189.189 621.591 189.441 621.892C189.702 622.193 190.044 622.433 190.467 622.612C190.89 622.799 191.386 622.893 191.956 622.893ZM191.993 608.843C191.285 608.843 190.678 609.01 190.174 609.343C189.678 609.669 189.295 610.141 189.026 610.759C188.766 611.378 188.636 612.135 188.636 613.03V613.823C188.636 614.694 188.766 615.443 189.026 616.069C189.295 616.696 189.678 617.18 190.174 617.522C190.678 617.856 191.285 618.022 191.993 618.022C192.684 618.022 193.27 617.852 193.751 617.51C194.239 617.168 194.609 616.688 194.861 616.069C195.122 615.443 195.252 614.694 195.252 613.823V613.03C195.252 612.175 195.118 611.435 194.849 610.808C194.581 610.181 194.202 609.697 193.714 609.355C193.234 609.014 192.66 608.843 191.993 608.843Z" fill="#A6A6A6"/>
<rect x="215.056" y="591" width="28.1111" height="45" rx="8.5" fill="#999999" fill-opacity="0.15"/>
<rect x="215.056" y="591" width="28.1111" height="45" rx="8.5" fill="#121212" style="mix-blend-mode:plus-lighter"/>
<path d="M221.123 620V602.458H223.333V608.879H223.406C223.561 608.603 223.797 608.318 224.114 608.025C224.432 607.724 224.838 607.472 225.335 607.268C225.839 607.056 226.438 606.951 227.129 606.951C228.456 606.951 229.55 607.362 230.413 608.184C231.284 609.006 231.719 610.198 231.719 611.76V620H229.51V612.151C229.51 611.435 229.379 610.841 229.119 610.369C228.867 609.889 228.509 609.53 228.045 609.294C227.581 609.05 227.044 608.928 226.433 608.928C225.717 608.928 225.131 609.083 224.676 609.392C224.22 609.693 223.882 610.092 223.662 610.588C223.443 611.085 223.333 611.626 223.333 612.212V620H221.123Z" fill="#A6A6A6"/>
<rect x="249.167" y="591" width="28.1111" height="45" rx="8.5" fill="#999999" fill-opacity="0.15"/>
<rect x="249.167" y="591" width="28.1111" height="45" rx="8.5" fill="#121212" style="mix-blend-mode:plus-lighter"/>
<path d="M259.019 604.058C259.019 603.667 259.153 603.341 259.422 603.081C259.698 602.812 260.028 602.678 260.41 602.678C260.801 602.678 261.131 602.812 261.399 603.081C261.676 603.341 261.814 603.667 261.814 604.058C261.814 604.44 261.676 604.766 261.399 605.034C261.131 605.295 260.801 605.425 260.41 605.425C260.028 605.425 259.698 605.295 259.422 605.034C259.153 604.766 259.019 604.44 259.019 604.058ZM261.521 607.158V620.305C261.521 621.298 261.375 622.104 261.082 622.722C260.797 623.341 260.39 623.792 259.861 624.077C259.332 624.362 258.701 624.504 257.969 624.504C257.757 624.504 257.525 624.492 257.273 624.468C257.013 624.443 256.834 624.419 256.736 624.395V622.661C256.834 622.677 256.956 622.69 257.102 622.698C257.249 622.714 257.391 622.722 257.529 622.722C258.18 622.722 258.64 622.527 258.909 622.136C259.177 621.746 259.312 621.127 259.312 620.281V607.158H261.521Z" fill="#A6A6A6"/>
<rect x="283.278" y="591" width="28.1111" height="45" rx="8.5" fill="#999999" fill-opacity="0.15"/>
<rect x="283.278" y="591" width="28.1111" height="45" rx="8.5" fill="#121212" style="mix-blend-mode:plus-lighter"/>
<path d="M292.617 615.386V620H290.408V602.458H292.617V612.798H292.703L297.732 607.158H300.442L295.413 612.737L300.759 620H298.061L293.765 614.116L292.617 615.386Z" fill="#A6A6A6"/>
<rect x="317.389" y="591" width="28.1111" height="45" rx="8.5" fill="#999999" fill-opacity="0.15"/>
<rect x="317.389" y="591" width="28.1111" height="45" rx="8.5" fill="#121212" style="mix-blend-mode:plus-lighter"/>
<path d="M327.534 620V602.458H329.743V620H327.534Z" fill="#A6A6A6"/>
<rect x="24.5" y="647" width="44.6667" height="45" rx="8.5" fill="#999999" fill-opacity="0.15"/>
<rect x="24.5" y="647" width="44.6667" height="45" rx="8.5" fill="#121212" style="mix-blend-mode:plus-lighter"/>
<path d="M43.4624 679.201C42.6987 679.201 42.1147 678.992 41.7104 678.572C41.3062 678.153 41.104 677.584 41.104 676.865V672.16H36.8701C36.4134 672.16 36.0316 672.036 35.7246 671.789C35.4176 671.535 35.2642 671.198 35.2642 670.778C35.2642 670.509 35.3203 670.277 35.4326 670.082C35.5449 669.887 35.7134 669.681 35.938 669.464L45.4277 659.975C45.6374 659.757 45.8507 659.593 46.0679 659.48C46.2925 659.368 46.5283 659.312 46.7754 659.312C47.0225 659.312 47.2583 659.368 47.4829 659.48C47.7075 659.593 47.9209 659.757 48.123 659.975L57.624 669.464C57.8337 669.674 57.9984 669.88 58.1182 670.082C58.238 670.284 58.2979 670.516 58.2979 670.778C58.2979 671.198 58.1444 671.535 57.8374 671.789C57.5304 672.036 57.1486 672.16 56.6919 672.16H52.4468V676.865C52.4468 677.584 52.2446 678.153 51.8403 678.572C51.4435 678.992 50.8595 679.201 50.0884 679.201H43.4624ZM43.7544 677.337H49.7964C49.9836 677.337 50.137 677.273 50.2568 677.146C50.3841 677.026 50.4478 676.873 50.4478 676.686V670.756C50.4478 670.516 50.5675 670.396 50.8071 670.396H55.5688C55.6437 670.396 55.6812 670.37 55.6812 670.318C55.6812 670.28 55.6624 670.239 55.625 670.194L46.9888 661.614C46.9513 661.577 46.9139 661.551 46.8765 661.536C46.8465 661.513 46.8128 661.502 46.7754 661.502C46.738 661.502 46.7043 661.513 46.6743 661.536C46.6444 661.551 46.6069 661.577 46.562 661.614L37.937 670.194C37.8921 670.239 37.8696 670.28 37.8696 670.318C37.8696 670.37 37.9071 670.396 37.9819 670.396H42.7549C42.987 670.396 43.103 670.516 43.103 670.756V676.686C43.103 676.873 43.1629 677.026 43.2827 677.146C43.4025 677.273 43.5597 677.337 43.7544 677.337Z" fill="#A6A6A6"/>
<rect x="83.4167" y="647" width="26.6905" height="45" rx="8.5" fill="#999999" fill-opacity="0.15"/>
<rect x="83.4167" y="647" width="26.6905" height="45" rx="8.5" fill="#121212" style="mix-blend-mode:plus-lighter"/>
<path d="M88.9606 676V674.413L95.7843 665.124V665.05H89.0094V663.158H98.5187V664.77L91.7316 674.035V674.108H98.6042V676H88.9606Z" fill="#A6A6A6"/>
<rect x="116.107" y="647" width="26.6905" height="45" rx="8.5" fill="#999999" fill-opacity="0.15"/>
<rect x="116.107" y="647" width="26.6905" height="45" rx="8.5" fill="#121212" style="mix-blend-mode:plus-lighter"/>
<path d="M129.512 676L126.302 671.19H126.278L123.092 676H120.613L124.984 669.579C124.748 669.213 124.512 668.855 124.276 668.505C124.04 668.147 123.8 667.793 123.555 667.443C123.319 667.085 123.083 666.727 122.847 666.369C122.611 666.011 122.371 665.657 122.127 665.307C121.891 664.949 121.655 664.59 121.419 664.232C121.183 663.874 120.943 663.516 120.699 663.158H123.336L126.424 667.98H126.436L129.525 663.158H132.039L127.73 669.579C127.966 669.937 128.206 670.295 128.45 670.653C128.703 671.003 128.951 671.357 129.195 671.715C129.439 672.073 129.683 672.431 129.927 672.79C130.172 673.139 130.416 673.498 130.66 673.864C130.904 674.222 131.148 674.58 131.392 674.938C131.636 675.288 131.881 675.642 132.125 676H129.512Z" fill="#A6A6A6"/>
<rect x="148.798" y="647" width="26.6905" height="45" rx="8.5" fill="#999999" fill-opacity="0.15"/>
<rect x="148.798" y="647" width="26.6905" height="45" rx="8.5" fill="#121212" style="mix-blend-mode:plus-lighter"/>
<path d="M154 670.141V668.896C154 667.74 154.211 666.715 154.635 665.819C155.058 664.916 155.668 664.212 156.466 663.708C157.271 663.203 158.236 662.951 159.359 662.951C160.368 662.951 161.23 663.146 161.947 663.537C162.663 663.919 163.224 664.416 163.631 665.026C164.038 665.636 164.258 666.275 164.29 666.942H162.142C162.052 666.584 161.886 666.247 161.641 665.929C161.397 665.612 161.092 665.355 160.726 665.16C160.368 664.965 159.961 664.867 159.505 664.867C158.463 664.867 157.654 665.233 157.076 665.966C156.498 666.698 156.209 667.703 156.209 668.981V670.165C156.209 671.41 156.506 672.407 157.1 673.156C157.703 673.904 158.508 674.279 159.517 674.279C160.046 674.279 160.498 674.193 160.872 674.022C161.247 673.852 161.548 673.624 161.776 673.339C162.004 673.054 162.154 672.745 162.227 672.411H164.376C164.246 673.16 163.969 673.823 163.546 674.401C163.131 674.971 162.577 675.414 161.886 675.731C161.194 676.049 160.351 676.208 159.359 676.208C158.219 676.208 157.251 675.943 156.453 675.414C155.656 674.885 155.046 674.165 154.622 673.253C154.207 672.334 154 671.296 154 670.141Z" fill="#A6A6A6"/>
<rect x="181.488" y="647" width="26.6905" height="45" rx="8.5" fill="#999999" fill-opacity="0.15"/>
<rect x="181.488" y="647" width="26.6905" height="45" rx="8.5" fill="#121212" style="mix-blend-mode:plus-lighter"/>
<path d="M190.487 676L186.019 663.158H188.35L191.634 673.412H191.707L195.235 663.158H197.469L192.879 676H190.487Z" fill="#A6A6A6"/>
<rect x="214.179" y="647" width="26.6905" height="45" rx="8.5" fill="#999999" fill-opacity="0.15"/>
<rect x="214.179" y="647" width="26.6905" height="45" rx="8.5" fill="#121212" style="mix-blend-mode:plus-lighter"/>
<path d="M225.167 676.195C224.557 676.195 224.011 676.11 223.531 675.939C223.051 675.768 222.628 675.524 222.262 675.207C221.895 674.889 221.59 674.507 221.346 674.059H221.273V676H219.149V658.458H221.358V664.928H221.432C221.594 664.643 221.802 664.383 222.054 664.147C222.314 663.903 222.607 663.695 222.933 663.524C223.267 663.345 223.625 663.207 224.007 663.109C224.39 663.012 224.784 662.963 225.191 662.963C226.192 662.963 227.071 663.195 227.828 663.659C228.593 664.123 229.191 664.802 229.622 665.697C230.054 666.584 230.269 667.671 230.269 668.957V670.189C230.269 671.435 230.058 672.509 229.635 673.412C229.211 674.307 228.617 674.995 227.852 675.475C227.087 675.955 226.192 676.195 225.167 676.195ZM224.837 674.291C225.472 674.291 226.025 674.128 226.497 673.803C226.978 673.477 227.352 673.001 227.62 672.375C227.897 671.748 228.036 670.983 228.036 670.08V669.079C228.036 668.167 227.897 667.402 227.62 666.784C227.352 666.157 226.978 665.681 226.497 665.355C226.017 665.03 225.464 664.867 224.837 664.867C224.113 664.867 223.486 665.03 222.957 665.355C222.437 665.673 222.034 666.145 221.749 666.771C221.472 667.39 221.334 668.159 221.334 669.079V670.055C221.334 670.967 221.472 671.74 221.749 672.375C222.026 673.001 222.424 673.477 222.945 673.803C223.474 674.128 224.105 674.291 224.837 674.291Z" fill="#A6A6A6"/>
<rect x="246.869" y="647" width="26.6905" height="45" rx="8.5" fill="#999999" fill-opacity="0.15"/>
<rect x="246.869" y="647" width="26.6905" height="45" rx="8.5" fill="#121212" style="mix-blend-mode:plus-lighter"/>
<path d="M251.925 676V663.158H254.122V664.879H254.183C254.338 664.603 254.574 664.318 254.891 664.025C255.217 663.724 255.632 663.472 256.136 663.268C256.641 663.056 257.239 662.951 257.931 662.951C259.249 662.951 260.343 663.362 261.214 664.184C262.085 665.006 262.52 666.198 262.52 667.76V676H260.311V668.151C260.311 667.435 260.181 666.841 259.92 666.369C259.66 665.889 259.298 665.53 258.834 665.294C258.378 665.05 257.845 664.928 257.235 664.928C256.519 664.928 255.929 665.083 255.465 665.392C255.009 665.693 254.671 666.092 254.452 666.588C254.24 667.085 254.134 667.626 254.134 668.212V676H251.925Z" fill="#A6A6A6"/>
<rect x="279.56" y="647" width="26.6905" height="45" rx="8.5" fill="#999999" fill-opacity="0.15"/>
<rect x="279.56" y="647" width="26.6905" height="45" rx="8.5" fill="#121212" style="mix-blend-mode:plus-lighter"/>
<path d="M281.051 676V663.158H283.248V664.757H283.358C283.496 664.464 283.712 664.18 284.005 663.903C284.298 663.626 284.66 663.398 285.091 663.219C285.531 663.04 286.039 662.951 286.617 662.951C287.284 662.951 287.862 663.036 288.351 663.207C288.847 663.378 289.254 663.618 289.571 663.927C289.897 664.236 290.141 664.607 290.304 665.038H290.401C290.572 664.664 290.829 664.322 291.17 664.013C291.52 663.695 291.96 663.439 292.489 663.244C293.026 663.048 293.644 662.951 294.344 662.951C295.695 662.951 296.749 663.341 297.506 664.123C298.263 664.896 298.641 665.941 298.641 667.26V676H296.444V667.736C296.444 667.191 296.338 666.706 296.126 666.283C295.923 665.86 295.622 665.526 295.223 665.282C294.824 665.038 294.324 664.916 293.722 664.916C293.136 664.916 292.631 665.046 292.208 665.307C291.793 665.559 291.476 665.909 291.256 666.356C291.044 666.804 290.938 667.325 290.938 667.919V676H288.753V667.931C288.753 667.272 288.643 666.723 288.424 666.283C288.204 665.836 287.891 665.498 287.484 665.27C287.077 665.034 286.589 664.916 286.019 664.916C285.506 664.916 285.038 665.03 284.615 665.258C284.2 665.486 283.871 665.823 283.626 666.271C283.382 666.71 283.26 667.252 283.26 667.895V676H281.051Z" fill="#A6A6A6"/>
<rect x="320.5" y="647" width="45" height="45" rx="8.5" fill="#999999" fill-opacity="0.15"/>
<rect x="320.5" y="647" width="45" height="45" rx="8.5" fill="#121212" style="mix-blend-mode:plus-lighter"/>
<path d="M350.637 679.19H341.439C340.99 679.19 340.57 679.141 340.181 679.044C339.799 678.954 339.436 678.808 339.092 678.606C338.755 678.404 338.433 678.142 338.126 677.82L331.994 671.407C331.62 671.018 331.35 670.659 331.186 670.329C331.028 669.992 330.95 669.659 330.95 669.33C330.95 669.105 330.983 668.884 331.051 668.667C331.126 668.45 331.238 668.225 331.388 667.993C331.545 667.761 331.747 667.514 331.994 667.252L338.115 660.817C338.422 660.487 338.744 660.229 339.081 660.042C339.425 659.847 339.788 659.709 340.17 659.626C340.559 659.537 340.979 659.492 341.428 659.492H350.637C351.767 659.492 352.621 659.776 353.197 660.345C353.774 660.907 354.062 661.749 354.062 662.872V675.866C354.062 676.989 353.774 677.824 353.197 678.37C352.621 678.917 351.767 679.19 350.637 679.19ZM350.569 677.292C351.078 677.292 351.468 677.157 351.737 676.888C352.014 676.618 352.153 676.218 352.153 675.686V663.007C352.153 662.475 352.014 662.075 351.737 661.805C351.468 661.536 351.078 661.401 350.569 661.401H341.372C340.99 661.401 340.66 661.45 340.383 661.547C340.106 661.637 339.833 661.82 339.563 662.097L333.477 668.487C333.185 668.802 333.039 669.083 333.039 669.33C333.039 669.457 333.069 669.588 333.128 669.723C333.196 669.85 333.312 670.003 333.477 670.183L339.575 676.54C339.844 676.817 340.114 677.011 340.383 677.124C340.66 677.236 340.993 677.292 341.383 677.292H350.569ZM340.911 673.822C340.657 673.822 340.439 673.732 340.26 673.552C340.088 673.373 340.001 673.159 340.001 672.912C340.001 672.658 340.095 672.444 340.282 672.272L343.191 669.352L340.282 666.432C340.095 666.26 340.001 666.05 340.001 665.803C340.001 665.549 340.088 665.335 340.26 665.163C340.439 664.991 340.657 664.905 340.911 664.905C341.166 664.905 341.375 664.995 341.54 665.174L344.46 668.083L347.402 665.163C347.59 664.983 347.803 664.894 348.042 664.894C348.29 664.894 348.503 664.98 348.683 665.152C348.862 665.324 348.952 665.541 348.952 665.803C348.952 666.043 348.859 666.249 348.671 666.421L345.751 669.352L348.66 672.261C348.847 672.448 348.941 672.665 348.941 672.912C348.941 673.159 348.851 673.373 348.671 673.552C348.492 673.732 348.278 673.822 348.031 673.822C347.777 673.822 347.56 673.728 347.38 673.541L344.46 670.644L341.562 673.541C341.398 673.728 341.181 673.822 340.911 673.822Z" fill="#A6A6A6"/>
<rect x="24.5" y="703" width="91.67" height="45" rx="8.5" fill="#999999" fill-opacity="0.15"/>
<rect x="24.5" y="703" width="91.67" height="45" rx="8.5" fill="#121212" style="mix-blend-mode:plus-lighter"/>
<path d="M55.5586 732.114C55.1191 732.114 54.8291 731.859 54.8291 731.455C54.8291 731.279 54.873 731.112 54.9434 730.901L58.5557 720.803C58.7754 720.188 59.083 719.906 59.6455 719.906C60.208 719.906 60.5156 720.188 60.7354 720.803L64.3477 730.901C64.418 731.095 64.4619 731.279 64.4619 731.446C64.4619 731.859 64.1719 732.114 63.7236 732.114C63.3018 732.114 63.0645 731.912 62.8975 731.394L61.8867 728.396H57.3955L56.3848 731.394C56.2178 731.921 55.9805 732.114 55.5586 732.114ZM57.8086 727.157H61.4736L59.6719 721.813H59.6104L57.8086 727.157ZM66.3604 730.699V721.304C66.3604 720.372 66.7646 720.003 67.7754 720.003H70.8604C72.9082 720.003 74.1914 721.146 74.1914 722.956C74.1914 724.292 73.5146 725.224 72.2754 725.61V725.672C73.9014 725.892 74.877 726.99 74.877 728.643C74.877 730.726 73.2861 732 70.6846 732H67.7754C66.7646 732 66.3604 731.631 66.3604 730.699ZM67.8896 725.171H69.7266C71.7393 725.171 72.6445 724.556 72.6445 723.22C72.6445 722.033 71.8975 721.348 70.6143 721.348H67.8896V725.171ZM67.8896 730.655H69.9727C72.3457 730.655 73.3037 730.066 73.3037 728.651C73.3037 727.28 72.3809 726.489 70.7812 726.489H67.8896V730.655ZM76.626 726.955V725.048C76.626 721.717 78.3486 719.748 81.3193 719.748C82.7783 719.748 83.9209 720.214 84.7646 721.075C85.3535 721.69 85.7314 722.464 85.7314 722.974C85.7314 723.404 85.4678 723.659 85.0635 723.659C84.7207 723.659 84.501 723.519 84.2549 723.053C83.5518 721.743 82.6465 721.137 81.3809 721.137C79.3154 721.137 78.1641 722.561 78.1641 725.057V726.946C78.1641 729.469 79.3154 730.875 81.3809 730.875C82.6641 730.875 83.6309 730.277 84.29 728.994C84.5361 728.555 84.7207 728.388 85.0459 728.388C85.4854 728.388 85.7314 728.66 85.7314 729.073C85.7314 729.609 85.3359 730.392 84.7383 730.989C83.9121 731.815 82.7607 732.255 81.3193 732.255C78.3398 732.255 76.626 730.321 76.626 726.955Z" fill="#A6A6A6"/>
<rect x="122.17" y="703" width="145.33" height="45" rx="8.5" fill="#999999" fill-opacity="0.15"/>
<rect x="122.17" y="703" width="145.33" height="45" rx="8.5" fill="#121212" style="mix-blend-mode:plus-lighter"/>
<path d="M273.5 716.6C273.5 711.84 273.5 709.459 274.426 707.641C275.241 706.042 276.542 704.741 278.141 703.926C279.959 703 282.34 703 287.1 703H351.9C356.66 703 359.041 703 360.859 703.926C362.458 704.741 363.759 706.042 364.574 707.641C365.5 709.459 365.5 711.84 365.5 716.6V734.4C365.5 739.16 365.5 741.541 364.574 743.359C363.759 744.958 362.458 746.259 360.859 747.074C359.041 748 356.66 748 351.9 748H287.1C282.34 748 279.959 748 278.141 747.074C276.542 746.259 275.241 744.958 274.426 743.359C273.5 741.541 273.5 739.16 273.5 734.4V716.6Z" fill="#0091FF"/>
<path d="M316.04 733.373C315.811 733.373 315.613 733.29 315.446 733.123L309.991 727.77C309.898 727.677 309.827 727.578 309.777 727.473C309.734 727.368 309.712 727.259 309.712 727.148C309.712 727.03 309.734 726.919 309.777 726.814C309.827 726.709 309.898 726.613 309.991 726.526L315.446 721.173C315.613 721 315.811 720.914 316.04 720.914C316.287 720.914 316.485 720.991 316.633 721.146C316.788 721.3 316.865 721.495 316.865 721.73C316.865 721.854 316.844 721.962 316.8 722.055C316.763 722.147 316.711 722.231 316.643 722.305L313.961 724.912L311.67 726.87L311.503 726.443L314.379 726.322H326.226C326.715 726.322 327.07 726.211 327.293 725.988C327.516 725.759 327.627 725.391 327.627 724.884V719.401C327.627 718.907 327.516 718.548 327.293 718.325C327.07 718.103 326.715 717.991 326.226 717.991H321.031C320.771 717.991 320.564 717.911 320.409 717.75C320.261 717.589 320.187 717.394 320.187 717.166C320.187 716.937 320.264 716.742 320.418 716.581C320.573 716.42 320.777 716.34 321.031 716.34H326.226C327.308 716.34 328.088 716.581 328.564 717.063C329.046 717.54 329.288 718.319 329.288 719.401V724.884C329.288 725.936 329.046 726.715 328.564 727.222C328.088 727.723 327.308 727.974 326.226 727.974H314.379L311.503 727.844L311.67 727.417L313.961 729.384L316.643 731.991C316.711 732.065 316.763 732.148 316.8 732.241C316.844 732.334 316.865 732.439 316.865 732.557C316.865 732.798 316.788 732.993 316.633 733.141C316.485 733.296 316.287 733.373 316.04 733.373Z" fill="white"/>
<path d="M65.45 793.39C63.34 793.39 61.1 793.09 59.06 792.57C58.68 791.99 58.4 791.37 58.27 790.74C60.42 791.35 62.92 791.77 65.46 791.77C68 791.77 70.5 791.35 72.66 790.74C72.51 791.37 72.24 791.99 71.87 792.57C69.83 793.08 67.59 793.39 65.46 793.39H65.45ZM65.45 797.46C69.97 797.46 73.6 794.14 74.1 790.2C74.21 789.41 73.69 789.05 72.99 789.25C70.45 790 68.07 790.42 65.45 790.42C62.83 790.42 60.47 790 57.92 789.25C57.22 789.05 56.71 789.41 56.81 790.2C57.3 794.14 60.92 797.46 65.45 797.46ZM69.35 787.28C70.18 787.28 70.92 786.53 70.92 785.47C70.92 784.41 70.18 783.65 69.35 783.65C68.52 783.65 67.79 784.41 67.79 785.47C67.79 786.53 68.52 787.28 69.35 787.28ZM61.53 787.28C62.37 787.28 63.11 786.53 63.11 785.47C63.11 784.41 62.37 783.65 61.53 783.65C60.69 783.65 59.99 784.41 59.99 785.47C59.99 786.53 60.7 787.28 61.53 787.28ZM65.46 799.63C59.26 799.63 54.29 794.66 54.29 788.45C54.29 782.24 59.25 777.28 65.45 777.28C71.65 777.28 76.64 782.25 76.64 788.46C76.64 794.67 71.67 799.64 65.46 799.64V799.63ZM65.46 801.91C72.82 801.91 78.92 795.81 78.92 788.45C78.92 781.09 72.82 775 65.45 775C58.08 775 52 781.1 52 788.46C52 795.82 58.1 801.92 65.46 801.92V801.91Z" fill="white" fill-opacity="0.73"/>
<path d="M316.134 788.935V786.259C316.134 785.986 316.231 785.753 316.424 785.56C316.618 785.367 316.851 785.27 317.123 785.27C317.404 785.27 317.642 785.367 317.835 785.56C318.028 785.753 318.125 785.986 318.125 786.259V788.856C318.125 790.35 318.433 791.66 319.048 792.785C319.663 793.91 320.529 794.784 321.645 795.408C322.761 796.023 324.071 796.331 325.574 796.331C327.077 796.331 328.382 796.023 329.489 795.408C330.605 794.784 331.471 793.91 332.086 792.785C332.702 791.66 333.009 790.35 333.009 788.856V786.259C333.009 785.986 333.106 785.753 333.299 785.56C333.493 785.367 333.73 785.27 334.011 785.27C334.284 785.27 334.517 785.367 334.71 785.56C334.903 785.753 335 785.986 335 786.259V788.935C335 790.658 334.644 792.187 333.932 793.523C333.229 794.859 332.245 795.931 330.979 796.74C329.713 797.54 328.241 798.01 326.562 798.15V801.222H331.454C331.735 801.222 331.972 801.319 332.166 801.512C332.359 801.706 332.456 801.943 332.456 802.224C332.456 802.497 332.359 802.729 332.166 802.923C331.972 803.116 331.735 803.213 331.454 803.213H319.681C319.399 803.213 319.162 803.116 318.969 802.923C318.775 802.729 318.679 802.497 318.679 802.224C318.679 801.943 318.775 801.706 318.969 801.512C319.162 801.319 319.399 801.222 319.681 801.222H324.572V798.15C322.893 798.01 321.421 797.54 320.155 796.74C318.89 795.931 317.901 794.859 317.189 793.523C316.486 792.187 316.134 790.658 316.134 788.935ZM320.775 788.46V780.168C320.775 779.157 320.977 778.265 321.381 777.492C321.786 776.709 322.348 776.099 323.069 775.659C323.79 775.22 324.625 775 325.574 775C326.514 775 327.345 775.22 328.065 775.659C328.786 776.099 329.349 776.709 329.753 777.492C330.157 778.265 330.359 779.157 330.359 780.168V788.46C330.359 789.471 330.157 790.368 329.753 791.15C329.349 791.923 328.786 792.53 328.065 792.969C327.345 793.409 326.514 793.628 325.574 793.628C324.625 793.628 323.79 793.409 323.069 792.969C322.348 792.53 321.786 791.923 321.381 791.15C320.977 790.368 320.775 789.471 320.775 788.46ZM322.766 788.46C322.766 789.436 323.021 790.214 323.53 790.794C324.049 791.374 324.73 791.664 325.574 791.664C326.417 791.664 327.094 791.374 327.604 790.794C328.114 790.214 328.369 789.436 328.369 788.46V780.168C328.369 779.192 328.114 778.415 327.604 777.834C327.094 777.254 326.417 776.964 325.574 776.964C324.73 776.964 324.049 777.254 323.53 777.834C323.021 778.415 322.766 779.192 322.766 780.168V788.46Z" fill="white" fill-opacity="0.73"/>
</g>
<defs>
<clipPath id="bgblur_3_377_2636_clip_path" transform="translate(16 -384)"><rect x="16" y="416" width="358" height="58" rx="29"/>
</clipPath><clipPath id="clip0_377_2636">
<path d="M0 24C0 10.7452 10.7452 0 24 0H366C379.255 0 390 10.7452 390 24V820C390 833.255 379.255 844 366 844H24C10.7452 844 0 833.255 0 820V24Z" fill="white"/>
</clipPath>
<clipPath id="clip1_377_2636">
<rect width="390" height="48" fill="white"/>
</clipPath>
<clipPath id="clip2_377_2636">
<rect x="16" y="416" width="358" height="58" rx="29" fill="white"/>
</clipPath>
</defs>
</svg>

